<svg width="17" height="17" viewBox="0 0 17 17" fill="none" xmlns="http://www.w3.org/2000/svg">
<path d="M13.0996 2.25H12.1621V1.3125C12.1621 1.14 12.0221 1 11.8496 1C11.6771 1 11.5371 1.14 11.5371 1.3125V2.25H5.28711V1.3125C5.28711 1.14 5.14711 1 4.97461 1C4.80211 1 4.66211 1.14 4.66211 1.3125V2.25H3.72461C2.17398 2.25 0.912109 3.51188 0.912109 5.0625V13.1875C0.912109 14.7381 2.17398 16 3.72461 16H13.0996C14.6502 16 15.9121 14.7381 15.9121 13.1875V5.0625C15.9121 3.51188 14.6502 2.25 13.0996 2.25ZM13.0996 15.375H3.72461C2.51836 15.375 1.53711 14.3937 1.53711 13.1875V6.625H6.22461C6.39711 6.625 6.53711 6.485 6.53711 6.3125C6.53711 6.14 6.39711 6 6.22461 6H1.53711V5.0625C1.53711 3.85625 2.51836 2.875 3.72461 2.875H13.0996C14.3059 2.875 15.2871 3.85625 15.2871 5.0625V6H10.5996C10.4271 6 10.2871 6.14 10.2871 6.3125C10.2871 6.485 10.4271 6.625 10.5996 6.625H15.2871V13.1875C15.2871 14.3937 14.3059 15.375 13.0996 15.375ZM8.09961 11.3125V6.3125C8.09961 6.14 8.23961 6 8.41211 6C8.58461 6 8.72461 6.14 8.72461 6.3125V11.3125C8.72461 11.485 8.58461 11.625 8.41211 11.625C8.23961 11.625 8.09961 11.485 8.09961 11.3125ZM9.03711 13.5C9.03711 13.845 8.75711 14.125 8.41211 14.125C8.06711 14.125 7.78711 13.845 7.78711 13.5C7.78711 13.155 8.06711 12.875 8.41211 12.875C8.75711 12.875 9.03711 13.155 9.03711 13.5Z" fill="black" stroke="black" stroke-width="0.3"/>
</svg>
