<svg width="14" height="15" viewBox="0 0 14 15" fill="none" xmlns="http://www.w3.org/2000/svg">
<path d="M4.74414 3C4.47081 3 4.24414 2.77333 4.24414 2.5V0.5C4.24414 0.226667 4.47081 0 4.74414 0C5.01747 0 5.24414 0.226667 5.24414 0.5V2.5C5.24414 2.77333 5.01747 3 4.74414 3Z" fill="black"/>
<path d="M10.0781 3C9.80479 3 9.57812 2.77333 9.57812 2.5V0.5C9.57812 0.226667 9.80479 0 10.0781 0C10.3515 0 10.5781 0.226667 10.5781 0.5V2.5C10.5781 2.77333 10.3515 3 10.0781 3Z" fill="black"/>
<path d="M5.07878 8.83354C4.99211 8.83354 4.90544 8.81354 4.82544 8.7802C4.73878 8.74687 4.67211 8.7002 4.60544 8.6402C4.48544 8.51354 4.41211 8.34687 4.41211 8.16687C4.41211 8.0802 4.43211 7.99354 4.46544 7.91354C4.49878 7.83354 4.54544 7.7602 4.60544 7.69354C4.67211 7.63354 4.73878 7.58687 4.82544 7.55354C5.06544 7.45354 5.36544 7.50687 5.55211 7.69354C5.67211 7.8202 5.74544 7.99354 5.74544 8.16687C5.74544 8.20687 5.73878 8.25354 5.73211 8.3002C5.72544 8.3402 5.71211 8.3802 5.69211 8.4202C5.67878 8.4602 5.65878 8.5002 5.63211 8.5402C5.61211 8.57354 5.57878 8.60687 5.55211 8.6402C5.42544 8.7602 5.25211 8.83354 5.07878 8.83354Z" fill="black"/>
<path d="M7.41276 8.83259C7.32609 8.83259 7.23943 8.81259 7.15943 8.77926C7.07276 8.74593 7.00609 8.69926 6.93943 8.63926C6.81943 8.51259 6.74609 8.34593 6.74609 8.16593C6.74609 8.07926 6.76609 7.99259 6.79943 7.91259C6.83276 7.83259 6.87943 7.75926 6.93943 7.69259C7.00609 7.63259 7.07276 7.58593 7.15943 7.55259C7.39943 7.44593 7.69943 7.50593 7.88609 7.69259C8.00609 7.81926 8.07943 7.99259 8.07943 8.16593C8.07943 8.20593 8.07276 8.25259 8.06609 8.29926C8.05943 8.33926 8.04609 8.37926 8.02609 8.41926C8.01276 8.45926 7.99276 8.49926 7.96609 8.53926C7.94609 8.57259 7.91276 8.60593 7.88609 8.63926C7.75943 8.75926 7.58609 8.83259 7.41276 8.83259Z" fill="black"/>
<path d="M9.74674 8.83259C9.66008 8.83259 9.57341 8.81259 9.49341 8.77926C9.40674 8.74593 9.34008 8.69926 9.27341 8.63926C9.24674 8.60593 9.22008 8.57259 9.19341 8.53926C9.16674 8.49926 9.14674 8.45926 9.13341 8.41926C9.11341 8.37926 9.10008 8.33926 9.09341 8.29926C9.08675 8.25259 9.08008 8.20593 9.08008 8.16593C9.08008 7.99259 9.15341 7.81926 9.27341 7.69259C9.34008 7.63259 9.40674 7.58593 9.49341 7.55259C9.74008 7.44593 10.0334 7.50593 10.2201 7.69259C10.3401 7.81926 10.4134 7.99259 10.4134 8.16593C10.4134 8.20593 10.4067 8.25259 10.4001 8.29926C10.3934 8.33926 10.3801 8.37926 10.3601 8.41926C10.3467 8.45926 10.3267 8.49926 10.3001 8.53926C10.2801 8.57259 10.2467 8.60593 10.2201 8.63926C10.0934 8.75926 9.92008 8.83259 9.74674 8.83259Z" fill="black"/>
<path d="M5.07878 11.1667C4.99211 11.1667 4.90544 11.1468 4.82544 11.1135C4.74544 11.0801 4.67211 11.0334 4.60544 10.9734C4.48544 10.8467 4.41211 10.6734 4.41211 10.5001C4.41211 10.4134 4.43211 10.3267 4.46544 10.2467C4.49878 10.1601 4.54544 10.0868 4.60544 10.0268C4.85211 9.78013 5.30544 9.78013 5.55211 10.0268C5.67211 10.1535 5.74544 10.3267 5.74544 10.5001C5.74544 10.6734 5.67211 10.8467 5.55211 10.9734C5.42544 11.0934 5.25211 11.1667 5.07878 11.1667Z" fill="black"/>
<path d="M7.41276 11.1667C7.23943 11.1667 7.06609 11.0934 6.93943 10.9734C6.81943 10.8467 6.74609 10.6734 6.74609 10.5001C6.74609 10.4134 6.76609 10.3267 6.79943 10.2467C6.83276 10.1601 6.87943 10.0868 6.93943 10.0268C7.18609 9.78013 7.63943 9.78013 7.88609 10.0268C7.94609 10.0868 7.99276 10.1601 8.02609 10.2467C8.05943 10.3267 8.07943 10.4134 8.07943 10.5001C8.07943 10.6734 8.00609 10.8467 7.88609 10.9734C7.75943 11.0934 7.58609 11.1667 7.41276 11.1667Z" fill="black"/>
<path d="M9.74674 11.166C9.57341 11.166 9.40008 11.0926 9.27341 10.9726C9.21341 10.9126 9.16674 10.8393 9.13341 10.7526C9.10008 10.6726 9.08008 10.586 9.08008 10.4993C9.08008 10.4126 9.10008 10.326 9.13341 10.246C9.16674 10.1593 9.21341 10.086 9.27341 10.026C9.42674 9.87262 9.66008 9.79929 9.87341 9.84595C9.92008 9.85262 9.96008 9.86595 10.0001 9.88595C10.0401 9.89929 10.0801 9.91929 10.1201 9.94595C10.1534 9.96595 10.1867 9.99929 10.2201 10.026C10.3401 10.1526 10.4134 10.326 10.4134 10.4993C10.4134 10.6726 10.3401 10.846 10.2201 10.9726C10.0934 11.0926 9.92008 11.166 9.74674 11.166Z" fill="black"/>
<path d="M13.0775 5.72656H1.74414C1.47081 5.72656 1.24414 5.4999 1.24414 5.22656C1.24414 4.95323 1.47081 4.72656 1.74414 4.72656H13.0775C13.3508 4.72656 13.5775 4.95323 13.5775 5.22656C13.5775 5.4999 13.3508 5.72656 13.0775 5.72656Z" fill="black"/>
<path d="M10.0788 14.3333H4.74544C2.31211 14.3333 0.912109 12.9333 0.912109 10.5V4.83333C0.912109 2.4 2.31211 1 4.74544 1H10.0788C12.5121 1 13.9121 2.4 13.9121 4.83333V10.5C13.9121 12.9333 12.5121 14.3333 10.0788 14.3333ZM4.74544 2C2.83878 2 1.91211 2.92667 1.91211 4.83333V10.5C1.91211 12.4067 2.83878 13.3333 4.74544 13.3333H10.0788C11.9854 13.3333 12.9121 12.4067 12.9121 10.5V4.83333C12.9121 2.92667 11.9854 2 10.0788 2H4.74544Z" fill="black"/>
</svg>
