<svg width="11" height="10" viewBox="0 0 11 10" fill="none" xmlns="http://www.w3.org/2000/svg">
<path d="M9.43968 1.7502H9.082C8.9724 1.75152 8.86469 1.7217 8.77138 1.66421C8.67807 1.60673 8.60299 1.52393 8.55488 1.42546L8.13131 0.715382C8.02467 0.499698 7.85961 0.318291 7.65492 0.191817C7.45023 0.0653443 7.21415 -0.00111251 6.97354 1.40895e-05H4.37562C4.13502 -0.00111251 3.89893 0.0653443 3.69425 0.191817C3.48956 0.318291 3.3245 0.499698 3.21786 0.715382L2.79428 1.42546C2.74618 1.52393 2.6711 1.60673 2.57779 1.66421C2.48448 1.7217 2.37676 1.75152 2.26717 1.7502H1.90949C1.56623 1.7502 1.23703 1.88655 0.994312 2.12927C0.751593 2.37199 0.615234 2.70119 0.615234 3.04445V7.75082C0.615234 8.09408 0.751593 8.42327 0.994312 8.66599C1.23703 8.90871 1.56623 9.04507 1.90949 9.04507H9.43968C9.78294 9.04507 10.1121 8.90871 10.3549 8.66599C10.5976 8.42327 10.7339 8.09408 10.7339 7.75082V3.04445C10.7339 2.70119 10.5976 2.37199 10.3549 2.12927C10.1121 1.88655 9.78294 1.7502 9.43968 1.7502ZM5.67458 7.39784C5.1859 7.39784 4.70818 7.25293 4.30186 6.98143C3.89553 6.70993 3.57883 6.32403 3.39182 5.87255C3.20481 5.42106 3.15588 4.92425 3.25121 4.44496C3.34655 3.96566 3.58188 3.5254 3.92743 3.17984C4.27299 2.83429 4.71325 2.59897 5.19254 2.50363C5.67184 2.40829 6.16865 2.45722 6.62013 2.64423C7.07162 2.83125 7.45752 3.14794 7.72902 3.55427C8.00051 3.9606 8.14543 4.43831 8.14543 4.927C8.14418 5.58192 7.88346 6.20967 7.42036 6.67277C6.95726 7.13588 6.32951 7.3966 5.67458 7.39784Z" fill="black"/>
<path d="M5.67505 6.69189C6.64977 6.69189 7.43993 5.90172 7.43993 4.927C7.43993 3.95228 6.64977 3.16211 5.67505 3.16211C4.70032 3.16211 3.91016 3.95228 3.91016 4.927C3.91016 5.90172 4.70032 6.69189 5.67505 6.69189Z" fill="black"/>
</svg>
