<svg width="73" height="79" viewBox="0 0 73 79" fill="none" xmlns="http://www.w3.org/2000/svg">
<path d="M30.4693 73.2992C14.3039 70.5344 2 56.4534 2 39.4997C2 22.5459 14.3039 8.46493 30.4693 5.7002" stroke="black" stroke-width="3" stroke-miterlimit="10" stroke-linecap="round" stroke-linejoin="round"/>
<path d="M30.4696 5.7002L26.9531 11.9417" stroke="black" stroke-width="3" stroke-miterlimit="10" stroke-linecap="round" stroke-linejoin="round"/>
<path d="M30.4699 5.70052L24.3359 2" stroke="black" stroke-width="3" stroke-miterlimit="10" stroke-linecap="round" stroke-linejoin="round"/>
<path d="M42.1172 5.7002C58.2826 8.46493 70.5865 22.5459 70.5865 39.4997C70.5865 56.4534 58.2828 70.5344 42.1172 73.2992" stroke="black" stroke-width="3" stroke-miterlimit="10" stroke-linecap="round" stroke-linejoin="round"/>
<path d="M42.1172 73.2991L45.6336 67.0576" stroke="black" stroke-width="3" stroke-miterlimit="10" stroke-linecap="round" stroke-linejoin="round"/>
<path d="M42.1172 73.2988L48.2512 76.9993" stroke="black" stroke-width="3" stroke-miterlimit="10" stroke-linecap="round" stroke-linejoin="round"/>
<path d="M47.821 57.7057H24.7624C22.5075 57.7057 20.6797 55.8778 20.6797 53.623V38.8766C20.6797 36.6218 22.5075 34.7939 24.7624 34.7939H47.8211C50.076 34.7939 51.9038 36.6218 51.9038 38.8766V53.623C51.9037 55.8778 50.0758 57.7057 47.821 57.7057Z" stroke="black" stroke-width="3" stroke-miterlimit="10" stroke-linecap="round" stroke-linejoin="round"/>
<path d="M48.2752 34.7937V31.0975C48.2752 24.4804 42.9109 19.1162 36.2938 19.1162C29.6767 19.1162 24.3125 24.4804 24.3125 31.0975V34.7937" stroke="black" stroke-width="3" stroke-miterlimit="10" stroke-linecap="round" stroke-linejoin="round"/>
<path d="M36.2891 44.6348V47.8641" stroke="black" stroke-width="3" stroke-miterlimit="10" stroke-linecap="round" stroke-linejoin="round"/>
</svg>
