<svg width="37" height="36" viewBox="0 0 37 36" fill="none" xmlns="http://www.w3.org/2000/svg">
<path d="M36.1305 16.02L32.7105 16.38C32.7105 16.92 32.7105 17.46 32.7105 18C32.7105 25.92 26.2305 32.4 18.3105 32.4C10.3905 32.4 3.91055 25.92 3.91055 18C3.91055 10.08 10.3905 3.6 18.3105 3.6C18.8505 3.6 19.2105 3.6 19.7505 3.6L20.1105 0C19.5705 0 18.8505 0 18.3105 0C8.41055 0 0.310547 8.1 0.310547 18C0.310547 27.9 8.41055 36 18.3105 36C28.2105 36 36.3105 27.9 36.3105 18C36.3105 17.28 36.3105 16.74 36.1305 16.02Z" fill="black"/>
<path d="M20.1098 16.2002V7.2002H16.5098V19.8002H25.5098V16.2002H20.1098Z" fill="black"/>
<path d="M25.5109 0V3.6H30.1909L23.7109 10.08L26.2309 12.6L32.7109 6.12V10.8H36.3109V0H25.5109Z" fill="black"/>
</svg>
