<svg width="37" height="36" viewBox="0 0 37 36" fill="none" xmlns="http://www.w3.org/2000/svg">
<path d="M36.5544 16.02L32.9544 16.38C32.9544 16.92 32.9544 17.46 32.9544 18C32.9544 25.92 26.4744 32.4 18.5544 32.4C10.6344 32.4 4.15437 25.92 4.15437 18C4.15437 10.08 10.6344 3.6 18.5544 3.6C19.0944 3.6 19.6344 3.6 19.9944 3.6L20.3544 0C19.9944 0 19.2744 0 18.7344 0C8.83437 0 0.734375 8.1 0.734375 18C0.734375 27.9 8.83437 36 18.7344 36C28.6344 36 36.7344 27.9 36.7344 18C36.7344 17.28 36.7344 16.74 36.5544 16.02Z" fill="black"/>
<path d="M20.5336 16.2002V7.2002H16.9336V19.8002H25.9336V16.2002H20.5336Z" fill="black"/>
<path d="M36.7348 2.52L34.2148 0L27.7348 6.48V1.8H24.1348V12.6H34.9348V9H30.2548L36.7348 2.52Z" fill="black"/>
</svg>
