<svg width="67" height="66" viewBox="0 0 67 66" fill="none" xmlns="http://www.w3.org/2000/svg">
<path d="M33.9115 61.7868C18.0127 61.7868 5.12411 48.8988 5.12411 33C5.12411 17.1012 18.0127 4.21259 33.9115 4.21259C49.8109 4.21259 62.6989 17.1012 62.6989 33C62.6989 34.163 63.6428 35.1063 64.8052 35.1063C65.9676 35.1063 66.9109 34.1624 66.9109 33C66.9109 14.7753 52.1362 0 33.9115 0C15.6868 0 0.912109 14.7753 0.912109 33C0.912109 51.2247 15.6868 66 33.9115 66C35.0745 66 36.0178 65.0561 36.0178 63.8937C36.0178 62.7313 35.0745 61.7868 33.9115 61.7868Z" fill="black"/>
<path d="M31.8061 10.5322V33.7019H19.8688C18.707 33.7019 17.7637 34.6458 17.7637 35.8082C17.7637 36.9724 18.7076 37.9157 19.8688 37.9157H33.9124C35.0754 37.9157 36.0187 36.9718 36.0187 35.8082V10.5322C36.0187 9.36864 35.0748 8.42529 33.9124 8.42529C32.75 8.42529 31.8061 9.36923 31.8061 10.5322Z" fill="black"/>
<path d="M58.5306 43.532C57.6032 42.8313 56.2818 43.015 55.5799 43.9425L48.8675 52.8218L44.1066 49.2227C43.1804 48.5226 41.8584 48.7063 41.1571 49.6337C40.4551 50.5624 40.6389 51.8843 41.5651 52.5845L48.006 57.4537C48.9335 58.155 50.2554 57.9713 50.9574 57.0427L58.9399 46.4834C59.6418 45.5547 59.4581 44.2333 58.5306 43.532V43.532Z" fill="black"/>
<path d="M50.7626 33.7012C41.8432 33.7012 34.6133 40.9311 34.6133 49.8505C34.6133 58.7705 41.8426 66.0004 50.7626 66.0004C59.6814 66.0004 66.9114 58.7711 66.9114 49.8505C66.9114 40.9311 59.682 33.7012 50.7626 33.7012V33.7012ZM50.7626 61.7872C44.1698 61.7872 38.8265 56.4451 38.8265 49.8505C38.8265 43.2583 44.1692 37.915 50.7626 37.915C57.356 37.915 62.6993 43.2577 62.6993 49.8505C62.6993 56.4451 57.356 61.7872 50.7626 61.7872V61.7872Z" fill="black"/>
</svg>
