<svg width="227" height="177" viewBox="0 0 227 177" fill="none" xmlns="http://www.w3.org/2000/svg">
<path d="M222.892 26.46V16.902C222.892 16.146 222.826 15.372 222.694 14.58C222.574 13.776 222.334 13.032 221.974 12.348C221.626 11.664 221.128 11.112 220.48 10.692C219.844 10.272 219.01 10.062 217.978 10.062C217.306 10.062 216.67 10.176 216.07 10.404C215.47 10.62 214.942 10.974 214.486 11.466C214.042 11.958 213.688 12.606 213.424 13.41C213.172 14.214 213.046 15.192 213.046 16.344L210.706 15.462C210.706 13.698 211.036 12.144 211.696 10.8C212.356 9.44405 213.304 8.38805 214.54 7.63205C215.776 6.87605 217.27 6.49805 219.022 6.49805C220.366 6.49805 221.494 6.71405 222.406 7.14605C223.318 7.57805 224.056 8.14805 224.62 8.85605C225.196 9.55205 225.634 10.314 225.934 11.142C226.234 11.97 226.438 12.78 226.546 13.572C226.654 14.364 226.708 15.06 226.708 15.66V26.46H222.892ZM209.23 26.46V7.02005H212.596V12.636H213.046V26.46H209.23Z" fill="#DDDDDD"/>
<path d="M195.752 27.0005C193.808 27.0005 192.122 26.5625 190.694 25.6865C189.266 24.8105 188.162 23.6045 187.382 22.0685C186.614 20.5205 186.23 18.7385 186.23 16.7225C186.23 14.6945 186.626 12.9125 187.418 11.3765C188.21 9.82847 189.32 8.62847 190.748 7.77647C192.176 6.91247 193.844 6.48047 195.752 6.48047C197.696 6.48047 199.382 6.91847 200.81 7.79447C202.238 8.67047 203.342 9.87647 204.122 11.4125C204.902 12.9485 205.292 14.7185 205.292 16.7225C205.292 18.7505 204.896 20.5385 204.104 22.0865C203.324 23.6225 202.22 24.8285 200.792 25.7045C199.364 26.5685 197.684 27.0005 195.752 27.0005ZM195.752 23.4545C197.612 23.4545 198.998 22.8305 199.91 21.5825C200.834 20.3225 201.296 18.7025 201.296 16.7225C201.296 14.6945 200.828 13.0745 199.892 11.8625C198.968 10.6385 197.588 10.0265 195.752 10.0265C194.492 10.0265 193.454 10.3145 192.638 10.8905C191.822 11.4545 191.216 12.2405 190.82 13.2485C190.424 14.2445 190.226 15.4025 190.226 16.7225C190.226 18.7625 190.694 20.3945 191.63 21.6185C192.566 22.8425 193.94 23.4545 195.752 23.4545Z" fill="#DDDDDD"/>
<path d="M173.815 27.0005C171.871 27.0005 170.185 26.5625 168.757 25.6865C167.329 24.8105 166.225 23.6045 165.445 22.0685C164.677 20.5205 164.293 18.7385 164.293 16.7225C164.293 14.6945 164.689 12.9125 165.481 11.3765C166.273 9.82847 167.383 8.62847 168.811 7.77647C170.239 6.91247 171.907 6.48047 173.815 6.48047C175.759 6.48047 177.445 6.91847 178.873 7.79447C180.301 8.67047 181.405 9.87647 182.185 11.4125C182.965 12.9485 183.355 14.7185 183.355 16.7225C183.355 18.7505 182.959 20.5385 182.167 22.0865C181.387 23.6225 180.283 24.8285 178.855 25.7045C177.427 26.5685 175.747 27.0005 173.815 27.0005ZM173.815 23.4545C175.675 23.4545 177.061 22.8305 177.973 21.5825C178.897 20.3225 179.359 18.7025 179.359 16.7225C179.359 14.6945 178.891 13.0745 177.955 11.8625C177.031 10.6385 175.651 10.0265 173.815 10.0265C172.555 10.0265 171.517 10.3145 170.701 10.8905C169.885 11.4545 169.279 12.2405 168.883 13.2485C168.487 14.2445 168.289 15.4025 168.289 16.7225C168.289 18.7625 168.757 20.3945 169.693 21.6185C170.629 22.8425 172.003 23.4545 173.815 23.4545Z" fill="#DDDDDD"/>
<path d="M151.602 27.0015C149.742 27.0015 148.062 26.6835 146.562 26.0475C145.074 25.3995 143.844 24.4815 142.872 23.2935C141.912 22.0935 141.288 20.6715 141 19.0275L144.924 18.4335C145.32 20.0175 146.148 21.2535 147.408 22.1415C148.668 23.0175 150.138 23.4555 151.818 23.4555C152.862 23.4555 153.822 23.2935 154.698 22.9695C155.574 22.6335 156.276 22.1595 156.804 21.5475C157.344 20.9235 157.614 20.1795 157.614 19.3155C157.614 18.8475 157.53 18.4335 157.362 18.0735C157.206 17.7135 156.984 17.4015 156.696 17.1375C156.42 16.8615 156.078 16.6275 155.67 16.4355C155.274 16.2315 154.836 16.0575 154.356 15.9135L147.714 13.9515C147.066 13.7595 146.406 13.5135 145.734 13.2135C145.062 12.9015 144.444 12.4995 143.88 12.0075C143.328 11.5035 142.878 10.8855 142.53 10.1535C142.182 9.40953 142.008 8.50953 142.008 7.45353C142.008 5.85753 142.416 4.50753 143.232 3.40353C144.06 2.28753 145.176 1.44753 146.58 0.883531C147.984 0.307531 149.556 0.0195312 151.296 0.0195312C153.048 0.0435309 154.614 0.355531 155.994 0.955532C157.386 1.55553 158.538 2.41953 159.45 3.54753C160.374 4.66353 161.01 6.01953 161.358 7.61553L157.326 8.29953C157.146 7.32753 156.762 6.49353 156.174 5.79753C155.586 5.08953 154.866 4.54953 154.014 4.17753C153.162 3.79353 152.238 3.59553 151.242 3.58353C150.282 3.55953 149.4 3.70353 148.596 4.01553C147.804 4.32753 147.168 4.76553 146.688 5.32953C146.22 5.89353 145.986 6.54153 145.986 7.27353C145.986 7.99353 146.196 8.57553 146.616 9.01953C147.036 9.46353 147.552 9.81753 148.164 10.0815C148.788 10.3335 149.406 10.5435 150.018 10.7115L154.806 12.0615C155.406 12.2295 156.084 12.4575 156.84 12.7455C157.608 13.0215 158.346 13.4115 159.054 13.9155C159.774 14.4195 160.368 15.0915 160.836 15.9315C161.304 16.7595 161.538 17.8035 161.538 19.0635C161.538 20.3715 161.274 21.5235 160.746 22.5195C160.218 23.5035 159.492 24.3315 158.568 25.0035C157.656 25.6635 156.6 26.1615 155.4 26.4975C154.2 26.8335 152.934 27.0015 151.602 27.0015Z" fill="#DDDDDD"/>
<path d="M121.106 35.6405C120.062 35.6405 119.048 35.4785 118.064 35.1545C117.092 34.8305 116.204 34.3505 115.4 33.7145C114.596 33.0905 113.93 32.3165 113.402 31.3925L116.876 29.6285C117.296 30.4565 117.896 31.0625 118.676 31.4465C119.456 31.8305 120.278 32.0225 121.142 32.0225C122.21 32.0225 123.122 31.8305 123.878 31.4465C124.634 31.0745 125.204 30.5105 125.588 29.7545C125.984 28.9985 126.176 28.0625 126.164 26.9465V21.5105H126.614V7.02047H129.944V26.9825C129.944 27.4985 129.926 27.9905 129.89 28.4585C129.854 28.9265 129.788 29.3945 129.692 29.8625C129.416 31.1705 128.888 32.2505 128.108 33.1025C127.34 33.9545 126.356 34.5905 125.156 35.0105C123.968 35.4305 122.618 35.6405 121.106 35.6405ZM120.818 27.0005C119.006 27.0005 117.44 26.5505 116.12 25.6505C114.812 24.7505 113.798 23.5265 113.078 21.9785C112.37 20.4185 112.016 18.6665 112.016 16.7225C112.016 14.7665 112.376 13.0205 113.096 11.4845C113.816 9.93647 114.836 8.71847 116.156 7.83047C117.488 6.93047 119.066 6.48047 120.89 6.48047C122.726 6.48047 124.268 6.93047 125.516 7.83047C126.776 8.71847 127.724 9.93647 128.36 11.4845C129.008 13.0325 129.332 14.7785 129.332 16.7225C129.332 18.6665 129.008 20.4125 128.36 21.9605C127.712 23.5085 126.758 24.7385 125.498 25.6505C124.238 26.5505 122.678 27.0005 120.818 27.0005ZM121.34 23.5985C122.576 23.5985 123.584 23.3045 124.364 22.7165C125.144 22.1285 125.714 21.3185 126.074 20.2865C126.434 19.2545 126.614 18.0665 126.614 16.7225C126.614 15.3785 126.428 14.1905 126.056 13.1585C125.696 12.1265 125.132 11.3225 124.364 10.7465C123.608 10.1705 122.642 9.88247 121.466 9.88247C120.218 9.88247 119.192 10.1885 118.388 10.8005C117.584 11.4125 116.984 12.2345 116.588 13.2665C116.204 14.2985 116.012 15.4505 116.012 16.7225C116.012 18.0065 116.204 19.1705 116.588 20.2145C116.984 21.2465 117.572 22.0685 118.352 22.6805C119.144 23.2925 120.14 23.5985 121.34 23.5985Z" fill="#DDDDDD"/>
<path d="M104.592 26.46V16.902C104.592 16.146 104.526 15.372 104.394 14.58C104.274 13.776 104.034 13.032 103.674 12.348C103.326 11.664 102.828 11.112 102.18 10.692C101.544 10.272 100.71 10.062 99.6777 10.062C99.0057 10.062 98.3697 10.176 97.7697 10.404C97.1697 10.62 96.6417 10.974 96.1857 11.466C95.7417 11.958 95.3877 12.606 95.1237 13.41C94.8717 14.214 94.7457 15.192 94.7457 16.344L92.4057 15.462C92.4057 13.698 92.7357 12.144 93.3957 10.8C94.0557 9.44405 95.0037 8.38805 96.2397 7.63205C97.4757 6.87605 98.9697 6.49805 100.722 6.49805C102.066 6.49805 103.194 6.71405 104.106 7.14605C105.018 7.57805 105.756 8.14805 106.32 8.85605C106.896 9.55205 107.334 10.314 107.634 11.142C107.934 11.97 108.138 12.78 108.246 13.572C108.354 14.364 108.408 15.06 108.408 15.66V26.46H104.592ZM90.9297 26.46V7.02005H94.2957V12.636H94.7457V26.46H90.9297Z" fill="#1D9BD1"/>
<path d="M81.7812 3.83564V0.181641H85.5433V3.83564H81.7812ZM81.7812 26.4616V7.02164H85.5433V26.4616H81.7812Z" fill="#1D9BD1"/>
<path d="M72.9662 26.4612L72.9843 14.3472C72.9843 12.9432 72.6243 11.8512 71.9043 11.0712C71.1842 10.2792 70.2362 9.88316 69.0602 9.88316C68.3403 9.88316 67.6803 10.0512 67.0803 10.3872C66.4923 10.7112 66.0123 11.2032 65.6403 11.8632C65.2803 12.5112 65.1003 13.3272 65.1003 14.3112L63.2822 13.3932C63.2582 12.0252 63.5463 10.8252 64.1463 9.79316C64.7583 8.76116 65.5862 7.96316 66.6302 7.39916C67.6742 6.82316 68.8442 6.53516 70.1403 6.53516C72.2402 6.53516 73.8662 7.16516 75.0182 8.42516C76.1702 9.68516 76.7463 11.3592 76.7463 13.4472L76.7283 26.4612H72.9662ZM49.6562 26.4612V7.02116H53.0042V12.6372H53.4363V26.4612H49.6562ZM61.3203 26.4612L61.3383 14.4192C61.3383 13.0032 60.9783 11.8932 60.2583 11.0892C59.5503 10.2852 58.5963 9.88316 57.3963 9.88316C56.2083 9.88316 55.2483 10.2912 54.5163 11.1072C53.7963 11.9232 53.4363 12.9912 53.4363 14.3112L51.6362 13.1592C51.6362 11.8872 51.9423 10.7532 52.5543 9.75716C53.1663 8.76116 53.9942 7.97516 55.0382 7.39916C56.0823 6.82316 57.2643 6.53516 58.5843 6.53516C59.9643 6.53516 61.1403 6.82916 62.1123 7.41715C63.0843 7.99316 63.8223 8.80316 64.3263 9.84716C64.8423 10.8912 65.1003 12.1032 65.1003 13.4832L65.0823 26.4612H61.3203Z" fill="#1D9BD1"/>
<path d="M36.1783 27.0005C34.2343 27.0005 32.5482 26.5625 31.1202 25.6865C29.6922 24.8105 28.5883 23.6045 27.8083 22.0685C27.0403 20.5205 26.6562 18.7385 26.6562 16.7225C26.6562 14.6945 27.0522 12.9125 27.8442 11.3765C28.6362 9.82847 29.7462 8.62847 31.1742 7.77647C32.6022 6.91247 34.2703 6.48047 36.1783 6.48047C38.1223 6.48047 39.8082 6.91847 41.2362 7.79447C42.6642 8.67047 43.7683 9.87647 44.5483 11.4125C45.3283 12.9485 45.7183 14.7185 45.7183 16.7225C45.7183 18.7505 45.3223 20.5385 44.5303 22.0865C43.7503 23.6225 42.6463 24.8285 41.2183 25.7045C39.7903 26.5685 38.1103 27.0005 36.1783 27.0005ZM36.1783 23.4545C38.0383 23.4545 39.4242 22.8305 40.3362 21.5825C41.2602 20.3225 41.7222 18.7025 41.7222 16.7225C41.7222 14.6945 41.2543 13.0745 40.3183 11.8625C39.3943 10.6385 38.0143 10.0265 36.1783 10.0265C34.9183 10.0265 33.8802 10.3145 33.0642 10.8905C32.2482 11.4545 31.6422 12.2405 31.2462 13.2485C30.8502 14.2445 30.6523 15.4025 30.6523 16.7225C30.6523 18.7625 31.1202 20.3945 32.0562 21.6185C32.9922 22.8425 34.3663 23.4545 36.1783 23.4545Z" fill="#1D9BD1"/>
<path d="M12.258 27C9.666 27 7.458 26.436 5.634 25.308C3.81 24.168 2.412 22.584 1.44 20.556C0.48 18.528 0 16.176 0 13.5C0 10.824 0.48 8.472 1.44 6.444C2.412 4.416 3.81 2.838 5.634 1.71C7.458 0.57 9.666 0 12.258 0C15.246 0 17.718 0.756001 19.674 2.268C21.642 3.78 23.01 5.814 23.778 8.37L19.962 9.396C19.458 7.584 18.558 6.162 17.262 5.13C15.978 4.098 14.31 3.582 12.258 3.582C10.422 3.582 8.892 3.996 7.668 4.824C6.444 5.652 5.52 6.81 4.896 8.298C4.284 9.786 3.978 11.52 3.978 13.5C3.966 15.48 4.266 17.214 4.878 18.702C5.502 20.19 6.426 21.348 7.65 22.176C8.886 23.004 10.422 23.418 12.258 23.418C14.31 23.418 15.978 22.902 17.262 21.87C18.558 20.826 19.458 19.404 19.962 17.604L23.778 18.63C23.01 21.186 21.642 23.22 19.674 24.732C17.718 26.244 15.246 27 12.258 27Z" fill="#1D9BD1"/>
<path fill-rule="evenodd" clip-rule="evenodd" d="M112.033 17.4609C112.021 17.2179 112.016 16.9718 112.016 16.7225C112.016 14.7665 112.376 13.0205 113.096 11.4845C113.816 9.93647 114.836 8.71847 116.156 7.83047C117.488 6.93047 119.066 6.48047 120.89 6.48047C122.726 6.48047 124.268 6.93047 125.516 7.83047C125.913 8.11024 126.279 8.42276 126.614 8.76804V7.02047H129.944V26.9825C129.944 27.3313 129.935 27.6691 129.919 27.9959V17.4609H129.316H126.614H126.595C126.607 17.2202 126.614 16.9741 126.614 16.7225C126.614 15.3785 126.428 14.1905 126.056 13.1585C125.696 12.1265 125.132 11.3225 124.364 10.7465C123.608 10.1705 122.642 9.88247 121.466 9.88247C120.218 9.88247 119.192 10.1885 118.388 10.8005C117.584 11.4125 116.984 12.2345 116.588 13.2665C116.204 14.2985 116.012 15.4505 116.012 16.7225C116.012 16.9732 116.019 17.2194 116.034 17.4609H112.033Z" fill="#1D9BD1"/>
<g clip-path="url(#clip0_332_442)">
<path d="M155.5 176C165.165 176 173 174.657 173 173C173 171.343 165.165 170 155.5 170C145.835 170 138 171.343 138 173C138 174.657 145.835 176 155.5 176Z" fill="#DDDDDD" fill-opacity="0.6"/>
<path d="M164 161V173.677C164 173.677 162.439 176 155 176C147.271 176 146 173.677 146 173.677V161H164Z" fill="white"/>
<path d="M164 161V165.462C162.639 166.16 159.968 167 155 167C149.967 167 147.334 166.201 146 165.514V161H164Z" fill="#1E1E1E"/>
<path d="M165 163.545C165 163.545 163.178 166 154.5 166C145.483 166 144 163.545 144 163.545V160H165V163.545Z" fill="white"/>
<path d="M165 160C164.998 160.167 164.953 160.33 164.871 160.471C164.811 160.577 164.741 160.674 164.66 160.761C163.482 162.049 159.38 163 154.5 163C149.621 163 145.52 162.049 144.341 160.761C144.26 160.674 144.189 160.577 144.129 160.471C144.047 160.33 144.002 160.167 144 160C144 158.343 148.701 157 154.5 157C160.3 157 165 158.343 165 160Z" fill="#1D9BD1"/>
<path d="M165 159.795C164.94 159.869 164.869 159.938 164.787 160C163.593 159.085 159.44 158.41 154.5 158.41C149.561 158.41 145.407 159.085 144.214 160C144.132 159.939 144.06 159.87 144 159.795C144.801 158.777 149.198 158 154.5 158C159.803 158 164.199 158.777 165 159.795Z" fill="#5DAFA7"/>
<path d="M159 161H161V168.728C161 168.764 160.989 168.799 160.967 168.832C160.946 168.865 160.914 168.895 160.874 168.92C160.834 168.946 160.787 168.966 160.735 168.979C160.683 168.993 160.627 169 160.571 169H159.429C159.315 169 159.206 168.971 159.126 168.92C159.045 168.869 159 168.8 159 168.728V161Z" fill="#1D9BD1"/>
<path d="M156 160H158V166.762C158 166.825 157.955 166.886 157.874 166.93C157.794 166.975 157.685 167 157.571 167H156.429C156.315 167 156.206 166.975 156.126 166.93C156.045 166.886 156 166.825 156 166.762V160Z" fill="#1D9BD1"/>
<path d="M146.086 170C145.887 170 145.689 169.978 145.494 169.934C144.816 169.778 144.361 169.403 144.14 168.818C143.506 167.134 145.221 164.29 145.295 164.17C145.317 164.13 145.346 164.094 145.381 164.067C145.416 164.039 145.456 164.019 145.498 164.009C145.54 163.998 145.583 163.997 145.626 164.006C145.668 164.014 145.709 164.032 145.745 164.058C145.781 164.084 145.812 164.117 145.836 164.157C145.859 164.196 145.875 164.24 145.883 164.286C145.891 164.333 145.889 164.38 145.88 164.426C145.87 164.472 145.851 164.515 145.826 164.553C145.379 165.288 144.31 167.439 144.731 168.555C144.869 168.919 145.161 169.147 145.627 169.254C148.195 169.843 151.407 165.246 151.439 165.199C151.492 165.132 151.567 165.089 151.647 165.08C151.728 165.071 151.808 165.095 151.873 165.148C151.938 165.201 151.982 165.279 151.995 165.366C152.009 165.453 151.992 165.542 151.947 165.616C151.817 165.808 148.887 170 146.086 170Z" fill="#1E1E1E"/>
<path d="M124.92 168.641L122.162 169.373L121.832 169.461L120.619 158.704L120.313 155.992L119.009 144.415L118.73 141.932L117.479 130.82L117.221 128.534L115.325 111.703L115.066 109.42L113.726 97.5117L113.488 95.4031L111.779 80.2161L111.559 78.2639L109.975 64.1881L109.771 62.3767L108.298 49.2951L108.109 47.6095L106.735 35.4178L106.558 33.8449L105.923 28.2131C105.877 27.8059 106.345 27.4676 106.967 27.4611H107.037C107.657 27.4527 108.203 27.7751 108.251 28.1823L124.92 168.641Z" fill="#DDDDDD" fill-opacity="0.6"/>
<path d="M90.9199 168.625L87.673 169.461L80.9205 28.2172C80.9012 27.8078 81.4077 27.4695 82.0519 27.4611H82.1246C82.7688 27.4527 83.3084 27.777 83.3308 28.1864L83.6364 33.846L82.4141 33.8619L82.4943 35.4424L83.723 35.4256L84.3854 47.6739L83.1193 47.6916L83.2058 49.3852L84.4762 49.3674L85.1867 62.513L83.8747 62.5317L83.9676 64.3542L85.285 64.3355L86.0489 78.4746L84.6867 78.4952L84.7871 80.4579L86.1547 80.4374L86.9785 95.698L85.5639 95.7195L85.6707 97.8392L87.0928 97.8168L87.7419 109.787L86.2557 109.81L86.3732 112.108L87.8658 112.083L88.7793 128.981L87.3487 129.003L87.4662 131.3L88.9033 131.277L89.5048 142.453L87.9919 142.479L88.119 144.977L89.6405 144.952L90.2698 156.595L88.6671 156.623L88.806 159.351L90.4194 159.323L90.9199 168.625Z" fill="#DDDDDD" fill-opacity="0.6"/>
<path d="M84.327 38.6306L83.1157 38.6499L83.0332 36.8103L84.2404 36.791L84.327 38.6306Z" fill="#DDDDDD" fill-opacity="0.6"/>
<path d="M85.0987 54.8859L83.8425 54.9062L83.7539 52.9285L85.0049 52.9082L85.0987 54.8859Z" fill="#DDDDDD" fill-opacity="0.6"/>
<path d="M85.9291 72.378L84.6251 72.4003L84.5293 70.2704L85.8282 70.248L85.9291 72.378Z" fill="#DDDDDD" fill-opacity="0.6"/>
<path d="M86.8241 91.2566L85.4681 91.2809L85.3652 88.9784L86.7141 88.9551L86.8241 91.2566Z" fill="#DDDDDD" fill-opacity="0.6"/>
<path d="M87.5587 106.756L86.1355 106.783L86.0234 104.287L87.4405 104.262L87.5587 106.756Z" fill="#DDDDDD" fill-opacity="0.6"/>
<path d="M88.5487 127.604L87.1785 127.629L87.0664 125.134L88.4305 125.109L88.5487 127.604Z" fill="#DDDDDD" fill-opacity="0.6"/>
<path d="M89.2536 142.458L87.8029 142.485L87.6816 139.772L89.1242 139.744L89.2536 142.458Z" fill="#DDDDDD" fill-opacity="0.6"/>
<path d="M89.995 158.068L88.4567 158.098L88.3242 155.136L89.8544 155.105L89.995 158.068Z" fill="#DDDDDD" fill-opacity="0.6"/>
<path d="M109.62 38.233L108.41 38.2523L84.327 38.63L83.1157 38.6493L83.0332 36.8097L84.2404 36.7904L108.223 36.4158L109.427 36.3965L109.62 38.233Z" fill="#DDDDDD" fill-opacity="0.6"/>
<path d="M111.317 54.458L110.063 54.4783L85.0987 54.8864L83.8425 54.9067L83.7539 52.929L85.0049 52.9087L109.862 52.5047L111.11 52.4844L111.317 54.458Z" fill="#DDDDDD" fill-opacity="0.6"/>
<path d="M113.144 71.9179L111.842 71.9402L85.9291 72.3778L84.6251 72.4001L84.5293 70.2702L85.8282 70.2479L111.625 69.8133L112.921 69.791L113.144 71.9179Z" fill="#DDDDDD" fill-opacity="0.6"/>
<path d="M115.114 90.7584L113.761 90.7817L86.8241 91.2558L85.4681 91.2802L85.3652 88.9777L86.7141 88.9543L113.527 88.4843L114.873 88.4609L115.114 90.7584Z" fill="#DDDDDD" fill-opacity="0.6"/>
<path d="M117.001 106.216L115.336 106.246L87.5587 106.755L86.1355 106.781L86.0234 104.286L87.4405 104.261L115.082 103.757L116.74 103.727L117.001 106.216Z" fill="#DDDDDD" fill-opacity="0.6"/>
<path d="M118.044 127.064L117.459 127.075L88.5487 127.604L87.1785 127.629L87.0664 125.134L88.4305 125.109L117.205 124.584L117.783 124.574L118.044 127.064Z" fill="#DDDDDD" fill-opacity="0.6"/>
<path d="M119.992 141.87L118.967 141.889L89.2536 142.458L87.8029 142.485L87.6816 139.771L89.1242 139.744L118.691 139.181L119.709 139.162L119.992 141.87Z" fill="#DDDDDD" fill-opacity="0.6"/>
<path d="M122.089 157.426L120.554 157.456L89.995 158.067L88.4567 158.097L88.3242 155.135L89.8544 155.104L120.253 154.501L121.78 154.471L122.089 157.426Z" fill="#DDDDDD" fill-opacity="0.6"/>
<path d="M90.5501 169.739C90.5704 170.165 90.4472 170.585 90.2 170.932C89.9529 171.28 89.596 171.535 89.1865 171.657L87.5091 172.156L73.0332 176.461L71.666 173.699L87.3772 169.08L90.4732 168.17L90.5501 169.739Z" fill="#DDDDDD" fill-opacity="0.6"/>
<path d="M124.944 169.711C124.992 170.154 124.882 170.6 124.635 170.971C124.387 171.342 124.017 171.615 123.589 171.742L122.202 172.155L122.055 172.198L107.728 176.462L106.361 173.699L121.748 169.182L122.072 169.086L124.791 168.287L124.944 169.711Z" fill="#DDDDDD" fill-opacity="0.6"/>
<path d="M73.4201 174.461H73.3281C73.1347 174.458 72.9439 174.419 72.7671 174.345C72.5904 174.271 72.4314 174.164 72.3 174.03C72.1685 173.896 72.0673 173.738 72.0024 173.566C71.9376 173.394 71.9105 173.211 71.9228 173.029L80.6902 28.1845C80.7149 27.7763 81.218 27.4527 81.8141 27.4611H81.8803C82.4739 27.4695 82.9419 27.8067 82.9191 28.2149L74.9867 173.087C74.9633 173.463 74.7873 173.815 74.4955 174.071C74.2036 174.327 73.8184 174.466 73.4201 174.461Z" fill="#222222"/>
<path d="M107.635 174.46H107.556C107.211 174.452 106.883 174.297 106.641 174.03C106.399 173.763 106.262 173.403 106.259 173.028L105.92 28.1839C105.92 27.7757 106.338 27.4523 106.854 27.4611H106.912C107.429 27.4695 107.851 27.8064 107.855 28.2147L108.92 173.084C108.922 173.267 108.89 173.449 108.826 173.619C108.762 173.788 108.667 173.942 108.547 174.07C108.427 174.199 108.285 174.3 108.128 174.367C107.971 174.434 107.804 174.466 107.635 174.46Z" fill="#222222"/>
<path d="M80.5898 38.233L80.6902 36.3965L107.105 36.8097L107.115 38.6498L80.5898 38.233Z" fill="#222222"/>
<path d="M79.7031 54.458L79.8111 52.4844L107.19 52.9285L107.2 54.9057L79.7031 54.458Z" fill="#222222"/>
<path d="M78.75 71.9194L78.8661 69.793L107.282 70.2711L107.293 72.4016L78.75 71.9194Z" fill="#222222"/>
<path d="M77.7207 90.7603L77.8465 88.4629L107.38 88.9796L107.392 91.2817L77.7207 90.7603Z" fill="#222222"/>
<path d="M76.6074 106.216L76.7434 103.727L107.488 104.286L107.501 106.782L76.6074 106.216Z" fill="#222222"/>
<path d="M76.6074 127.065L76.7434 124.574L107.488 125.135L107.501 127.63L76.6074 127.065Z" fill="#222222"/>
<path d="M75.3984 141.87L75.5462 139.162L107.604 139.771L107.618 142.485L75.3984 141.87Z" fill="#222222"/>
<path d="M74.0801 157.427L74.2415 154.471L107.73 155.135L107.746 158.098L74.0801 157.427Z" fill="#222222"/>
<path d="M123.2 42.7488L123.428 42.7554C123.53 42.7584 123.631 42.7414 123.727 42.7053C123.822 42.6693 123.91 42.6148 123.984 42.5451C124.058 42.4754 124.118 42.3918 124.16 42.299C124.201 42.2063 124.225 42.1063 124.228 42.0046L124.109 19.6509C124.111 19.5858 124.1 19.521 124.077 19.4602C124.054 19.3993 124.019 19.3436 123.974 19.2962C123.93 19.2488 123.876 19.2107 123.816 19.184C123.757 19.1574 123.692 19.1427 123.627 19.1407L122.84 19.1174C122.708 19.1136 122.58 19.1621 122.484 19.2524C122.388 19.3426 122.332 19.4672 122.328 19.5986L122.446 41.9518C122.44 42.1571 122.516 42.3564 122.658 42.5058C122.799 42.6553 122.994 42.7427 123.2 42.7488Z" fill="#444444"/>
<path d="M114.041 22.9577L129.338 22.9506C129.338 22.9506 130.083 22.2638 130.082 20.7583C130.082 19.0608 129.336 18.5664 129.336 18.5664L114.039 18.5735L114.041 22.9577Z" fill="#1D9BD1"/>
<path d="M114.041 22.9579C114.371 22.9579 114.638 21.9766 114.638 20.7661C114.638 19.5555 114.371 18.5742 114.041 18.5742C113.711 18.5742 113.443 19.5555 113.443 20.7661C113.443 21.9766 113.711 22.9579 114.041 22.9579Z" fill="white"/>
<path d="M123.166 44.0324L123.573 44.0466C124.337 44.0741 124.979 43.3553 125 42.4411L124.844 30.4345C124.859 29.8498 124.472 29.3615 123.982 29.3442L122.577 29.2934C122.087 29.2762 121.677 29.7361 121.66 30.3214L121.82 42.3294C121.797 43.2431 122.4 44.0045 123.166 44.0324Z" fill="#222222"/>
<path d="M99.5624 56.2234L99.4096 51.0341L94.2726 50.625L93.5977 56.2234H99.5624Z" fill="#E68157"/>
<path d="M99.4136 51.5689C99.4136 51.5689 101.162 51.6116 101.595 49.9791C102.029 48.3466 100.678 46.9334 100.724 46.7106C100.77 46.4878 101.247 46.0081 101.132 45.9248C101.017 45.8416 99.2276 44.8401 98.9475 44.3106C98.6673 43.7812 98.5909 43.17 98.2028 42.7538C97.8498 42.3731 97.1448 41.2568 95.0747 41.5015C93.0046 41.7462 90.392 44.1695 90.5413 46.8314C90.6905 49.4933 94.2694 50.6212 94.2694 50.6212L99.4136 51.5689Z" fill="#E68157"/>
<path d="M98.2213 46.5317C98.2213 46.5317 96.5714 43.8358 96.8597 43.5876C97.148 43.3394 98.7694 42.3693 99.1203 41.5282C99.5563 40.4795 98.9578 39.6937 97.7598 39.9171C96.4313 40.1648 94.1942 40.9135 92.7536 41.0577C91.3131 41.2018 88.6114 43.117 88.8376 46.4292C89.0637 49.7414 92.5652 50.7901 93.1163 51.1175C93.6675 51.4449 94.0454 52.4972 94.0454 52.4972C94.0454 52.4972 96.8531 51.65 96.8979 51.2657C96.9427 50.8815 97.0675 48.8119 96.2821 48.652C94.672 48.3246 94.8665 47.019 95.3316 46.4754C95.7967 45.9317 97.199 46.5348 97.471 46.8251C97.743 47.1155 98.2162 46.9008 98.2213 46.5317Z" fill="#632B18"/>
<path d="M99.4148 51.5688L97.5449 51.1855L99.424 52.4718L99.4148 51.5688Z" fill="#D16843"/>
<path d="M87.2266 136.234L90.6577 136.676L91.2501 132.099L87.4833 131.615L87.2266 136.234Z" fill="#E68157"/>
<path d="M101.335 120.581L97.9375 119.929L98.8131 115.398L102.542 116.114L101.335 120.581Z" fill="#E68157"/>
<path d="M85.5166 93.4277C85.6276 97.145 86.1156 107.667 86.1503 108.289C86.1849 108.911 85.6888 133.106 85.8956 133.314C86.1024 133.523 92.0687 133.556 92.2072 133.314C92.3458 133.072 93.9391 108.826 93.9901 107.997C94.041 107.167 94.7704 93.2759 94.7704 93.2759C94.7704 93.2759 99.7847 102.836 99.8367 103.648C99.8886 104.461 96.7891 116.611 97.3097 116.753C97.8302 116.896 102.754 116.992 102.997 116.753C103.24 116.515 106.495 103.183 106.634 102.873C106.773 102.562 103.305 83.9587 103.233 83.9587C103.161 83.9587 87.4828 80.0801 87.4828 80.0801C87.4828 80.0801 85.2227 83.6125 85.5166 93.4277Z" fill="#639EFF"/>
<path d="M101.016 55.2232C101.016 55.2232 103.641 55.7531 105.113 56.1034C106.585 56.4536 113.62 54.0293 113.8 54.0293C113.981 54.0293 116.779 59.9343 116.806 60.012C116.833 60.0897 109.951 64.0764 106.948 64.5658C103.289 65.1617 99.3789 63.2693 99.3789 63.1917C99.3789 63.114 101.016 55.2232 101.016 55.2232Z" fill="#0D0536"/>
<path d="M104.519 62.393C102.962 67.7498 103.201 75.7685 103.201 75.7685C103.201 75.7685 100.886 76.2092 96.568 76.2092C92.25 76.2092 87.9595 75.198 87.9595 75.198C87.9595 75.198 87.4221 56.4819 87.6432 56.2225C87.8643 55.9631 91.0433 55.0834 91.5888 55.0296C92.1344 54.9758 98.7669 54.8717 99.2223 54.9367C99.6777 55.0017 101.016 55.223 101.016 55.223C101.016 55.223 105.075 60.4778 104.519 62.393Z" fill="#0D0536"/>
<path d="M87.2695 80.5363C87.2695 80.5363 87.7494 75.4054 87.9577 75.1978C88.166 74.9902 89.7191 73.9795 90.0054 71.6212C90.2917 69.2628 90.3507 59.2649 90.4547 57.7126C90.5586 56.1603 91.5992 54.939 91.7164 54.9258C91.8335 54.9126 93.4589 54.7446 93.4722 54.8614C93.4854 54.9781 92.3623 57.1593 92.3449 58.6629C92.3276 60.1664 92.4056 64.4496 93.2246 65.1775C94.0437 65.9055 95.0584 65.1775 95.2407 64.4775C95.4231 63.7776 97.3745 58.4882 98.2914 56.8294C99.2083 55.1705 100.048 54.9136 100.191 54.9157C100.334 54.9177 102.084 55.1832 102.07 55.3218C102.057 55.4603 100.313 57.0502 99.9876 58.1512C99.6626 59.2522 97.6165 62.5674 97.6165 65.9527C97.6165 69.3379 99.1064 74.9734 100.736 75.3364C102.366 75.6993 103.164 75.5607 103.199 75.7683C103.233 75.976 103.233 83.9592 103.233 83.9592C103.233 83.9592 95.1597 82.5754 87.2695 80.5363Z" fill="#639EFF"/>
<path d="M114.936 54.5393L121.549 41.377L123.901 41.4663C123.901 41.4663 121.169 56.8246 117.32 59.287L114.936 54.5393Z" fill="#E68157"/>
<path d="M113.02 54.0297C113.02 54.0297 116.571 60.5093 116.623 60.5093C116.675 60.5093 117.936 60.1723 118.04 59.6672C118.144 59.1621 114.72 53.3754 114.503 53.3043C114.287 53.2332 112.949 53.8733 113.02 54.0297Z" fill="#FFB904"/>
<path d="M91.2885 136.352C91.2885 136.352 91.2335 139.595 91.0369 139.919C90.8403 140.244 82.6322 137.896 82.5726 137.683C82.513 137.471 82.5726 136.815 82.787 136.535C83.0015 136.255 85.232 136.442 85.8214 136.155C86.4107 135.867 86.695 135.776 86.8361 135.701C86.9772 135.626 87.5237 135.742 88.1258 135.941C88.7279 136.14 90.4333 135.832 90.6543 135.86C90.8754 135.889 91.1663 136.103 91.2885 136.352Z" fill="#222222"/>
<path d="M91 139.8C91 139.8 91.2298 139.871 91.2481 139.948C91.2664 140.026 91.1416 140.761 90.8982 140.824C90.7611 140.858 82.521 138.199 82.5047 138.108C82.4884 138.018 82.5169 137.55 82.5556 137.516C82.5943 137.482 91 139.8 91 139.8Z" fill="#EEEEEE"/>
<path d="M97.2845 119.353C97.2845 119.353 97.4521 119.06 97.9503 119.156C98.4485 119.251 100.297 119.964 100.842 120.023C101.387 120.081 101.749 119.921 102.079 119.996C102.408 120.072 102.581 121.958 103.53 122.439C104.479 122.92 105.195 123.302 105.24 123.664C105.285 124.026 105.189 124.517 105.064 124.572C104.939 124.627 97.2198 123.756 96.8179 122.959C96.416 122.162 97.1714 119.543 97.2845 119.353Z" fill="#222222"/>
<path d="M96.8174 122.959C96.7875 122.965 96.7593 122.977 96.735 122.996C96.7107 123.014 96.691 123.038 96.6774 123.065C96.6229 123.163 96.4542 123.877 96.5088 123.984C96.5633 124.09 105.066 125.289 105.135 125.21C105.204 125.131 105.314 124.482 105.166 124.417C105.018 124.351 96.8174 122.959 96.8174 122.959Z" fill="#EEEEEE"/>
<path d="M104.016 116.409L97.3287 115.147C97.1946 115.122 97.0654 115.21 97.04 115.343L96.6626 117.33C96.6372 117.464 96.7253 117.592 96.8594 117.618L103.547 118.879C103.681 118.905 103.81 118.817 103.836 118.683L104.213 116.697C104.238 116.563 104.15 116.434 104.016 116.409Z" fill="#D6D6D6"/>
<path d="M92.483 131.861H85.6767C85.5403 131.861 85.4297 131.972 85.4297 132.108V134.129C85.4297 134.265 85.5403 134.376 85.6767 134.376H92.483C92.6194 134.376 92.73 134.265 92.73 134.129V132.108C92.73 131.972 92.6194 131.861 92.483 131.861Z" fill="#D6D6D6"/>
<path d="M84.7707 52.4973L88.0307 41.3679L85.3442 40.207C85.3442 40.207 78.651 50.4374 79.2154 54.9613L84.7707 52.4973Z" fill="#E68157"/>
<path d="M89.5574 34.9894C89.1408 34.4224 88.0802 34.7625 88.0802 34.7625C87.976 34.6325 87.8251 34.5481 87.6595 34.527C87.4558 34.4986 87.2255 34.5509 86.9856 34.6925C86.8492 34.7742 86.7234 34.8724 86.6112 34.9849C86.272 35.3168 85.457 36.492 85.1213 37.698C85.0482 37.9531 85.0013 38.2148 84.9812 38.4793C84.9559 38.7748 84.987 39.0724 85.0729 39.3564L85.3551 40.1574L85.3429 40.2082L88.0283 41.365C88.1266 41.2955 88.2417 41.2082 88.2804 41.096C88.3191 40.9838 88.3915 40.8473 88.365 40.7407C88.6874 40.4579 89.6507 40.0539 89.9787 39.8569C90.0551 39.8117 90.1692 39.6747 90.3016 39.4777C90.5818 39.0605 90.946 38.3803 91.216 37.7518C91.297 37.563 91.3688 37.3793 91.4294 37.2097C91.569 36.8123 91.6331 36.4884 91.5664 36.3508C91.325 35.864 90.729 35.7102 90.729 35.7102C90.5314 35.228 90.0194 34.9651 89.5574 34.9894Z" fill="#E68157"/>
<path d="M84.7709 52.4961C84.7709 52.4961 86.6719 54.6788 86.6719 54.7494C86.6719 54.8199 83.6029 60.2615 83.1175 60.1752C82.632 60.0889 79.2936 56.2773 79.2156 54.96C79.1377 53.6428 84.7709 52.4961 84.7709 52.4961Z" fill="#E68157"/>
<path d="M89.8803 55.4398C89.8803 55.4398 86.8887 54.1708 85.4579 52.6561C85.2974 52.4865 80.4899 58.1611 80.6463 59.0768C80.8027 59.9926 87.721 66.1433 88.2671 65.4433C88.8131 64.7433 89.8803 55.4398 89.8803 55.4398Z" fill="#0D0536"/>
<path d="M86.3935 52.8723C86.3935 52.8723 81.314 59.8428 80.6411 59.6905C79.9682 59.5382 79.3009 58.2738 79.4227 57.9281C79.5444 57.5824 85.1068 52.1824 85.2601 52.217C85.4134 52.2515 86.506 52.718 86.3935 52.8723Z" fill="#FFB904"/>
<path d="M121.55 41.3772C121.55 41.3772 120.68 39.0544 120.684 38.63C120.688 38.2057 120.983 36.6656 121.066 36.2392C121.149 35.8128 121.334 35.7169 121.544 35.7316C121.754 35.7463 121.742 36.0945 121.76 36.1757C121.779 36.257 121.983 37.0661 122.183 37.0763C124.642 37.2032 124.711 34.9189 124.933 34.7758C125.154 34.6326 125.34 35.7991 125.516 36.2697C125.669 36.6869 125.159 38.6356 125.178 38.7839C125.196 38.9321 123.904 41.4666 123.904 41.4666L121.55 41.3772Z" fill="#E68157"/>
<path d="M76.1452 173.361C76.1505 173.771 76.0739 174.179 75.9199 174.56C75.7658 174.941 75.5374 175.287 75.2478 175.58C74.9583 175.872 74.6134 176.104 74.2331 176.262C73.8529 176.421 73.4448 176.502 73.0327 176.502C72.6206 176.502 72.2126 176.421 71.8323 176.262C71.4521 176.104 71.1072 175.872 70.8176 175.58C70.5281 175.287 70.2996 174.941 70.1456 174.56C69.9915 174.179 69.9149 173.771 69.9202 173.361C69.9202 171.647 71.3138 172.333 73.033 172.333C74.7521 172.333 76.1452 171.647 76.1452 173.361Z" fill="#222222"/>
<path d="M110.739 173.361C110.739 174.183 110.411 174.972 109.828 175.554C109.244 176.136 108.452 176.463 107.626 176.463C106.801 176.463 106.009 176.136 105.425 175.554C104.842 174.972 104.514 174.183 104.514 173.361C104.514 171.647 105.907 172.333 107.626 172.333C109.346 172.333 110.739 171.647 110.739 173.361Z" fill="#222222"/>
</g>
<defs>
<clipPath id="clip0_332_442">
<rect width="105" height="162" fill="white" transform="translate(69.9199 14.4609)"/>
</clipPath>
</defs>
</svg>
