<svg width="14" height="13" viewBox="0 0 14 13" fill="none" xmlns="http://www.w3.org/2000/svg">
<path d="M1.90323 0.984479L2.47198 0.491563C3.12739 -0.163854 4.18906 -0.163854 4.84448 0.491563C4.86073 0.507813 5.86281 1.81323 5.86281 1.81323C6.48031 2.46323 6.48031 3.48698 5.86281 4.13156L5.23448 4.9224C6.02531 6.71531 7.25489 7.95031 8.98823 8.68698L9.77906 8.05323C10.4236 7.43031 11.4528 7.43031 12.0974 8.05323C12.0974 8.05323 13.4028 9.05531 13.4191 9.07156C14.0745 9.72698 14.0745 10.7886 13.4461 11.417L12.9045 12.0399C12.2816 12.6628 11.442 13.0041 10.532 13.0041C6.39364 13.0041 0.911977 7.51698 0.911977 3.38406C0.911977 2.47948 1.25323 1.63448 1.90323 0.989896V0.984479ZM10.532 11.9153C11.1495 11.9153 11.7182 11.6878 12.1082 11.2924L12.6499 10.6695C12.872 10.4474 12.8828 10.0845 12.6716 9.85156C12.6716 9.85156 11.377 8.8549 11.3607 8.83865C11.1386 8.61656 10.7486 8.61656 10.5211 8.83865C10.5049 8.8549 9.41614 9.72698 9.41614 9.72698C9.26448 9.84615 9.06406 9.87865 8.88531 9.80823C6.64281 8.9524 5.03406 7.34906 4.10781 5.03615C4.03739 4.8574 4.06448 4.65156 4.18906 4.49448C4.18906 4.49448 5.06114 3.40031 5.07198 3.38948C5.30489 3.15656 5.30489 2.78281 5.07198 2.5499C5.05573 2.53365 4.05906 1.23906 4.05906 1.23906C3.82614 1.02781 3.46323 1.03323 3.21406 1.2824L2.64531 1.77531C2.22823 2.1924 1.99531 2.76115 1.99531 3.37865C1.99531 7.14865 7.28739 11.9153 10.532 11.9153Z" fill="black"/>
</svg>
