<svg width="12" height="14" viewBox="0 0 12 14" fill="none" xmlns="http://www.w3.org/2000/svg">
<path d="M11.4 1.90167L10.0111 0.51275C9.68093 0.182 9.24109 0 8.77384 0H6.07943C4.67126 0 3.49234 1.00392 3.22168 2.33333H3.16276C1.55451 2.33333 0.246094 3.64175 0.246094 5.25V11.0833C0.246094 12.6916 1.55451 14 3.16276 14H6.66276C8.27101 14 9.57943 12.6916 9.57943 11.0833V11.0244C10.9088 10.7532 11.9128 9.57483 11.9128 8.16667V3.13892C11.9128 2.67167 11.7308 2.23183 11.4 1.90167ZM6.66276 12.8333H3.16276C2.19793 12.8333 1.41276 12.0482 1.41276 11.0833V5.25C1.41276 4.28517 2.19793 3.5 3.16276 3.5V8.16667C3.16276 9.77492 4.47118 11.0833 6.07943 11.0833H8.41276C8.41276 12.0482 7.62759 12.8333 6.66276 12.8333ZM8.99609 9.91667H6.07943C5.11459 9.91667 4.32943 9.1315 4.32943 8.16667V2.91667C4.32943 1.95183 5.11459 1.16667 6.07943 1.16667H8.41276V2.33333C8.41276 2.97792 8.93484 3.5 9.57943 3.5H10.7461V8.16667C10.7461 9.1315 9.96093 9.91667 8.99609 9.91667Z" fill="black"/>
</svg>
