<svg width="21" height="20" viewBox="0 0 21 20" fill="none" xmlns="http://www.w3.org/2000/svg">
<path d="M1.07922 11.0345H2.87228C3.34348 14.5918 6.14255 17.3909 9.69983 17.8621V19.6552C9.70044 19.8454 9.85455 19.9994 10.0447 20H11.4241C11.6142 19.9994 11.7683 19.8454 11.7689 19.6552V17.8621C15.3262 17.3909 18.1253 14.5918 18.5965 11.0345H20.3895C20.5798 11.0339 20.7338 10.8798 20.7344 10.6897V9.3103C20.7338 9.12018 20.5798 8.96606 20.3895 8.96545H18.5965C18.1253 5.40817 15.3262 2.6091 11.7689 2.13791V0.344849C11.7683 0.154572 11.6142 0.000610352 11.4241 0H10.0447C9.85455 0.000610352 9.70044 0.154572 9.69983 0.344849V2.13791C6.14255 2.6091 3.34348 5.40817 2.87228 8.96545H1.07922C0.888947 8.96606 0.734985 9.12018 0.734375 9.3103V10.6897C0.734985 10.8798 0.888947 11.0339 1.07922 11.0345ZM10.7344 4.13788C13.9718 4.13788 16.5965 6.76254 16.5965 10C16.5965 13.2375 13.9718 15.8621 10.7344 15.8621C7.49692 15.8621 4.87225 13.2375 4.87225 10C4.87683 6.76437 7.49875 4.14246 10.7344 4.13788Z" fill="black"/>
<path d="M13.4938 9.99985C13.4938 11.5234 12.2588 12.7585 10.7352 12.7585C9.21161 12.7585 7.97656 11.5234 7.97656 9.99985C7.97656 8.47626 9.21161 7.24121 10.7352 7.24121C12.2588 7.24121 13.4938 8.47626 13.4938 9.99985Z" fill="black"/>
</svg>
