<svg width="13" height="14" viewBox="0 0 13 14" fill="none" xmlns="http://www.w3.org/2000/svg">
<path d="M1.16406 4.10303L1.89053 12.8727C1.94259 13.5052 2.48129 14.001 3.11613 14.001H9.80972C10.4446 14.001 10.9833 13.5052 11.0353 12.8727L11.7618 4.10303H1.16406ZM4.41184 12.3605C4.19714 12.3605 4.01652 12.1935 4.0029 11.976L3.59276 5.35906C3.57874 5.13277 3.75056 4.93812 3.97646 4.9241C4.21076 4.90766 4.39702 5.08151 4.41143 5.30779L4.82156 11.9247C4.83608 12.159 4.65067 12.3605 4.41184 12.3605ZM6.87305 11.9503C6.87305 12.177 6.68961 12.3605 6.46291 12.3605C6.23621 12.3605 6.05277 12.177 6.05277 11.9503V5.33344C6.05277 5.10674 6.23621 4.9233 6.46291 4.9233C6.68961 4.9233 6.87305 5.10674 6.87305 5.33344V11.9503ZM9.33306 5.35909L8.92292 11.976C8.90944 12.1913 8.72999 12.3707 8.48795 12.3597C8.26205 12.3457 8.09023 12.151 8.10426 11.9247L8.51439 5.30782C8.52842 5.08154 8.72668 4.91691 8.94936 4.92412C9.17526 4.93815 9.34708 5.1328 9.33306 5.35909Z" fill="black"/>
<path d="M11.7944 1.64055H9.33359V1.23041C9.33359 0.551937 8.78165 0 8.10317 0H4.82207C4.14359 0 3.59165 0.551937 3.59165 1.23041V1.64055H1.13082C0.677785 1.64055 0.310547 2.00779 0.310547 2.46083C0.310547 2.91381 0.677785 3.28111 1.13082 3.28111C4.90317 3.28111 8.02221 3.28111 11.7944 3.28111C12.2475 3.28111 12.6147 2.91381 12.6147 2.46083C12.6147 2.00779 12.2475 1.64055 11.7944 1.64055ZM8.51331 1.64055H4.41193V1.23041C4.41193 1.00413 4.59578 0.820276 4.82207 0.820276H8.10317C8.32946 0.820276 8.51331 1.00413 8.51331 1.23041V1.64055Z" fill="black"/>
</svg>
