<svg width="14" height="13" viewBox="0 0 14 13" fill="none" xmlns="http://www.w3.org/2000/svg">
<path d="M6.1861 7.58333L7.26944 8.66667H5.2241C4.32819 8.66667 3.5991 9.39575 3.5991 10.2917V13H2.51577V10.2917C2.51577 8.79829 3.73073 7.58333 5.2241 7.58333H6.1861ZM13.8675 12.2108L13.1016 12.9767L0.914062 0.789208L1.67998 0.0232917L4.21498 2.55829C4.53294 1.09742 5.83619 0 7.39077 0C9.18315 0 10.6408 1.45763 10.6408 3.25C10.6408 4.80458 9.54335 6.10783 8.08248 6.42579L9.24002 7.58333H9.55744C11.0508 7.58333 12.2658 8.79829 12.2658 10.2917V10.6091L13.8675 12.2108ZM5.25173 3.5945L7.04627 5.38904C7.16002 5.40692 7.2754 5.41667 7.39077 5.41667C8.58569 5.41667 9.55744 4.44492 9.55744 3.25C9.55744 2.05508 8.58569 1.08333 7.39077 1.08333C6.19585 1.08333 5.2241 2.05508 5.2241 3.25C5.2241 3.36538 5.23331 3.48075 5.25173 3.5945Z" fill="black"/>
</svg>
