<svg width="20" height="20" viewBox="0 0 20 20" fill="none" xmlns="http://www.w3.org/2000/svg">
<path d="M10.0003 1.67529H6.17529C3.69001 1.67529 1.67529 3.69001 1.67529 6.17529V13.8253C1.67529 16.3106 3.69001 18.3253 6.17529 18.3253H13.8253C16.3106 18.3253 18.3253 16.3106 18.3253 13.8253V10.0003" stroke="#222222" stroke-width="1.5" stroke-linecap="round"/>
<path d="M12.961 2.98874C14.0593 1.89039 15.8401 1.89039 16.9384 2.98874V2.98874C18.0368 4.08709 18.0368 5.86786 16.9384 6.96621L10.5607 13.3439C10.3126 13.592 9.98536 13.7453 9.63589 13.7771L7.59412 13.9627C6.66122 14.0475 5.87967 13.266 5.96448 12.3331L6.15009 10.2913C6.18186 9.94183 6.33515 9.61456 6.58327 9.36643L12.961 2.98874Z" stroke="#222222" stroke-width="1.5"/>
<path d="M12.25 3.8125V3.8125C12.9684 5.6085 14.3915 7.0316 16.1875 7.75V7.75" stroke="#222222" stroke-width="1.5" stroke-linecap="square"/>
</svg>
