<svg width="15" height="11" viewBox="0 0 15 11" fill="none" xmlns="http://www.w3.org/2000/svg">
<path d="M12.4138 0H2.55578C1.15619 0 0 1.15151 0 2.54545V8.45454C0 9.84848 1.15619 11 2.55578 11H12.4442C13.8438 11 15 9.84848 15 8.45454V2.51515C14.9696 1.12121 13.8438 0 12.4138 0ZM2.55578 1.21212H12.4442C12.9006 1.21212 13.2657 1.42424 13.5091 1.75758L8.64097 4.24242C7.91075 4.60606 7.05882 4.60606 6.35903 4.24242L1.49087 1.75758C1.70385 1.42424 2.09939 1.21212 2.55578 1.21212ZM12.4138 9.75757H2.55578C1.82556 9.75757 1.21704 9.15151 1.21704 8.42424V2.9697L5.78093 5.30303C6.29817 5.57576 6.90669 5.69697 7.48479 5.69697C8.06288 5.69697 8.64097 5.57576 9.18864 5.30303L13.7525 2.9697V8.42424C13.7525 9.18182 13.1744 9.75757 12.4138 9.75757Z" fill="black"/>
</svg>
