<svg width="75" height="75" viewBox="0 0 75 75" fill="none" xmlns="http://www.w3.org/2000/svg">
<path d="M68.7498 47.5H53.7173C54.5445 46.4245 54.9953 45.1068 54.9998 43.75V21.25C54.9957 17.8 52.1999 15.0042 48.7498 15H46.2497V8.74994C46.2499 3.91757 42.3324 0 37.4999 0C32.6674 0 28.75 3.91757 28.75 8.74994V15H26.2499C22.8 15.0041 20.0042 17.7999 19.9999 21.25V43.75C20.0045 45.1068 20.4552 46.4245 21.2824 47.5H6.25004C2.7999 47.5041 0.00410155 50.2999 0 53.7499V68.7498C0.00410155 72.2 2.7999 74.9958 6.25004 74.9999H68.75C72.2 74.9958 74.9958 72.2 75 68.7498V53.7499C74.9958 50.2999 72.2 47.5041 68.7498 47.5ZM31.2499 8.74994C31.2499 5.29818 34.0482 2.4999 37.4999 2.4999C40.9517 2.4999 43.75 5.29818 43.75 8.74994V15H31.25V8.74994H31.2499ZM22.5 43.75V21.25C22.5 19.1789 24.179 17.5 26.2499 17.5H48.7499C50.8209 17.5 52.4999 19.179 52.4999 21.25V43.75C52.4999 45.821 50.8209 47.5 48.7499 47.5H26.2499C24.179 47.5 22.5 45.821 22.5 43.75ZM72.4998 68.7498C72.4998 70.8208 70.8208 72.4998 68.7498 72.4998H6.25004C4.17904 72.4998 2.50004 70.8208 2.50004 68.7498V53.7499C2.50004 51.6789 4.17904 49.9999 6.25004 49.9999H68.75C70.821 49.9999 72.5 51.6789 72.5 53.7499L72.4998 68.7498Z" fill="black"/>
<path fill-rule="evenodd" clip-rule="evenodd" d="M42.1335 56.6179C41.6454 56.13 40.8541 56.13 40.366 56.6179L37.4997 59.4842L34.6335 56.6179C34.1431 56.1442 33.3633 56.1509 32.8812 56.6331C32.399 57.1154 32.3923 57.895 32.866 58.3854L35.7323 61.2516L32.866 64.1179C32.5411 64.4318 32.4107 64.8965 32.5251 65.3336C32.6395 65.7705 32.9809 66.112 33.4178 66.2262C33.8548 66.3406 34.3196 66.2103 34.6335 65.8854L37.4997 63.0191L40.366 65.8854C40.8564 66.3591 41.6362 66.3524 42.1182 65.8701C42.6005 65.3879 42.6072 64.6083 42.1335 64.1179L39.2672 61.2516L42.1335 58.3854C42.6214 57.8973 42.6214 57.1061 42.1335 56.6179Z" fill="black"/>
<path fill-rule="evenodd" clip-rule="evenodd" d="M29.6335 56.6179C29.1454 56.13 28.3541 56.13 27.866 56.6179L24.9997 59.4842L22.1335 56.6179C21.6431 56.1442 20.8633 56.1509 20.3812 56.6331C19.899 57.1154 19.8923 57.895 20.366 58.3854L23.2323 61.2516L20.366 64.1179C20.0411 64.4318 19.9107 64.8965 20.0251 65.3336C20.1395 65.7705 20.4809 66.112 20.9178 66.2262C21.3548 66.3405 21.8196 66.2103 22.1335 65.8854L24.9997 63.0191L27.866 65.8854C28.3564 66.3591 29.1362 66.3524 29.6182 65.8701C30.1005 65.3879 30.1072 64.6083 29.6335 64.1179L26.7672 61.2516L29.6335 58.3854C30.1214 57.8973 30.1214 57.1061 29.6335 56.6179Z" fill="black"/>
<path fill-rule="evenodd" clip-rule="evenodd" d="M17.1335 56.6179C16.6454 56.13 15.8541 56.13 15.366 56.6179L12.4997 59.4842L9.63349 56.6179C9.14306 56.1442 8.36333 56.1509 7.88125 56.6331C7.39902 57.1154 7.39228 57.895 7.86601 58.3854L10.7323 61.2516L7.86601 64.1179C7.54111 64.4318 7.41074 64.8965 7.52514 65.3336C7.63955 65.7705 7.98086 66.112 8.41782 66.2262C8.85478 66.3405 9.31957 66.2103 9.63349 65.8854L12.4997 63.0191L15.366 65.8854C15.8564 66.3591 16.6362 66.3524 17.1182 65.8701C17.6005 65.3879 17.6072 64.6083 17.1335 64.1179L14.2672 61.2516L17.1335 58.3854C17.6216 57.8973 17.6216 57.1061 17.1335 56.6179Z" fill="black"/>
<path fill-rule="evenodd" clip-rule="evenodd" d="M67.1335 56.6179C66.6454 56.13 65.8541 56.13 65.366 56.6179L62.4997 59.4842L59.6335 56.6179C59.1431 56.1442 58.3633 56.1509 57.8812 56.6331C57.399 57.1154 57.3923 57.895 57.866 58.3854L60.7323 61.2516L57.866 64.1179C57.5411 64.4318 57.4107 64.8965 57.5251 65.3336C57.6395 65.7705 57.9809 66.112 58.4178 66.2262C58.8548 66.3405 59.3196 66.2103 59.6335 65.8854L62.4997 63.0191L65.366 65.8854C65.8564 66.3591 66.6362 66.3524 67.1182 65.8701C67.6005 65.3879 67.6072 64.6083 67.1335 64.1179L64.2672 61.2516L67.1335 58.3854C67.6214 57.8973 67.6214 57.1061 67.1335 56.6179Z" fill="black"/>
<path fill-rule="evenodd" clip-rule="evenodd" d="M54.6335 56.6179C54.1454 56.13 53.3541 56.13 52.866 56.6179L49.9997 59.4842L47.1335 56.6179C46.6431 56.1442 45.8633 56.1509 45.3812 56.6331C44.899 57.1154 44.8923 57.895 45.366 58.3854L48.2323 61.2516L45.366 64.1179C45.0411 64.4318 44.9107 64.8965 45.0251 65.3336C45.1395 65.7705 45.4809 66.112 45.9178 66.2262C46.3549 66.3406 46.8196 66.2103 47.1335 65.8854L49.9997 63.0191L52.866 65.8854C53.3564 66.3591 54.1362 66.3524 54.6182 65.8701C55.1005 65.3879 55.1072 64.6083 54.6335 64.1179L51.7674 61.2516L54.6336 58.3854C55.1216 57.8973 55.1216 57.1061 54.6335 56.6179Z" fill="black"/>
<path fill-rule="evenodd" clip-rule="evenodd" d="M37.5 21.251C33.3596 21.2551 30.0041 24.6106 30 28.751C30 29.4413 30.5596 30.0009 31.2499 30.0009C31.9403 30.0009 32.4999 29.4412 32.4999 28.751C32.4999 25.9896 34.7385 23.751 37.4998 23.751C40.2612 23.751 42.4998 25.9896 42.4998 28.751C42.4998 31.5123 40.2614 33.7509 37.5 33.7509C36.8096 33.7509 36.25 34.3106 36.25 35.0009V37.5009C36.25 38.1913 36.8098 38.7508 37.5 38.7508C38.1904 38.7508 38.7499 38.1911 38.7499 37.5009V36.1471C42.5976 35.5004 45.3067 32.0117 44.9805 28.1237C44.6543 24.2357 41.4016 21.2473 37.5 21.251Z" fill="black"/>
<path d="M37.4999 43.7489C38.1903 43.7489 38.7499 43.1893 38.7499 42.499C38.7499 41.8086 38.1903 41.249 37.4999 41.249C36.8096 41.249 36.25 41.8086 36.25 42.499C36.25 43.1893 36.8096 43.7489 37.4999 43.7489Z" fill="black"/>
</svg>
