<svg width="39" height="39" viewBox="0 0 39 39" fill="none" xmlns="http://www.w3.org/2000/svg">
<path d="M37.6034 16.6072C37.6026 16.6064 37.6017 16.6055 37.6008 16.6046L22.0241 1.03005C21.3601 0.365878 20.4774 0 19.5384 0C18.5994 0 17.7167 0.365587 17.0525 1.02976L1.48387 16.5965C1.47863 16.6017 1.47338 16.6072 1.46814 16.6125C0.104696 17.9837 0.107027 20.2084 1.47484 21.576C2.09975 22.2012 2.9251 22.5633 3.80755 22.6011C3.84338 22.6046 3.87951 22.6064 3.91593 22.6064H4.53676V34.0683C4.53676 36.3364 6.38236 38.1818 8.65127 38.1818H14.7454C15.363 38.1818 15.8641 37.6811 15.8641 37.0632V28.0771C15.8641 27.0421 16.7061 26.2002 17.7412 26.2002H21.3357C22.3708 26.2002 23.2127 27.0421 23.2127 28.0771V37.0632C23.2127 37.6811 23.7135 38.1818 24.3314 38.1818H30.4256C32.6945 38.1818 34.5401 36.3364 34.5401 34.0683V22.6064H35.1157C36.0544 22.6064 36.9372 22.2408 37.6017 21.5766C38.971 20.2066 38.9715 17.9781 37.6034 16.6072V16.6072Z" fill="black"/>
</svg>
