<svg width="15" height="14" viewBox="0 0 15 14" fill="none" xmlns="http://www.w3.org/2000/svg">
<path fill-rule="evenodd" clip-rule="evenodd" d="M7.5211 0C5.46564 0 3.79688 1.66876 3.79688 3.72422C3.79688 5.77968 5.46564 7.44844 7.5211 7.44844C9.57655 7.44844 11.2453 5.77968 11.2453 3.72422C11.2453 1.66876 9.57655 0 7.5211 0ZM7.5211 0.759219C9.15747 0.759219 10.4861 2.08785 10.4861 3.72422C10.4861 5.36059 9.15747 6.68922 7.5211 6.68922C5.88473 6.68922 4.55609 5.36059 4.55609 3.72422C4.55609 2.08785 5.88473 0.759219 7.5211 0.759219Z" fill="black"/>
<path fill-rule="evenodd" clip-rule="evenodd" d="M7.89984 4.00309V2.33078C7.89984 2.12124 7.72978 1.95117 7.52023 1.95117C7.31069 1.95117 7.14062 2.12124 7.14062 2.33078V4.00309C7.14062 4.21263 7.31069 4.3827 7.52023 4.3827C7.72978 4.3827 7.89984 4.21263 7.89984 4.00309Z" fill="black"/>
<path fill-rule="evenodd" clip-rule="evenodd" d="M7.33 3.67391L6.21496 4.31773C6.03376 4.4225 5.9715 4.65482 6.07628 4.83602C6.18105 5.01773 6.41337 5.07999 6.59457 4.97521L7.70961 4.3314C7.89081 4.22662 7.95306 3.9943 7.84829 3.8131C7.74352 3.6314 7.5112 3.56914 7.33 3.67391Z" fill="black"/>
<path fill-rule="evenodd" clip-rule="evenodd" d="M14.5518 11.7953C14.9293 11.7953 14.9314 12.1754 14.9314 12.1754C14.9314 12.6598 14.739 13.1239 14.3969 13.4661C14.0547 13.8083 13.5901 14.0006 13.1062 14.0006C10.3877 14.0006 4.54374 14.0006 1.82523 14.0006C1.34136 14.0006 0.876714 13.8083 0.53456 13.4661C0.192405 13.1239 6.97969e-05 12.6598 6.97969e-05 12.1754L0.000575966 12.1952C-0.0171391 11.767 0.379679 11.7953 0.379679 11.7953H14.5518ZM14.1023 12.5545C14.0497 12.6937 13.9672 12.8218 13.8599 12.9291C13.6599 13.129 13.3891 13.2414 13.1062 13.2414C10.3877 13.2414 4.54374 13.2414 1.82523 13.2414C1.5423 13.2414 1.27151 13.129 1.07158 12.9291C0.964278 12.8218 0.881776 12.6937 0.829137 12.5545H14.1023Z" fill="black"/>
<path fill-rule="evenodd" clip-rule="evenodd" d="M1.1218 10.9174H13.8109C14.0204 10.9174 14.1905 10.7474 14.1905 10.5378C14.1905 10.3283 14.0204 10.1582 13.8109 10.1582H1.1218C0.912253 10.1582 0.742188 10.3283 0.742188 10.5378C0.742188 10.7474 0.912253 10.9174 1.1218 10.9174Z" fill="black"/>
<path fill-rule="evenodd" clip-rule="evenodd" d="M10.8636 3.46289C10.6591 3.46289 10.4911 3.62486 10.484 3.82934C10.4293 5.41763 9.12244 6.69008 7.521 6.69008C5.91955 6.69008 4.61268 5.41763 4.55802 3.82934C4.55094 3.62486 4.38289 3.46289 4.17841 3.46289H2.13409C1.7646 3.46289 1.41081 3.60967 1.14963 3.87084C0.88897 4.13151 0.742188 4.48581 0.742188 4.85479V12.1752C0.742188 12.3847 0.912253 12.5548 1.1218 12.5548H13.8109C14.0204 12.5548 14.1905 12.3847 14.1905 12.1752V4.85479C14.1905 4.48581 14.0437 4.13151 13.783 3.87084C13.5219 3.60967 13.1681 3.46289 12.7986 3.46289H10.8636ZM11.2123 4.22211H12.7986C12.9666 4.22211 13.1276 4.28892 13.246 4.40736C13.3645 4.5263 13.4313 4.68726 13.4313 4.85479V11.7956H1.50141V4.85479C1.50141 4.68726 1.56822 4.5263 1.68666 4.40736C1.80509 4.28892 1.96605 4.22211 2.13409 4.22211H3.82968C4.07313 6.04272 5.63409 7.4493 7.521 7.4493C9.40791 7.4493 10.9689 6.04272 11.2123 4.22211Z" fill="black"/>
</svg>
