<svg width="12" height="13" viewBox="0 0 12 13" fill="none" xmlns="http://www.w3.org/2000/svg">
<path d="M6.24204 12.9993L5.86446 12.6757C5.34393 12.2398 0.798828 8.31449 0.798828 5.44322C0.798828 2.43702 3.23585 0 6.24204 0C9.24824 0 11.6853 2.43702 11.6853 5.44322C11.6853 8.31452 7.14016 12.2398 6.62179 12.6778L6.24204 12.9993ZM6.24204 1.17698C3.88699 1.17965 1.9785 3.08813 1.97584 5.44319C1.97584 7.24699 4.77216 10.1285 6.24204 11.4474C7.71196 10.128 10.5083 7.24481 10.5083 5.44319C10.5056 3.08813 8.59713 1.17967 6.24204 1.17698Z" fill="black"/>
<path d="M6.24163 7.60093C5.05 7.60093 4.08398 6.63492 4.08398 5.44329C4.08398 4.25166 5.05 3.28564 6.24163 3.28564C7.43326 3.28564 8.39927 4.25166 8.39927 5.44329C8.39927 6.63492 7.43329 7.60093 6.24163 7.60093ZM6.24163 4.36444C5.64581 4.36444 5.16281 4.84745 5.16281 5.44326C5.16281 6.03908 5.64581 6.52209 6.24163 6.52209C6.83745 6.52209 7.32045 6.03908 7.32045 5.44326C7.32045 4.84745 6.83747 4.36444 6.24163 4.36444Z" fill="black"/>
</svg>
