<svg width="11" height="12" viewBox="0 0 11 12" fill="none" xmlns="http://www.w3.org/2000/svg">
<path d="M5.73438 0C4.40874 0.00146256 3.13782 0.531164 2.20045 1.47289C1.26308 2.41461 0.735831 3.69144 0.734375 5.02323C0.734375 7.6765 4.93438 11.3189 5.41138 11.7257L5.73438 12L6.05737 11.7257C6.53437 11.3189 10.7344 7.6765 10.7344 5.02323C10.7329 3.69144 10.2057 2.41461 9.2683 1.47289C8.33093 0.531164 7.06001 0.00146256 5.73438 0ZM5.73438 7.53485C5.23992 7.53485 4.75657 7.38755 4.34545 7.11157C3.93433 6.83559 3.6139 6.44332 3.42468 5.98439C3.23546 5.52545 3.18595 5.02045 3.28241 4.53324C3.37887 4.04603 3.61698 3.59851 3.96661 3.24725C4.31624 2.896 4.7617 2.65679 5.24665 2.55988C5.7316 2.46297 6.23427 2.5127 6.69108 2.7028C7.1479 2.8929 7.53835 3.21482 7.81305 3.62785C8.08775 4.04089 8.23438 4.52648 8.23438 5.02323C8.23358 5.68911 7.96993 6.32749 7.50127 6.79833C7.0326 7.26918 6.39717 7.53405 5.73438 7.53485Z" fill="black"/>
</svg>
