<svg width="14" height="17" viewBox="0 0 14 17" fill="none" xmlns="http://www.w3.org/2000/svg">
<path fill-rule="evenodd" clip-rule="evenodd" d="M7.06505 7.35324C7.54643 7.35324 8.00809 7.16201 8.34848 6.82163C8.68887 6.48124 8.8801 6.01957 8.8801 5.53819C8.8801 5.05681 8.68887 4.59515 8.34848 4.25476C8.00809 3.91437 7.54643 3.72314 7.06505 3.72314C6.58367 3.72314 6.122 3.91437 5.78162 4.25476C5.44123 4.59515 5.25 5.05681 5.25 5.53819C5.25 6.01957 5.44123 6.48124 5.78162 6.82163C6.122 7.16201 6.58367 7.35324 7.06505 7.35324ZM7.06505 4.63067C7.30574 4.63067 7.53657 4.72628 7.70676 4.89648C7.87696 5.06667 7.97257 5.2975 7.97257 5.53819C7.97257 5.77888 7.87696 6.00972 7.70676 6.17991C7.53657 6.3501 7.30574 6.44572 7.06505 6.44572C6.82436 6.44572 6.59353 6.3501 6.42333 6.17991C6.25314 6.00972 6.15752 5.77888 6.15752 5.53819C6.15752 5.2975 6.25314 5.06667 6.42333 4.89648C6.59353 4.72628 6.82436 4.63067 7.06505 4.63067Z" fill="black" stroke="black" stroke-width="0.2"/>
<path fill-rule="evenodd" clip-rule="evenodd" d="M2.98047 5.34341C2.98047 7.76922 5.38813 11.8903 7.06433 11.8903C8.74143 11.8903 11.1482 7.76922 11.1482 5.34341C11.1482 2.95118 9.32678 1 7.06433 1C4.80187 1 2.98047 2.95118 2.98047 5.34341ZM10.2407 5.34341C10.2407 7.33361 8.10979 10.9828 7.06433 10.9828C6.01977 10.9828 3.88799 7.33452 3.88799 5.34341C3.88799 3.43852 5.31734 1.90752 7.06433 1.90752C8.81131 1.90752 10.2407 3.43852 10.2407 5.34341Z" fill="black" stroke="black" stroke-width="0.2"/>
<path d="M10.1828 7.93397C10.0743 7.88728 9.98831 7.80012 9.94305 7.691C9.89779 7.58189 9.89687 7.45943 9.94047 7.34965C9.98408 7.23987 10.0688 7.15142 10.1766 7.10309C10.2844 7.05477 10.4067 7.05039 10.5177 7.09088C10.8868 7.23725 11.2193 7.46256 11.4921 7.75101C11.7649 8.03947 11.9713 8.38409 12.0968 8.76072L13.3074 12.3908C13.444 12.8002 13.4812 13.2362 13.4161 13.6629C13.351 14.0895 13.1853 14.4946 12.9329 14.8446C12.6804 15.1947 12.3484 15.4797 11.9641 15.6761C11.5799 15.8726 11.1544 15.9749 10.7228 15.9746H3.40817C2.97674 15.9746 2.55149 15.8721 2.16746 15.6755C1.78343 15.4789 1.45162 15.1939 1.19938 14.8439C0.947137 14.4939 0.781682 14.0889 0.716653 13.6624C0.651624 13.2359 0.688882 12.8001 0.825356 12.3908L2.03509 8.76072C2.16282 8.37733 2.3743 8.02719 2.65418 7.73569C2.93406 7.4442 3.27532 7.21866 3.6532 7.07545C3.70892 7.0543 3.76825 7.04432 3.82782 7.0461C3.88739 7.04788 3.94603 7.06137 4.00038 7.08581C4.05474 7.11025 4.10375 7.14515 4.14461 7.18853C4.18548 7.23191 4.2174 7.28292 4.23855 7.33863C4.25971 7.39435 4.26968 7.45368 4.2679 7.51325C4.26613 7.57282 4.25263 7.63146 4.22819 7.68581C4.20376 7.74017 4.16885 7.78918 4.12547 7.83004C4.08209 7.87091 4.03109 7.90283 3.97537 7.92398C3.72313 8.0194 3.49533 8.16983 3.30852 8.36434C3.12171 8.55884 2.98059 8.79253 2.89542 9.04841L1.68569 12.6785C1.59481 12.9514 1.57007 13.2419 1.61351 13.5262C1.65695 13.8105 1.76733 14.0804 1.93554 14.3137C2.10376 14.547 2.325 14.7369 2.58104 14.8679C2.83707 14.9989 3.12057 15.0672 3.40817 15.0671H10.7246C11.0123 15.0671 11.2958 14.9987 11.5518 14.8676C11.8078 14.7365 12.029 14.5464 12.1971 14.3131C12.3652 14.0797 12.4755 13.8097 12.5188 13.5254C12.5621 13.241 12.5372 12.9504 12.4462 12.6776L11.2374 9.0475C11.1536 8.79652 11.016 8.56689 10.8341 8.3747C10.6523 8.1825 10.4306 8.03239 10.1847 7.93487" fill="black"/>
<path d="M10.1828 7.93397C10.0743 7.88728 9.98831 7.80012 9.94305 7.691C9.89779 7.58189 9.89687 7.45943 9.94047 7.34965C9.98408 7.23987 10.0688 7.15142 10.1766 7.10309C10.2844 7.05477 10.4067 7.05039 10.5177 7.09088C10.8868 7.23725 11.2193 7.46256 11.4921 7.75101C11.7649 8.03947 11.9713 8.38409 12.0968 8.76072L13.3074 12.3908C13.444 12.8002 13.4812 13.2362 13.4161 13.6629C13.351 14.0895 13.1853 14.4946 12.9329 14.8446C12.6804 15.1947 12.3484 15.4797 11.9641 15.6761C11.5799 15.8726 11.1544 15.9749 10.7228 15.9746H3.40817C2.97674 15.9746 2.55149 15.8721 2.16746 15.6755C1.78343 15.4789 1.45162 15.1939 1.19938 14.8439C0.947137 14.4939 0.781682 14.0889 0.716653 13.6624C0.651624 13.2359 0.688882 12.8001 0.825356 12.3908L2.03509 8.76072C2.16282 8.37733 2.3743 8.02719 2.65418 7.73569C2.93406 7.4442 3.27532 7.21866 3.6532 7.07545C3.70892 7.0543 3.76825 7.04432 3.82782 7.0461C3.88739 7.04788 3.94603 7.06137 4.00038 7.08581C4.05474 7.11025 4.10375 7.14515 4.14461 7.18853C4.18548 7.23191 4.2174 7.28292 4.23855 7.33863C4.25971 7.39435 4.26968 7.45368 4.2679 7.51325C4.26613 7.57282 4.25263 7.63146 4.22819 7.68581C4.20376 7.74017 4.16885 7.78918 4.12547 7.83004C4.08209 7.87091 4.03109 7.90283 3.97537 7.92398C3.72313 8.0194 3.49533 8.16983 3.30852 8.36434C3.12171 8.55884 2.98059 8.79253 2.89542 9.04841L1.68569 12.6785C1.59481 12.9514 1.57007 13.2419 1.61351 13.5262C1.65695 13.8105 1.76733 14.0804 1.93554 14.3137C2.10376 14.547 2.325 14.7369 2.58104 14.8679C2.83707 14.9989 3.12057 15.0672 3.40817 15.0671H10.7246C11.0123 15.0671 11.2958 14.9987 11.5518 14.8676C11.8078 14.7365 12.029 14.5464 12.1971 14.3131C12.3652 14.0797 12.4755 13.8097 12.5188 13.5254C12.5621 13.241 12.5372 12.9504 12.4462 12.6776L11.2374 9.0475C11.1536 8.79652 11.016 8.56689 10.8341 8.3747C10.6523 8.1825 10.4306 8.03239 10.1847 7.93487" stroke="black" stroke-width="0.2"/>
</svg>
