<svg width="13" height="18" viewBox="0 0 13 18" fill="none" xmlns="http://www.w3.org/2000/svg">
<path d="M6.5 0C3.79167 0 1.625 2.16667 1.625 4.875V7.04167C0.704167 7.04167 0 7.74583 0 8.66667V15.7083C0 16.6292 0.704167 17.3333 1.625 17.3333H11.375C12.2958 17.3333 13 16.6292 13 15.7083V8.66667C13 7.74583 12.2958 7.04167 11.375 7.04167V4.875C11.375 2.16667 9.20833 0 6.5 0ZM11.9167 8.66667V15.7083C11.9167 16.0333 11.7 16.25 11.375 16.25H1.625C1.3 16.25 1.08333 16.0333 1.08333 15.7083V8.66667C1.08333 8.34167 1.3 8.125 1.625 8.125H2.16667H10.8333H11.375C11.7 8.125 11.9167 8.34167 11.9167 8.66667ZM2.70833 7.04167V4.875C2.70833 2.7625 4.3875 1.08333 6.5 1.08333C8.6125 1.08333 10.2917 2.7625 10.2917 4.875V7.04167H2.70833Z" fill="black"/>
<path d="M6.5 9.75C5.57917 9.75 4.875 10.4542 4.875 11.375C4.875 12.0792 5.30833 12.675 5.95833 12.8917V14.0833C5.95833 14.4083 6.175 14.625 6.5 14.625C6.825 14.625 7.04167 14.4083 7.04167 14.0833V12.8917C7.69167 12.675 8.125 12.0792 8.125 11.375C8.125 10.4542 7.42083 9.75 6.5 9.75ZM6.5 11.9167C6.175 11.9167 5.95833 11.7 5.95833 11.375C5.95833 11.05 6.175 10.8333 6.5 10.8333C6.825 10.8333 7.04167 11.05 7.04167 11.375C7.04167 11.7 6.825 11.9167 6.5 11.9167Z" fill="black"/>
</svg>
