<svg width="168" height="64" viewBox="0 0 168 64" fill="none" xmlns="http://www.w3.org/2000/svg">
<path fill-rule="evenodd" clip-rule="evenodd" d="M30.5528 11.0752V34.5352L19.8959 47.5604L17.5312 45.6256L27.4976 33.4446V11.0752H30.5528Z" fill="#639EFF"/>
<path fill-rule="evenodd" clip-rule="evenodd" d="M24.4423 0C24.0205 0 23.6785 0.341976 23.6785 0.763824V5.14061C10.1796 7.80598 0 19.7093 0 33.9901C0 50.2313 13.1661 63.3973 29.4072 63.3973C45.2647 63.3973 58.1907 50.846 58.7926 35.1359H54.9702C54.3709 48.7361 43.1552 59.5782 29.4072 59.5782C15.2753 59.5782 3.81912 48.122 3.81912 33.9901C3.81912 19.8582 15.2753 8.40205 29.4072 8.40205C31.1059 8.40205 32.766 8.56758 34.3721 8.88338V5.00028C34.3721 5.00028 34.3721 5.00027 34.372 5.00027V0.763823C34.372 0.341975 34.0301 0 33.6082 0H24.4423Z" fill="#639EFF"/>
<path d="M46.5626 20.575C46.5626 19.8229 46.3522 19.223 45.9314 18.7754C45.5196 18.3277 44.8928 18.1039 44.0512 18.1039C43.5499 18.1039 43.1112 18.1934 42.7351 18.3725C42.3591 18.5426 42.0681 18.7754 41.8622 19.0708C41.6563 19.3663 41.5533 19.702 41.5533 20.0781H38.2227C38.2227 19.2991 38.4689 18.5694 38.9613 17.889C39.4538 17.1996 40.1476 16.6445 41.043 16.2237C41.9472 15.8029 43.0127 15.5925 44.2393 15.5925C45.3316 15.5925 46.303 15.776 47.1535 16.1431C48.0041 16.5102 48.6711 17.0653 49.1546 17.8084C49.647 18.5515 49.8932 19.4827 49.8932 20.6018V27.0078C49.8932 27.6883 49.9425 28.2882 50.0409 28.8074C50.1394 29.3267 50.2782 29.7789 50.4573 30.1639V30.3922H47.0461C46.8939 30.043 46.773 29.5908 46.6835 29.0357C46.6029 28.4807 46.5626 27.939 46.5626 27.4107V20.575ZM47.073 23.5967H44.7899C43.6081 23.5967 42.7172 23.816 42.1174 24.2547C41.5264 24.6845 41.231 25.2709 41.231 26.014C41.231 26.587 41.428 27.066 41.8219 27.451C42.2158 27.8271 42.7709 28.0151 43.4872 28.0151C44.1408 28.0151 44.7093 27.8853 45.1928 27.6256C45.6852 27.357 46.0702 27.0302 46.3477 26.6452C46.6253 26.2513 46.7685 25.8842 46.7775 25.544L47.8385 27.0347C47.731 27.4018 47.5475 27.7957 47.2878 28.2165C47.0371 28.6284 46.7014 29.0223 46.2806 29.3984C45.8687 29.7654 45.3763 30.0698 44.8033 30.3116C44.2393 30.5444 43.5812 30.6608 42.8291 30.6608C41.8801 30.6608 41.034 30.4727 40.2909 30.0967C39.5478 29.7207 38.9613 29.2059 38.5316 28.5523C38.1108 27.8897 37.9004 27.1466 37.9004 26.3229C37.9004 24.783 38.4779 23.6011 39.6328 22.7775C40.7878 21.9538 42.4262 21.5419 44.5482 21.5419H47.0461L47.073 23.5967Z" fill="#222222"/>
<path d="M62.7429 18.3188H54.497V15.8611H62.7429V18.3188ZM60.1643 12.3022V26.2961C60.1643 26.7437 60.227 27.0839 60.3524 27.3167C60.4777 27.5406 60.6568 27.6928 60.8896 27.7733C61.1223 27.8539 61.3909 27.8942 61.6953 27.8942C61.9192 27.8942 62.134 27.8808 62.34 27.8539C62.5459 27.8271 62.7115 27.8002 62.8369 27.7733V30.3384C62.5683 30.428 62.2549 30.5041 61.8968 30.5667C61.5476 30.6294 61.1358 30.6608 60.6612 30.6608C59.9181 30.6608 59.2556 30.5265 58.6736 30.2579C58.1006 29.9893 57.6485 29.555 57.3172 28.9552C56.9949 28.3464 56.8337 27.5406 56.8337 26.5378V12.3022H60.1643Z" fill="#222222"/>
<path d="M74.921 18.3188H66.6751V15.8611H74.921V18.3188ZM72.3425 12.3022V26.2961C72.3425 26.7437 72.4052 27.0839 72.5305 27.3167C72.6559 27.5406 72.8349 27.6928 73.0677 27.7733C73.3005 27.8539 73.5691 27.8942 73.8735 27.8942C74.0973 27.8942 74.3122 27.8808 74.5181 27.8539C74.7241 27.8271 74.8897 27.8002 75.015 27.7733V30.3384C74.7464 30.428 74.4331 30.5041 74.0749 30.5667C73.7258 30.6294 73.3139 30.6608 72.8394 30.6608C72.0963 30.6608 71.4338 30.5265 70.8518 30.2579C70.2788 29.9893 69.8267 29.555 69.4954 28.9552C69.1731 28.3464 69.0119 27.5406 69.0119 26.5378V12.3022H72.3425Z" fill="#222222"/>
<path d="M86.562 30.6608C85.1205 30.6608 83.876 30.3519 82.8285 29.7341C81.781 29.1074 80.9752 28.2658 80.4111 27.2093C79.8471 26.1439 79.5651 24.9531 79.5651 23.637V23.0863C79.5651 21.5732 79.8516 20.2571 80.4246 19.138C80.9976 18.0099 81.781 17.1369 82.7748 16.5192C83.7775 15.9014 84.9101 15.5925 86.1725 15.5925C87.5692 15.5925 88.7287 15.8969 89.6509 16.5057C90.573 17.1056 91.2624 17.9427 91.719 19.0171C92.1757 20.0825 92.404 21.3181 92.404 22.7237V24.1607H81.1632V21.7568H89.1137V21.5016C89.0958 20.9376 88.9883 20.4093 88.7913 19.9169C88.5944 19.4245 88.281 19.0261 87.8513 18.7216C87.4305 18.4172 86.8664 18.265 86.1591 18.265C85.4518 18.265 84.8564 18.4665 84.3729 18.8694C83.8895 19.2633 83.5224 19.8229 83.2717 20.5481C83.021 21.2644 82.8957 22.1104 82.8957 23.0863V23.637C82.8957 24.4607 83.0479 25.1993 83.3523 25.8529C83.6567 26.5065 84.0999 27.0258 84.6818 27.4107C85.2638 27.7868 85.9577 27.9748 86.7634 27.9748C87.5424 27.9748 88.2318 27.8226 88.8316 27.5182C89.4405 27.2138 89.9642 26.7751 90.4029 26.2021L92.1488 27.9479C91.6922 28.6373 91.0028 29.2641 90.0806 29.8281C89.1674 30.3832 87.9945 30.6608 86.562 30.6608Z" fill="#222222"/>
<path d="M100.943 30.3922H97.6121V15.8611H100.741L100.943 18.9634V30.3922ZM99.2773 22.6163C99.2863 21.2106 99.5325 19.9841 100.016 18.9365C100.499 17.88 101.175 17.0608 102.044 16.4789C102.912 15.888 103.924 15.5925 105.079 15.5925C106.019 15.5925 106.834 15.7716 107.523 16.1297C108.213 16.4789 108.75 17.0519 109.135 17.8487C109.52 18.6366 109.712 19.6975 109.712 21.0316V30.3922H106.368V21.0047C106.368 20.3332 106.27 19.8005 106.073 19.4066C105.885 19.0126 105.598 18.7351 105.213 18.5739C104.837 18.4038 104.376 18.3188 103.83 18.3188C103.275 18.3188 102.783 18.4307 102.353 18.6545C101.932 18.8694 101.569 19.1738 101.265 19.5677C100.97 19.9617 100.741 20.4183 100.58 20.9376C100.428 21.4569 100.352 22.012 100.352 22.6029L99.2773 22.6163Z" fill="#222222"/>
<path d="M124.563 9.76396H127.894V30.3922H124.872L124.563 27.3436V9.76396ZM115.135 23.0058C115.135 21.5374 115.364 20.2482 115.82 19.138C116.286 18.0188 116.944 17.1504 117.794 16.5326C118.645 15.9059 119.666 15.5925 120.856 15.5925C122.029 15.5925 123.01 15.8969 123.798 16.5057C124.585 17.1145 125.203 17.9606 125.651 19.044C126.107 20.1183 126.412 21.3673 126.564 22.7909V23.5698C126.412 24.9486 126.112 26.1707 125.664 27.2362C125.217 28.3016 124.594 29.1387 123.798 29.7475C123.01 30.3563 122.02 30.6608 120.83 30.6608C119.657 30.6608 118.645 30.3429 117.794 29.7072C116.944 29.0626 116.286 28.1852 115.82 27.075C115.364 25.9648 115.135 24.7024 115.135 23.2878V23.0058ZM118.466 23.2878C118.466 24.1473 118.573 24.9307 118.788 25.638C119.003 26.3364 119.343 26.8959 119.809 27.3167C120.283 27.7286 120.906 27.9345 121.676 27.9345C122.401 27.9345 122.996 27.7778 123.462 27.4645C123.936 27.1421 124.303 26.7079 124.563 26.1618C124.832 25.6156 125.015 25.0023 125.114 24.3219V22.0522C125.051 21.5151 124.939 21.0181 124.778 20.5615C124.617 20.1049 124.397 19.711 124.12 19.3797C123.851 19.0484 123.515 18.7888 123.113 18.6008C122.71 18.4128 122.24 18.3188 121.702 18.3188C120.932 18.3188 120.306 18.5292 119.822 18.95C119.348 19.3618 119.003 19.9259 118.788 20.6421C118.573 21.3494 118.466 22.1373 118.466 23.0058V23.2878Z" fill="#222222"/>
<path d="M137.56 30.3922H134.23V15.8611H137.56V30.3922ZM134.015 12.0605C134.015 11.5501 134.181 11.1293 134.512 10.7981C134.843 10.4578 135.304 10.2877 135.895 10.2877C136.486 10.2877 136.952 10.4578 137.292 10.7981C137.632 11.1293 137.802 11.5501 137.802 12.0605C137.802 12.5618 137.632 12.9826 137.292 13.3229C136.952 13.6541 136.486 13.8198 135.895 13.8198C135.304 13.8198 134.843 13.6541 134.512 13.3229C134.181 12.9826 134.015 12.5618 134.015 12.0605Z" fill="#222222"/>
<path d="M144.958 30.3922V14.4778C144.958 12.8662 145.414 11.6307 146.327 10.7712C147.241 9.91169 148.49 9.48193 150.074 9.48193C150.397 9.48193 150.714 9.50432 151.028 9.54908C151.341 9.59385 151.646 9.65204 151.941 9.72367L151.86 12.3291C151.69 12.2932 151.498 12.2664 151.283 12.2485C151.068 12.2306 150.844 12.2216 150.611 12.2216C149.877 12.2216 149.304 12.4186 148.892 12.8125C148.49 13.1975 148.288 13.7526 148.288 14.4778V30.3922H144.958ZM151.256 18.3188H142.742V15.8611H151.256V18.3188Z" fill="#222222"/>
<path d="M164.442 15.8611H168L162.185 32.5946C162.051 32.9617 161.876 33.3557 161.662 33.7765C161.447 34.1973 161.165 34.5957 160.815 34.9717C160.475 35.3478 160.045 35.6566 159.526 35.8984C159.016 36.1401 158.398 36.261 157.673 36.261C157.476 36.261 157.283 36.2476 157.095 36.2207C156.916 36.2028 156.742 36.1759 156.572 36.1401C156.402 36.1043 156.236 36.064 156.075 36.0193V33.4542C156.164 33.4631 156.272 33.4721 156.397 33.481C156.522 33.49 156.625 33.4944 156.706 33.4944C157.503 33.4944 158.107 33.3512 158.519 33.0647C158.931 32.7782 159.249 32.2902 159.472 31.6008L160.533 28.794L164.442 15.8611ZM161.796 26.6184L162.387 30.2176L160.077 30.7413L154.826 15.8611H158.425L161.796 26.6184Z" fill="#222222"/>
<path d="M63.2891 45.4679V40.6514H63.9634V41.3161C64.1368 41.0721 64.3583 40.8778 64.6281 40.7333C64.8978 40.5888 65.1932 40.5166 65.5143 40.5166C65.8771 40.5166 66.2095 40.6065 66.5113 40.7863C66.8131 40.9629 67.0492 41.1989 67.2193 41.4943C67.3895 41.1989 67.6239 40.9629 67.9225 40.7863C68.2212 40.6065 68.5519 40.5166 68.9147 40.5166C69.2776 40.5166 69.6083 40.6049 69.9069 40.7815C70.2056 40.9581 70.4432 41.1957 70.6198 41.4943C70.7964 41.7929 70.8847 42.1237 70.8847 42.4865V45.4679H70.2104V42.6358C70.2104 42.3789 70.1478 42.1413 70.0225 41.923C69.8973 41.7046 69.7287 41.5296 69.5168 41.398C69.3081 41.2631 69.0753 41.1957 68.8184 41.1957C68.5615 41.1957 68.3271 41.2583 68.1152 41.3835C67.9065 41.5055 67.7395 41.6757 67.6143 41.8941C67.4891 42.1092 67.4264 42.3565 67.4264 42.6358V45.4679H66.7521V42.6358C66.7521 42.3565 66.6895 42.1092 66.5643 41.8941C66.4391 41.6757 66.2705 41.5055 66.0586 41.3835C65.8466 41.2583 65.6122 41.1957 65.3553 41.1957C65.1017 41.1957 64.8689 41.2631 64.657 41.398C64.445 41.5296 64.2764 41.7046 64.1512 41.923C64.026 42.1413 63.9634 42.3789 63.9634 42.6358V45.4679H63.2891Z" fill="#999999"/>
<path d="M76.2927 40.6514H76.967V45.4679H76.2927L76.2687 44.5721C76.1113 44.8771 75.8914 45.1243 75.6088 45.3138C75.3262 45.5 74.9891 45.5932 74.5973 45.5932C74.2441 45.5932 73.9134 45.5273 73.6051 45.3957C73.2969 45.2608 73.0255 45.0762 72.7911 44.8418C72.5567 44.6074 72.3737 44.336 72.2421 44.0278C72.1104 43.7195 72.0446 43.3888 72.0446 43.0356C72.0446 42.6888 72.1088 42.3629 72.2372 42.0578C72.3689 41.7528 72.5487 41.4847 72.7767 41.2535C73.0079 41.0223 73.2744 40.8425 73.5762 40.714C73.8813 40.5824 74.2072 40.5166 74.554 40.5166C74.9554 40.5166 75.3053 40.6129 75.604 40.8055C75.9026 40.995 76.1402 41.2438 76.3168 41.5521L76.2927 40.6514ZM74.5829 44.9381C74.9265 44.9381 75.2219 44.8546 75.4691 44.6877C75.7164 44.5175 75.9058 44.2895 76.0375 44.0037C76.1723 43.7179 76.2398 43.4033 76.2398 43.0597C76.2398 42.7065 76.1723 42.3886 76.0375 42.106C75.9026 41.8202 75.7115 41.5938 75.4643 41.4269C75.217 41.2599 74.9232 41.1764 74.5829 41.1764C74.2425 41.1764 73.931 41.2615 73.6485 41.4317C73.3691 41.5987 73.1459 41.825 72.979 42.1108C72.8152 42.3966 72.7333 42.7129 72.7333 43.0597C72.7333 43.4097 72.8184 43.7276 72.9886 44.0133C73.1588 44.2959 73.3836 44.5207 73.6629 44.6877C73.9455 44.8546 74.2521 44.9381 74.5829 44.9381Z" fill="#999999"/>
<path d="M78.5089 45.4679V40.6514H79.1832V41.3161C79.3533 41.0721 79.5749 40.8778 79.8478 40.7333C80.1208 40.5888 80.4178 40.5166 80.7389 40.5166C80.9251 40.5166 81.105 40.5406 81.2783 40.5888L81.0038 41.2583C80.8689 41.2166 80.7373 41.1957 80.6089 41.1957C80.3488 41.1957 80.1095 41.2599 79.8912 41.3883C79.6761 41.5168 79.5043 41.6886 79.3758 41.9037C79.2474 42.1188 79.1832 42.3581 79.1832 42.6214V45.4679H78.5089Z" fill="#999999"/>
<path d="M86.1787 45.4679H85.4032L84.0546 43.1416L83.0913 44.2927V45.4679H82.417V38.2432H83.0913V43.2427L85.2636 40.6514H86.145L84.5122 42.5925L86.1787 45.4679Z" fill="#999999"/>
<path d="M93.9183 40.6514H94.6311L91.9965 47.8762H91.2789L92.1555 45.4679L90.4263 40.6514H91.1633L92.4926 44.5383L93.9183 40.6514Z" fill="#999999"/>
<path d="M98.001 45.5932C97.5579 45.5932 97.1533 45.4792 96.7873 45.2512C96.4244 45.0232 96.1338 44.7182 95.9155 44.336C95.7004 43.9507 95.5928 43.5253 95.5928 43.0597C95.5928 42.7065 95.6554 42.3773 95.7806 42.0723C95.9059 41.764 96.0776 41.4943 96.296 41.2631C96.5176 41.0287 96.7744 40.8457 97.0666 40.714C97.3588 40.5824 97.6703 40.5166 98.001 40.5166C98.4442 40.5166 98.8471 40.6305 99.21 40.8585C99.576 41.0865 99.8666 41.3932 100.082 41.7785C100.3 42.1638 100.409 42.5909 100.409 43.0597C100.409 43.4097 100.347 43.7372 100.221 44.0422C100.096 44.3473 99.9228 44.617 99.7013 44.8514C99.4829 45.0826 99.2276 45.264 98.9354 45.3957C98.6465 45.5273 98.335 45.5932 98.001 45.5932ZM98.001 44.9188C98.3286 44.9188 98.6224 44.8338 98.8825 44.6636C99.1458 44.4902 99.3529 44.2622 99.5038 43.9796C99.6579 43.6971 99.735 43.3904 99.735 43.0597C99.735 42.7225 99.6579 42.4127 99.5038 42.1301C99.3497 41.8443 99.1409 41.6163 98.8776 41.4461C98.6176 41.276 98.3254 41.1909 98.001 41.1909C97.6735 41.1909 97.3781 41.2776 97.1148 41.451C96.8547 41.6211 96.6476 41.8475 96.4935 42.1301C96.3426 42.4127 96.2671 42.7225 96.2671 43.0597C96.2671 43.4065 96.3458 43.7211 96.5031 44.0037C96.6604 44.2831 96.8708 44.5062 97.1341 44.6732C97.3974 44.837 97.6864 44.9188 98.001 44.9188Z" fill="#999999"/>
<path d="M101.563 43.6232V40.6514H102.238V43.4883C102.238 43.7516 102.302 43.9909 102.43 44.206C102.559 44.4211 102.731 44.5929 102.946 44.7214C103.164 44.8498 103.403 44.914 103.663 44.914C103.927 44.914 104.164 44.8498 104.376 44.7214C104.591 44.5929 104.763 44.4211 104.892 44.206C105.02 43.9909 105.084 43.7516 105.084 43.4883V40.6514H105.759L105.763 45.4679H105.089L105.084 44.7936C104.914 45.0377 104.693 45.2319 104.42 45.3764C104.15 45.5209 103.854 45.5932 103.533 45.5932C103.17 45.5932 102.84 45.5049 102.541 45.3282C102.243 45.1516 102.005 44.914 101.828 44.6154C101.652 44.3168 101.563 43.986 101.563 43.6232Z" fill="#999999"/>
<path d="M107.301 45.4679V40.6514H107.975V41.3161C108.146 41.0721 108.367 40.8778 108.64 40.7333C108.913 40.5888 109.21 40.5166 109.531 40.5166C109.717 40.5166 109.897 40.5406 110.071 40.5888L109.796 41.2583C109.661 41.2166 109.529 41.1957 109.401 41.1957C109.141 41.1957 108.902 41.2599 108.683 41.3883C108.468 41.5168 108.296 41.6886 108.168 41.9037C108.04 42.1188 107.975 42.3581 107.975 42.6214V45.4679H107.301Z" fill="#999999"/>
<path d="M118.173 40.6514H118.848V45.4679H118.173L118.149 44.5721C117.992 44.8771 117.772 45.1243 117.489 45.3138C117.207 45.5 116.87 45.5932 116.478 45.5932C116.125 45.5932 115.794 45.5273 115.486 45.3957C115.178 45.2608 114.906 45.0762 114.672 44.8418C114.437 44.6074 114.254 44.336 114.123 44.0278C113.991 43.7195 113.925 43.3888 113.925 43.0356C113.925 42.6888 113.989 42.3629 114.118 42.0578C114.25 41.7528 114.429 41.4847 114.657 41.2535C114.889 41.0223 115.155 40.8425 115.457 40.714C115.762 40.5824 116.088 40.5166 116.435 40.5166C116.836 40.5166 117.186 40.6129 117.485 40.8055C117.783 40.995 118.021 41.2438 118.197 41.5521L118.173 40.6514ZM116.464 44.9381C116.807 44.9381 117.103 44.8546 117.35 44.6877C117.597 44.5175 117.786 44.2895 117.918 44.0037C118.053 43.7179 118.12 43.4033 118.12 43.0597C118.12 42.7065 118.053 42.3886 117.918 42.106C117.783 41.8202 117.592 41.5938 117.345 41.4269C117.098 41.2599 116.804 41.1764 116.464 41.1764C116.123 41.1764 115.812 41.2615 115.529 41.4317C115.25 41.5987 115.027 41.825 114.86 42.1108C114.696 42.3966 114.614 42.7129 114.614 43.0597C114.614 43.4097 114.699 43.7276 114.869 44.0133C115.039 44.2959 115.264 44.5207 115.544 44.6877C115.826 44.8546 116.133 44.9381 116.464 44.9381Z" fill="#999999"/>
<path d="M122.851 41.3257H121.7L121.695 45.4679H121.02L121.025 41.3257H120.154V40.6514H121.025L121.02 39.139H121.695L121.7 40.6514H122.851V41.3257Z" fill="#999999"/>
<path d="M126.75 41.3257H125.598L125.594 45.4679H124.919L124.924 41.3257H124.052V40.6514H124.924L124.919 39.139H125.594L125.598 40.6514H126.75V41.3257Z" fill="#999999"/>
<path d="M130.175 45.5932C129.731 45.5932 129.327 45.4792 128.961 45.2512C128.598 45.0232 128.307 44.7182 128.089 44.336C127.874 43.9507 127.766 43.5253 127.766 43.0597C127.766 42.7065 127.829 42.3773 127.954 42.0723C128.079 41.764 128.251 41.4943 128.47 41.2631C128.691 41.0287 128.948 40.8457 129.24 40.714C129.532 40.5824 129.844 40.5166 130.175 40.5166C130.531 40.5166 130.859 40.5872 131.157 40.7285C131.459 40.8698 131.717 41.0672 131.933 41.3209C132.151 41.5746 132.315 41.8716 132.424 42.212C132.536 42.5523 132.583 42.92 132.564 43.3149H128.479C128.518 43.62 128.614 43.8929 128.768 44.1338C128.925 44.3746 129.125 44.5656 129.365 44.7069C129.609 44.845 129.879 44.9156 130.175 44.9188C130.496 44.9188 130.785 44.8354 131.042 44.6684C131.302 44.5014 131.51 44.2718 131.668 43.9796L132.352 44.1386C132.159 44.5656 131.868 44.9156 131.48 45.1886C131.091 45.4583 130.656 45.5932 130.175 45.5932ZM128.46 42.7707H131.884C131.862 42.4721 131.77 42.1991 131.61 41.9519C131.453 41.7014 131.249 41.5023 130.998 41.3546C130.748 41.2037 130.473 41.1283 130.175 41.1283C129.876 41.1283 129.603 41.2021 129.356 41.3498C129.109 41.4943 128.906 41.6918 128.749 41.9422C128.592 42.1895 128.495 42.4656 128.46 42.7707Z" fill="#999999"/>
<path d="M138.167 42.4865V45.4679H137.493V42.6214C137.493 42.3581 137.429 42.1188 137.3 41.9037C137.172 41.6886 137 41.5168 136.785 41.3883C136.57 41.2599 136.33 41.1957 136.067 41.1957C135.807 41.1957 135.568 41.2599 135.35 41.3883C135.134 41.5168 134.963 41.6886 134.834 41.9037C134.706 42.1188 134.642 42.3581 134.642 42.6214V45.4679H133.967V40.6514H134.642V41.3161C134.812 41.0721 135.033 40.8778 135.306 40.7333C135.579 40.5888 135.876 40.5166 136.197 40.5166C136.56 40.5166 136.891 40.6049 137.189 40.7815C137.488 40.9581 137.726 41.1957 137.902 41.4943C138.079 41.7929 138.167 42.1237 138.167 42.4865Z" fill="#999999"/>
<path d="M143.58 38.2432H144.254V45.4679H143.58V44.5672C143.413 44.8755 143.183 45.1243 142.891 45.3138C142.602 45.5 142.258 45.5932 141.86 45.5932C141.51 45.5932 141.183 45.5273 140.878 45.3957C140.573 45.264 140.303 45.0826 140.068 44.8514C139.837 44.617 139.656 44.3473 139.524 44.0422C139.393 43.7372 139.327 43.4097 139.327 43.0597C139.327 42.7097 139.393 42.3822 139.524 42.0771C139.656 41.7688 139.837 41.4991 140.068 41.2679C140.303 41.0335 140.573 40.8505 140.878 40.7188C141.183 40.5872 141.51 40.5214 141.86 40.5214C142.258 40.5214 142.602 40.6161 142.891 40.8055C143.183 40.9918 143.413 41.2374 143.58 41.5425V38.2432ZM141.865 44.9381C142.209 44.9381 142.504 44.8546 142.751 44.6877C142.998 44.5175 143.188 44.2895 143.32 44.0037C143.454 43.7179 143.522 43.4033 143.522 43.0597C143.522 42.7065 143.454 42.3886 143.32 42.106C143.185 41.8202 142.994 41.5938 142.746 41.4269C142.499 41.2599 142.205 41.1764 141.865 41.1764C141.525 41.1764 141.215 41.2615 140.935 41.4317C140.656 41.5987 140.433 41.825 140.266 42.1108C140.099 42.3966 140.015 42.7129 140.015 43.0597C140.015 43.4097 140.101 43.7276 140.271 44.0133C140.441 44.2959 140.666 44.5207 140.945 44.6877C141.228 44.8546 141.534 44.9381 141.865 44.9381Z" fill="#999999"/>
<path d="M149.91 40.6514H150.584V45.4679H149.91L149.886 44.5721C149.729 44.8771 149.509 45.1243 149.226 45.3138C148.944 45.5 148.606 45.5932 148.215 45.5932C147.861 45.5932 147.531 45.5273 147.222 45.3957C146.914 45.2608 146.643 45.0762 146.408 44.8418C146.174 44.6074 145.991 44.336 145.859 44.0278C145.728 43.7195 145.662 43.3888 145.662 43.0356C145.662 42.6888 145.726 42.3629 145.855 42.0578C145.986 41.7528 146.166 41.4847 146.394 41.2535C146.625 41.0223 146.892 40.8425 147.194 40.714C147.499 40.5824 147.825 40.5166 148.171 40.5166C148.573 40.5166 148.923 40.6129 149.221 40.8055C149.52 40.995 149.758 41.2438 149.934 41.5521L149.91 40.6514ZM148.2 44.9381C148.544 44.9381 148.839 44.8546 149.086 44.6877C149.334 44.5175 149.523 44.2895 149.655 44.0037C149.79 43.7179 149.857 43.4033 149.857 43.0597C149.857 42.7065 149.79 42.3886 149.655 42.106C149.52 41.8202 149.329 41.5938 149.082 41.4269C148.834 41.2599 148.541 41.1764 148.2 41.1764C147.86 41.1764 147.548 41.2615 147.266 41.4317C146.986 41.5987 146.763 41.825 146.596 42.1108C146.433 42.3966 146.351 42.7129 146.351 43.0597C146.351 43.4097 146.436 43.7276 146.606 44.0133C146.776 44.2959 147.001 44.5207 147.28 44.6877C147.563 44.8546 147.869 44.9381 148.2 44.9381Z" fill="#999999"/>
<path d="M156.326 42.4865V45.4679H155.652V42.6214C155.652 42.3581 155.588 42.1188 155.459 41.9037C155.331 41.6886 155.159 41.5168 154.944 41.3883C154.729 41.2599 154.489 41.1957 154.226 41.1957C153.966 41.1957 153.727 41.2599 153.509 41.3883C153.293 41.5168 153.122 41.6886 152.993 41.9037C152.865 42.1188 152.8 42.3581 152.8 42.6214V45.4679H152.126V40.6514H152.8V41.3161C152.971 41.0721 153.192 40.8778 153.465 40.7333C153.738 40.5888 154.035 40.5166 154.356 40.5166C154.719 40.5166 155.05 40.6049 155.348 40.7815C155.647 40.9581 155.885 41.1957 156.061 41.4943C156.238 41.7929 156.326 42.1237 156.326 42.4865Z" fill="#999999"/>
<path d="M161.214 44.259L161.816 44.5865C161.597 44.8916 161.32 45.1356 160.982 45.3186C160.649 45.5016 160.286 45.5932 159.894 45.5932C159.451 45.5932 159.046 45.4792 158.68 45.2512C158.317 45.0232 158.027 44.7182 157.808 44.336C157.593 43.9507 157.486 43.5253 157.486 43.0597C157.486 42.7065 157.548 42.3773 157.674 42.0723C157.799 41.764 157.971 41.4943 158.189 41.2631C158.41 41.0287 158.667 40.8457 158.96 40.714C159.252 40.5824 159.563 40.5166 159.894 40.5166C160.286 40.5166 160.649 40.6081 160.982 40.7911C161.32 40.9741 161.597 41.2198 161.816 41.528L161.214 41.8507C161.047 41.6388 160.846 41.4766 160.612 41.3643C160.377 41.2487 160.138 41.1909 159.894 41.1909C159.57 41.1909 159.276 41.2776 159.013 41.451C158.749 41.6211 158.54 41.8475 158.386 42.1301C158.235 42.4127 158.16 42.7225 158.16 43.0597C158.16 43.3968 158.237 43.7067 158.391 43.9893C158.549 44.2718 158.759 44.4982 159.022 44.6684C159.285 44.8354 159.576 44.9188 159.894 44.9188C160.157 44.9188 160.404 44.8578 160.636 44.7358C160.867 44.6138 161.06 44.4549 161.214 44.259Z" fill="#999999"/>
<path d="M165.317 45.5932C164.874 45.5932 164.469 45.4792 164.103 45.2512C163.74 45.0232 163.449 44.7182 163.231 44.336C163.016 43.9507 162.908 43.5253 162.908 43.0597C162.908 42.7065 162.971 42.3773 163.096 42.0723C163.221 41.764 163.393 41.4943 163.612 41.2631C163.833 41.0287 164.09 40.8457 164.382 40.714C164.674 40.5824 164.986 40.5166 165.317 40.5166C165.673 40.5166 166.001 40.5872 166.299 40.7285C166.601 40.8698 166.86 41.0672 167.075 41.3209C167.293 41.5746 167.457 41.8716 167.566 42.212C167.678 42.5523 167.725 42.92 167.706 43.3149H163.621C163.66 43.62 163.756 43.8929 163.91 44.1338C164.068 44.3746 164.267 44.5656 164.507 44.7069C164.752 44.845 165.021 44.9156 165.317 44.9188C165.638 44.9188 165.927 44.8354 166.184 44.6684C166.444 44.5014 166.652 44.2718 166.81 43.9796L167.494 44.1386C167.301 44.5656 167.01 44.9156 166.622 45.1886C166.233 45.4583 165.798 45.5932 165.317 45.5932ZM163.602 42.7707H167.027C167.004 42.4721 166.913 42.1991 166.752 41.9519C166.595 41.7014 166.391 41.5023 166.14 41.3546C165.89 41.2037 165.615 41.1283 165.317 41.1283C165.018 41.1283 164.745 41.2021 164.498 41.3498C164.251 41.4943 164.048 41.6918 163.891 41.9422C163.734 42.1895 163.637 42.4656 163.602 42.7707Z" fill="#999999"/>
</svg>
