<svg width="199" height="75" viewBox="0 0 199 75" fill="none" xmlns="http://www.w3.org/2000/svg">
<path fill-rule="evenodd" clip-rule="evenodd" d="M36.5048 13.0332V40.6397L23.9643 55.967L21.1816 53.6903L32.9095 39.3563V13.0332H36.5048Z" fill="black"/>
<path fill-rule="evenodd" clip-rule="evenodd" d="M29.3132 0C28.8168 0 28.4144 0.402419 28.4144 0.898827V6.0492C12.5296 9.18567 0.550781 23.1928 0.550781 39.9978C0.550781 59.1095 16.0439 74.6027 35.1557 74.6027C53.816 74.6027 69.0266 59.8329 69.7348 41.3461H65.2368C64.5316 57.3501 51.3336 70.1085 35.1557 70.1085C18.526 70.1085 5.04492 56.6275 5.04492 39.9978C5.04492 23.3681 18.526 9.88709 35.1557 9.88709C37.1546 9.88709 39.1081 10.0819 40.9981 10.4535V5.88407C40.998 5.88407 40.998 5.88406 40.998 5.88406V0.898827C40.998 0.402419 40.5956 0 40.0992 0H29.3132Z" fill="black"/>
<path d="M55.3437 24.2104C55.3437 23.3254 55.0961 22.6195 54.6009 22.0928C54.1162 21.566 53.3787 21.3026 52.3884 21.3026C51.7984 21.3026 51.2822 21.4079 50.8397 21.6187C50.3972 21.8188 50.0547 22.0928 49.8124 22.4404C49.5701 22.7881 49.4489 23.1832 49.4489 23.6257H45.5297C45.5297 22.7091 45.8194 21.8504 46.3989 21.0497C46.9783 20.2385 47.7948 19.5853 48.8484 19.0901C49.9125 18.5949 51.1663 18.3473 52.6096 18.3473C53.895 18.3473 55.0381 18.5633 56.039 18.9953C57.0399 19.4272 57.8248 20.0805 58.3937 20.9549C58.9732 21.8294 59.2629 22.9251 59.2629 24.242V31.7803C59.2629 32.581 59.3209 33.2869 59.4368 33.898C59.5526 34.5091 59.716 35.0411 59.9267 35.4941V35.7628H55.9126C55.7335 35.3519 55.5912 34.8199 55.4859 34.1666C55.3911 33.5134 55.3437 32.876 55.3437 32.2544V24.2104ZM55.9442 27.7662H53.2576C51.8669 27.7662 50.8186 28.0243 50.1127 28.5406C49.4173 29.0463 49.0697 29.7364 49.0697 30.6109C49.0697 31.2851 49.3014 31.8488 49.765 32.3018C50.2286 32.7443 50.8818 32.9656 51.7246 32.9656C52.4938 32.9656 53.1628 32.8128 53.7317 32.5073C54.3112 32.1912 54.7642 31.8067 55.0908 31.3536C55.4174 30.89 55.586 30.4581 55.5965 30.0577L56.845 31.8119C56.7186 32.2439 56.5026 32.7074 56.197 33.2026C55.902 33.6873 55.507 34.1508 55.0118 34.5933C54.5271 35.0253 53.9477 35.3835 53.2734 35.668C52.6096 35.9419 51.8353 36.0789 50.9503 36.0789C49.8335 36.0789 48.8379 35.8576 47.9634 35.4151C47.089 34.9726 46.3989 34.3668 45.8932 33.5977C45.398 32.8181 45.1504 31.9436 45.1504 30.9743C45.1504 29.1622 45.8299 27.7715 47.189 26.8022C48.5481 25.8329 50.4762 25.3483 52.9731 25.3483H55.9126L55.9442 27.7662Z" fill="black"/>
<path d="M74.3837 21.5554H64.6804V18.6634H74.3837V21.5554ZM71.3494 14.4755V30.9427C71.3494 31.4695 71.4232 31.8699 71.5707 32.1438C71.7182 32.4072 71.9289 32.5863 72.2028 32.6811C72.4768 32.7759 72.7928 32.8233 73.151 32.8233C73.4144 32.8233 73.6673 32.8075 73.9096 32.7759C74.1519 32.7443 74.3468 32.7127 74.4943 32.6811V35.6996C74.1783 35.8049 73.8095 35.8945 73.3881 35.9682C72.9772 36.042 72.4926 36.0789 71.9342 36.0789C71.0597 36.0789 70.2801 35.9208 69.5952 35.6048C68.921 35.2887 68.3889 34.7777 67.9991 34.0718C67.6198 33.3554 67.4302 32.4072 67.4302 31.2272V14.4755H71.3494Z" fill="black"/>
<path d="M88.7143 21.5554H79.011V18.6634H88.7143V21.5554ZM85.6801 14.4755V30.9427C85.6801 31.4695 85.7538 31.8699 85.9013 32.1438C86.0488 32.4072 86.2595 32.5863 86.5334 32.6811C86.8074 32.7759 87.1234 32.8233 87.4817 32.8233C87.745 32.8233 87.9979 32.8075 88.2402 32.7759C88.4825 32.7443 88.6775 32.7127 88.825 32.6811V35.6996C88.5089 35.8049 88.1401 35.8945 87.7187 35.9682C87.3078 36.042 86.8232 36.0789 86.2648 36.0789C85.3903 36.0789 84.6107 35.9208 83.9259 35.6048C83.2516 35.2887 82.7195 34.7777 82.3297 34.0718C81.9504 33.3554 81.7608 32.4072 81.7608 31.2272V14.4755H85.6801Z" fill="black"/>
<path d="M102.413 36.0789C100.717 36.0789 99.2521 35.7154 98.0194 34.9884C96.7868 34.2509 95.8385 33.2606 95.1748 32.0174C94.5111 30.7636 94.1792 29.3624 94.1792 27.8136V27.1657C94.1792 25.3852 94.5163 23.8364 95.1906 22.5195C95.8649 21.192 96.7868 20.1647 97.9562 19.4378C99.1362 18.7108 100.469 18.3473 101.955 18.3473C103.598 18.3473 104.962 18.7055 106.048 19.422C107.133 20.1279 107.944 21.1129 108.481 22.3772C109.019 23.631 109.287 25.0849 109.287 26.739V28.43H96.0598V25.6011H105.415V25.3009C105.394 24.6371 105.268 24.0155 105.036 23.4361C104.804 22.8566 104.436 22.3878 103.93 22.0295C103.435 21.6713 102.771 21.4922 101.939 21.4922C101.106 21.4922 100.406 21.7293 99.8368 22.2034C99.2679 22.667 98.8359 23.3254 98.5409 24.1788C98.2459 25.0217 98.0984 26.0173 98.0984 27.1657V27.8136C98.0984 28.7829 98.2776 29.6521 98.6358 30.4212C98.994 31.1903 99.5155 31.8014 100.2 32.2544C100.885 32.6969 101.702 32.9182 102.65 32.9182C103.566 32.9182 104.378 32.7391 105.084 32.3808C105.8 32.0226 106.416 31.5064 106.933 30.8321L108.987 32.8866C108.45 33.6978 107.638 34.4353 106.553 35.099C105.479 35.7523 104.099 36.0789 102.413 36.0789Z" fill="black"/>
<path d="M119.335 35.7628H115.416V18.6634H119.098L119.335 22.314V35.7628ZM117.376 26.6126C117.386 24.9585 117.676 23.5151 118.245 22.2824C118.814 21.0392 119.609 20.0752 120.631 19.3904C121.653 18.695 122.844 18.3473 124.203 18.3473C125.309 18.3473 126.268 18.558 127.079 18.9795C127.89 19.3904 128.522 20.0646 128.975 21.0023C129.428 21.9295 129.655 23.1779 129.655 24.7478V35.7628H125.72V24.7161C125.72 23.926 125.604 23.2991 125.372 22.8355C125.151 22.372 124.814 22.0454 124.361 21.8557C123.918 21.6555 123.376 21.5554 122.733 21.5554C122.08 21.5554 121.5 21.6871 120.995 21.9505C120.499 22.2034 120.073 22.5616 119.714 23.0252C119.367 23.4887 119.098 24.0261 118.909 24.6371C118.729 25.2482 118.64 25.9014 118.64 26.5968L117.376 26.6126Z" fill="black"/>
<path d="M147.13 11.4886H151.05V35.7628H147.494L147.13 32.1754V11.4886ZM136.036 27.0709C136.036 25.343 136.305 23.8259 136.842 22.5195C137.39 21.2025 138.165 20.1805 139.165 19.4536C140.166 18.7161 141.367 18.3473 142.769 18.3473C144.149 18.3473 145.302 18.7055 146.23 19.422C147.157 20.1384 147.884 21.134 148.41 22.4088C148.948 23.6731 149.306 25.1428 149.485 26.818V27.7346C149.306 29.3571 148.953 30.7952 148.426 32.049C147.9 33.3027 147.167 34.2878 146.23 35.0042C145.302 35.7207 144.138 36.0789 142.737 36.0789C141.357 36.0789 140.166 35.7048 139.165 34.9568C138.165 34.1982 137.39 33.1658 136.842 31.8593C136.305 30.5529 136.036 29.0674 136.036 27.4027V27.0709ZM139.956 27.4027C139.956 28.4142 140.082 29.336 140.335 30.1684C140.588 30.9901 140.988 31.6486 141.536 32.1438C142.094 32.6284 142.827 32.8708 143.733 32.8708C144.586 32.8708 145.287 32.6864 145.835 32.3176C146.393 31.9383 146.825 31.4274 147.13 30.7847C147.446 30.142 147.662 29.4203 147.778 28.6196V25.9488C147.705 25.3167 147.573 24.7319 147.383 24.1946C147.194 23.6573 146.935 23.1937 146.609 22.8039C146.293 22.4141 145.898 22.1086 145.424 21.8873C144.95 21.6661 144.396 21.5554 143.764 21.5554C142.858 21.5554 142.121 21.803 141.552 22.2982C140.993 22.7828 140.588 23.4466 140.335 24.2895C140.082 25.1218 139.956 26.0489 139.956 27.0709V27.4027Z" fill="black"/>
<path d="M162.425 35.7628H158.506V18.6634H162.425V35.7628ZM158.253 14.191C158.253 13.5905 158.448 13.0953 158.838 12.7055C159.227 12.3051 159.77 12.1049 160.465 12.1049C161.161 12.1049 161.709 12.3051 162.109 12.7055C162.509 13.0953 162.709 13.5905 162.709 14.191C162.709 14.781 162.509 15.2762 162.109 15.6765C161.709 16.0664 161.161 16.2613 160.465 16.2613C159.77 16.2613 159.227 16.0664 158.838 15.6765C158.448 15.2762 158.253 14.781 158.253 14.191Z" fill="black"/>
<path d="M171.13 35.7628V17.0356C171.13 15.1392 171.667 13.6853 172.742 12.6739C173.816 11.6625 175.286 11.1567 177.151 11.1567C177.53 11.1567 177.904 11.1831 178.273 11.2358C178.642 11.2884 179 11.3569 179.347 11.4412L179.253 14.5071C179.052 14.4649 178.826 14.4333 178.573 14.4123C178.32 14.3912 178.057 14.3807 177.783 14.3807C176.919 14.3807 176.245 14.6124 175.76 15.076C175.286 15.529 175.049 16.1823 175.049 17.0356V35.7628H171.13ZM178.541 21.5554H168.522V18.6634H178.541V21.5554Z" fill="black"/>
<path d="M194.057 18.6634H198.245L191.402 38.3546C191.244 38.7865 191.039 39.2501 190.786 39.7453C190.533 40.2405 190.201 40.7093 189.79 41.1518C189.39 41.5943 188.884 41.9578 188.273 42.2422C187.673 42.5267 186.946 42.6689 186.092 42.6689C185.861 42.6689 185.634 42.6531 185.413 42.6215C185.202 42.6004 184.997 42.5688 184.796 42.5267C184.596 42.4846 184.401 42.4371 184.212 42.3845V39.366C184.317 39.3765 184.444 39.3871 184.591 39.3976C184.739 39.4081 184.86 39.4134 184.954 39.4134C185.892 39.4134 186.603 39.2448 187.088 38.9077C187.573 38.5706 187.947 37.9964 188.21 37.1851L189.459 33.8822L194.057 18.6634ZM190.944 31.322L191.639 35.5574L188.921 36.1737L182.742 18.6634H186.977L190.944 31.322Z" fill="black"/>
<path d="M75.0254 53.4998V47.832H75.8189V48.6141C76.0229 48.3269 76.2836 48.0983 76.601 47.9283C76.9184 47.7583 77.2661 47.6733 77.6439 47.6733C78.0709 47.6733 78.462 47.7791 78.8172 47.9907C79.1723 48.1985 79.4501 48.4762 79.6503 48.8238C79.8506 48.4762 80.1264 48.1985 80.4778 47.9907C80.8292 47.7791 81.2184 47.6733 81.6454 47.6733C82.0724 47.6733 82.4616 47.7772 82.813 47.985C83.1644 48.1928 83.444 48.4724 83.6518 48.8238C83.8596 49.1752 83.9635 49.5644 83.9635 49.9914V53.4998H83.17V50.1671C83.17 49.8648 83.0964 49.5852 82.949 49.3283C82.8016 49.0713 82.6033 48.8654 82.3539 48.7105C82.1083 48.5518 81.8343 48.4724 81.532 48.4724C81.2298 48.4724 80.9539 48.5461 80.7045 48.6935C80.4589 48.837 80.2625 49.0373 80.1151 49.2942C79.9677 49.5474 79.894 49.8384 79.894 50.1671V53.4998H79.1005V50.1671C79.1005 49.8384 79.0269 49.5474 78.8795 49.2942C78.7321 49.0373 78.5338 48.837 78.2844 48.6935C78.035 48.5461 77.7592 48.4724 77.4569 48.4724C77.1584 48.4724 76.8844 48.5518 76.6351 48.7105C76.3857 48.8654 76.1873 49.0713 76.0399 49.3283C75.8926 49.5852 75.8189 49.8648 75.8189 50.1671V53.4998H75.0254Z" fill="black"/>
<path d="M90.3274 47.832H91.1209V53.4998H90.3274L90.2991 52.4456C90.1139 52.8045 89.8551 53.0955 89.5226 53.3184C89.1901 53.5376 88.7933 53.6471 88.3324 53.6471C87.9167 53.6471 87.5275 53.5697 87.1648 53.4148C86.802 53.2561 86.4828 53.0388 86.2069 52.763C85.9311 52.4871 85.7157 52.1678 85.5608 51.8051C85.4059 51.4424 85.3284 51.0532 85.3284 50.6375C85.3284 50.2294 85.404 49.8459 85.5551 49.487C85.71 49.128 85.9216 48.8125 86.1899 48.5404C86.462 48.2684 86.7756 48.0568 87.1308 47.9056C87.4897 47.7507 87.8733 47.6733 88.2813 47.6733C88.7537 47.6733 89.1655 47.7866 89.5169 48.0133C89.8683 48.2363 90.1479 48.5291 90.3558 48.8918L90.3274 47.832ZM88.3154 52.8763C88.7197 52.8763 89.0673 52.7781 89.3582 52.5816C89.6492 52.3813 89.8721 52.113 90.027 51.7768C90.1857 51.4405 90.2651 51.0702 90.2651 50.6659C90.2651 50.2502 90.1857 49.8761 90.027 49.5436C89.8683 49.2073 89.6435 48.941 89.3526 48.7445C89.0616 48.548 88.7159 48.4497 88.3154 48.4497C87.9148 48.4497 87.5483 48.5499 87.2158 48.7501C86.8871 48.9466 86.6245 49.213 86.428 49.5493C86.2353 49.8856 86.1389 50.2578 86.1389 50.6659C86.1389 51.0777 86.239 51.4518 86.4393 51.7881C86.6396 52.1206 86.9041 52.3851 87.2328 52.5816C87.5653 52.7781 87.9262 52.8763 88.3154 52.8763Z" fill="black"/>
<path d="M92.9352 53.4998V47.832H93.7287V48.6141C93.929 48.3269 94.1897 48.0983 94.5109 47.9283C94.8321 47.7583 95.1816 47.6733 95.5594 47.6733C95.7786 47.6733 95.9902 47.7016 96.1942 47.7583L95.8712 48.5461C95.7125 48.497 95.5576 48.4724 95.4064 48.4724C95.1003 48.4724 94.8188 48.548 94.5619 48.6991C94.3087 48.8503 94.1066 49.0524 93.9554 49.3056C93.8043 49.5587 93.7287 49.8402 93.7287 50.1501V53.4998H92.9352Z" fill="black"/>
<path d="M101.961 53.4998H101.048L99.4612 50.7622L98.3276 52.1168V53.4998H97.5341V44.998H98.3276V50.8812L100.884 47.832H101.921L99.9996 50.1161L101.961 53.4998Z" fill="black"/>
<path d="M111.068 47.832H111.907L108.807 56.3337H107.962L108.994 53.4998L106.959 47.832H107.826L109.391 52.4059L111.068 47.832Z" fill="black"/>
<path d="M115.873 53.6471C115.351 53.6471 114.875 53.513 114.444 53.2447C114.017 52.9764 113.675 52.6175 113.418 52.1678C113.165 51.7144 113.039 51.2138 113.039 50.6659C113.039 50.2502 113.112 49.8629 113.26 49.504C113.407 49.1412 113.609 48.8238 113.866 48.5518C114.127 48.2759 114.429 48.0606 114.773 47.9056C115.117 47.7507 115.483 47.6733 115.873 47.6733C116.394 47.6733 116.868 47.8074 117.295 48.0757C117.726 48.3439 118.068 48.7048 118.321 49.1582C118.578 49.6116 118.707 50.1142 118.707 50.6659C118.707 51.0777 118.633 51.4631 118.485 51.8221C118.338 52.1811 118.134 52.4985 117.873 52.7743C117.616 53.0463 117.316 53.2598 116.972 53.4148C116.632 53.5697 116.266 53.6471 115.873 53.6471ZM115.873 52.8536C116.258 52.8536 116.604 52.7535 116.91 52.5532C117.22 52.3492 117.463 52.0809 117.641 51.7484C117.822 51.4159 117.913 51.0551 117.913 50.6659C117.913 50.2691 117.822 49.9045 117.641 49.572C117.46 49.2357 117.214 48.9674 116.904 48.7671C116.598 48.5669 116.254 48.4667 115.873 48.4667C115.487 48.4667 115.14 48.5688 114.83 48.7728C114.524 48.9731 114.28 49.2395 114.099 49.572C113.921 49.9045 113.832 50.2691 113.832 50.6659C113.832 51.0739 113.925 51.4442 114.11 51.7768C114.295 52.1055 114.543 52.3681 114.852 52.5646C115.162 52.7573 115.502 52.8536 115.873 52.8536Z" fill="black"/>
<path d="M120.065 51.329V47.832H120.858V51.1703C120.858 51.4801 120.934 51.7616 121.085 52.0148C121.236 52.268 121.438 52.4701 121.691 52.6213C121.948 52.7724 122.23 52.848 122.536 52.848C122.846 52.848 123.125 52.7724 123.375 52.6213C123.628 52.4701 123.83 52.268 123.981 52.0148C124.132 51.7616 124.208 51.4801 124.208 51.1703V47.832H125.001L125.007 53.4998H124.213L124.208 52.7063C124.007 52.9934 123.747 53.222 123.426 53.3921C123.108 53.5621 122.761 53.6471 122.383 53.6471C121.956 53.6471 121.567 53.5432 121.215 53.3354C120.864 53.1276 120.584 52.848 120.376 52.4966C120.169 52.1452 120.065 51.756 120.065 51.329Z" fill="black"/>
<path d="M126.816 53.4998V47.832H127.61V48.6141C127.81 48.3269 128.071 48.0983 128.392 47.9283C128.713 47.7583 129.063 47.6733 129.441 47.6733C129.66 47.6733 129.871 47.7016 130.075 47.7583L129.752 48.5461C129.594 48.497 129.439 48.4724 129.288 48.4724C128.981 48.4724 128.7 48.548 128.443 48.6991C128.19 48.8503 127.988 49.0524 127.837 49.3056C127.685 49.5587 127.61 49.8402 127.61 50.1501V53.4998H126.816Z" fill="black"/>
<path d="M139.61 47.832H140.404V53.4998H139.61L139.582 52.4456C139.397 52.8045 139.138 53.0955 138.806 53.3184C138.473 53.5376 138.076 53.6471 137.615 53.6471C137.2 53.6471 136.811 53.5697 136.448 53.4148C136.085 53.2561 135.766 53.0388 135.49 52.763C135.214 52.4871 134.999 52.1678 134.844 51.8051C134.689 51.4424 134.611 51.0532 134.611 50.6375C134.611 50.2294 134.687 49.8459 134.838 49.487C134.993 49.128 135.205 48.8125 135.473 48.5404C135.745 48.2684 136.059 48.0568 136.414 47.9056C136.773 47.7507 137.156 47.6733 137.564 47.6733C138.037 47.6733 138.449 47.7866 138.8 48.0133C139.151 48.2363 139.431 48.5291 139.639 48.8918L139.61 47.832ZM137.598 52.8763C138.003 52.8763 138.35 52.7781 138.641 52.5816C138.932 52.3813 139.155 52.113 139.31 51.7768C139.469 51.4405 139.548 51.0702 139.548 50.6659C139.548 50.2502 139.469 49.8761 139.31 49.5436C139.151 49.2073 138.926 48.941 138.636 48.7445C138.345 48.548 137.999 48.4497 137.598 48.4497C137.198 48.4497 136.831 48.5499 136.499 48.7501C136.17 48.9466 135.907 49.213 135.711 49.5493C135.518 49.8856 135.422 50.2578 135.422 50.6659C135.422 51.0777 135.522 51.4518 135.722 51.7881C135.923 52.1206 136.187 52.3851 136.516 52.5816C136.848 52.7781 137.209 52.8763 137.598 52.8763Z" fill="black"/>
<path d="M145.114 48.6254H143.76L143.754 53.4998H142.961L142.966 48.6254H141.94V47.832H142.966L142.961 46.0523H143.754L143.76 47.832H145.114V48.6254Z" fill="black"/>
<path d="M149.702 48.6254H148.348L148.342 53.4998H147.549L147.554 48.6254H146.528V47.832H147.554L147.549 46.0523H148.342L148.348 47.832H149.702V48.6254Z" fill="black"/>
<path d="M153.733 53.6471C153.211 53.6471 152.735 53.513 152.304 53.2447C151.877 52.9764 151.536 52.6175 151.279 52.1678C151.025 51.7144 150.899 51.2138 150.899 50.6659C150.899 50.2502 150.973 49.8629 151.12 49.504C151.267 49.1412 151.469 48.8238 151.726 48.5518C151.987 48.2759 152.289 48.0606 152.633 47.9056C152.977 47.7507 153.344 47.6733 153.733 47.6733C154.152 47.6733 154.538 47.7564 154.889 47.9226C155.244 48.0889 155.548 48.3213 155.801 48.6198C156.058 48.9183 156.251 49.2678 156.38 49.6683C156.512 50.0689 156.567 50.5015 156.544 50.9663H151.738C151.783 51.3252 151.896 51.6464 152.078 51.9298C152.263 52.2132 152.497 52.438 152.781 52.6043C153.068 52.7667 153.385 52.8499 153.733 52.8536C154.111 52.8536 154.451 52.7554 154.753 52.5589C155.059 52.3624 155.305 52.0923 155.49 51.7484L156.295 51.9355C156.068 52.438 155.726 52.8499 155.269 53.171C154.812 53.4884 154.3 53.6471 153.733 53.6471ZM151.715 50.3258H155.745C155.718 49.9744 155.611 49.6532 155.422 49.3623C155.237 49.0675 154.997 48.8333 154.702 48.6595C154.407 48.4819 154.084 48.3931 153.733 48.3931C153.381 48.3931 153.06 48.48 152.769 48.6538C152.478 48.8238 152.24 49.0562 152.055 49.3509C151.87 49.6419 151.757 49.9668 151.715 50.3258Z" fill="black"/>
<path d="M163.138 49.9914V53.4998H162.345V50.1501C162.345 49.8402 162.269 49.5587 162.118 49.3056C161.967 49.0524 161.765 48.8503 161.511 48.6991C161.258 48.548 160.977 48.4724 160.667 48.4724C160.361 48.4724 160.079 48.548 159.822 48.6991C159.569 48.8503 159.367 49.0524 159.216 49.3056C159.065 49.5587 158.989 49.8402 158.989 50.1501V53.4998H158.196V47.832H158.989V48.6141C159.189 48.3269 159.45 48.0983 159.771 47.9283C160.093 47.7583 160.442 47.6733 160.82 47.6733C161.247 47.6733 161.636 47.7772 161.987 47.985C162.339 48.1928 162.618 48.4724 162.826 48.8238C163.034 49.1752 163.138 49.5644 163.138 49.9914Z" fill="black"/>
<path d="M169.507 44.998H170.301V53.4998H169.507V52.4399C169.311 52.8026 169.041 53.0955 168.697 53.3184C168.357 53.5376 167.952 53.6471 167.484 53.6471C167.072 53.6471 166.686 53.5697 166.328 53.4148C165.969 53.2598 165.651 53.0463 165.375 52.7743C165.103 52.4985 164.89 52.1811 164.735 51.8221C164.58 51.4631 164.502 51.0777 164.502 50.6659C164.502 50.254 164.58 49.8686 164.735 49.5096C164.89 49.1469 165.103 48.8295 165.375 48.5574C165.651 48.2816 165.969 48.0662 166.328 47.9113C166.686 47.7564 167.072 47.6789 167.484 47.6789C167.952 47.6789 168.357 47.7904 168.697 48.0133C169.041 48.2325 169.311 48.5215 169.507 48.8805V44.998ZM167.489 52.8763C167.894 52.8763 168.241 52.7781 168.532 52.5816C168.823 52.3813 169.046 52.113 169.201 51.7768C169.36 51.4405 169.439 51.0702 169.439 50.6659C169.439 50.2502 169.36 49.8761 169.201 49.5436C169.042 49.2073 168.818 48.941 168.527 48.7445C168.236 48.548 167.89 48.4497 167.489 48.4497C167.089 48.4497 166.724 48.5499 166.396 48.7501C166.067 48.9466 165.804 49.213 165.608 49.5493C165.411 49.8856 165.313 50.2578 165.313 50.6659C165.313 51.0777 165.413 51.4518 165.613 51.7881C165.814 52.1206 166.078 52.3851 166.407 52.5816C166.739 52.7781 167.1 52.8763 167.489 52.8763Z" fill="black"/>
<path d="M176.956 47.832H177.75V53.4998H176.956L176.928 52.4456C176.743 52.8045 176.484 53.0955 176.152 53.3184C175.819 53.5376 175.422 53.6471 174.961 53.6471C174.546 53.6471 174.157 53.5697 173.794 53.4148C173.431 53.2561 173.112 53.0388 172.836 52.763C172.56 52.4871 172.345 52.1678 172.19 51.8051C172.035 51.4424 171.957 51.0532 171.957 50.6375C171.957 50.2294 172.033 49.8459 172.184 49.487C172.339 49.128 172.551 48.8125 172.819 48.5404C173.091 48.2684 173.405 48.0568 173.76 47.9056C174.119 47.7507 174.502 47.6733 174.91 47.6733C175.383 47.6733 175.795 47.7866 176.146 48.0133C176.497 48.2363 176.777 48.5291 176.985 48.8918L176.956 47.832ZM174.944 52.8763C175.349 52.8763 175.696 52.7781 175.987 52.5816C176.278 52.3813 176.501 52.113 176.656 51.7768C176.815 51.4405 176.894 51.0702 176.894 50.6659C176.894 50.2502 176.815 49.8761 176.656 49.5436C176.497 49.2073 176.273 48.941 175.982 48.7445C175.691 48.548 175.345 48.4497 174.944 48.4497C174.544 48.4497 174.177 48.5499 173.845 48.7501C173.516 48.9466 173.253 49.213 173.057 49.5493C172.864 49.8856 172.768 50.2578 172.768 50.6659C172.768 51.0777 172.868 51.4518 173.068 51.7881C173.269 52.1206 173.533 52.3851 173.862 52.5816C174.194 52.7781 174.555 52.8763 174.944 52.8763Z" fill="black"/>
<path d="M184.507 49.9914V53.4998H183.713V50.1501C183.713 49.8402 183.638 49.5587 183.486 49.3056C183.335 49.0524 183.133 48.8503 182.88 48.6991C182.627 48.548 182.345 48.4724 182.035 48.4724C181.729 48.4724 181.448 48.548 181.191 48.6991C180.938 48.8503 180.736 49.0524 180.584 49.3056C180.433 49.5587 180.358 49.8402 180.358 50.1501V53.4998H179.564V47.832H180.358V48.6141C180.558 48.3269 180.819 48.0983 181.14 47.9283C181.461 47.7583 181.811 47.6733 182.188 47.6733C182.615 47.6733 183.005 47.7772 183.356 47.985C183.707 48.1928 183.987 48.4724 184.195 48.8238C184.403 49.1752 184.507 49.5644 184.507 49.9914Z" fill="black"/>
<path d="M190.258 52.0771L190.966 52.4626C190.709 52.8215 190.383 53.1087 189.986 53.3241C189.593 53.5394 189.166 53.6471 188.705 53.6471C188.183 53.6471 187.707 53.513 187.277 53.2447C186.85 52.9764 186.508 52.6175 186.251 52.1678C185.998 51.7144 185.871 51.2138 185.871 50.6659C185.871 50.2502 185.945 49.8629 186.092 49.504C186.239 49.1412 186.442 48.8238 186.699 48.5518C186.959 48.2759 187.262 48.0606 187.605 47.9056C187.949 47.7507 188.316 47.6733 188.705 47.6733C189.166 47.6733 189.593 47.7809 189.986 47.9963C190.383 48.2117 190.709 48.5008 190.966 48.8635L190.258 49.2432C190.061 48.9939 189.825 48.803 189.549 48.6708C189.274 48.5348 188.992 48.4667 188.705 48.4667C188.323 48.4667 187.978 48.5688 187.668 48.7728C187.358 48.9731 187.112 49.2395 186.931 49.572C186.753 49.9045 186.665 50.2691 186.665 50.6659C186.665 51.0626 186.755 51.4272 186.937 51.7597C187.122 52.0923 187.369 52.3586 187.679 52.5589C187.989 52.7554 188.331 52.8536 188.705 52.8536C189.015 52.8536 189.306 52.7818 189.578 52.6383C189.85 52.4947 190.077 52.3076 190.258 52.0771Z" fill="black"/>
<path d="M195.086 53.6471C194.565 53.6471 194.089 53.513 193.658 53.2447C193.231 52.9764 192.889 52.6175 192.632 52.1678C192.379 51.7144 192.252 51.2138 192.252 50.6659C192.252 50.2502 192.326 49.8629 192.473 49.504C192.621 49.1412 192.823 48.8238 193.08 48.5518C193.34 48.2759 193.643 48.0606 193.987 47.9056C194.33 47.7507 194.697 47.6733 195.086 47.6733C195.506 47.6733 195.891 47.7564 196.242 47.9226C196.597 48.0889 196.902 48.3213 197.155 48.6198C197.412 48.9183 197.604 49.2678 197.733 49.6683C197.865 50.0689 197.92 50.5015 197.897 50.9663H193.091C193.136 51.3252 193.25 51.6464 193.431 51.9298C193.616 52.2132 193.851 52.438 194.134 52.6043C194.421 52.7667 194.738 52.8499 195.086 52.8536C195.464 52.8536 195.804 52.7554 196.106 52.5589C196.412 52.3624 196.658 52.0923 196.843 51.7484L197.648 51.9355C197.421 52.438 197.079 52.8499 196.622 53.171C196.165 53.4884 195.653 53.6471 195.086 53.6471ZM193.068 50.3258H197.098C197.072 49.9744 196.964 49.6532 196.775 49.3623C196.59 49.0675 196.35 48.8333 196.055 48.6595C195.761 48.4819 195.437 48.3931 195.086 48.3931C194.735 48.3931 194.414 48.48 194.123 48.6538C193.832 48.8238 193.594 49.0562 193.408 49.3509C193.223 49.6419 193.11 49.9668 193.068 50.3258Z" fill="black"/>
</svg>
