<svg width="21" height="20" viewBox="0 0 21 20" fill="none" xmlns="http://www.w3.org/2000/svg">
<path d="M20.7344 4.6875V10.2344C20.7344 10.6659 20.3846 11.0156 19.9531 11.0156C19.5216 11.0156 19.1719 10.6659 19.1719 10.2344V4.6875C19.1719 3.82599 18.4709 3.125 17.6094 3.125H16.5937V3.90625C16.5937 4.33777 16.244 4.6875 15.8125 4.6875C15.381 4.6875 15.0312 4.33777 15.0312 3.90625V3.125H11.4766V3.90625C11.4766 4.33777 11.1268 4.6875 10.6953 4.6875C10.2638 4.6875 9.91406 4.33777 9.91406 3.90625V3.125H6.39843V3.90625C6.39843 4.33777 6.0487 4.6875 5.61718 4.6875C5.18567 4.6875 4.83593 4.33777 4.83593 3.90625V3.125H3.85937C2.99786 3.125 2.29687 3.82599 2.29687 4.6875V16.875C2.29687 17.7365 2.99786 18.4375 3.85937 18.4375H10.4219C10.8534 18.4375 11.2031 18.7872 11.2031 19.2188C11.2031 19.6503 10.8534 20 10.4219 20H3.85937C2.1362 20 0.734375 18.5982 0.734375 16.875V4.6875C0.734375 2.96432 2.1362 1.5625 3.85937 1.5625H4.83593V0.78125C4.83593 0.349731 5.18567 0 5.61718 0C6.0487 0 6.39843 0.349731 6.39843 0.78125V1.5625H9.91406V0.78125C9.91406 0.349731 10.2638 0 10.6953 0C11.1268 0 11.4766 0.349731 11.4766 0.78125V1.5625H15.0312V0.78125C15.0312 0.349731 15.381 0 15.8125 0C16.244 0 16.5937 0.349731 16.5937 0.78125V1.5625H17.6094C19.3324 1.5625 20.7344 2.96432 20.7344 4.6875ZM6.39843 8.20312C6.39843 7.77161 6.0487 7.42188 5.61718 7.42188C5.18567 7.42188 4.83593 7.77161 4.83593 8.20312C4.83593 8.63464 5.18567 8.98438 5.61718 8.98438C6.0487 8.98438 6.39843 8.63464 6.39843 8.20312ZM12.4141 8.98438C12.8456 8.98438 13.1953 8.63464 13.1953 8.20312C13.1953 7.77161 12.8456 7.42188 12.4141 7.42188C11.9825 7.42188 11.6328 7.77161 11.6328 8.20312C11.6328 8.63464 11.9825 8.98438 12.4141 8.98438ZM15.8125 8.98438C16.244 8.98438 16.5937 8.63464 16.5937 8.20312C16.5937 7.77161 16.244 7.42188 15.8125 7.42188C15.381 7.42188 15.0312 7.77161 15.0312 8.20312C15.0312 8.63464 15.381 8.98438 15.8125 8.98438ZM6.39843 11.6016C6.39843 11.17 6.0487 10.8203 5.61718 10.8203C5.18567 10.8203 4.83593 11.17 4.83593 11.6016C4.83593 12.0331 5.18567 12.3828 5.61718 12.3828C6.0487 12.3828 6.39843 12.0329 6.39843 11.6016ZM5.61718 14.2188C5.18567 14.2188 4.83593 14.5685 4.83593 15C4.83593 15.4315 5.18567 15.7812 5.61718 15.7812C6.0487 15.7812 6.39843 15.4315 6.39843 15C6.39843 14.5685 6.0487 14.2188 5.61718 14.2188ZM9.79687 8.20312C9.79687 7.77161 9.44714 7.42188 9.01562 7.42188C8.5841 7.42188 8.23437 7.77161 8.23437 8.20312C8.23437 8.63464 8.5841 8.98438 9.01562 8.98438C9.44714 8.98438 9.79687 8.63464 9.79687 8.20312ZM9.79687 11.6016C9.79687 11.17 9.44714 10.8203 9.01562 10.8203C8.5841 10.8203 8.23437 11.17 8.23437 11.6016C8.23437 12.0331 8.5841 12.3828 9.01562 12.3828C9.44714 12.3828 9.79687 12.0329 9.79687 11.6016ZM9.01562 14.2188C8.5841 14.2188 8.23437 14.5685 8.23437 15C8.23437 15.4315 8.5841 15.7812 9.01562 15.7812C9.44714 15.7812 9.79687 15.4315 9.79687 15C9.79687 14.5685 9.44714 14.2188 9.01562 14.2188ZM11.6328 11.6016C11.6328 12.0331 11.9825 12.3828 12.4141 12.3828C12.8456 12.3828 13.1953 12.0331 13.1953 11.6016C13.1953 11.17 12.8456 10.8203 12.4141 10.8203C11.9825 10.8203 11.6328 11.17 11.6328 11.6016ZM15.0312 11.6016C15.0312 12.0331 15.381 12.3828 15.8125 12.3828C16.244 12.3828 16.5937 12.0331 16.5937 11.6016C16.5937 11.17 16.244 10.8203 15.8125 10.8203C15.381 10.8203 15.0312 11.17 15.0312 11.6016ZM20.4078 12.7242C20.057 12.473 19.569 12.5537 19.3179 12.9047L15.467 18.2835C15.3619 18.4055 15.2301 18.4317 15.1596 18.4364C15.0869 18.4413 14.9476 18.4322 14.8249 18.3171L12.3362 15.8884C12.0274 15.587 11.5327 15.593 11.2313 15.9018C10.9301 16.2106 10.9361 16.7053 11.2449 17.0067L13.7379 19.4395C13.7402 19.4417 13.7426 19.444 13.7449 19.4463C14.1188 19.8019 14.6176 19.9998 15.1309 19.9998C15.175 19.9998 15.2192 19.9985 15.2635 19.9954C15.8226 19.9582 16.3446 19.6863 16.6957 19.2494C16.7047 19.2381 16.7135 19.2267 16.7219 19.2149L20.5883 13.8141C20.8395 13.4633 20.7586 12.9753 20.4078 12.7242Z" fill="black"/>
</svg>
