<svg width="17" height="17" viewBox="0 0 17 17" fill="none" xmlns="http://www.w3.org/2000/svg">
<path d="M13.0996 6.625C14.6529 6.625 15.9121 5.3658 15.9121 3.8125C15.9121 2.2592 14.6529 1 13.0996 1C11.5463 1 10.2871 2.2592 10.2871 3.8125C10.2871 5.3658 11.5463 6.625 13.0996 6.625Z" stroke="black" stroke-linecap="round" stroke-linejoin="round"/>
<path d="M3.72461 16C5.27791 16 6.53711 14.7408 6.53711 13.1875C6.53711 11.6342 5.27791 10.375 3.72461 10.375C2.17131 10.375 0.912109 11.6342 0.912109 13.1875C0.912109 14.7408 2.17131 16 3.72461 16Z" stroke="black" stroke-linecap="round" stroke-linejoin="round"/>
<path d="M10.2871 10.375H15.9121V15.0625C15.9121 15.3111 15.8133 15.5496 15.6375 15.7254C15.4617 15.9012 15.2232 16 14.9746 16H11.2246C10.976 16 10.7375 15.9012 10.5617 15.7254C10.3859 15.5496 10.2871 15.3111 10.2871 15.0625V10.375ZM0.912109 1H6.53711V5.6875C6.53711 5.93614 6.43834 6.1746 6.26252 6.35041C6.08671 6.52623 5.84825 6.625 5.59961 6.625H1.84961C1.60097 6.625 1.36251 6.52623 1.1867 6.35041C1.01088 6.1746 0.912109 5.93614 0.912109 5.6875V1Z" stroke="black" stroke-linecap="round" stroke-linejoin="round"/>
</svg>
