<svg width="14" height="15" viewBox="0 0 14 15" fill="none" xmlns="http://www.w3.org/2000/svg">
<mask id="path-1-inside-1_2738_3504" fill="white">
<path d="M13.8478 9.45009C13.7131 9.33343 13.5234 9.31597 13.3713 9.40614C13.2232 9.49397 13.0686 9.57287 12.9118 9.64063C12.4117 9.85699 11.8862 9.96668 11.35 9.96668C9.69078 9.96668 8.20845 8.93241 7.57351 7.33175C7.15583 6.27888 7.15583 5.11922 7.57348 4.06635C7.99112 3.01354 8.77639 2.19352 9.78457 1.75743C9.94185 1.68946 10.1046 1.63107 10.2683 1.58399C10.437 1.53548 10.5593 1.38305 10.5755 1.20114C10.5918 1.01924 10.4986 0.845801 10.3414 0.765586C9.36069 0.264697 8.2679 0 7.18116 0C6.23828 0 5.31491 0.192598 4.43672 0.572373C2.66468 1.3389 1.28454 2.78007 0.550528 4.63046C-0.183509 6.48085 -0.183509 8.51895 0.550528 10.3693C1.10472 11.7664 2.03552 12.9416 3.24228 13.7677C4.41986 14.5739 5.78404 15 7.18731 15C8.13048 15 9.05415 14.8073 9.93259 14.4273C11.8341 13.6049 13.3084 11.966 13.9772 9.93094C14.034 9.75814 13.9825 9.56669 13.8478 9.45009V9.45009Z"/>
</mask>
<path d="M13.8478 9.45009C13.7131 9.33343 13.5234 9.31597 13.3713 9.40614C13.2232 9.49397 13.0686 9.57287 12.9118 9.64063C12.4117 9.85699 11.8862 9.96668 11.35 9.96668C9.69078 9.96668 8.20845 8.93241 7.57351 7.33175C7.15583 6.27888 7.15583 5.11922 7.57348 4.06635C7.99112 3.01354 8.77639 2.19352 9.78457 1.75743C9.94185 1.68946 10.1046 1.63107 10.2683 1.58399C10.437 1.53548 10.5593 1.38305 10.5755 1.20114C10.5918 1.01924 10.4986 0.845801 10.3414 0.765586C9.36069 0.264697 8.2679 0 7.18116 0C6.23828 0 5.31491 0.192598 4.43672 0.572373C2.66468 1.3389 1.28454 2.78007 0.550528 4.63046C-0.183509 6.48085 -0.183509 8.51895 0.550528 10.3693C1.10472 11.7664 2.03552 12.9416 3.24228 13.7677C4.41986 14.5739 5.78404 15 7.18731 15C8.13048 15 9.05415 14.8073 9.93259 14.4273C11.8341 13.6049 13.3084 11.966 13.9772 9.93094C14.034 9.75814 13.9825 9.56669 13.8478 9.45009V9.45009Z" stroke="black" stroke-width="2" mask="url(#path-1-inside-1_2738_3504)"/>
</svg>
