<svg width="233" height="249" viewBox="0 0 233 249" fill="none" xmlns="http://www.w3.org/2000/svg">
<path d="M118.686 34.1176L114.965 33.075C114.424 30.2905 113.33 27.643 111.747 25.2897L113.642 21.9048C113.782 21.6493 113.835 21.3556 113.795 21.0672C113.755 20.7788 113.623 20.511 113.419 20.3037L110.861 17.7447C110.653 17.5408 110.386 17.4092 110.097 17.3696C109.809 17.33 109.516 17.3843 109.261 17.5247L105.878 19.4168C103.527 17.8317 100.881 16.7369 98.0975 16.1978L97.0387 12.4743C96.958 12.1947 96.7893 11.9485 96.5578 11.7723C96.3262 11.5961 96.0441 11.4992 95.7532 11.4961H92.1436C91.8522 11.4985 91.5693 11.595 91.337 11.7713C91.1048 11.9475 90.9356 12.1941 90.8548 12.4743L89.7993 16.1978C87.016 16.7369 84.3698 17.8317 82.0187 19.4168L78.6358 17.5247C78.3809 17.3843 78.0876 17.33 77.7994 17.3696C77.5111 17.4092 77.2433 17.5408 77.0357 17.7447L74.4816 20.3105C74.2784 20.5186 74.1476 20.7867 74.1086 21.0751C74.0696 21.3635 74.1245 21.6568 74.2651 21.9115L76.1528 25.2965C74.5687 27.649 73.4745 30.2968 72.9357 33.0818L69.2145 34.1244C68.9345 34.2061 68.6884 34.3761 68.5129 34.6091C68.3373 34.8421 68.2417 35.1256 68.2402 35.4174V39.0393C68.2417 39.3311 68.3373 39.6146 68.5129 39.8476C68.6884 40.0806 68.9345 40.2506 69.2145 40.3323L72.9357 41.3749C73.4734 44.1602 74.5677 46.8082 76.1528 49.1602L74.2651 52.5282C74.1212 52.7831 74.0651 53.0783 74.1054 53.3683C74.1458 53.6582 74.2804 53.9268 74.4884 54.1327L77.0391 56.6917C77.2463 56.8961 77.5139 57.0283 77.8022 57.0686C78.0904 57.1088 78.3839 57.055 78.6392 56.9151L82.0221 55.0331C84.3769 56.6083 87.022 57.6981 89.8027 58.2386L90.8581 61.962C90.9396 62.2416 91.109 62.4874 91.3412 62.6631C91.5734 62.8387 91.856 62.9347 92.147 62.9369H95.7633C96.0538 62.934 96.3356 62.8376 96.5671 62.6621C96.7986 62.4865 96.9675 62.2411 97.0488 61.962L98.1077 58.2386C100.888 57.6981 103.533 56.6083 105.888 55.0331L109.271 56.9151C109.526 57.055 109.82 57.1088 110.108 57.0686C110.396 57.0283 110.664 56.8961 110.871 56.6917L113.422 54.1327C113.63 53.9268 113.765 53.6582 113.805 53.3683C113.845 53.0783 113.789 52.7831 113.645 52.5282L111.758 49.1602C113.341 46.8075 114.435 44.1597 114.975 41.3749L118.696 40.3323C118.977 40.2518 119.225 40.0823 119.402 39.8492C119.578 39.6161 119.675 39.3319 119.677 39.0393V35.4174C119.676 35.1223 119.578 34.8355 119.399 34.6009C119.221 34.3662 118.97 34.1965 118.686 34.1176ZM93.9602 48.974C91.6365 48.9747 89.3648 48.2857 87.4326 46.9941C85.5003 45.7025 83.9944 43.8665 83.1053 41.7183C82.2162 39.57 81.9839 37.2062 82.4378 34.9259C82.8917 32.6455 84.0114 30.5511 85.6552 28.9077C87.2991 27.2643 89.3932 26.1457 91.6725 25.6935C93.9519 25.2413 96.3141 25.4758 98.4602 26.3673C100.606 27.2588 102.44 28.7672 103.729 30.7017C105.018 32.6363 105.705 34.91 105.702 37.2351C105.697 40.3486 104.458 43.3328 102.257 45.5334C100.055 47.734 97.0718 48.9714 93.9602 48.974Z" fill="#EEEEEE"/>
<path d="M95.7593 63.4363H92.143C91.7469 63.4343 91.3621 63.3039 91.0462 63.0647C90.7303 62.8255 90.5003 62.4904 90.3907 62.1095L89.413 58.6568C86.7759 58.1105 84.2636 57.0774 82.0045 55.6104L78.872 57.3469C78.5259 57.5375 78.1275 57.6111 77.7361 57.5568C77.3448 57.5026 76.9814 57.3232 76.7002 57.0456L74.1427 54.4832C73.8605 54.2025 73.6782 53.8369 73.6238 53.4424C73.5694 53.048 73.6459 52.6466 73.8417 52.2999L75.5872 49.1892C74.1032 46.9233 73.062 44.3964 72.5189 41.7423L69.0853 40.781C68.7035 40.6706 68.3676 40.4395 68.128 40.1222C67.8883 39.8049 67.7578 39.4185 67.7559 39.0208V35.399C67.7576 35.0017 67.8876 34.6156 68.1266 34.2984C68.3656 33.9812 68.7007 33.7498 69.082 33.6388L72.5189 32.6775C73.0663 30.0342 74.1073 27.5181 75.5872 25.2611L73.8417 22.13C73.6477 21.7843 73.5719 21.3846 73.6256 20.9918C73.6793 20.599 73.8597 20.2344 74.1394 19.9535L76.6968 17.3945C76.9781 17.1144 77.343 16.9338 77.7362 16.88C78.1293 16.8263 78.5293 16.9023 78.8754 17.0966L82.0012 18.8399C84.2575 17.3612 86.7719 16.3208 89.413 15.7731L90.3907 12.3205C90.4992 11.9387 90.7288 11.6025 91.0448 11.3626C91.3609 11.1226 91.7463 10.992 92.143 10.9902H95.7593C96.156 10.992 96.5414 11.1226 96.8575 11.3626C97.1735 11.6025 97.4031 11.9387 97.5116 12.3205L98.4893 15.7731C101.13 16.3208 103.645 17.3612 105.901 18.8399L109.027 17.0933C109.374 16.9005 109.774 16.8256 110.167 16.8799C110.559 16.9343 110.924 17.1149 111.206 17.3945L113.763 19.9705C114.042 20.2517 114.222 20.6157 114.277 21.008C114.332 21.4004 114.258 21.7999 114.067 22.147L112.312 25.2713C113.792 27.5282 114.833 30.0444 115.38 32.6876L118.814 33.649C119.195 33.7593 119.531 33.9905 119.771 34.3077C120.011 34.625 120.141 35.0114 120.143 35.4091V39.031C120.141 39.4287 120.011 39.8151 119.771 40.1324C119.531 40.4496 119.195 40.6808 118.814 40.7912L115.377 41.7525C114.834 44.4065 113.792 46.9335 112.308 49.1993L114.054 52.3101C114.249 52.6576 114.326 53.0598 114.271 53.4548C114.216 53.8499 114.033 54.2159 113.749 54.4967L111.199 57.0524C110.919 57.3328 110.555 57.5142 110.162 57.5692C109.77 57.6241 109.37 57.5497 109.024 57.357L105.884 55.6036C103.625 57.07 101.113 58.1031 98.4758 58.6501L97.4981 62.1027C97.3904 62.4826 97.163 62.8177 96.8497 63.058C96.5364 63.2982 96.154 63.4309 95.7593 63.4363ZM82.0248 54.5509C82.12 54.5507 82.2131 54.579 82.2921 54.6321C84.5903 56.1732 87.1738 57.2379 89.89 57.7632C89.9773 57.7806 90.0582 57.8212 90.1243 57.8807C90.1904 57.9403 90.2392 58.0167 90.2655 58.1017L91.321 61.8251C91.3727 62.0037 91.4807 62.1607 91.6288 62.2729C91.7769 62.3852 91.9572 62.4465 92.143 62.4479H95.7593C95.9451 62.4465 96.1255 62.3852 96.2736 62.2729C96.4217 62.1607 96.5296 62.0037 96.5814 61.8251L97.6368 58.1017C97.6625 58.0169 97.7107 57.9407 97.7762 57.8811C97.8417 57.8215 97.9221 57.7808 98.0089 57.7632C100.726 57.2385 103.311 56.1738 105.61 54.6321C105.685 54.5834 105.771 54.5558 105.859 54.5522C105.948 54.5486 106.036 54.5692 106.114 54.6118L109.497 56.4938C109.659 56.5824 109.845 56.6163 110.028 56.5907C110.211 56.5651 110.381 56.4813 110.512 56.3517L113.066 53.7927C113.198 53.6623 113.283 53.4924 113.308 53.3089C113.334 53.1255 113.299 52.9387 113.208 52.7772L111.321 49.3923C111.276 49.3142 111.255 49.2252 111.258 49.1355C111.262 49.0457 111.29 48.9588 111.341 48.8845C112.892 46.5843 113.961 43.9935 114.484 41.2684C114.5 41.1808 114.541 41.0995 114.6 41.0332C114.66 40.967 114.736 40.9184 114.822 40.8927L118.543 39.8501C118.722 39.7982 118.879 39.6897 118.992 39.5408C119.104 39.3919 119.165 39.2107 119.165 39.0242V35.4023C119.165 35.2154 119.103 35.0339 118.99 34.8849C118.877 34.736 118.719 34.6277 118.54 34.5764L114.818 33.5339C114.733 33.5082 114.656 33.4596 114.597 33.3933C114.537 33.3271 114.497 33.2457 114.48 33.1581C113.956 30.4388 112.887 27.8537 111.337 25.559C111.287 25.4847 111.258 25.3977 111.255 25.308C111.251 25.2183 111.273 25.1293 111.317 25.0512L113.212 21.6663C113.299 21.5037 113.332 21.3174 113.306 21.1346C113.28 20.9518 113.196 20.7823 113.066 20.6508L110.509 18.0918C110.377 17.9623 110.207 17.8788 110.024 17.8537C109.841 17.8287 109.655 17.8636 109.494 17.953L106.111 19.8452C106.033 19.8885 105.944 19.9095 105.854 19.9059C105.765 19.9023 105.678 19.8743 105.603 19.8249C103.309 18.2738 100.725 17.2041 98.0055 16.6803C97.9188 16.6627 97.8383 16.622 97.7728 16.5624C97.7073 16.5028 97.6591 16.4266 97.6334 16.3418L96.578 12.6184C96.5273 12.4389 96.4198 12.2808 96.2715 12.1678C96.1232 12.0549 95.9423 11.9932 95.7559 11.9922H92.143C91.9626 11.9953 91.7877 12.0552 91.6432 12.1633C91.4987 12.2715 91.3919 12.4224 91.3379 12.5947L90.2824 16.3181C90.2561 16.4031 90.2073 16.4795 90.1412 16.5391C90.0751 16.5986 89.9942 16.6393 89.9069 16.6566C87.1892 17.181 84.6057 18.2507 82.3124 19.8012C82.2377 19.8506 82.1509 19.8786 82.0615 19.8822C81.972 19.8858 81.8833 19.8648 81.805 19.8215L78.4221 17.9327C78.2612 17.8417 78.0751 17.8057 77.892 17.8302C77.7088 17.8546 77.5386 17.9381 77.4072 18.0681L74.8227 20.6474C74.6932 20.7791 74.6098 20.9491 74.5848 21.1321C74.5598 21.3151 74.5946 21.5013 74.684 21.6629L76.575 25.0478C76.6194 25.1259 76.641 25.2149 76.6374 25.3046C76.6338 25.3944 76.6052 25.4813 76.5547 25.5556C75.0013 27.8548 73.9309 30.446 73.4086 33.1717C73.392 33.2593 73.3517 33.3406 73.292 33.4069C73.2324 33.4731 73.1557 33.5217 73.0704 33.5474L69.3492 34.59C69.1708 34.6425 69.0142 34.7513 68.9027 34.9001C68.7911 35.0489 68.7306 35.2299 68.7301 35.4159V39.0378C68.7306 39.2247 68.7915 39.4064 68.9037 39.5559C69.0158 39.7053 69.1733 39.8145 69.3526 39.8671L73.0737 40.9062C73.1591 40.9319 73.2357 40.9805 73.2954 41.0468C73.355 41.113 73.3954 41.1944 73.412 41.282C73.9332 44.0075 75.0024 46.5986 76.5547 48.8981C76.6052 48.9724 76.6338 49.0593 76.6374 49.149C76.641 49.2388 76.6194 49.3277 76.575 49.4058L74.6874 52.7738C74.5969 52.9351 74.5614 53.1216 74.5865 53.3048C74.6115 53.4881 74.6956 53.6582 74.8261 53.7893L77.3835 56.3517C77.5144 56.4823 77.6842 56.5667 77.8672 56.5924C78.0503 56.618 78.2367 56.5834 78.3984 56.4938L81.7813 54.6118C81.8559 54.5709 81.9398 54.5499 82.0248 54.5509ZM93.9596 49.4735C91.5411 49.4735 89.1768 48.7559 87.1659 47.4115C85.1549 46.0671 83.5874 44.1562 82.6617 41.9205C81.736 39.6847 81.4937 37.2246 81.9653 34.851C82.4368 32.4774 83.6012 30.2971 85.3111 28.5856C87.0211 26.8742 89.1998 25.7085 91.5718 25.236C93.9438 24.7635 96.4025 25.0053 98.6372 25.9309C100.872 26.8566 102.782 28.4244 104.126 30.4363C105.47 32.4481 106.188 34.8136 106.189 37.2336C106.179 40.4747 104.887 43.58 102.595 45.8705C100.304 48.161 97.1987 49.4503 93.9596 49.4566V49.4735ZM93.9596 25.9686C91.7316 25.9659 89.5528 26.6246 87.699 27.8613C85.8452 29.098 84.3996 30.8571 83.5453 32.9161C82.691 34.9751 82.4662 37.2414 82.8995 39.4283C83.3328 41.6151 84.4046 43.6242 85.9794 45.2014C87.5541 46.7785 89.561 47.8528 91.7462 48.2883C93.9313 48.7238 96.1964 48.501 98.2549 47.648C100.313 46.795 102.073 45.3502 103.31 43.4963C104.548 41.6425 105.208 39.463 105.208 37.2336C105.207 34.2464 104.022 31.3814 101.914 29.2666C99.8054 27.1518 96.945 25.9597 93.9596 25.9516V25.9686Z" fill="#666666"/>
<path d="M135.947 35.4233H133.532C133.23 35.4224 132.936 35.3227 132.696 35.1393C132.456 34.956 132.283 34.6991 132.202 34.4078L131.573 32.1873C129.854 31.8177 128.216 31.1425 126.735 30.1936L124.723 31.3106C124.461 31.4553 124.159 31.5112 123.862 31.4697C123.566 31.4282 123.291 31.2916 123.079 31.0804L121.367 29.3677C121.154 29.1542 121.016 28.8772 120.975 28.5786C120.933 28.2799 120.99 27.9759 121.137 27.7124L122.26 25.7153C121.303 24.234 120.624 22.5901 120.257 20.8647L118.062 20.2554C117.771 20.1739 117.515 20 117.332 19.7601C117.149 19.5201 117.049 19.227 117.047 18.9251V16.4982C117.048 16.1961 117.148 15.9028 117.331 15.6627C117.515 15.4226 117.771 15.2489 118.062 15.1679L120.257 14.5552C120.626 12.8336 121.305 11.1935 122.26 9.71475L121.137 7.7041C120.99 7.44116 120.934 7.13769 120.975 6.83963C121.017 6.54157 121.154 6.26516 121.367 6.05226L123.075 4.33948C123.289 4.12783 123.565 3.99127 123.863 3.95037C124.16 3.90947 124.463 3.96644 124.726 4.11269L126.735 5.23649C128.213 4.28008 129.852 3.59997 131.573 3.22922L132.202 1.01548C132.283 0.724232 132.456 0.46733 132.696 0.283978C132.936 0.100625 133.23 0.000892903 133.532 0L135.947 0C136.249 0.000892903 136.542 0.100625 136.782 0.283978C137.022 0.46733 137.196 0.724232 137.276 1.01548L137.906 3.23261C139.63 3.59867 141.274 4.27537 142.757 5.22972L144.766 4.10592C145.029 3.95967 145.332 3.9027 145.629 3.9436C145.927 3.9845 146.204 4.12106 146.417 4.33271L148.125 6.04549C148.338 6.25839 148.475 6.5348 148.517 6.83286C148.558 7.13092 148.502 7.43439 148.355 7.69733L147.232 9.70798C148.182 11.1905 148.856 12.8327 149.221 14.5552L151.427 15.1746C151.718 15.2557 151.974 15.4294 152.157 15.6695C152.341 15.9096 152.44 16.2029 152.442 16.5049V18.9319C152.44 19.2338 152.34 19.5269 152.157 19.7668C151.974 20.0068 151.718 20.1807 151.427 20.2622L149.221 20.8816C148.854 22.6047 148.175 24.2462 147.219 25.7255L148.342 27.7226C148.488 27.986 148.545 28.2901 148.504 28.5887C148.462 28.8874 148.325 29.1644 148.112 29.3778L146.4 31.0906C146.187 31.302 145.912 31.4387 145.615 31.4802C145.318 31.5217 145.015 31.4658 144.753 31.3208L142.757 30.2037C141.276 31.1526 139.638 31.8279 137.919 32.1975L137.29 34.418C137.207 34.7096 137.031 34.9659 136.788 35.1475C136.545 35.3291 136.25 35.426 135.947 35.4233ZM126.756 29.151C126.852 29.1508 126.946 29.179 127.026 29.2323C128.547 30.2514 130.256 30.9568 132.053 31.3072C132.141 31.3237 132.221 31.3641 132.287 31.4238C132.353 31.4836 132.401 31.5604 132.425 31.6457L133.132 34.1506C133.157 34.2369 133.21 34.3128 133.282 34.3665C133.354 34.4203 133.442 34.4491 133.532 34.4484H135.947C136.036 34.4489 136.124 34.42 136.195 34.3662C136.267 34.3124 136.318 34.2367 136.343 34.1506L137.053 31.6457C137.078 31.5604 137.126 31.4836 137.191 31.4238C137.257 31.3641 137.338 31.3237 137.425 31.3072C139.222 30.9568 140.931 30.2514 142.452 29.2323C142.527 29.1835 142.613 29.1559 142.701 29.1523C142.79 29.1487 142.878 29.1693 142.956 29.212L145.223 30.4711C145.301 30.5153 145.392 30.5326 145.481 30.5203C145.57 30.5081 145.653 30.4671 145.717 30.4034L147.428 28.6907C147.491 28.6264 147.531 28.5437 147.544 28.4547C147.556 28.3658 147.539 28.2753 147.496 28.1965L146.231 25.9421C146.187 25.864 146.165 25.7751 146.169 25.6853C146.172 25.5956 146.201 25.5086 146.251 25.4344C147.278 23.9125 147.986 22.1978 148.332 20.3942C148.348 20.3069 148.389 20.2259 148.448 20.1602C148.508 20.0945 148.585 20.0466 148.67 20.0219L151.156 19.3212C151.243 19.2969 151.319 19.2451 151.373 19.1736C151.428 19.1022 151.457 19.0149 151.457 18.9251V16.4982C151.458 16.4082 151.428 16.3207 151.374 16.2491C151.32 16.1776 151.243 16.1259 151.156 16.1021L148.677 15.4014C148.591 15.3761 148.514 15.3276 148.455 15.2613C148.395 15.195 148.355 15.1135 148.338 15.0257C147.989 13.2274 147.282 11.5179 146.258 9.99909C146.208 9.9248 146.179 9.83786 146.175 9.74812C146.172 9.65838 146.193 9.56942 146.238 9.49135L147.503 7.22344C147.547 7.14547 147.564 7.05527 147.552 6.96664C147.539 6.87801 147.499 6.79581 147.435 6.73263L145.724 5.01985C145.66 4.95651 145.578 4.9156 145.49 4.90337C145.401 4.89115 145.311 4.90828 145.233 4.95215L142.966 6.21812C142.888 6.26175 142.799 6.28294 142.71 6.27936C142.62 6.27578 142.534 6.24756 142.459 6.19781C140.94 5.17291 139.231 4.4649 137.432 4.11608C137.345 4.09921 137.264 4.05871 137.199 3.99902C137.133 3.93932 137.085 3.86272 137.06 3.77758L136.353 1.27612C136.328 1.18969 136.275 1.11373 136.203 1.05948C136.131 1.00522 136.044 0.975557 135.954 0.97486H133.538C133.448 0.975012 133.361 1.00447 133.289 1.05881C133.217 1.11314 133.164 1.1894 133.139 1.27612L132.432 3.77758C132.407 3.86272 132.359 3.93932 132.294 3.99902C132.228 4.05871 132.147 4.09921 132.06 4.11608C130.262 4.4649 128.552 5.17291 127.033 6.19781C126.958 6.2472 126.872 6.27521 126.782 6.27878C126.693 6.28236 126.604 6.26138 126.526 6.21812L124.259 4.95215C124.181 4.90828 124.091 4.89115 124.003 4.90337C123.914 4.9156 123.832 4.95651 123.769 5.01985L122.057 6.73263C121.994 6.79581 121.953 6.87801 121.941 6.96664C121.928 7.05527 121.945 7.14547 121.989 7.22344L123.254 9.49135C123.299 9.56942 123.32 9.65838 123.317 9.74812C123.313 9.83786 123.285 9.9248 123.234 9.99909C122.21 11.5179 121.503 13.2274 121.154 15.0257C121.137 15.1135 121.097 15.195 121.037 15.2613C120.978 15.3276 120.901 15.3761 120.815 15.4014L118.329 16.1021C118.242 16.1259 118.166 16.1776 118.111 16.2491C118.057 16.3207 118.028 16.4082 118.028 16.4982V18.9251C118.028 19.0149 118.058 19.1022 118.112 19.1736C118.166 19.2451 118.243 19.2969 118.329 19.3212L120.815 20.0219C120.901 20.0466 120.977 20.0945 121.037 20.1602C121.097 20.2259 121.137 20.3069 121.154 20.3942C121.499 22.1978 122.207 23.9125 123.234 25.4344C123.285 25.5086 123.313 25.5956 123.317 25.6853C123.32 25.7751 123.299 25.864 123.254 25.9421L121.989 28.1965C121.946 28.2753 121.93 28.3658 121.942 28.4547C121.954 28.5437 121.994 28.6264 122.057 28.6907L123.769 30.4034C123.832 30.4668 123.914 30.5077 124.003 30.5199C124.091 30.5322 124.181 30.515 124.259 30.4711L126.519 29.212C126.591 29.1711 126.673 29.1501 126.756 29.151Z" fill="#666666"/>
<path d="M134.746 26.0645C133.096 26.0639 131.483 25.5736 130.111 24.6558C128.739 23.7379 127.67 22.4337 127.039 20.908C126.408 19.3822 126.243 17.7035 126.565 16.084C126.887 14.4644 127.682 12.9768 128.849 11.8091C130.016 10.6415 131.502 9.84622 133.121 9.52391C134.739 9.20159 136.417 9.36667 137.942 9.99829C139.467 10.6299 140.77 11.6997 141.688 13.0724C142.605 14.4452 143.095 16.0592 143.095 17.7105C143.093 19.9253 142.212 22.0486 140.647 23.6147C139.082 25.1808 136.96 26.0618 134.746 26.0645ZM134.746 10.3348C133.287 10.3341 131.86 10.7666 130.646 11.5775C129.432 12.3885 128.486 13.5414 127.927 14.8906C127.368 16.2397 127.222 17.7243 127.507 19.1567C127.791 20.5891 128.494 21.9049 129.526 22.9375C130.558 23.9702 131.873 24.6734 133.305 24.9581C134.736 25.2429 136.22 25.0964 137.568 24.5372C138.916 23.978 140.069 23.0313 140.879 21.8167C141.69 20.6021 142.122 19.1743 142.121 17.7139C142.118 15.7573 141.341 13.8816 139.958 12.4978C138.576 11.114 136.702 10.335 134.746 10.3314V10.3348Z" fill="#666666"/>
<path d="M232.306 45.2572L222.932 131.945C222.782 133.114 222.217 134.191 221.34 134.978C220.464 135.765 219.333 136.211 218.155 136.234H97.8265C97.2789 136.248 96.7348 136.143 96.2318 135.926C95.7287 135.71 95.2786 135.386 94.9126 134.979C94.5466 134.571 94.2733 134.088 94.1118 133.565C93.9502 133.041 93.9042 132.488 93.9768 131.945L103.358 45.2572C103.504 44.0859 104.068 43.0067 104.945 42.2172C105.823 41.4278 106.955 40.9809 108.134 40.9583H228.456C229.005 40.944 229.55 41.0491 230.054 41.2664C230.558 41.4838 231.008 41.8081 231.375 42.217C231.741 42.626 232.014 43.1096 232.175 43.6346C232.335 44.1595 232.38 44.7132 232.306 45.2572Z" fill="white"/>
<path d="M218.148 136.716H97.8254C97.21 136.731 96.5987 136.612 96.0335 136.368C95.4683 136.124 94.9627 135.76 94.5513 135.302C94.1399 134.843 93.8325 134.301 93.6502 133.713C93.468 133.125 93.4151 132.504 93.4954 131.893L102.873 45.2049C103.035 43.9146 103.656 42.7259 104.621 41.8558C105.587 40.9857 106.834 40.4924 108.133 40.466H228.455C229.071 40.4519 229.682 40.5713 230.247 40.8159C230.813 41.0606 231.318 41.4246 231.73 41.8831C232.141 42.3417 232.448 42.8838 232.63 43.4724C232.813 44.0609 232.865 44.682 232.785 45.2929L223.405 132.011C223.235 133.295 222.612 134.475 221.647 135.338C220.683 136.201 219.441 136.69 218.148 136.716ZM108.133 41.4544C107.077 41.4803 106.066 41.8832 105.281 42.5902C104.496 43.2973 103.99 44.2619 103.854 45.3098L94.4561 132.011C94.3914 132.488 94.4314 132.973 94.5732 133.433C94.7151 133.892 94.9555 134.315 95.2775 134.672C95.5996 135.029 95.9957 135.312 96.438 135.5C96.8804 135.688 97.3585 135.778 97.839 135.762H218.148C219.206 135.74 220.222 135.339 221.01 134.631C221.799 133.924 222.307 132.957 222.444 131.906L231.821 45.2184C231.886 44.7431 231.847 44.2594 231.706 43.8008C231.566 43.3422 231.327 42.9198 231.007 42.5629C230.686 42.206 230.292 41.9231 229.852 41.734C229.411 41.5449 228.934 41.4541 228.455 41.4679L108.133 41.4544Z" fill="#666666"/>
<path d="M231.628 51.5058L232.305 45.2572C232.379 44.7132 232.334 44.1595 232.173 43.6346C232.012 43.1096 231.74 42.626 231.373 42.217C231.007 41.8081 230.556 41.4838 230.053 41.2664C229.549 41.0491 229.004 40.944 228.455 40.9583H108.133C106.955 40.9804 105.825 41.4254 104.948 42.2121C104.071 42.9988 103.506 44.0748 103.356 45.2437L102.68 51.4922L231.628 51.5058Z" fill="#FF355A"/>
<path d="M231.63 51.9883H102.681C102.613 51.9883 102.545 51.9739 102.483 51.9459C102.42 51.9178 102.365 51.8769 102.319 51.8258C102.274 51.7753 102.24 51.7156 102.219 51.6508C102.199 51.586 102.193 51.5175 102.201 51.4501L102.877 45.2049C103.04 43.9146 103.66 42.7259 104.626 41.8558C105.592 40.9857 106.838 40.4924 108.138 40.466H228.457C229.072 40.4519 229.684 40.5713 230.249 40.8159C230.814 41.0606 231.32 41.4246 231.731 41.8831C232.142 42.3417 232.45 42.8838 232.632 43.4724C232.814 44.0609 232.867 44.682 232.787 45.2929L232.11 51.5381C232.102 51.6599 232.047 51.774 231.958 51.8575C231.869 51.941 231.752 51.9877 231.63 51.9883ZM103.222 51.0168H231.193L231.823 45.2049C231.888 44.7296 231.848 44.2458 231.708 43.7873C231.567 43.3287 231.328 42.9062 231.008 42.5493C230.688 42.1924 230.293 41.9096 229.853 41.7205C229.412 41.5314 228.936 41.4406 228.457 41.4544H108.134C107.079 41.4803 106.067 41.8832 105.282 42.5902C104.497 43.2973 103.991 44.2619 103.855 45.3098L103.222 51.0168Z" fill="#666666"/>
<path d="M89.1927 241.48C89.1202 241.48 89.0487 241.464 88.983 241.433C88.8675 241.376 88.7792 241.276 88.7374 241.154C88.6956 241.032 88.7036 240.899 88.7597 240.783L90.1129 237.977C90.1689 237.859 90.2694 237.769 90.3922 237.725C90.5149 237.682 90.6499 237.689 90.7674 237.745C90.885 237.801 90.9754 237.902 91.0189 238.025C91.0623 238.147 91.0552 238.283 90.9992 238.4L89.646 241.206C89.6056 241.291 89.5411 241.363 89.4605 241.412C89.3799 241.46 89.2868 241.484 89.1927 241.48Z" fill="#222222"/>
<path d="M87.0896 240.898C87.0156 240.898 86.9426 240.881 86.8765 240.847C86.8191 240.82 86.7678 240.781 86.7255 240.734C86.6831 240.686 86.6506 240.631 86.6299 240.571C86.6091 240.511 86.6005 240.447 86.6045 240.383C86.6085 240.32 86.6251 240.258 86.6532 240.201L88.0064 237.395C88.0341 237.337 88.0729 237.286 88.1205 237.244C88.1681 237.201 88.2236 237.169 88.2837 237.148C88.3439 237.127 88.4075 237.118 88.4711 237.122C88.5347 237.126 88.5969 237.142 88.6542 237.17C88.7115 237.197 88.7628 237.236 88.8051 237.284C88.8474 237.331 88.88 237.387 88.9009 237.447C88.9217 237.507 88.9306 237.571 88.9269 237.635C88.9231 237.698 88.9069 237.761 88.8792 237.818L87.526 240.624C87.4872 240.707 87.4254 240.776 87.348 240.825C87.2706 240.874 87.181 240.899 87.0896 240.898Z" fill="#222222"/>
<path d="M88.2926 237.663C88.0064 237.673 87.7269 237.574 87.5112 237.386C87.0951 237.007 87.0376 236.326 87.3454 235.47C87.6239 234.737 88.0369 234.063 88.5633 233.483C88.9905 232.963 89.5629 232.582 90.2074 232.389C90.4702 232.316 90.7473 232.311 91.0129 232.373C91.2785 232.436 91.5239 232.565 91.7263 232.748C92.3555 233.32 92.6227 234.508 91.2933 235.967C90.505 236.814 89.2331 237.663 88.2926 237.663ZM90.6607 233.303C90.5888 233.304 90.5173 233.314 90.4475 233.33C89.9914 233.478 89.5889 233.757 89.2906 234.133C88.8516 234.62 88.5074 235.185 88.2757 235.798C88.0795 236.336 88.1269 236.621 88.1776 236.668C88.3671 236.837 89.5917 236.418 90.5964 235.314C91.2899 234.549 91.4861 233.821 91.0903 233.462C91.029 233.406 90.9569 233.363 90.8784 233.336C90.7998 233.308 90.7165 233.297 90.6336 233.303H90.6607Z" fill="#222222"/>
<path d="M39.0623 133.17L3.13281 229.864H38.0982L54.8536 167.351L50.2833 229.864H81.6189L80.6683 133.17H39.0623Z" fill="#D2D2D2"/>
<path d="M81.6189 230.348H50.2834C50.1547 230.341 50.0334 230.286 49.9451 230.192C49.9001 230.143 49.8657 230.085 49.8442 230.022C49.8226 229.959 49.8144 229.893 49.8199 229.826L54.0147 172.414L38.5651 229.989C38.5364 230.092 38.4749 230.182 38.3901 230.247C38.3052 230.312 38.2016 230.347 38.0949 230.348H3.13283C3.05427 230.348 2.97686 230.329 2.90731 230.292C2.83776 230.255 2.77816 230.202 2.73365 230.138C2.68944 230.074 2.66141 230 2.65198 229.923C2.64255 229.845 2.65201 229.767 2.67953 229.694L38.6057 133C38.6408 132.908 38.7033 132.828 38.7849 132.772C38.8665 132.715 38.9633 132.685 39.0624 132.686H80.6717C80.7989 132.686 80.9209 132.736 81.0114 132.825C81.102 132.914 81.1537 133.036 81.1555 133.163L82.1061 229.857C82.1061 229.986 82.0554 230.11 81.9648 230.201C81.8743 230.293 81.7513 230.346 81.6223 230.348H81.6189ZM50.8043 229.376H81.1284L80.1745 133.654H39.3973L3.82971 229.376H37.7295L54.3868 167.215C54.4171 167.098 54.4902 166.996 54.5917 166.931C54.6931 166.865 54.8156 166.839 54.9349 166.859C55.0542 166.879 55.1617 166.943 55.2362 167.038C55.3107 167.134 55.3468 167.254 55.3374 167.374L50.8043 229.376Z" fill="#222222"/>
<path d="M54.6638 248.207H101.07V245.997C101.071 244.649 100.637 243.336 99.8333 242.255C99.0295 241.173 97.8984 240.379 96.608 239.992H96.5742L86.2869 236.918L83.0224 232.772C82.7522 232.427 82.4104 232.145 82.0207 231.946C81.6309 231.746 81.2025 231.633 80.765 231.616C80.3275 231.598 79.8914 231.676 79.4869 231.843C79.0823 232.011 78.7188 232.264 78.4217 232.586C76.6761 234.485 72.4577 238.492 68.0261 238.587C62.2143 238.712 59.8226 233.598 59.8226 233.598C51.9338 237.589 54.6638 248.207 54.6638 248.207Z" fill="#555555"/>
<path d="M101.07 248.691H54.6639C54.5565 248.692 54.4519 248.656 54.3668 248.591C54.2817 248.525 54.2208 248.433 54.1937 248.329C54.1666 248.217 51.4637 237.284 59.6063 233.161C59.6642 233.133 59.7272 233.116 59.7917 233.111C59.8562 233.107 59.9208 233.116 59.9819 233.137C60.043 233.158 60.0993 233.191 60.1475 233.234C60.1956 233.277 60.2348 233.33 60.2626 233.388C60.3539 233.584 62.546 238.1 67.8132 238.1H68.0161C72.3158 238.005 76.4733 233.98 78.0633 232.254C78.3927 231.899 78.7921 231.615 79.2362 231.421C79.6804 231.227 80.1598 231.127 80.6444 231.127C81.1774 231.126 81.7035 231.248 82.1821 231.483C82.6607 231.717 83.079 232.059 83.4048 232.481L86.5712 236.506L96.7198 239.552H96.7706C98.1526 239.978 99.3627 240.834 100.225 241.995C101.087 243.157 101.556 244.564 101.564 246.011V248.221C101.561 248.349 101.507 248.47 101.414 248.558C101.322 248.646 101.198 248.694 101.07 248.691ZM55.0631 247.723H100.597V245.997C100.59 244.756 100.187 243.549 99.4463 242.553C98.7056 241.558 97.6661 240.825 96.4797 240.463H96.4289L86.1585 237.392C86.062 237.364 85.9768 237.306 85.9149 237.227L82.6505 233.083C82.415 232.778 82.1125 232.532 81.7663 232.363C81.4202 232.194 81.0397 232.107 80.6546 232.109C80.3039 232.108 79.9571 232.181 79.6357 232.321C79.3144 232.462 79.0255 232.667 78.7872 232.924C77.1161 234.742 72.7217 238.98 68.0466 239.082C63.0264 239.2 60.4148 235.554 59.6401 234.261C53.4495 237.745 54.6876 245.902 55.053 247.723H55.0631Z" fill="#222222"/>
<path d="M63.9364 248.692C63.8081 248.692 63.685 248.641 63.5943 248.55C63.5036 248.459 63.4526 248.336 63.4526 248.208C63.4601 245.92 62.6168 243.711 61.0868 242.011C59.5567 240.311 57.4494 239.242 55.1747 239.011C55.1088 239.008 55.0441 238.992 54.9847 238.963C54.9252 238.934 54.8723 238.894 54.8291 238.844C54.7858 238.794 54.7533 238.736 54.7334 238.673C54.7135 238.61 54.7067 238.544 54.7134 238.478C54.7201 238.412 54.7402 238.349 54.7724 238.291C54.8046 238.233 54.8482 238.183 54.9006 238.143C54.953 238.103 55.0131 238.074 55.0771 238.057C55.1411 238.041 55.2077 238.039 55.2728 238.049C57.7828 238.307 60.1075 239.489 61.7954 241.366C63.4832 243.242 64.4139 245.679 64.4066 248.204C64.4075 248.331 64.3588 248.453 64.2709 248.544C64.183 248.635 64.0629 248.688 63.9364 248.692Z" fill="#222222"/>
<path d="M84.9779 240.33C84.9052 240.331 84.8334 240.314 84.7681 240.282C84.6527 240.226 84.5644 240.125 84.5226 240.004C84.4807 239.882 84.4887 239.748 84.5449 239.632L85.898 236.826C85.9541 236.711 86.0538 236.622 86.1753 236.58C86.2968 236.537 86.4301 236.545 86.5458 236.601C86.6616 236.657 86.7503 236.757 86.7925 236.879C86.8347 237 86.8269 237.134 86.7708 237.25L85.4176 240.056C85.3782 240.139 85.3158 240.209 85.2379 240.257C85.1599 240.306 85.0697 240.331 84.9779 240.33Z" fill="#222222"/>
<path d="M87.0214 237.396C85.8171 237.396 85.1777 235.307 85.1777 233.801C85.1777 231.828 86.1689 231.127 87.0214 231.127C87.8739 231.127 88.8685 231.828 88.8685 233.801C88.8685 235.307 88.2257 237.396 87.0214 237.396ZM87.0214 232.095C86.4903 232.095 86.1452 232.772 86.1452 233.788C86.1452 235.277 86.7677 236.414 87.0214 236.414C87.2751 236.414 87.8976 235.277 87.8976 233.788C87.8976 232.765 87.5559 232.095 87.0214 232.095Z" fill="#222222"/>
<path d="M3.53251 248.182H43.9782V245.969C43.9782 243.203 42.3916 240.769 40.0879 239.974H40.0574L31.0928 236.9L28.2478 232.74C28.0234 232.392 27.7169 232.105 27.3552 231.904C26.9935 231.702 26.5879 231.593 26.1741 231.586C25.7998 231.59 25.4312 231.678 25.0956 231.843C24.76 232.009 24.4661 232.249 24.2357 232.544C22.7168 234.443 19.0396 238.451 15.1764 238.545C10.1021 238.674 8.02835 233.556 8.02835 233.556C1.15434 237.564 3.53251 248.182 3.53251 248.182Z" fill="#555555"/>
<path d="M43.9767 248.667H3.531C3.41839 248.671 3.3081 248.635 3.21917 248.566C3.13023 248.496 3.06823 248.398 3.04386 248.288C2.94238 247.841 0.67585 237.277 7.77989 233.151C7.83912 233.119 7.90428 233.1 7.97129 233.094C8.0383 233.089 8.10571 233.098 8.16926 233.12C8.23281 233.141 8.29113 233.176 8.34056 233.222C8.38999 233.267 8.42945 233.323 8.45647 233.384C8.53765 233.581 10.4862 238.191 15.1444 238.073C18.8656 237.981 22.4582 233.973 23.8384 232.254C24.1124 231.9 24.4628 231.612 24.8634 231.412C25.2641 231.212 25.7046 231.105 26.1523 231.1C26.6434 231.107 27.1253 231.234 27.5562 231.47C27.9871 231.706 28.3541 232.044 28.6252 232.454L31.3788 236.465L40.1912 239.487L40.242 239.504C42.7453 240.371 44.4401 242.964 44.4401 245.936V248.15C44.4447 248.214 44.4363 248.279 44.4153 248.34C44.3943 248.402 44.3612 248.458 44.318 248.507C44.2747 248.555 44.2223 248.594 44.1636 248.622C44.105 248.649 44.0414 248.665 43.9767 248.667ZM3.93018 247.696H43.5098V245.97C43.5098 243.434 42.045 241.156 39.9477 240.432H39.9003L30.9492 237.365C30.8506 237.332 30.7661 237.266 30.709 237.179L27.8471 233.019C27.6681 232.735 27.4214 232.499 27.1292 232.334C26.837 232.168 26.5083 232.078 26.1726 232.071C25.8699 232.076 25.5722 232.149 25.302 232.286C25.0318 232.422 24.7962 232.619 24.6131 232.86C23.1517 234.684 19.302 238.953 15.1884 239.044C10.8583 239.149 8.54442 235.612 7.82725 234.265C2.54996 237.788 3.6088 245.855 3.93018 247.696Z" fill="#222222"/>
<path d="M12.8544 248.668C12.7258 248.668 12.6024 248.617 12.5112 248.526C12.4199 248.436 12.3682 248.313 12.3673 248.184C12.3776 245.896 11.5368 243.686 10.0086 241.984C8.48041 240.283 6.3741 239.211 4.09956 238.977C3.97171 238.964 3.85427 238.901 3.77306 238.801C3.69186 238.701 3.65354 238.573 3.66655 238.446C3.67956 238.318 3.74283 238.2 3.84243 238.119C3.94203 238.038 4.06981 237.999 4.19766 238.012C6.70733 238.271 9.03155 239.453 10.7193 241.329C12.4071 243.206 13.338 245.643 13.3314 248.167C13.3337 248.231 13.3231 248.296 13.3002 248.356C13.2773 248.416 13.2427 248.471 13.1982 248.518C13.1538 248.565 13.1005 248.602 13.0415 248.628C12.9824 248.653 12.9188 248.667 12.8544 248.668Z" fill="#222222"/>
<path d="M43.9766 248.667H38.3983C38.3005 248.668 38.2051 248.638 38.1242 248.583C38.0434 248.528 37.9809 248.45 37.945 248.359C37.5677 247.388 37.3772 246.355 37.3834 245.313C37.3704 244.252 37.5707 243.199 37.9722 242.217C38.3738 241.235 38.9685 240.344 39.721 239.596C39.7868 239.532 39.8697 239.488 39.9597 239.47C40.0497 239.452 40.143 239.461 40.2284 239.494C42.7656 240.371 44.4604 242.964 44.4604 245.953V248.166C44.4626 248.231 44.4518 248.296 44.4285 248.357C44.4052 248.418 44.37 248.473 44.3248 248.52C44.2797 248.566 44.2256 248.604 44.1657 248.629C44.1059 248.654 44.0416 248.667 43.9766 248.667ZM38.7366 247.696H43.4929V245.97C43.4929 243.536 42.1397 241.339 40.1777 240.527C38.9827 241.838 38.3299 243.555 38.3509 245.33C38.3474 246.135 38.4777 246.934 38.7366 247.696Z" fill="#222222"/>
<path d="M34.0189 241.683C33.9462 241.684 33.8744 241.668 33.8091 241.636C33.6937 241.579 33.6054 241.479 33.5636 241.357C33.5217 241.235 33.5298 241.102 33.5859 240.986L34.939 238.18C34.9951 238.064 35.0949 237.975 35.2163 237.933C35.3378 237.891 35.4711 237.899 35.5868 237.955C35.7026 238.011 35.7913 238.111 35.8335 238.232C35.8757 238.354 35.8679 238.487 35.8118 238.603L34.4587 241.409C34.4192 241.492 34.3568 241.562 34.2789 241.611C34.2009 241.659 34.1107 241.684 34.0189 241.683Z" fill="#222222"/>
<path d="M31.8838 240.871C31.8113 240.87 31.7398 240.854 31.674 240.823C31.5586 240.767 31.4702 240.666 31.4278 240.545C31.3854 240.423 31.3924 240.29 31.4474 240.174L32.8005 237.367C32.8267 237.308 32.8647 237.254 32.9121 237.209C32.9596 237.165 33.0155 237.13 33.0766 237.108C33.1377 237.085 33.2027 237.075 33.2678 237.079C33.3328 237.082 33.3965 237.098 33.455 237.127C33.5135 237.155 33.5657 237.195 33.6085 237.245C33.6512 237.294 33.6835 237.351 33.7036 237.413C33.7237 237.475 33.731 237.54 33.7253 237.605C33.7195 237.67 33.7007 237.733 33.6699 237.791L32.3168 240.597C32.2772 240.678 32.2157 240.747 32.1392 240.795C32.0627 240.844 31.9743 240.87 31.8838 240.871Z" fill="#222222"/>
<path d="M29.7684 240.289C29.6954 240.289 29.6236 240.271 29.5586 240.238C29.4434 240.182 29.355 240.082 29.3126 239.961C29.2702 239.84 29.2771 239.707 29.332 239.592L30.6851 236.785C30.7113 236.726 30.7493 236.672 30.7967 236.627C30.8441 236.583 30.9001 236.548 30.9612 236.526C31.0223 236.503 31.0873 236.493 31.1523 236.497C31.2173 236.5 31.281 236.516 31.3396 236.545C31.3981 236.573 31.4503 236.613 31.493 236.663C31.5357 236.712 31.5681 236.769 31.5882 236.831C31.6082 236.893 31.6156 236.958 31.6098 237.023C31.604 237.088 31.5852 237.151 31.5545 237.209L30.2014 240.015C30.1618 240.096 30.1003 240.165 30.0238 240.213C29.9473 240.262 29.8589 240.288 29.7684 240.289Z" fill="#222222"/>
<path d="M31.8197 237.372C30.6154 237.372 29.9727 235.283 29.9727 233.774C29.9727 231.8 30.9672 231.1 31.8197 231.1C32.6722 231.1 33.6634 231.8 33.6634 233.774C33.6634 235.283 33.024 237.372 31.8197 237.372ZM31.8197 232.071C31.2852 232.071 30.9435 232.748 30.9435 233.764C30.9435 235.253 31.566 236.39 31.8197 236.39C32.0734 236.39 32.6959 235.253 32.6959 233.764C32.6959 232.738 32.3508 232.071 31.8197 232.071Z" fill="#222222"/>
<path d="M33.0739 237.621C32.7874 237.633 32.5073 237.534 32.2924 237.344C31.8764 236.968 31.8188 236.288 32.1267 235.428C32.4038 234.695 32.817 234.021 33.3445 233.441C33.7726 232.922 34.3447 232.542 34.9886 232.348C35.2515 232.275 35.5285 232.27 35.794 232.333C36.0594 232.395 36.3048 232.524 36.5075 232.706C37.1367 233.279 37.4006 234.467 36.0745 235.926C35.3032 236.789 34.0312 237.621 33.0739 237.621ZM35.4419 233.265C35.3689 233.265 35.2961 233.274 35.2254 233.292C34.7697 233.439 34.368 233.718 34.0718 234.094C33.635 234.582 33.291 235.145 33.057 235.756C32.8642 236.295 32.9115 236.579 32.9623 236.626C33.1517 236.799 34.3763 236.376 35.3776 235.272C36.0745 234.504 36.2707 233.78 35.8749 233.421C35.8145 233.368 35.7441 233.329 35.6679 233.304C35.5917 233.28 35.5114 233.271 35.4318 233.279L35.4419 233.265Z" fill="#222222"/>
<path d="M8.11841 233.749C8.55142 234.659 10.6962 238.671 15.1886 238.556C19.0519 238.461 22.7291 234.453 24.248 232.554C24.4773 232.257 24.7708 232.016 25.1064 231.848C25.4421 231.68 25.8112 231.591 26.1864 231.586C26.528 231.587 26.8653 231.663 27.1742 231.809L27.2351 229.836H7.67188L8.11841 233.749Z" fill="white"/>
<path d="M14.9887 239.044C10.3136 239.044 8.07412 234.816 7.66818 233.967C7.64537 233.919 7.63051 233.867 7.6242 233.814L7.19119 229.901C7.1826 229.834 7.18905 229.765 7.21011 229.7C7.23116 229.635 7.26628 229.576 7.31298 229.526C7.35775 229.475 7.4129 229.434 7.47474 229.406C7.53657 229.378 7.60368 229.363 7.67156 229.363H27.2212C27.3485 229.366 27.4697 229.419 27.5595 229.509C27.6476 229.599 27.6962 229.721 27.6948 229.847L27.6339 231.817C27.6309 231.898 27.6084 231.976 27.5683 232.046C27.5282 232.115 27.4718 232.174 27.4039 232.217C27.3352 232.259 27.2572 232.283 27.1768 232.287C27.0965 232.291 27.0164 232.275 26.9438 232.24C26.5421 232.061 26.0914 232.024 25.6658 232.136C25.2403 232.247 24.8654 232.5 24.6029 232.853C23.1415 234.678 19.2917 238.946 15.1782 239.037L14.9887 239.044ZM8.56126 233.628C9.0078 234.542 11.0714 238.201 15.1477 238.086C18.8689 237.995 22.4615 233.987 23.8417 232.268C24.1703 231.843 24.608 231.517 25.1079 231.322C25.6079 231.128 26.1513 231.073 26.6799 231.164L26.7036 230.335H8.21282L8.56126 233.628Z" fill="#222222"/>
<path d="M79.8867 231.712C79.3236 231.85 78.814 232.152 78.4219 232.579C76.673 234.478 72.4613 238.485 68.0263 238.584C62.2179 238.712 59.8228 233.594 59.8228 233.594H59.7856L57.9961 229.844H78.9936L79.8867 231.712Z" fill="white"/>
<path d="M67.8127 239.067C62.5692 239.067 60.005 234.941 59.484 233.99C59.4281 233.942 59.3822 233.883 59.3487 233.817L57.5592 230.067C57.5226 229.993 57.5058 229.912 57.5106 229.83C57.5153 229.748 57.5414 229.669 57.5862 229.6C57.6295 229.53 57.6898 229.473 57.7614 229.433C57.8331 229.394 57.9137 229.373 57.9956 229.373H78.9931C79.0838 229.373 79.1728 229.398 79.2495 229.447C79.3262 229.496 79.3875 229.565 79.4261 229.647L80.3225 231.499C80.3536 231.564 80.3696 231.636 80.3696 231.709C80.3696 231.781 80.3536 231.853 80.3225 231.919C80.2892 231.985 80.2416 232.043 80.1831 232.089C80.1246 232.134 80.0567 232.166 79.9843 232.183C79.5143 232.295 79.0889 232.546 78.763 232.904C77.0716 234.721 72.6739 238.959 68.0224 239.064L67.8127 239.067ZM60.1369 233.222C60.1895 233.267 60.2321 233.322 60.2621 233.384C60.3534 233.581 62.6098 238.218 68.0156 238.093C72.3119 238.001 76.4728 233.973 78.0662 232.247C78.3865 231.898 78.7759 231.619 79.2096 231.428L78.6886 230.341H58.7635L60.1369 233.222Z" fill="#222222"/>
<path d="M39.8539 222.181H16.2787C16.1504 222.181 16.0273 222.13 15.9366 222.039C15.8459 221.948 15.7949 221.825 15.7949 221.697C15.7949 221.569 15.8459 221.445 15.9366 221.355C16.0273 221.264 16.1504 221.213 16.2787 221.213H39.8539C39.9822 221.213 40.1053 221.264 40.196 221.355C40.2867 221.445 40.3377 221.569 40.3377 221.697C40.3377 221.825 40.2867 221.948 40.196 222.039C40.1053 222.13 39.9822 222.181 39.8539 222.181Z" fill="#222222"/>
<path d="M81.7579 223.626H62.2962C62.168 223.626 62.0449 223.575 61.9542 223.485C61.8635 223.394 61.8125 223.271 61.8125 223.142C61.8125 223.014 61.8635 222.891 61.9542 222.8C62.0449 222.709 62.168 222.658 62.2962 222.658H81.7579C81.8862 222.658 82.0093 222.709 82.1 222.8C82.1907 222.891 82.2417 223.014 82.2417 223.142C82.2417 223.271 82.1907 223.394 82.1 223.485C82.0093 223.575 81.8862 223.626 81.7579 223.626Z" fill="#222222"/>
<path d="M54.8543 167.836C54.8172 167.841 54.7797 167.841 54.7427 167.836C54.618 167.806 54.5102 167.728 54.443 167.619C54.3758 167.51 54.3546 167.378 54.3841 167.253L58.3217 150.461C58.3362 150.399 58.3627 150.34 58.3997 150.288C58.4368 150.237 58.4837 150.193 58.5377 150.159C58.5917 150.125 58.6519 150.103 58.7146 150.092C58.7774 150.082 58.8416 150.084 58.9036 150.099C58.9656 150.113 59.0241 150.14 59.0758 150.177C59.1276 150.214 59.1715 150.261 59.2051 150.315C59.2387 150.369 59.2613 150.429 59.2717 150.492C59.2821 150.555 59.28 150.619 59.2656 150.681L55.3279 167.463C55.3021 167.569 55.2414 167.664 55.1555 167.731C55.0696 167.799 54.9635 167.836 54.8543 167.836Z" fill="#222222"/>
<path d="M103.517 248.691H51.9447C51.8812 248.691 51.8183 248.678 51.7596 248.654C51.7009 248.63 51.6475 248.594 51.6026 248.549C51.5577 248.504 51.5221 248.451 51.4978 248.392C51.4735 248.333 51.4609 248.27 51.4609 248.207C51.4609 248.143 51.4735 248.08 51.4978 248.021C51.5221 247.963 51.5577 247.909 51.6026 247.864C51.6475 247.819 51.7009 247.784 51.7596 247.759C51.8183 247.735 51.8812 247.723 51.9447 247.723H103.517C103.58 247.723 103.643 247.735 103.702 247.759C103.76 247.784 103.814 247.819 103.859 247.864C103.904 247.909 103.939 247.963 103.964 248.021C103.988 248.08 104 248.143 104 248.207C104 248.27 103.988 248.333 103.964 248.392C103.939 248.451 103.904 248.504 103.859 248.549C103.814 248.594 103.76 248.63 103.702 248.654C103.643 248.678 103.58 248.691 103.517 248.691Z" fill="#222222"/>
<path d="M44.8468 248.691H0.483751C0.420224 248.691 0.357319 248.678 0.298628 248.654C0.239936 248.63 0.186608 248.594 0.141688 248.549C0.096767 248.504 0.0611342 248.451 0.0368234 248.392C0.0125126 248.333 0 248.27 0 248.207C0 248.143 0.0125126 248.08 0.0368234 248.021C0.0611342 247.963 0.096767 247.909 0.141688 247.864C0.186608 247.819 0.239936 247.784 0.298628 247.759C0.357319 247.735 0.420224 247.723 0.483751 247.723H44.8468C44.9103 247.723 44.9732 247.735 45.0319 247.759C45.0906 247.784 45.1439 247.819 45.1889 247.864C45.2338 247.909 45.2694 247.963 45.2937 248.021C45.318 248.08 45.3305 248.143 45.3305 248.207C45.3305 248.27 45.318 248.333 45.2937 248.392C45.2694 248.451 45.2338 248.504 45.1889 248.549C45.1439 248.594 45.0906 248.63 45.0319 248.654C44.9732 248.678 44.9103 248.691 44.8468 248.691Z" fill="#222222"/>
<path d="M112.989 73.0156L95.266 92.4891L85.1444 90.2348L81.3184 107.64L97.9486 110.687C99.7107 111.006 101.527 110.823 103.19 110.159C104.854 109.495 106.297 108.377 107.356 106.933L124.271 80.7536" fill="white"/>
<path d="M99.6182 111.313C99.0284 111.313 98.4398 111.261 97.8591 111.157L81.2289 108.131C81.1649 108.12 81.1039 108.095 81.0498 108.059C80.9956 108.023 80.9495 107.976 80.9143 107.921C80.8779 107.867 80.8528 107.807 80.8406 107.743C80.8283 107.679 80.8293 107.613 80.8433 107.549L84.6591 90.1303C84.686 90.0049 84.7614 89.8954 84.8689 89.8256C84.9791 89.758 85.111 89.7349 85.2376 89.7613L95.0852 91.9548L112.622 72.6911C112.665 72.6429 112.716 72.6037 112.774 72.5757C112.832 72.5477 112.895 72.5315 112.959 72.528C113.023 72.5246 113.087 72.534 113.148 72.5557C113.208 72.5773 113.264 72.6108 113.311 72.6542C113.359 72.6976 113.397 72.75 113.424 72.8084C113.451 72.8668 113.466 72.9299 113.468 72.9942C113.47 73.0584 113.46 73.1225 113.437 73.1826C113.414 73.2427 113.38 73.2977 113.336 73.3444L95.6129 92.8145C95.5558 92.8781 95.4826 92.9251 95.4011 92.9507C95.3195 92.9764 95.2326 92.9796 95.1494 92.9601L85.5015 90.814L81.8953 107.268L98.0317 110.203C99.7061 110.498 101.429 110.319 103.008 109.687C104.586 109.055 105.957 107.994 106.966 106.625L123.85 80.4697C123.883 80.4131 123.927 80.3639 123.979 80.3249C124.032 80.2858 124.092 80.2579 124.155 80.2427C124.219 80.2274 124.285 80.2253 124.349 80.2363C124.414 80.2473 124.475 80.2713 124.53 80.3068C124.585 80.3423 124.632 80.3886 124.669 80.4428C124.705 80.4971 124.731 80.5582 124.743 80.6224C124.755 80.6867 124.754 80.7528 124.74 80.8167C124.726 80.8806 124.7 80.9411 124.662 80.9943L107.747 107.173C106.81 108.452 105.587 109.492 104.175 110.211C102.763 110.93 101.202 111.308 99.6182 111.313Z" fill="#222222"/>
<path d="M36.5086 138.084V118.81L21.4277 107.508L32.8449 90.2721C33.5406 89.2106 34.4899 88.3395 35.6069 87.7378C36.724 87.1361 37.9734 86.8228 39.242 86.8262H71.3793C71.7741 86.8255 72.1681 86.8607 72.5565 86.9311L89.5859 90.0385L86.9202 110.456L77.0388 108.358L83.4392 138.091L36.5086 138.084Z" fill="#35D388"/>
<path d="M83.4395 138.569H36.5089C36.4454 138.569 36.3825 138.557 36.3238 138.532C36.2651 138.508 36.2117 138.472 36.1668 138.428C36.1219 138.383 36.0863 138.329 36.062 138.271C36.0376 138.212 36.0251 138.149 36.0251 138.085V119.062L21.1405 107.892C21.0416 107.818 20.9749 107.709 20.9541 107.587C20.9334 107.466 20.9601 107.341 21.0288 107.238L32.4427 90.0057C33.1773 88.8804 34.1805 87.9559 35.3618 87.3159C36.5431 86.6758 37.8651 86.3404 39.2084 86.3398H71.3457C71.7689 86.3407 72.1912 86.3793 72.6076 86.4549L89.664 89.5555C89.7865 89.5779 89.8957 89.6467 89.9688 89.7476C90.0419 89.8485 90.0733 89.9737 90.0564 90.0971L87.3907 110.515C87.382 110.582 87.3594 110.647 87.3245 110.705C87.2896 110.764 87.243 110.814 87.1878 110.854C87.1337 110.893 87.072 110.92 87.0067 110.933C86.9414 110.947 86.8739 110.946 86.8089 110.931L77.6751 108.988L83.9165 137.99C83.9323 138.061 83.932 138.135 83.9154 138.205C83.8989 138.276 83.8667 138.342 83.8212 138.398C83.7756 138.454 83.7179 138.499 83.6524 138.53C83.5869 138.561 83.5153 138.577 83.4429 138.576L83.4395 138.569ZM36.9926 137.601H82.8408L76.5655 108.454C76.5493 108.375 76.553 108.293 76.5761 108.216C76.5993 108.138 76.6413 108.068 76.6983 108.011C76.7553 107.954 76.8255 107.912 76.9027 107.889C76.9799 107.866 77.0616 107.862 77.1406 107.878L86.5078 109.868L89.0483 90.4288L72.4452 87.4095C72.0857 87.3446 71.7212 87.3118 71.3559 87.3113H39.2422C38.0562 87.3078 36.8882 87.6014 35.8446 88.1655C34.8011 88.7296 33.9153 89.5461 33.2681 90.5405L22.1046 107.394L36.8201 118.432C36.8801 118.477 36.9287 118.535 36.9622 118.602C36.9957 118.669 37.0131 118.743 37.0129 118.818L36.9926 137.601Z" fill="#222222"/>
<path d="M57.3125 114.095C57.3125 114.095 61.9031 107.874 65.4077 109.099C68.9124 110.325 62.8435 117.795 62.8435 117.795C62.8435 117.795 62.3767 123.238 58.4255 120.994" fill="white"/>
<path d="M60.1618 122.031C59.4623 122.002 58.7819 121.793 58.1862 121.425C58.0745 121.361 57.9925 121.256 57.9583 121.132C57.924 121.009 57.9403 120.876 58.0036 120.765C58.0668 120.653 58.1719 120.571 58.2956 120.536C58.4193 120.502 58.5515 120.518 58.6632 120.582C59.5529 121.086 60.2904 121.191 60.8553 120.893C61.9142 120.338 62.3032 118.443 62.3607 117.759C62.3714 117.662 62.4089 117.571 62.469 117.495C63.5988 116.104 66.4608 112.042 65.9669 110.261C65.9188 110.093 65.8281 109.94 65.7036 109.817C65.5792 109.695 65.4251 109.606 65.2565 109.56C62.6652 108.65 58.9339 112.732 57.7126 114.384C57.6749 114.435 57.6274 114.478 57.573 114.511C57.5185 114.544 57.4582 114.566 57.3954 114.575C57.3325 114.584 57.2685 114.581 57.2068 114.566C57.1452 114.551 57.0872 114.523 57.0361 114.486C56.985 114.448 56.9418 114.4 56.9091 114.346C56.8763 114.291 56.8546 114.231 56.8452 114.168C56.8358 114.105 56.8388 114.041 56.8542 113.979C56.8695 113.918 56.8968 113.86 56.9346 113.809C57.1308 113.541 61.7789 107.313 65.5778 108.643C65.893 108.741 66.1787 108.916 66.4091 109.153C66.6395 109.389 66.8073 109.679 66.8971 109.997C67.594 112.458 64.0555 117.072 63.3214 117.996C63.2436 118.619 62.8546 120.941 61.3188 121.75C60.9623 121.938 60.5648 122.034 60.1618 122.031Z" fill="#222222"/>
<path d="M48.1343 81.757C48.5566 82.3984 49.2021 82.86 49.9453 83.052C50.6886 83.244 51.4767 83.1528 52.1566 82.7962V86.7633C52.1566 86.7633 55.279 91.9287 59.3418 90.744C62.1733 89.918 62.224 87.5317 61.8992 85.9407C61.8024 85.4547 61.6574 84.9796 61.4662 84.5225C61.4548 84.4911 61.4413 84.4606 61.4256 84.4311C70.4884 79.9934 62.0379 70.4344 62.0379 70.4344C54.7411 69.6118 46.9977 72.8038 51.6153 77.1162C51.0094 76.9319 50.3614 76.9387 49.7595 77.1356C49.1575 77.3324 48.6307 77.7099 48.2505 78.2167C47.8703 78.7236 47.6553 79.3352 47.6345 79.9685C47.6137 80.6019 47.7882 81.2263 48.1343 81.757Z" fill="white"/>
<path d="M58.1045 91.394C54.4476 91.394 51.8631 87.2001 51.7413 86.9936C51.697 86.9176 51.6736 86.8312 51.6736 86.7431V83.5072C50.9437 83.7127 50.1672 83.6794 49.4576 83.412C48.748 83.1447 48.1424 82.6574 47.7292 82.0212C47.2145 81.2282 47.0345 80.2636 47.2285 79.3382C47.4225 78.4128 47.9746 77.6018 48.7643 77.0826C49.2636 76.7576 49.8353 76.5611 50.4287 76.5105C49.5255 75.2479 49.6574 74.1884 49.9889 73.4641C51.1628 70.9051 56.5923 69.3277 62.0929 69.9471C62.2131 69.9585 62.3244 70.0154 62.4041 70.1062C62.5868 70.3127 66.8898 75.2479 65.9798 79.8447C65.5806 81.8519 64.2579 83.4665 62.0421 84.6546C62.1842 85.0406 62.2972 85.4366 62.3804 85.8394C62.9386 88.5913 61.9102 90.4936 59.4813 91.2011C59.034 91.3314 58.5703 91.3964 58.1045 91.394ZM52.6411 86.6213C53.1113 87.3321 55.865 91.2519 59.2005 90.277C61.1288 89.7151 61.8764 88.2901 61.4197 86.0391C61.328 85.5835 61.192 85.1379 61.0137 84.7088L60.9934 84.6614C60.9364 84.5508 60.922 84.4231 60.9528 84.3026C60.9706 84.2361 61.0025 84.1741 61.0462 84.121C61.09 84.0679 61.1447 84.0247 61.2066 83.9946C63.3784 82.9317 64.6605 81.4762 65.0224 79.6653C65.7599 75.9418 62.4616 71.7107 61.7884 70.8949C56.9035 70.3939 51.8258 71.7716 50.8617 73.877C50.4592 74.7503 50.8211 75.7218 51.9375 76.761C52.0177 76.8352 52.0704 76.9345 52.0871 77.0425C52.1037 77.1506 52.0833 77.2611 52.0292 77.3561C51.9751 77.4511 51.8904 77.5249 51.789 77.5656C51.6876 77.6063 51.5753 77.6114 51.4706 77.5801C51.0624 77.4555 50.6298 77.4335 50.2111 77.5159C49.7923 77.5984 49.4003 77.7828 49.0697 78.0528C48.7391 78.3229 48.48 78.6702 48.3155 79.0642C48.1509 79.4583 48.0859 79.8868 48.1262 80.3119C48.1664 80.7371 48.3107 81.1457 48.5463 81.5018C48.7819 81.8579 49.1016 82.1504 49.477 82.3535C49.8524 82.5566 50.2721 82.664 50.6989 82.6662C51.1256 82.6685 51.5464 82.5655 51.9239 82.3664C51.9978 82.3272 52.0806 82.3078 52.1642 82.3102C52.2478 82.3126 52.3294 82.3366 52.4009 82.3799C52.4725 82.4232 52.5316 82.4843 52.5725 82.5573C52.6134 82.6303 52.6347 82.7126 52.6343 82.7963L52.6411 86.6213Z" fill="#222222"/>
<path d="M67.2709 66.2601C67.2709 66.2601 69.5239 71.8486 61.9801 71.6049C54.4363 71.3611 52.3761 72.8302 52.3761 72.8302C52.3761 72.8302 54.3856 78.0261 50.9553 77.2915C47.5251 76.557 47.8194 80.2331 47.8194 80.2331C47.8194 80.2331 42.6233 69.9869 48.3742 70.1832C48.3742 70.1832 52.1765 65.1058 55.4444 64.4931C58.7122 63.8805 55.6474 67.8036 55.6474 67.8036C55.6474 67.8036 57.261 63.6807 59.7643 64.4187C62.2677 65.1566 59.399 67.8341 59.399 67.8341C59.399 67.8341 61.5809 63.8094 64.135 64.3273C66.6891 64.8452 63.4889 67.7122 63.4889 67.7122L67.2709 66.2601Z" fill="#222222"/>
<path d="M47.8208 80.7172C47.7319 80.717 47.6447 80.6922 47.5689 80.6456C47.4931 80.599 47.4316 80.5325 47.3912 80.4532C47.036 79.7559 43.988 73.5682 45.6997 70.8908C46.1936 70.1156 47.0089 69.7128 48.1287 69.6959C48.8864 68.7244 52.2727 64.588 55.3477 64.016C56.3118 63.8366 56.958 64.016 57.2624 64.5068L57.2996 64.5711C57.6434 64.261 58.0605 64.0436 58.5115 63.9394C58.9624 63.8352 59.4325 63.8476 59.8774 63.9753C60.1393 64.0315 60.3857 64.1442 60.5996 64.3056C60.8134 64.467 60.9895 64.6731 61.1155 64.9096C61.9781 64.175 63.0404 63.6402 64.1939 63.8738C65.1107 64.06 65.4185 64.5508 65.52 64.8893C65.6655 65.4241 65.4253 66.0334 65.0769 66.5817L67.0863 65.8134C67.2047 65.7668 67.3368 65.7692 67.4535 65.8199C67.5702 65.8707 67.662 65.9657 67.7087 66.0842C67.7459 66.1789 68.6458 68.4536 67.411 70.2239C66.4841 71.5508 64.6439 72.1804 61.9511 72.0924C56.2814 71.9096 53.7781 72.7152 52.9628 73.0706C53.2706 74.0083 53.8525 76.2051 52.9425 77.2713C52.4892 77.8028 51.7855 77.972 50.8417 77.7689C50.0197 77.5929 49.3938 77.6877 48.9744 78.0499C48.1929 78.7269 48.2978 80.1858 48.2978 80.1993C48.3068 80.3093 48.2782 80.419 48.2168 80.5107C48.1553 80.6023 48.0646 80.6703 47.9595 80.7037C47.914 80.7137 47.8674 80.7182 47.8208 80.7172ZM48.1997 70.664C47.3844 70.664 46.8465 70.9111 46.5083 71.412C45.5644 72.8879 46.6334 76.2863 47.5671 78.5204C47.7157 78.0598 47.9829 77.6465 48.3418 77.3221C49.0183 76.7433 49.9148 76.5741 51.0481 76.8178C51.613 76.9396 52.0054 76.8787 52.2084 76.6384C52.7666 75.9885 52.3234 74.0658 51.9175 73.0063C51.8796 72.9051 51.8767 72.7942 51.9092 72.6911C51.9417 72.588 52.0077 72.4988 52.0968 72.4377C52.1881 72.3734 54.3802 70.8738 61.9984 71.1209C64.3462 71.1988 65.9023 70.708 66.6296 69.6654C67.2825 68.7312 67.1235 67.5397 66.9679 66.8999L63.6391 68.176C63.5335 68.2171 63.4167 68.2198 63.3093 68.1836C63.2019 68.1473 63.1106 68.0745 63.0513 67.9777C62.9921 67.881 62.9687 67.7665 62.9853 67.6543C63.0018 67.542 63.0572 67.4392 63.1419 67.3637C63.8387 66.7374 64.7318 65.617 64.5999 65.1431C64.5491 64.9502 64.2108 64.8554 64.0146 64.8046C62.9761 64.5914 61.9173 65.3767 61.102 66.2771C60.7718 66.999 60.3028 67.6489 59.7218 68.1896C59.6369 68.2651 59.5284 68.3086 59.4149 68.3125C59.3014 68.3165 59.1901 68.2806 59.1002 68.2112C59.0103 68.1417 58.9475 68.043 58.9227 67.9322C58.8978 67.8213 58.9124 67.7052 58.964 67.604C59.3332 66.9513 59.7661 66.3368 60.2563 65.7694C60.2961 65.6436 60.3054 65.5101 60.2833 65.3801C60.2326 65.1702 60.0093 65.001 59.6067 64.8825C58.6731 64.6049 57.8612 65.221 57.2387 65.9623C56.9338 66.7312 56.5153 67.4501 55.9972 68.0948C55.9261 68.1882 55.8234 68.2524 55.7084 68.2757C55.5934 68.299 55.4738 68.2796 55.372 68.2212C55.2702 68.1628 55.1931 68.0694 55.155 67.9583C55.1169 67.8473 55.1205 67.7262 55.165 67.6175C55.4752 66.8624 55.8811 66.1502 56.3727 65.4986C56.4463 65.3418 56.4595 65.1635 56.4099 64.9976C56.3795 64.9468 56.1562 64.8385 55.5033 64.9604C52.4587 65.5256 48.7646 70.4135 48.7376 70.4643C48.6909 70.5264 48.6299 70.5764 48.5599 70.61C48.4898 70.6435 48.4127 70.6597 48.335 70.6572L48.1997 70.664Z" fill="#222222"/>
<path d="M59.7693 85.5986C59.6536 85.6001 59.5411 85.56 59.4524 85.4856C59.3637 85.4113 59.3046 85.3076 59.2857 85.1933C59.2669 85.0791 59.2896 84.9618 59.3498 84.8629C59.41 84.764 59.5036 84.6899 59.6137 84.6542C60.1616 84.4617 60.6971 84.2356 61.2172 83.9772C61.3324 83.9206 61.4655 83.9122 61.587 83.9538C61.7085 83.9954 61.8085 84.0836 61.865 84.1989C61.9215 84.3143 61.9299 84.4474 61.8884 84.5689C61.8468 84.6905 61.7587 84.7906 61.6434 84.8471C61.0866 85.1177 60.5138 85.3539 59.9283 85.5546C59.878 85.5778 59.8243 85.5927 59.7693 85.5986Z" fill="#222222"/>
<path d="M53.2971 78.3822C52.9639 77.8716 52.4868 77.4712 51.9262 77.2319C51.3657 76.9925 50.7468 76.9248 50.1477 77.0374C49.5487 77.1499 48.9965 77.4377 48.561 77.8642C48.1254 78.2908 47.826 78.837 47.7006 79.4339C47.5753 80.0307 47.6296 80.6513 47.8568 81.2172C48.0839 81.7831 48.4736 82.269 48.9767 82.6133C49.4797 82.9576 50.0735 83.1449 50.683 83.1515C51.2924 83.1582 51.8901 82.9839 52.4006 82.6506" fill="white"/>
<path d="M50.7202 83.6354C50.1025 83.6358 49.4952 83.4756 48.958 83.1706C48.4207 82.8655 47.9719 82.4259 47.6555 81.8951C47.3391 81.3642 47.166 80.7602 47.1531 80.1422C47.1402 79.5242 47.288 78.9135 47.582 78.3698C47.876 77.8262 48.3061 77.3683 48.8301 77.0411C49.3542 76.7138 49.9542 76.5284 50.5714 76.503C51.1886 76.4776 51.8019 76.6131 52.351 76.8962C52.9001 77.1793 53.3663 77.6003 53.7039 78.118C53.7739 78.2257 53.7983 78.3569 53.7716 78.4825C53.745 78.6082 53.6695 78.7182 53.5618 78.7882C53.4542 78.8582 53.3231 78.8826 53.1975 78.8559C53.0719 78.8293 52.962 78.7538 52.892 78.646C52.6099 78.217 52.2072 77.8812 51.7346 77.681C51.2619 77.4807 50.7406 77.425 50.2364 77.5209C49.7322 77.6169 49.2677 77.86 48.9014 78.2198C48.5352 78.5796 48.2837 79.0399 48.1786 79.5425C48.0735 80.0452 48.1195 80.5678 48.3109 81.0443C48.5023 81.5208 48.8305 81.9299 49.254 82.22C49.6775 82.5101 50.1774 82.6682 50.6906 82.6743C51.2038 82.6804 51.7073 82.5343 52.1377 82.2544C52.191 82.2197 52.2506 82.1959 52.3131 82.1843C52.3756 82.1726 52.4398 82.1735 52.502 82.1867C52.5642 82.1999 52.6232 82.2252 52.6756 82.2612C52.728 82.2972 52.7728 82.3432 52.8075 82.3965C52.8421 82.4499 52.8659 82.5095 52.8775 82.5721C52.8891 82.6346 52.8883 82.6989 52.8751 82.7611C52.8619 82.8233 52.8366 82.8824 52.8006 82.9348C52.7647 82.9873 52.7187 83.0321 52.6654 83.0668C52.0863 83.4422 51.4102 83.6399 50.7202 83.6354Z" fill="#222222"/>
<path d="M51.8112 79.352C51.67 79.1346 51.4676 78.9641 51.2295 78.8619C50.9915 78.7598 50.7285 78.7305 50.4738 78.778C50.2192 78.8254 49.9843 78.9474 49.799 79.1285C49.6136 79.3095 49.4861 79.5415 49.4326 79.7951C49.379 80.0487 49.4019 80.3125 49.4982 80.5531C49.5946 80.7937 49.7601 81.0003 49.9738 81.1467C50.1876 81.2931 50.4399 81.3728 50.6989 81.3757C50.9579 81.3786 51.212 81.3045 51.4289 81.1629" fill="white"/>
<path d="M50.7202 81.8644C50.5951 81.8644 50.4703 81.8508 50.3481 81.8238C50.0001 81.7522 49.6811 81.5788 49.4318 81.3256C49.1824 81.0723 49.0139 80.7506 48.9475 80.4014C48.8812 80.0521 48.9201 79.691 49.0592 79.3639C49.1984 79.0368 49.4315 78.7584 49.7291 78.5641C49.9263 78.435 50.1469 78.3461 50.3785 78.3025C50.6101 78.2588 50.8479 78.2613 51.0786 78.3097C51.3092 78.3581 51.528 78.4515 51.7225 78.5846C51.917 78.7177 52.0833 78.8879 52.2121 79.0854C52.2825 79.1931 52.3073 79.3244 52.281 79.4504C52.2546 79.5764 52.1794 79.6868 52.0717 79.7573C51.964 79.8277 51.8328 79.8525 51.7069 79.8262C51.5809 79.7998 51.4706 79.7245 51.4002 79.6168C51.28 79.4338 51.0922 79.3058 50.878 79.2607C50.6638 79.2157 50.4405 79.2573 50.2568 79.3765C50.1661 79.436 50.0881 79.5128 50.0271 79.6026C49.9662 79.6923 49.9235 79.7932 49.9015 79.8994C49.8795 80.0057 49.8786 80.1152 49.899 80.2218C49.9193 80.3284 49.9604 80.4299 50.02 80.5206C50.0787 80.6116 50.1551 80.6899 50.2446 80.7509C50.334 80.812 50.4348 80.8545 50.5409 80.876C50.7544 80.9202 50.9767 80.8789 51.16 80.7609C51.2131 80.7246 51.2728 80.6993 51.3358 80.6864C51.3987 80.6735 51.4636 80.6733 51.5266 80.6858C51.5897 80.6983 51.6496 80.7232 51.7029 80.7591C51.7562 80.795 51.8018 80.8412 51.8371 80.8949C51.8724 80.9486 51.8966 81.0089 51.9084 81.0721C51.9201 81.1353 51.9192 81.2002 51.9056 81.263C51.892 81.3259 51.866 81.3854 51.8292 81.438C51.7924 81.4907 51.7454 81.5356 51.6911 81.5699C51.4029 81.7602 51.0656 81.8626 50.7202 81.8644Z" fill="#222222"/>
<path d="M61.8754 80.0477H60.891C60.8275 80.0473 60.7647 80.0343 60.7061 80.0096C60.6476 79.9849 60.5945 79.9488 60.5499 79.9036C60.5053 79.8583 60.4701 79.8047 60.4462 79.7458C60.4223 79.6869 60.4102 79.6239 60.4106 79.5603C60.414 79.4332 60.4654 79.3122 60.5546 79.2217C60.6438 79.1312 60.7641 79.078 60.891 79.0729H61.8348C61.9384 79.0812 62.0427 79.0708 62.1427 79.0424C62.1427 79.0424 62.1427 79.0221 62.1427 78.9984C62.1175 78.9232 62.0689 78.8579 62.004 78.8122C61.8386 78.6966 61.6575 78.6054 61.4661 78.5414C61.3079 78.4839 61.1531 78.4172 61.0026 78.3417C60.5066 78.0698 60.1118 77.6447 59.8771 77.1298C59.6424 76.6149 59.5803 76.0379 59.7002 75.4849C59.7298 75.3596 59.808 75.2513 59.9174 75.1837C60.0268 75.1161 60.1586 75.0947 60.2838 75.1244C60.4089 75.154 60.5172 75.2322 60.5848 75.3417C60.6523 75.4512 60.6737 75.583 60.6441 75.7083C60.5734 76.0515 60.6136 76.4083 60.7589 76.7272C60.9043 77.046 61.1472 77.3104 61.4526 77.482C61.571 77.5429 61.6961 77.5903 61.8179 77.6411C62.1035 77.7364 62.3719 77.8769 62.6129 78.0574C62.8438 78.2344 63.0093 78.4833 63.0831 78.7649C63.129 78.9365 63.1291 79.1171 63.0834 79.2888C63.0377 79.4604 62.9478 79.6171 62.8226 79.7431C62.5593 79.9654 62.2189 80.0749 61.8754 80.0477Z" fill="#222222"/>
<path d="M55.4967 76.2379C55.4057 76.2388 55.3163 76.2138 55.239 76.1658C55.1617 76.1179 55.0995 76.0489 55.0598 75.967C55.0202 75.8851 55.0045 75.7935 55.0148 75.7031C55.025 75.6126 55.0608 75.5269 55.1178 75.456C55.4781 74.938 55.9381 74.4972 56.4709 74.1596C56.7912 73.961 57.1619 73.8589 57.5386 73.8655C57.9154 73.8721 58.2822 73.9871 58.5954 74.1968C58.6986 74.2736 58.767 74.3882 58.7858 74.5155C58.8045 74.6427 58.7719 74.7722 58.6952 74.8755C58.6185 74.9787 58.5039 75.0472 58.3767 75.066C58.2495 75.0847 58.1201 75.0521 58.0169 74.9753C57.8519 74.8837 57.6652 74.8382 57.4766 74.8435C57.2879 74.8489 57.1041 74.9049 56.9445 75.0058C56.5252 75.2825 56.1643 75.6391 55.8823 76.0551C55.8365 76.1133 55.7778 76.16 55.7109 76.1917C55.644 76.2234 55.5707 76.2392 55.4967 76.2379Z" fill="#222222"/>
<path d="M60.8639 74.9533C60.7555 74.9537 60.6504 74.9166 60.5662 74.8483C60.4661 74.769 60.4015 74.6534 60.3863 74.5266C60.3711 74.3998 60.4065 74.2721 60.485 74.1714C60.8456 73.6546 61.3057 73.215 61.8382 72.8783C62.1585 72.6798 62.5291 72.5777 62.9059 72.5843C63.2826 72.5909 63.6495 72.7059 63.9626 72.9156C64.06 72.9942 64.1232 73.1075 64.1389 73.2318C64.1545 73.3561 64.1214 73.4816 64.0465 73.5819C63.9716 73.6823 63.8608 73.7497 63.7372 73.77C63.6137 73.7903 63.4872 73.7618 63.3841 73.6907C63.219 73.5989 63.0321 73.5535 62.8433 73.5595C62.6545 73.5654 62.4708 73.6225 62.3118 73.7246C61.8924 74 61.5315 74.3554 61.2495 74.7705C61.2037 74.8286 61.145 74.8754 61.0781 74.9071C61.0112 74.9388 60.9379 74.9546 60.8639 74.9533Z" fill="#222222"/>
<path d="M59.284 82.3627C59.1879 82.3624 59.0939 82.3342 59.0134 82.2815C58.9599 82.246 58.9141 82.2003 58.8784 82.1469C58.8428 82.0935 58.8181 82.0336 58.8058 81.9706C58.7935 81.9076 58.7939 81.8428 58.8069 81.78C58.8199 81.7171 58.8452 81.6575 58.8815 81.6045C59.0258 81.389 59.2112 81.2041 59.4272 81.0607C59.6432 80.9172 59.8854 80.8178 60.1399 80.7684C60.4714 80.7136 60.8104 80.7251 61.1373 80.8024C61.4643 80.8797 61.7726 81.0211 62.0445 81.2186C62.1482 81.2915 62.2193 81.4022 62.2423 81.527C62.2653 81.6517 62.2384 81.7805 62.1675 81.8856C62.0966 81.9908 61.9872 82.0639 61.863 82.0891C61.7387 82.1144 61.6096 82.0899 61.5032 82.0208C61.1661 81.7684 60.7428 81.6601 60.326 81.7196C60.1961 81.7436 60.0724 81.7938 59.9625 81.8671C59.8526 81.9404 59.7587 82.0353 59.6866 82.1461C59.6423 82.2124 59.5825 82.2668 59.5123 82.3046C59.4421 82.3423 59.3637 82.3623 59.284 82.3627Z" fill="#222222"/>
<path d="M60.3105 84.9145C60.3105 84.9145 61.4167 85.2259 61.9005 85.93C61.8037 85.444 61.6586 84.9689 61.4675 84.5117L60.3105 84.9145Z" fill="#222222"/>
<path d="M61.9068 86.4249C61.8276 86.4255 61.7495 86.4067 61.6793 86.3701C61.6092 86.3335 61.549 86.2803 61.5042 86.215C61.1547 85.8133 60.6946 85.5237 60.1815 85.3823C60.0826 85.3532 59.9956 85.2934 59.9328 85.2116C59.8701 85.1299 59.8348 85.0303 59.8322 84.9272C59.8296 84.8241 59.8597 84.7229 59.9182 84.638C59.9767 84.5531 60.0606 84.489 60.1578 84.4548L61.3148 84.0622C61.4308 84.0234 61.5571 84.0298 61.6687 84.0799C61.7802 84.1301 61.8688 84.2204 61.9169 84.333C62.1182 84.8218 62.2733 85.3283 62.3804 85.846C62.4023 85.9557 62.3857 86.0695 62.3332 86.1682C62.2808 86.2669 62.1959 86.3445 62.0928 86.3876C62.0341 86.4129 61.9707 86.4256 61.9068 86.4249Z" fill="#222222"/>
<path d="M112.816 72.7751C112.816 72.7751 121.558 57.8814 125.188 58.9645C128.817 60.0477 122.989 67.4269 122.989 67.4269L129.754 76.3936C129.754 76.3936 128.888 81.5759 123.083 82.2969" fill="white"/>
<path d="M123.083 82.786C122.962 82.7809 122.848 82.7312 122.762 82.6466C122.676 82.5619 122.624 82.4484 122.617 82.3279C122.61 82.2075 122.648 82.0886 122.723 81.9944C122.799 81.9002 122.906 81.8373 123.025 81.8179C127.809 81.2222 128.999 77.4513 129.219 76.5306L122.602 67.7298C122.537 67.645 122.501 67.5409 122.501 67.4336C122.501 67.3264 122.537 67.2223 122.602 67.1375C123.682 65.7835 126.361 61.8434 125.819 60.1239C125.76 59.9532 125.656 59.801 125.52 59.6823C125.384 59.5636 125.219 59.4825 125.041 59.4469C122.673 58.7327 116.53 67.4015 113.228 73.034C113.196 73.0889 113.154 73.1369 113.103 73.1753C113.052 73.2137 112.994 73.2417 112.933 73.2577C112.871 73.2738 112.807 73.2775 112.744 73.2687C112.681 73.26 112.62 73.2389 112.565 73.2066C112.511 73.1744 112.463 73.1317 112.424 73.0809C112.386 73.0301 112.358 72.9723 112.342 72.9107C112.326 72.8491 112.322 72.7849 112.331 72.7219C112.34 72.6588 112.361 72.5981 112.393 72.5432C113.885 70.0011 121.527 57.3753 125.319 58.516C125.65 58.5984 125.954 58.7638 126.203 58.9966C126.452 59.2293 126.638 59.5218 126.743 59.8463C127.457 62.1041 124.514 66.2405 123.59 67.459L130.119 76.1312C130.159 76.1836 130.188 76.2437 130.204 76.3078C130.22 76.3719 130.222 76.4386 130.21 76.5036C129.843 78.1621 128.961 79.662 127.691 80.789C126.42 81.916 124.826 82.6126 123.137 82.7792L123.083 82.786Z" fill="#222222"/>
<path d="M112.725 73.7501C112.725 73.7501 110.891 65.8903 114.23 64.6278C117.698 63.3144 118.919 72.7177 118.919 72.7177C118.919 72.7177 122.657 76.9286 118.178 78.2961" fill="white"/>
<path d="M118.177 78.7833C118.061 78.7815 117.95 78.7387 117.863 78.6626C117.777 78.5866 117.72 78.4822 117.703 78.368C117.686 78.2538 117.71 78.1373 117.77 78.0391C117.831 77.941 117.925 77.8677 118.035 77.8321C119.049 77.5241 119.652 77.0434 119.834 76.4037C120.172 75.2122 119.022 73.5705 118.552 73.0391C118.489 72.9666 118.449 72.8771 118.437 72.7818C118.207 71.0149 117.233 66.2083 115.507 65.1725C115.344 65.0688 115.157 65.0063 114.964 64.9904C114.771 64.9745 114.576 65.0056 114.398 65.0811C111.989 65.995 112.706 71.57 113.194 73.6416C113.208 73.7036 113.21 73.7679 113.2 73.8307C113.19 73.8936 113.167 73.9538 113.133 74.0079C113.1 74.062 113.056 74.1089 113.004 74.1459C112.952 74.183 112.894 74.2094 112.832 74.2238C112.77 74.2383 112.706 74.2405 112.643 74.2301C112.581 74.2197 112.521 74.197 112.467 74.1633C112.413 74.1297 112.367 74.0857 112.33 74.0339C112.293 73.9821 112.267 73.9235 112.253 73.8616C112.172 73.5231 110.366 65.5719 114.056 64.1739C114.371 64.0475 114.712 63.9966 115.05 64.0254C115.389 64.0542 115.715 64.1619 116.005 64.3398C118.322 65.731 119.215 71.3601 119.388 72.5144C119.794 73.0086 121.258 74.9448 120.775 76.6643C120.501 77.6426 119.679 78.3568 118.329 78.7596C118.28 78.7765 118.228 78.7846 118.177 78.7833Z" fill="#222222"/>
<path d="M127.092 69.3905C125.025 72.156 123.415 73.7299 121.991 73.3034C119.038 72.42 123.029 67.3967 123.029 67.3967C124.599 65.1187 128.334 67.566 127.092 69.3905Z" fill="white"/>
<path d="M122.461 73.8694C122.253 73.8703 122.045 73.8407 121.845 73.7814C121.532 73.7098 121.243 73.5583 121.006 73.3418C120.769 73.1254 120.592 72.8512 120.492 72.5459C119.893 70.6267 122.349 67.4685 122.63 67.103C123.608 65.6779 125.36 65.749 126.578 66.5884C127.796 67.4279 128.148 68.677 127.471 69.6721C125.614 72.1905 124.017 73.8694 122.461 73.8694ZM124.758 66.9642C124.493 66.9611 124.231 67.0253 123.997 67.1508C123.764 67.2763 123.566 67.459 123.422 67.6818C122.461 68.8936 121.108 71.1784 121.446 72.2582C121.496 72.4083 121.585 72.5424 121.704 72.6466C121.823 72.7507 121.967 72.8212 122.123 72.8506C123.138 73.1552 124.508 72.0416 126.69 69.1271C127.156 68.4265 126.504 67.7122 126.043 67.3974C125.669 67.1303 125.224 66.9796 124.765 66.9642H124.758Z" fill="#222222"/>
<path d="M129.524 72.4169C127.231 74.5562 125.536 75.7037 124.332 75.0944C121.835 73.8251 126.216 69.9764 126.216 69.9764C128.087 68.0368 131.05 71.1137 129.524 72.4169Z" fill="white"/>
<path d="M125.031 75.7455C124.711 75.7468 124.396 75.6713 124.111 75.5255C123.84 75.4065 123.603 75.2193 123.426 74.9821C123.248 74.7448 123.134 74.4656 123.096 74.1715C122.863 72.3335 125.586 69.8828 125.897 69.6086C126.197 69.2875 126.58 69.0569 127.004 68.9432C127.428 68.8295 127.876 68.8372 128.296 68.9655C128.797 69.1129 129.253 69.3863 129.62 69.7595C129.986 70.1327 130.251 70.5935 130.39 71.098C130.466 71.3996 130.456 71.7167 130.361 72.013C130.266 72.3093 130.09 72.5729 129.852 72.7735C127.947 74.5506 126.361 75.7455 125.031 75.7455ZM127.606 69.8422C127.408 69.8439 127.213 69.8869 127.033 69.9685C126.853 70.0502 126.692 70.1685 126.56 70.3161C125.508 71.2436 123.925 73.0511 124.054 74.0395C124.074 74.1765 124.131 74.3054 124.218 74.4127C124.306 74.5199 124.421 74.6015 124.551 74.6488C125.393 75.0787 126.784 74.3103 129.196 72.0492C129.303 71.962 129.382 71.8452 129.423 71.7133C129.463 71.5814 129.464 71.4404 129.426 71.3079C129.324 70.9752 129.142 70.6728 128.895 70.4277C128.648 70.1826 128.345 70.0024 128.012 69.9031C127.88 69.8635 127.743 69.843 127.606 69.8422Z" fill="#222222"/>
<path d="M130.606 76.0668C127.987 77.1534 126.191 77.5866 125.365 76.6896C123.654 74.8245 128.576 72.9662 128.576 72.9662C130.849 71.9203 132.27 75.3526 130.606 76.0668Z" fill="white"/>
<path d="M126.679 77.6572C126.371 77.6768 126.062 77.6298 125.774 77.5194C125.486 77.409 125.224 77.2378 125.008 77.0175C124.811 76.8245 124.666 76.5841 124.588 76.3192C124.509 76.0543 124.5 75.7737 124.562 75.5044C124.954 73.8559 128.053 72.6374 128.404 72.502C128.77 72.321 129.178 72.2442 129.585 72.2801C129.991 72.3159 130.38 72.4629 130.708 72.705C131.078 72.9813 131.372 73.3463 131.564 73.7663C131.755 74.1863 131.838 74.6479 131.804 75.1084C131.777 75.4123 131.669 75.7033 131.49 75.9506C131.312 76.1979 131.069 76.3922 130.789 76.5131C129.145 77.1969 127.752 77.6572 126.679 77.6572ZM129.409 73.2568C129.19 73.2615 128.975 73.3123 128.777 73.4057C127.603 73.8525 125.712 74.868 125.505 75.7413C125.481 75.8561 125.488 75.9753 125.526 76.0862C125.565 76.1971 125.632 76.2955 125.722 76.3709C126.436 77.1461 128.604 76.3709 130.417 75.6296C130.539 75.5773 130.643 75.4917 130.718 75.3827C130.793 75.2737 130.835 75.1457 130.84 75.0136C130.855 74.7234 130.8 74.4338 130.678 74.1701C130.556 73.9064 130.371 73.6766 130.14 73.5005C129.93 73.34 129.674 73.251 129.409 73.2466V73.2568Z" fill="#222222"/>
<path d="M58.6728 151.08L57.7492 172.229L52.7324 196.37L55.1985 165.886L58.6728 151.08Z" fill="#222222"/>
<path d="M41.0177 158.578C40.9018 158.576 40.7904 158.533 40.7031 158.457C40.6158 158.381 40.5582 158.276 40.5407 158.161C40.5311 158.099 40.534 158.035 40.5493 157.973C40.5645 157.911 40.5918 157.854 40.6295 157.803C40.6673 157.752 40.7147 157.709 40.7691 157.676C40.8236 157.643 40.8839 157.622 40.9466 157.613C43.0778 157.295 44.5697 156.391 45.385 154.929C47.3233 151.459 44.9722 145.884 44.9486 145.83C44.8979 145.712 44.8961 145.579 44.9437 145.459C44.9913 145.34 45.0843 145.244 45.2023 145.194C45.3203 145.143 45.4536 145.141 45.5728 145.189C45.6921 145.236 45.7876 145.329 45.8383 145.448C45.9465 145.691 48.3991 151.51 46.2341 155.399C45.2632 157.139 43.5278 158.205 41.0921 158.571L41.0177 158.578Z" fill="#222222"/>
<path d="M37.8164 112.289C37.732 112.287 37.6494 112.264 37.5768 112.221C37.5041 112.178 37.4437 112.117 37.4015 112.043C37.3594 111.97 37.3368 111.887 37.336 111.803C37.3352 111.718 37.3562 111.635 37.3969 111.561L42.6472 102.483C42.7113 102.371 42.817 102.29 42.9411 102.257C43.0651 102.223 43.1973 102.241 43.3085 102.305C43.4198 102.369 43.501 102.475 43.5343 102.599C43.5676 102.723 43.5503 102.855 43.4861 102.967L38.2257 112.042C38.185 112.115 38.1258 112.177 38.054 112.22C37.9822 112.263 37.9003 112.287 37.8164 112.289Z" fill="white"/>
<path d="M56.8333 146.882C56.7115 146.872 56.5981 146.816 56.5153 146.726C56.4326 146.636 56.3867 146.519 56.3867 146.396C56.3867 146.274 56.4326 146.156 56.5153 146.066C56.5981 145.976 56.7115 145.921 56.8333 145.911C57.5223 145.911 58.1832 145.637 58.6704 145.149C59.1576 144.662 59.4313 144 59.4313 143.311V137.394C59.4415 137.272 59.4971 137.159 59.587 137.076C59.6769 136.993 59.7946 136.947 59.9168 136.947C60.039 136.947 60.1567 136.993 60.2466 137.076C60.3365 137.159 60.3921 137.272 60.4022 137.394V143.311C60.4013 144.258 60.025 145.166 59.3559 145.835C58.6868 146.505 57.7796 146.881 56.8333 146.882Z" fill="#222222"/>
<path d="M172.864 172.375C172.315 173.365 171.512 174.19 170.537 174.764C169.562 175.338 168.451 175.641 167.32 175.641H113.749C112.618 175.641 111.508 175.338 110.533 174.764C109.559 174.19 108.755 173.366 108.206 172.377C107.656 171.388 107.381 170.271 107.408 169.139C107.435 168.008 107.764 166.905 108.36 165.944L135.152 122.769C135.721 121.852 136.515 121.095 137.458 120.57C138.401 120.045 139.462 119.77 140.541 119.77C141.62 119.77 142.681 120.045 143.624 120.57C144.567 121.095 145.361 121.852 145.93 122.769L172.726 165.944C173.319 166.906 173.645 168.01 173.669 169.14C173.694 170.271 173.416 171.388 172.864 172.375Z" fill="#FFC545"/>
<path d="M145.196 142.845L143.504 156.52C143.479 156.723 143.38 156.909 143.227 157.045C143.074 157.18 142.876 157.254 142.672 157.254H138.416C138.212 157.254 138.015 157.18 137.862 157.045C137.708 156.909 137.61 156.723 137.584 156.52L135.893 142.845C135.879 142.727 135.889 142.607 135.925 142.493C135.96 142.38 136.019 142.275 136.097 142.186C136.176 142.097 136.272 142.025 136.381 141.976C136.489 141.927 136.606 141.901 136.725 141.9H144.37C144.489 141.901 144.606 141.927 144.713 141.977C144.821 142.026 144.917 142.098 144.995 142.187C145.073 142.276 145.131 142.381 145.166 142.494C145.2 142.608 145.211 142.727 145.196 142.845Z" fill="white"/>
<path d="M142.567 160.791H138.515C138.051 160.791 137.676 161.167 137.676 161.63V164.457C137.676 164.921 138.051 165.296 138.515 165.296H142.567C143.031 165.296 143.406 164.921 143.406 164.457V161.63C143.406 161.167 143.031 160.791 142.567 160.791Z" fill="white"/>
<path d="M92.3534 99.4739L81.7515 131.631C81.6501 131.941 81.4525 132.211 81.1873 132.402C80.922 132.592 80.603 132.693 80.2766 132.69H59.2554C59.0517 132.692 58.8508 132.644 58.6694 132.551C58.4881 132.458 58.3318 132.323 58.2137 132.157C58.0956 131.991 58.0191 131.799 57.9908 131.597C57.9625 131.396 57.9832 131.19 58.0511 130.998L68.653 98.8409C68.7541 98.5329 68.9498 98.2646 69.2123 98.0744C69.4747 97.8842 69.7904 97.7816 70.1144 97.7814H91.1356C91.3404 97.7779 91.543 97.824 91.7261 97.9159C91.9092 98.0077 92.0673 98.1426 92.187 98.3089C92.3066 98.4752 92.3843 98.6681 92.4133 98.8709C92.4423 99.0738 92.4217 99.2807 92.3534 99.4739Z" fill="white"/>
<path d="M80.2765 133.164H59.2553C58.9778 133.164 58.7043 133.098 58.4571 132.972C58.21 132.845 57.9964 132.662 57.8339 132.437C57.6714 132.212 57.5646 131.952 57.5224 131.677C57.4801 131.403 57.5036 131.122 57.591 130.859L68.1929 98.7017C68.327 98.2976 68.5846 97.9458 68.9294 97.6961C69.2742 97.4465 69.6888 97.3116 70.1144 97.3105H91.1356C91.4128 97.3111 91.686 97.3774 91.9327 97.5039C92.1795 97.6304 92.3927 97.8136 92.5551 98.0385C92.7175 98.2634 92.8243 98.5235 92.8669 98.7977C92.9094 99.0718 92.8865 99.3521 92.7999 99.6157L82.2048 131.776C82.0698 132.181 81.8108 132.532 81.4647 132.782C81.1186 133.031 80.7029 133.164 80.2765 133.164ZM70.1279 98.2989C69.9037 98.2957 69.6843 98.3642 69.5017 98.4945C69.3191 98.6248 69.183 98.8101 69.113 99.0233L58.5111 131.18C58.472 131.298 58.4615 131.424 58.4803 131.546C58.4992 131.669 58.5469 131.786 58.6196 131.887C58.6922 131.987 58.7877 132.07 58.8982 132.126C59.0088 132.183 59.1312 132.212 59.2553 132.213H80.2765C80.5008 132.216 80.7202 132.147 80.9027 132.017C81.0853 131.887 81.2215 131.701 81.2914 131.488L91.8933 99.3314C91.9299 99.2144 91.9385 99.0905 91.9184 98.9696C91.8984 98.8487 91.8502 98.7342 91.7777 98.6354C91.7053 98.5366 91.6107 98.4562 91.5015 98.4006C91.3923 98.3451 91.2716 98.3161 91.1491 98.3159L70.1279 98.2989Z" fill="#222222"/>
<path d="M20.6765 125.069L57.4247 127.675C61.9612 129.554 66.5348 128.826 66.8528 128.772C69.0956 128.379 69.6843 126.704 68.1789 125.543C68.348 125.543 68.5172 125.563 68.6998 125.577C70.3608 125.749 70.7296 122.73 69.1531 121.853H69.2005C79.2443 122.869 77.2416 116.099 68.5442 117.659C70.645 117.392 76.6631 116.38 75.2795 113.655C73.6355 110.368 57.3131 114.102 57.3131 114.102L37.0158 113.113L37.8243 111.807L21.4275 107.508L16.1638 116.498C15.6742 117.335 15.4059 118.283 15.3842 119.252C15.3626 120.222 15.5882 121.18 16.0399 122.038C16.4916 122.896 17.1544 123.625 17.9657 124.155C18.777 124.685 19.71 125 20.6765 125.069Z" fill="white"/>
<path d="M64.2518 129.44C61.8774 129.459 59.5212 129.024 57.3101 128.157L20.6364 125.554C19.5875 125.48 18.5749 125.139 17.6944 124.564C16.8139 123.989 16.0944 123.198 15.6041 122.268C15.1138 121.337 14.8687 120.296 14.8922 119.244C14.9156 118.192 15.2067 117.164 15.738 116.256L21.0051 107.262C21.0584 107.172 21.1397 107.101 21.2367 107.06C21.3337 107.02 21.4413 107.013 21.543 107.039L37.9364 111.334C38.0121 111.351 38.0826 111.385 38.1416 111.436C38.2006 111.486 38.2464 111.55 38.2747 111.622C38.303 111.693 38.3144 111.769 38.3079 111.845C38.3014 111.921 38.2773 111.994 38.2375 112.059L37.862 112.665L57.2763 113.609C60.2127 112.932 74.0046 110.004 75.7198 113.433C75.879 113.718 75.9652 114.038 75.9705 114.365C75.9758 114.692 75.9001 115.015 75.7502 115.305C75.3206 116.107 74.2956 116.703 73.0946 117.139C74.5594 117.441 75.5777 118.057 76.0682 118.761C76.2787 119.038 76.4021 119.372 76.4226 119.72C76.4431 120.068 76.3597 120.414 76.1832 120.714C75.4525 121.953 73.3484 122.555 70.3308 122.406C70.6794 123.112 70.746 123.924 70.5169 124.678C70.4392 124.991 70.2814 125.278 70.0589 125.511C69.8365 125.744 69.5571 125.916 69.2483 126.008C69.4905 126.424 69.5632 126.917 69.4513 127.386C69.2213 128.313 68.2842 129.007 66.9446 129.241C66.0535 129.377 65.1532 129.444 64.2518 129.44ZM21.6512 108.071L16.5769 116.747C16.1298 117.512 15.885 118.38 15.8656 119.266C15.8463 120.153 16.0531 121.03 16.4664 121.814C16.8797 122.599 17.486 123.265 18.2281 123.75C18.9701 124.235 19.8234 124.523 20.7074 124.586L57.4556 127.196C57.5068 127.199 57.5571 127.21 57.6045 127.23C62.0766 129.081 66.5792 128.327 66.7687 128.296C67.7057 128.13 68.3688 127.697 68.5007 127.166C68.6022 126.759 68.3755 126.309 67.8816 125.927C67.7982 125.863 67.7379 125.774 67.7096 125.673C67.6813 125.571 67.6866 125.464 67.7248 125.366C67.763 125.268 67.832 125.185 67.9213 125.13C68.0106 125.075 68.1154 125.05 68.2199 125.06L68.7477 125.094C68.9499 125.1 69.1475 125.033 69.3042 124.905C69.4609 124.777 69.566 124.596 69.6001 124.397C69.8268 123.682 69.634 122.667 68.9236 122.278C68.836 122.23 68.7654 122.156 68.7214 122.067C68.6774 121.977 68.6621 121.876 68.6777 121.777C68.6932 121.679 68.7389 121.588 68.8083 121.516C68.8778 121.444 68.9676 121.396 69.0656 121.377H69.1401C69.1781 121.371 69.217 121.371 69.2551 121.377C73.0338 121.76 74.8977 121.002 75.3443 120.233C75.4268 120.093 75.4637 119.931 75.4497 119.769C75.4358 119.607 75.3717 119.453 75.2665 119.329C74.6339 118.416 72.638 117.671 69.6407 117.999C69.272 118.06 68.9236 118.108 68.6259 118.148C68.563 118.158 68.4989 118.155 68.4371 118.14C68.3754 118.124 68.3173 118.097 68.2661 118.059C68.1627 117.983 68.0937 117.869 68.0745 117.742C68.0552 117.615 68.0871 117.485 68.1632 117.382C68.2394 117.278 68.3534 117.209 68.4804 117.19C68.8187 117.129 69.157 117.078 69.4953 117.041C71.8937 116.649 74.3429 115.911 74.9079 114.861C74.9859 114.709 75.0232 114.538 75.0161 114.367C75.009 114.195 74.9577 114.029 74.8673 113.883C73.7949 111.734 63.6091 113.172 57.4421 114.58C57.3982 114.585 57.354 114.585 57.3101 114.58L37.0129 113.595C36.9287 113.591 36.8471 113.564 36.7761 113.519C36.7051 113.473 36.6472 113.41 36.608 113.335C36.5688 113.261 36.5496 113.177 36.5524 113.093C36.5552 113.008 36.5798 112.926 36.6239 112.854L37.0907 112.106L21.6512 108.071Z" fill="#222222"/>
<path d="M136.928 84.6839C136.527 84.6939 136.129 84.6115 135.764 84.443C135.4 84.2746 135.079 84.0246 134.827 83.7124C133.829 82.4634 134.177 80.4595 135.605 79.2443C145.615 70.7008 157.705 66.0059 169.644 66.0059C181.582 66.0059 191.971 70.7448 198.824 79.3188C199.839 80.5678 199.474 82.5717 198.046 83.7869C197.69 84.1017 197.275 84.3426 196.825 84.4954C196.375 84.6482 195.899 84.71 195.424 84.6771C195.074 84.6479 194.733 84.5479 194.422 84.3833C194.111 84.2187 193.836 83.9928 193.615 83.7192C187.766 76.3874 178.896 72.3492 168.639 72.3492C158.382 72.3492 147.909 76.4111 139.262 83.7903C138.614 84.355 137.787 84.6716 136.928 84.6839ZM169.647 66.9638C157.935 66.9638 146.068 71.5876 136.231 79.9822C135.216 80.8623 134.912 82.2637 135.585 83.1099C135.749 83.3076 135.956 83.4649 136.191 83.5694C136.426 83.6739 136.681 83.7228 136.938 83.7124C137.564 83.6934 138.163 83.4536 138.629 83.0354C147.452 75.5074 158.108 71.3608 168.632 71.3608C179.156 71.3608 188.334 75.5311 194.369 83.0998C194.509 83.272 194.683 83.4135 194.881 83.5154C195.078 83.6173 195.294 83.6775 195.516 83.6921C195.862 83.7117 196.208 83.6619 196.535 83.5456C196.861 83.4293 197.161 83.249 197.417 83.0151C198.432 82.1351 198.736 80.7337 198.063 79.8875C191.412 71.5639 181.321 66.9638 169.647 66.9638Z" fill="#222222"/>
<path d="M142.758 91.9796C142.357 91.9897 141.959 91.9077 141.595 91.7399C141.231 91.5721 140.91 91.3229 140.657 91.0115C139.659 89.7625 140.008 87.7552 141.432 86.54C150.075 79.1677 160.819 75.495 170.92 76.4631C178.796 77.2213 185.673 80.8195 190.284 86.6179C191.279 87.8669 190.93 89.8708 189.506 91.086C189.15 91.4015 188.735 91.6427 188.285 91.7956C187.835 91.9484 187.358 92.0099 186.884 91.9762C186.534 91.948 186.193 91.8488 185.881 91.6847C185.57 91.5206 185.296 91.2951 185.074 91.0217C181.323 86.3166 175.731 83.392 169.324 82.776C161.036 81.9805 152.196 85.0033 145.079 91.0758C144.436 91.6425 143.614 91.9628 142.758 91.9796ZM167.703 77.2789C158.806 77.2789 149.619 80.833 142.061 87.2779C141.029 88.158 140.738 89.5594 141.412 90.4056C141.576 90.6028 141.784 90.7598 142.018 90.8648C142.253 90.9698 142.508 91.02 142.765 91.0115C143.391 90.9928 143.99 90.753 144.456 90.3345C151.777 84.0927 160.877 80.9854 169.422 81.8079C176.093 82.4476 181.922 85.4975 185.829 90.3989C185.969 90.5712 186.142 90.7129 186.339 90.8154C186.535 90.9179 186.751 90.9789 186.972 90.9946C187.319 91.0142 187.666 90.9645 187.993 90.8482C188.32 90.732 188.62 90.5516 188.877 90.3176C189.892 89.4409 190.196 88.0362 189.523 87.1899C185.078 81.615 178.437 78.142 170.822 77.4109C169.783 77.3229 168.74 77.2789 167.693 77.2789H167.703Z" fill="#222222"/>
<path d="M148.562 99.2725C148.161 99.2832 147.763 99.2014 147.399 99.0335C147.035 98.8656 146.714 98.6162 146.461 98.3044C145.467 97.0554 145.815 95.0515 147.239 93.8363C152.689 89.1854 159.276 86.623 165.778 86.623C172.279 86.623 177.98 89.2057 181.721 93.8973C182.716 95.1497 182.367 97.1536 180.943 98.3687C180.587 98.6836 180.172 98.9243 179.721 99.0765C179.271 99.2288 178.795 99.2897 178.321 99.2556C177.97 99.2276 177.628 99.1286 177.317 98.9645C177.005 98.8004 176.73 98.5747 176.508 98.3011C173.765 94.8586 169.597 92.963 164.773 92.963C159.949 92.963 154.983 94.8857 150.903 98.3789C150.253 98.9454 149.424 99.2621 148.562 99.2725ZM165.781 87.5911C159.506 87.5911 153.142 90.0723 147.869 94.5742C146.837 95.4509 146.546 96.8557 147.219 97.6985C147.382 97.8973 147.59 98.0554 147.825 98.1606C148.059 98.2657 148.315 98.3149 148.572 98.3044C149.198 98.2854 149.797 98.0456 150.264 97.6275C154.526 93.9887 159.678 91.9882 164.766 91.9882C169.854 91.9882 174.329 94.0191 177.262 97.6918C177.403 97.864 177.577 98.0055 177.774 98.1074C177.971 98.2093 178.188 98.2695 178.409 98.2841C178.754 98.3061 179.1 98.2591 179.426 98.1458C179.753 98.0324 180.053 97.8551 180.31 97.6241C181.342 96.744 181.633 95.3426 180.96 94.4964C177.408 90.0384 172.016 87.5911 165.781 87.5911Z" fill="#222222"/>
<path d="M167.523 114.11C166.46 115.021 165.25 115.746 163.944 116.253C162.744 116.716 161.469 116.958 160.183 116.967C157.72 116.967 155.447 116.009 153.911 114.103C152.436 112.258 151.881 109.801 152.385 107.194C152.932 104.49 154.383 102.052 156.499 100.282C160.971 96.471 167.08 96.471 170.115 100.282C173.149 104.094 171.996 110.295 167.523 114.11Z" fill="#639EFF"/>
<path d="M160.183 117.457C157.477 117.457 155.109 116.377 153.532 114.41C151.956 112.444 151.394 109.857 151.912 107.106C152.477 104.292 153.984 101.756 156.184 99.9159C158.705 97.7699 161.84 96.7002 164.784 96.9846C165.889 97.0706 166.965 97.3802 167.947 97.8946C168.929 98.4089 169.797 99.1173 170.497 99.9768C173.701 103.991 172.507 110.497 167.842 114.478C166.736 115.426 165.478 116.179 164.12 116.705C162.865 117.193 161.53 117.448 160.183 117.457ZM163.84 97.912C161.247 97.9694 158.759 98.9417 156.813 100.657C154.782 102.354 153.388 104.693 152.862 107.288C152.399 109.759 152.906 112.075 154.29 113.808C155.673 115.541 157.764 116.489 160.183 116.489C161.41 116.484 162.627 116.254 163.772 115.812C165.028 115.32 166.19 114.617 167.209 113.733C171.482 110.088 172.622 104.184 169.736 100.573C169.117 99.8153 168.351 99.1914 167.484 98.7388C166.617 98.2861 165.667 98.0141 164.692 97.9391C164.413 97.9165 164.128 97.9053 163.84 97.9053V97.912Z" fill="#222222"/>
<path d="M84.6031 101.155L81.8359 109.405H86.5212L89.1227 100.871L84.6031 101.155Z" fill="white"/>
<path d="M86.521 109.888H81.8357C81.7587 109.888 81.6826 109.87 81.6138 109.835C81.545 109.801 81.4854 109.75 81.4399 109.688C81.3951 109.626 81.3659 109.553 81.3547 109.477C81.3436 109.401 81.3507 109.324 81.3757 109.251L84.1428 100.999C84.172 100.906 84.2286 100.823 84.3053 100.763C84.3819 100.703 84.4751 100.667 84.5725 100.66L89.0954 100.376C89.1733 100.371 89.2513 100.385 89.3226 100.417C89.394 100.449 89.4565 100.497 89.5047 100.559C89.5532 100.621 89.5859 100.693 89.6 100.77C89.6142 100.848 89.6093 100.927 89.5859 101.002L86.9845 109.536C86.9553 109.636 86.8945 109.725 86.811 109.789C86.7275 109.852 86.6258 109.887 86.521 109.888ZM82.5089 108.92H86.1624L88.456 101.398L84.9581 101.618L82.5089 108.92Z" fill="#222222"/>
<path d="M87.0611 103.332C86.9761 103.561 86.8263 103.761 86.6298 103.906C86.4334 104.051 86.1989 104.137 85.9549 104.151C85.8547 104.158 85.7543 104.14 85.6638 104.096C85.5732 104.052 85.4958 103.986 85.4392 103.903C85.3826 103.82 85.3489 103.723 85.3414 103.623C85.334 103.523 85.353 103.422 85.3967 103.332C85.4815 103.102 85.6313 102.902 85.8277 102.756C86.0241 102.61 86.2587 102.524 86.5029 102.509C86.6032 102.502 86.7036 102.522 86.794 102.566C86.8844 102.61 86.9617 102.677 87.0181 102.76C87.0746 102.843 87.1083 102.94 87.1159 103.04C87.1234 103.14 87.1045 103.241 87.0611 103.332Z" fill="#222222"/>
<path d="M86.0572 106.84C85.9722 107.069 85.8223 107.268 85.6259 107.414C85.4295 107.559 85.195 107.644 84.951 107.659C84.8508 107.666 84.7504 107.647 84.6599 107.604C84.5693 107.56 84.4919 107.494 84.4353 107.411C84.3787 107.327 84.345 107.231 84.3375 107.131C84.3301 107.03 84.3491 106.93 84.3928 106.84C84.4776 106.61 84.6274 106.41 84.8238 106.264C85.0202 106.118 85.2548 106.032 85.499 106.017C85.5993 106.01 85.6997 106.03 85.7901 106.074C85.8805 106.118 85.9578 106.185 86.0142 106.268C86.0707 106.351 86.1044 106.448 86.1119 106.548C86.1195 106.648 86.1006 106.749 86.0572 106.84Z" fill="#222222"/>
<path d="M57.2689 77.6269C57.1585 77.6248 57.052 77.5852 56.9671 77.5146C56.8821 77.444 56.8236 77.3467 56.8012 77.2384C56.7787 77.1302 56.7937 77.0176 56.8437 76.9191C56.8936 76.8205 56.9756 76.7418 57.0761 76.696L57.6816 76.4286C57.7954 76.3868 57.9025 76.3286 57.9996 76.256C58.0202 76.2399 58.0365 76.219 58.047 76.195C58.0424 76.1319 58.0503 76.0684 58.0703 76.0083C58.0902 75.9483 58.1219 75.8927 58.1634 75.8449C58.2049 75.7971 58.2554 75.758 58.312 75.7298C58.3687 75.7015 58.4304 75.6848 58.4935 75.6805C58.6223 75.673 58.749 75.7163 58.8464 75.8011C58.9437 75.8858 59.0041 76.0054 59.0145 76.1341C59.023 76.2949 58.9938 76.4556 58.9291 76.6031C58.8645 76.7506 58.7663 76.881 58.6423 76.9837C58.4716 77.1253 58.2798 77.2395 58.074 77.3222L57.4651 77.593C57.4027 77.6174 57.3359 77.6289 57.2689 77.6269Z" fill="#222222"/>
<path d="M62.2692 76.1602C62.1579 76.1608 62.0499 76.1229 61.9632 76.0529C61.8766 75.983 61.8167 75.8854 61.7937 75.7764C61.7706 75.6675 61.7858 75.5539 61.8367 75.4549C61.8876 75.3559 61.971 75.2774 62.073 75.2328L62.6819 74.962C62.796 74.9207 62.9032 74.8625 62.9999 74.7893C63.0209 74.7737 63.0372 74.7526 63.0473 74.7284C63.0427 74.6653 63.0506 74.6018 63.0705 74.5417C63.0905 74.4816 63.1222 74.4261 63.1637 74.3783C63.2052 74.3305 63.2557 74.2913 63.3123 74.2631C63.369 74.2349 63.4307 74.2182 63.4938 74.2139C63.5578 74.2098 63.622 74.2183 63.6827 74.2391C63.7433 74.2598 63.7993 74.2924 63.8474 74.3348C63.8955 74.3773 63.9348 74.4288 63.9629 74.4865C63.991 74.5442 64.0075 74.6068 64.0114 74.6709C64.0207 74.8313 63.9918 74.9917 63.9271 75.1388C63.8625 75.2859 63.7638 75.4156 63.6393 75.5171C63.4688 75.6591 63.277 75.7733 63.0709 75.8556L62.4654 76.123C62.4031 76.1482 62.3364 76.1609 62.2692 76.1602Z" fill="#222222"/>
<path d="M166.281 105.059L163.981 107.043L165.287 108.813C165.4 108.966 165.482 109.14 165.528 109.326C165.574 109.511 165.583 109.703 165.555 109.892C165.527 110.08 165.462 110.261 165.363 110.425C165.265 110.588 165.136 110.731 164.982 110.844C164.829 110.957 164.655 111.039 164.47 111.085C164.285 111.131 164.093 111.14 163.904 111.112C163.716 111.084 163.535 111.019 163.372 110.92C163.208 110.822 163.066 110.693 162.953 110.539L161.772 108.938L159.634 110.78C159.489 110.904 159.322 110.999 159.141 111.058C158.959 111.118 158.768 111.141 158.578 111.127C158.388 111.113 158.202 111.061 158.032 110.975C157.862 110.889 157.71 110.77 157.586 110.626C157.461 110.481 157.367 110.313 157.307 110.132C157.247 109.95 157.224 109.759 157.238 109.569C157.253 109.379 157.304 109.193 157.39 109.023C157.476 108.852 157.595 108.7 157.74 108.576L160.04 106.592L158.734 104.822C158.621 104.669 158.539 104.495 158.493 104.31C158.447 104.124 158.438 103.932 158.466 103.744C158.494 103.555 158.559 103.374 158.658 103.21C158.756 103.047 158.885 102.905 159.039 102.791C159.192 102.678 159.366 102.596 159.551 102.55C159.736 102.504 159.928 102.495 160.117 102.523C160.305 102.551 160.486 102.616 160.649 102.715C160.813 102.813 160.955 102.942 161.068 103.096L162.249 104.697L164.387 102.855C164.532 102.731 164.699 102.636 164.88 102.577C165.062 102.517 165.253 102.494 165.443 102.508C165.633 102.522 165.819 102.574 165.989 102.66C166.159 102.746 166.311 102.865 166.435 103.009C166.56 103.154 166.654 103.322 166.714 103.503C166.774 103.685 166.797 103.876 166.783 104.066C166.768 104.256 166.717 104.442 166.631 104.612C166.545 104.783 166.426 104.935 166.281 105.059Z" fill="white"/>
<path d="M164.121 111.614C163.818 111.615 163.519 111.544 163.248 111.407C162.978 111.27 162.743 111.071 162.565 110.826L161.702 109.644L159.96 111.147C159.61 111.448 159.163 111.614 158.702 111.614C158.306 111.614 157.92 111.493 157.595 111.267C157.271 111.041 157.023 110.721 156.885 110.35C156.747 109.979 156.726 109.575 156.825 109.191C156.923 108.808 157.137 108.464 157.436 108.206L159.395 106.513L158.357 105.105C158.196 104.901 158.078 104.667 158.01 104.417C157.942 104.167 157.924 103.906 157.959 103.648C157.993 103.391 158.079 103.144 158.211 102.921C158.343 102.697 158.519 102.503 158.727 102.349C158.936 102.195 159.173 102.084 159.426 102.024C159.678 101.964 159.939 101.954 160.195 101.997C160.451 102.04 160.695 102.133 160.914 102.273C161.133 102.412 161.322 102.593 161.469 102.807L162.342 103.985L164.08 102.482C164.273 102.313 164.497 102.183 164.74 102.101C164.983 102.019 165.239 101.986 165.495 102.004C165.751 102.022 166 102.091 166.229 102.206C166.458 102.321 166.662 102.48 166.829 102.675C166.996 102.869 167.123 103.095 167.203 103.339C167.282 103.583 167.312 103.84 167.291 104.095C167.271 104.351 167.2 104.6 167.082 104.828C166.965 105.056 166.803 105.258 166.607 105.423L164.649 107.116L165.687 108.524C165.84 108.728 165.95 108.96 166.012 109.207C166.074 109.454 166.087 109.711 166.049 109.963C166.011 110.214 165.924 110.456 165.792 110.674C165.66 110.892 165.487 111.082 165.281 111.232C164.946 111.482 164.539 111.616 164.121 111.614ZM161.773 108.453H161.824C161.891 108.46 161.955 108.48 162.013 108.514C162.072 108.547 162.122 108.592 162.162 108.646L163.343 110.243C163.498 110.447 163.725 110.582 163.977 110.621C164.23 110.66 164.487 110.6 164.696 110.453C164.905 110.301 165.045 110.072 165.085 109.817C165.104 109.691 165.097 109.562 165.066 109.438C165.035 109.314 164.979 109.198 164.902 109.096L163.593 107.326C163.521 107.227 163.489 107.105 163.503 106.984C163.516 106.863 163.575 106.752 163.668 106.672L165.968 104.689C166.073 104.609 166.161 104.508 166.226 104.392C166.291 104.277 166.332 104.15 166.346 104.018C166.36 103.887 166.347 103.753 166.307 103.627C166.268 103.501 166.203 103.384 166.117 103.283C166.031 103.183 165.925 103.101 165.807 103.043C165.688 102.985 165.558 102.951 165.426 102.945C165.294 102.939 165.162 102.96 165.038 103.006C164.914 103.053 164.801 103.124 164.706 103.216L162.572 105.061C162.521 105.105 162.462 105.137 162.397 105.157C162.333 105.176 162.266 105.181 162.2 105.173C162.133 105.166 162.068 105.145 162.01 105.112C161.952 105.079 161.901 105.034 161.861 104.98L160.687 103.386C160.613 103.282 160.518 103.195 160.409 103.129C160.301 103.062 160.18 103.018 160.054 102.999C159.928 102.98 159.8 102.986 159.676 103.017C159.552 103.048 159.436 103.103 159.334 103.179C159.231 103.254 159.144 103.348 159.077 103.457C159.011 103.566 158.967 103.687 158.948 103.813C158.929 103.939 158.936 104.068 158.967 104.192C158.999 104.315 159.054 104.431 159.131 104.533L160.437 106.303C160.51 106.403 160.542 106.528 160.526 106.651C160.509 106.774 160.446 106.886 160.349 106.963L158.049 108.947C157.858 109.114 157.74 109.35 157.721 109.603C157.701 109.856 157.781 110.106 157.944 110.301C158.117 110.482 158.351 110.594 158.6 110.613C158.85 110.632 159.098 110.559 159.297 110.406L161.432 108.564C161.526 108.484 161.649 108.444 161.773 108.453Z" fill="#222222"/>
<path d="M101.07 248.691H94.67C94.5768 248.69 94.4856 248.663 94.4071 248.613C94.3286 248.563 94.2661 248.491 94.2268 248.406C93.5599 246.919 93.3972 245.253 93.7636 243.665C94.1301 242.076 95.0055 240.65 96.2566 239.605C96.3197 239.552 96.3956 239.516 96.4768 239.501C96.5579 239.485 96.6417 239.491 96.72 239.517C98.1097 239.939 99.3283 240.794 100.198 241.958C101.067 243.121 101.541 244.533 101.551 245.986V248.196C101.552 248.261 101.541 248.324 101.517 248.384C101.494 248.444 101.459 248.498 101.414 248.544C101.369 248.59 101.316 248.627 101.257 248.652C101.198 248.677 101.135 248.69 101.07 248.691ZM94.9812 247.723H100.576V245.996C100.571 244.795 100.193 243.625 99.496 242.646C98.7988 241.668 97.8161 240.93 96.6828 240.533C96.0095 241.143 95.4714 241.887 95.1032 242.718C94.7349 243.549 94.5447 244.448 94.5448 245.356C94.5435 246.166 94.695 246.969 94.9914 247.723H94.9812Z" fill="#222222"/>
<path d="M224.623 212.035C225.719 212.035 226.592 212.396 227.242 213.116C227.898 213.831 228.227 214.786 228.227 215.981V221H226.565V216.21C226.565 215.437 226.354 214.821 225.933 214.364C225.511 213.901 224.948 213.67 224.245 213.67C223.735 213.67 223.255 213.799 222.804 214.057C222.353 214.309 222.007 214.648 221.767 215.076V221H220.088V212.22H221.767V213.494C222.036 213.055 222.432 212.703 222.953 212.439C223.475 212.17 224.031 212.035 224.623 212.035Z" fill="#222222"/>
<path d="M213.715 212.035C214.553 212.035 215.317 212.237 216.009 212.642C216.7 213.04 217.245 213.591 217.644 214.294C218.048 214.997 218.25 215.773 218.25 216.623C218.25 217.906 217.811 218.987 216.932 219.866C216.059 220.739 214.986 221.176 213.715 221.176C212.877 221.176 212.109 220.977 211.412 220.578C210.721 220.18 210.176 219.632 209.777 218.935C209.379 218.237 209.18 217.467 209.18 216.623C209.18 215.328 209.616 214.241 210.489 213.362C211.362 212.478 212.438 212.035 213.715 212.035ZM213.715 213.617C212.889 213.617 212.194 213.904 211.632 214.479C211.075 215.053 210.797 215.768 210.797 216.623C210.797 217.461 211.075 218.167 211.632 218.741C212.194 219.31 212.889 219.594 213.715 219.594C214.535 219.594 215.227 219.307 215.789 218.732C216.352 218.158 216.633 217.455 216.633 216.623C216.633 215.768 216.352 215.053 215.789 214.479C215.227 213.904 214.535 213.617 213.715 213.617Z" fill="#222222"/>
<path d="M206.519 208.273C206.817 208.273 207.078 208.385 207.301 208.607C207.523 208.83 207.635 209.091 207.635 209.39C207.635 209.694 207.523 209.958 207.301 210.181C207.078 210.397 206.817 210.506 206.519 210.506C206.208 210.506 205.944 210.397 205.728 210.181C205.511 209.964 205.402 209.7 205.402 209.39C205.402 209.091 205.511 208.83 205.728 208.607C205.95 208.385 206.214 208.273 206.519 208.273ZM205.675 212.22H207.354V221H205.675V212.22Z" fill="#222222"/>
<path d="M203.89 219.471L203.978 220.93C203.696 221.047 203.38 221.105 203.028 221.105C202.079 221.105 201.312 220.818 200.726 220.244C200.146 219.664 199.855 218.861 199.855 217.836V213.802H198.15V212.22H199.855V209.838H201.517V212.22H203.89V213.802H201.517V217.757C201.517 218.313 201.678 218.753 202 219.075C202.322 219.397 202.735 219.559 203.239 219.559C203.479 219.559 203.696 219.529 203.89 219.471Z" fill="#222222"/>
<path d="M197.466 218.838C197.12 219.553 196.59 220.121 195.875 220.543C195.166 220.965 194.363 221.176 193.467 221.176C192.623 221.176 191.853 220.977 191.155 220.578C190.458 220.18 189.91 219.632 189.512 218.935C189.113 218.237 188.914 217.467 188.914 216.623C188.914 215.773 189.113 214.997 189.512 214.294C189.91 213.591 190.458 213.04 191.155 212.642C191.853 212.237 192.623 212.035 193.467 212.035C194.311 212.035 195.066 212.231 195.734 212.624C196.408 213.011 196.9 213.529 197.211 214.18L195.787 214.953C195.605 214.549 195.304 214.227 194.882 213.986C194.466 213.74 193.994 213.617 193.467 213.617C192.635 213.617 191.938 213.907 191.375 214.487C190.812 215.062 190.531 215.773 190.531 216.623C190.531 217.461 190.812 218.167 191.375 218.741C191.938 219.31 192.635 219.594 193.467 219.594C194.035 219.594 194.545 219.468 194.996 219.216C195.447 218.964 195.784 218.615 196.007 218.17L197.466 218.838Z" fill="#222222"/>
<path d="M187.761 216.228C187.761 216.392 187.749 216.62 187.726 216.913H180.703C180.779 217.757 181.084 218.431 181.617 218.935C182.156 219.433 182.83 219.682 183.639 219.682C184.195 219.682 184.705 219.564 185.168 219.33C185.631 219.096 185.974 218.782 186.196 218.39L187.523 219.251C187.189 219.849 186.674 220.32 185.977 220.666C185.279 221.006 184.482 221.176 183.586 221.176C182.971 221.176 182.385 221.059 181.828 220.824C181.271 220.59 180.791 220.271 180.387 219.866C179.988 219.456 179.672 218.967 179.438 218.398C179.203 217.824 179.086 217.215 179.086 216.57C179.086 215.738 179.282 214.977 179.675 214.285C180.067 213.588 180.606 213.04 181.292 212.642C181.983 212.237 182.742 212.035 183.568 212.035C184.746 212.035 185.739 212.439 186.548 213.248C187.356 214.057 187.761 215.05 187.761 216.228ZM180.773 215.656H186.047C185.994 215 185.73 214.464 185.256 214.048C184.781 213.632 184.195 213.424 183.498 213.424C182.807 213.424 182.218 213.626 181.731 214.03C181.245 214.435 180.926 214.977 180.773 215.656Z" fill="#222222"/>
<path d="M173.629 212.035C174.725 212.035 175.598 212.396 176.248 213.116C176.904 213.831 177.232 214.786 177.232 215.981V221H175.571V216.21C175.571 215.437 175.36 214.821 174.938 214.364C174.517 213.901 173.954 213.67 173.251 213.67C172.741 213.67 172.261 213.799 171.81 214.057C171.358 214.309 171.013 214.648 170.772 215.076V221H169.094V212.22H170.772V213.494C171.042 213.055 171.438 212.703 171.959 212.439C172.48 212.17 173.037 212.035 173.629 212.035Z" fill="#222222"/>
<path d="M163.17 212.035C164.266 212.035 165.139 212.396 165.789 213.116C166.445 213.831 166.773 214.786 166.773 215.981V221H165.112V216.21C165.112 215.437 164.901 214.821 164.479 214.364C164.058 213.901 163.495 213.67 162.792 213.67C162.282 213.67 161.802 213.799 161.351 214.057C160.899 214.309 160.554 214.648 160.313 215.076V221H158.635V212.22H160.313V213.494C160.583 213.055 160.979 212.703 161.5 212.439C162.021 212.17 162.578 212.035 163.17 212.035Z" fill="#222222"/>
<path d="M152.262 212.035C153.1 212.035 153.864 212.237 154.556 212.642C155.247 213.04 155.792 213.591 156.19 214.294C156.595 214.997 156.797 215.773 156.797 216.623C156.797 217.906 156.357 218.987 155.479 219.866C154.605 220.739 153.533 221.176 152.262 221.176C151.424 221.176 150.656 220.977 149.959 220.578C149.268 220.18 148.723 219.632 148.324 218.935C147.926 218.237 147.727 217.467 147.727 216.623C147.727 215.328 148.163 214.241 149.036 213.362C149.909 212.478 150.984 212.035 152.262 212.035ZM152.262 213.617C151.436 213.617 150.741 213.904 150.179 214.479C149.622 215.053 149.344 215.768 149.344 216.623C149.344 217.461 149.622 218.167 150.179 218.741C150.741 219.31 151.436 219.594 152.262 219.594C153.082 219.594 153.773 219.307 154.336 218.732C154.898 218.158 155.18 217.455 155.18 216.623C155.18 215.768 154.898 215.053 154.336 214.479C153.773 213.904 153.082 213.617 152.262 213.617Z" fill="#222222"/>
<path d="M146.522 217.854C146.177 218.844 145.506 219.646 144.51 220.262C143.514 220.871 142.38 221.176 141.108 221.176C140.212 221.176 139.371 221.009 138.586 220.675C137.807 220.341 137.139 219.887 136.582 219.312C136.025 218.732 135.586 218.041 135.264 217.238C134.947 216.43 134.789 215.571 134.789 214.663C134.789 213.942 134.889 213.254 135.088 212.598C135.293 211.941 135.586 211.35 135.967 210.822C136.348 210.295 136.793 209.835 137.303 209.442C137.818 209.05 138.401 208.748 139.052 208.537C139.708 208.326 140.394 208.221 141.108 208.221C142.321 208.221 143.411 208.502 144.378 209.064C145.351 209.627 146.019 210.359 146.382 211.262L144.835 212.018C144.536 211.373 144.05 210.857 143.376 210.471C142.708 210.084 141.952 209.891 141.108 209.891C140.229 209.891 139.444 210.099 138.753 210.515C138.062 210.931 137.525 211.502 137.145 212.229C136.764 212.955 136.573 213.767 136.573 214.663C136.573 216.058 136.995 217.215 137.839 218.135C138.688 219.049 139.778 219.506 141.108 219.506C141.999 219.506 142.793 219.292 143.49 218.864C144.193 218.431 144.683 217.854 144.958 217.133L146.522 217.854Z" fill="#222222"/>
<path d="M124.613 212.035C125.451 212.035 126.216 212.237 126.907 212.642C127.599 213.04 128.144 213.591 128.542 214.294C128.946 214.997 129.148 215.773 129.148 216.623C129.148 217.906 128.709 218.987 127.83 219.866C126.957 220.739 125.885 221.176 124.613 221.176C123.775 221.176 123.008 220.977 122.311 220.578C121.619 220.18 121.074 219.632 120.676 218.935C120.277 218.237 120.078 217.467 120.078 216.623C120.078 215.328 120.515 214.241 121.388 213.362C122.261 212.478 123.336 212.035 124.613 212.035ZM124.613 213.617C123.787 213.617 123.093 213.904 122.53 214.479C121.974 215.053 121.695 215.768 121.695 216.623C121.695 217.461 121.974 218.167 122.53 218.741C123.093 219.31 123.787 219.594 124.613 219.594C125.434 219.594 126.125 219.307 126.688 218.732C127.25 218.158 127.531 217.455 127.531 216.623C127.531 215.768 127.25 215.053 126.688 214.479C126.125 213.904 125.434 213.617 124.613 213.617Z" fill="#222222"/>
<path d="M108.273 208.396H109.847L116.359 217.722V208.396H118.091V221H116.553L110.022 211.692V221H108.273V208.396Z" fill="#222222"/>
</svg>
