<svg width="25" height="24" viewBox="0 0 25 24" fill="none" xmlns="http://www.w3.org/2000/svg">
<path d="M12.755 2.91016C9.44495 2.91016 6.75495 5.60016 6.75495 8.91016V11.8002C6.75495 12.4102 6.49495 13.3402 6.18495 13.8602L5.03495 15.7702C4.32495 16.9502 4.81495 18.2602 6.11495 18.7002C10.425 20.1402 15.075 20.1402 19.385 18.7002C20.595 18.3002 21.125 16.8702 20.465 15.7702L19.315 13.8602C19.015 13.3402 18.755 12.4102 18.755 11.8002V8.91016C18.755 5.61016 16.055 2.91016 12.755 2.91016Z" stroke="black" stroke-width="1.5" stroke-miterlimit="10" stroke-linecap="round"/>
<path d="M14.6043 3.19994C14.2943 3.10994 13.9743 3.03994 13.6443 2.99994C12.6843 2.87994 11.7643 2.94994 10.9043 3.19994C11.1943 2.45994 11.9143 1.93994 12.7543 1.93994C13.5943 1.93994 14.3143 2.45994 14.6043 3.19994Z" stroke="black" stroke-width="1.5" stroke-miterlimit="10" stroke-linecap="round" stroke-linejoin="round"/>
<path d="M15.7539 19.0601C15.7539 20.7101 14.4039 22.0601 12.7539 22.0601C11.9339 22.0601 11.1739 21.7201 10.6339 21.1801C10.0939 20.6401 9.75391 19.8801 9.75391 19.0601" stroke="black" stroke-width="1.5" stroke-miterlimit="10"/>
</svg>
