<svg width="183" height="136" viewBox="0 0 183 136" fill="none" xmlns="http://www.w3.org/2000/svg">
<path d="M164.476 125.574H152.368V125.665H164.476V125.574Z" fill="#EFEFEF"/>
<path d="M121.088 126.568H117.911V126.66H121.088V126.568Z" fill="#EFEFEF"/>
<path d="M152.001 122.181H144.986V122.273H152.001V122.181Z" fill="#EFEFEF"/>
<path d="M34.9676 122.795H19.1782V122.887H34.9676V122.795Z" fill="#EFEFEF"/>
<path d="M40.5398 122.795H38.2256V122.887H40.5398V122.795Z" fill="#EFEFEF"/>
<path d="M82.3109 124.338H48.0632V124.429H82.3109V124.338Z" fill="#EFEFEF"/>
<path d="M86.6429 103.387H16.0527C15.4997 103.386 14.9697 103.165 14.579 102.774C14.1883 102.382 13.9689 101.852 13.9689 101.299V2.06919C13.9737 1.51937 14.1952 0.993643 14.5854 0.606214C14.9756 0.218785 15.5028 0.00094188 16.0527 0H86.6429C87.1965 0 87.7275 0.21993 88.1189 0.611406C88.5104 1.00288 88.7303 1.53384 88.7303 2.08747V101.299C88.7303 101.853 88.5104 102.384 88.1189 102.775C87.7275 103.167 87.1965 103.387 86.6429 103.387ZM16.0527 0.0731166C15.5239 0.0740851 15.0172 0.284812 14.6436 0.659044C14.2701 1.03328 14.0603 1.54043 14.0603 2.06919V101.299C14.0603 101.828 14.2701 102.335 14.6436 102.709C15.0172 103.083 15.5239 103.294 16.0527 103.295H86.6429C87.172 103.294 87.6791 103.084 88.0532 102.709C88.4274 102.335 88.638 101.828 88.6389 101.299V2.06919C88.638 1.5401 88.4274 1.03295 88.0532 0.658821C87.6791 0.284693 87.172 0.074083 86.6429 0.0731166H16.0527Z" fill="#EFEFEF"/>
<path d="M165.722 103.387H95.128C94.5746 103.386 94.0442 103.165 93.653 102.774C93.2617 102.383 93.0415 101.852 93.0405 101.299V2.06919C93.0463 1.51903 93.2686 0.993314 93.6594 0.605986C94.0501 0.218658 94.5778 0.000931608 95.128 0H165.722C166.271 0.00190267 166.797 0.220171 167.187 0.607497C167.576 0.994824 167.797 1.52 167.802 2.06919V101.299C167.802 101.851 167.583 102.381 167.193 102.773C166.803 103.164 166.274 103.385 165.722 103.387ZM95.128 0.0731166C94.5989 0.074083 94.0917 0.284693 93.7176 0.658821C93.3435 1.03295 93.1329 1.5401 93.1319 2.06919V101.299C93.1329 101.828 93.3435 102.335 93.7176 102.709C94.0917 103.084 94.5989 103.294 95.128 103.295H165.722C166.251 103.294 166.758 103.084 167.132 102.709C167.506 102.335 167.717 101.828 167.718 101.299V2.06919C167.717 1.5401 167.506 1.03295 167.132 0.658821C166.758 0.284693 166.251 0.074083 165.722 0.0731166H95.128Z" fill="#EFEFEF"/>
<path d="M182.791 119.691H0.000137329V119.783H182.791V119.691Z" fill="#D8D8D8"/>
<path d="M48.088 61.922H14.0596V119.699H48.088V61.922Z" fill="#E7E7E7"/>
<path d="M49.6307 61.922H14.0596V66.2176H49.6307V61.922Z" fill="white"/>
<path d="M32.5139 58.9528H20.2486L18.322 47.1116H34.4442L32.5139 58.9528Z" fill="#EFEFEF"/>
<path d="M34.3968 47.466L30.1377 47.477L29.4029 58.938L32.514 58.9526L34.3968 47.466Z" fill="#D8D8D8"/>
<path d="M35.1134 38.2562H17.8689C16.1183 38.2562 14.6993 39.6752 14.6993 41.4258V44.2992C14.6993 46.0497 16.1183 47.4688 17.8689 47.4688H35.1134C36.8639 47.4688 38.283 46.0497 38.283 44.2992V41.4258C38.283 39.6752 36.8639 38.2562 35.1134 38.2562Z" fill="#EFEFEF"/>
<path d="M38.349 41.9388V43.7667C38.349 45.803 36.7112 47.4225 34.3057 47.4225H29.7176C32.1232 47.4225 33.3735 45.792 33.3735 43.7667V41.9388C33.3768 41.4555 33.2849 40.9763 33.103 40.5285C32.921 40.0808 32.6526 39.6733 32.3131 39.3294C31.9736 38.9854 31.5696 38.7118 31.1242 38.5241C30.6789 38.3364 30.2009 38.2383 29.7176 38.2354H34.6749C35.1593 38.2373 35.6386 38.3346 36.0854 38.5218C36.5322 38.7089 36.9378 38.9823 37.279 39.3261C37.6201 39.67 37.8902 40.0778 38.0738 40.526C38.2574 40.9743 38.3509 41.4543 38.349 41.9388Z" fill="#D8D8D8"/>
<path d="M28.5878 50.4896H24.1642V53.0231H28.5878V50.4896Z" fill="#D8D8D8"/>
<path d="M26.7452 50.4896H24.1642V53.0231H26.7452V50.4896Z" fill="white"/>
<path d="M38.1731 60.4882C38.1731 60.6877 38.1338 60.8853 38.0573 61.0696C37.9808 61.2539 37.8688 61.4213 37.7275 61.5623C37.5862 61.7032 37.4185 61.8149 37.234 61.8909C37.0495 61.9669 36.8519 62.0058 36.6523 62.0053H16.1103C15.9107 62.0058 15.7131 61.9669 15.5286 61.8909C15.3441 61.8149 15.1764 61.7032 15.0351 61.5623C14.8939 61.4213 14.7818 61.2539 14.7053 61.0696C14.6288 60.8853 14.5895 60.6877 14.5895 60.4882C14.5895 60.0845 14.7496 59.6973 15.0347 59.4115C15.3198 59.1257 15.7066 58.9647 16.1103 58.9637H36.6523C37.056 58.9647 37.4428 59.1257 37.7279 59.4115C38.013 59.6973 38.1731 60.0845 38.1731 60.4882Z" fill="#D8D8D8"/>
<path d="M30.1706 60.4882C30.1686 60.8906 30.0077 61.2759 29.7228 61.5601C29.4379 61.8443 29.0522 62.0044 28.6497 62.0053H16.1103C15.9107 62.0058 15.7131 61.9669 15.5286 61.8909C15.3441 61.8149 15.1764 61.7032 15.0351 61.5623C14.8939 61.4213 14.7818 61.2539 14.7053 61.0696C14.6288 60.8853 14.5895 60.6877 14.5895 60.4882C14.5895 60.0845 14.7496 59.6973 15.0347 59.4115C15.3198 59.1257 15.7066 58.9647 16.1103 58.9637H28.6497C29.0534 58.9647 29.4402 59.1257 29.7253 59.4115C30.0104 59.6973 30.1706 60.0845 30.1706 60.4882Z" fill="#EFEFEF"/>
<path d="M28.686 42.8782C28.686 43.1807 28.6264 43.4802 28.5107 43.7596C28.3949 44.039 28.2253 44.2929 28.0114 44.5068C27.7975 44.7207 27.5436 44.8903 27.2642 45.0061C26.9848 45.1218 26.6853 45.1814 26.3828 45.1814C26.1638 45.1831 25.9457 45.1523 25.7357 45.09C25.2582 44.9498 24.8389 44.6588 24.5407 44.2604C24.2424 43.862 24.0812 43.3777 24.0812 42.8801C24.0812 42.3824 24.2424 41.8981 24.5407 41.4997C24.8389 41.1013 25.2582 40.8103 25.7357 40.6701C25.9455 40.6066 26.1636 40.5746 26.3828 40.5751C26.9934 40.576 27.5786 40.819 28.0103 41.2507C28.4421 41.6824 28.685 42.2677 28.686 42.8782Z" fill="#D8D8D8"/>
<path d="M27.3955 42.8774C27.3955 43.3761 27.2338 43.8613 26.9345 44.2601C26.6352 44.659 26.2145 44.9499 25.7357 45.0892C25.2582 44.949 24.8389 44.658 24.5407 44.2596C24.2424 43.8612 24.0812 43.3769 24.0812 42.8793C24.0812 42.3816 24.2424 41.8973 24.5407 41.4989C24.8389 41.1005 25.2582 40.8095 25.7357 40.6693C26.2139 40.8084 26.6341 41.0988 26.9334 41.4969C27.2326 41.895 27.3948 42.3794 27.3955 42.8774Z" fill="white"/>
<path d="M30.0135 47.4954H22.6434V50.442H30.0135V47.4954Z" fill="#D8D8D8"/>
<path d="M27.7578 47.4954H22.6434V50.442H27.7578V47.4954Z" fill="white"/>
<path d="M31.3582 43.839C31.8933 43.839 32.327 43.4052 32.327 42.8702C32.327 42.3351 31.8933 41.9014 31.3582 41.9014C30.8232 41.9014 30.3894 42.3351 30.3894 42.8702C30.3894 43.4052 30.8232 43.839 31.3582 43.839Z" fill="#D8D8D8"/>
<path d="M34.6749 43.839C35.2099 43.839 35.6437 43.4052 35.6437 42.8702C35.6437 42.3351 35.2099 41.9014 34.6749 41.9014C34.1398 41.9014 33.7061 42.3351 33.7061 42.8702C33.7061 43.4052 34.1398 43.839 34.6749 43.839Z" fill="#D8D8D8"/>
<path d="M18.3224 43.839C18.8575 43.839 19.2912 43.4052 19.2912 42.8702C19.2912 42.3351 18.8575 41.9014 18.3224 41.9014C17.7874 41.9014 17.3536 42.3351 17.3536 42.8702C17.3536 43.4052 17.7874 43.839 18.3224 43.839Z" fill="#D8D8D8"/>
<path d="M32.302 51.3594H28.617V52.511H32.302V51.3594Z" fill="white"/>
<path d="M30.0211 47.8255H22.6656C22.5801 47.8167 22.5009 47.7765 22.4433 47.7127C22.3858 47.6489 22.3539 47.566 22.3539 47.4801C22.3539 47.3941 22.3858 47.3112 22.4433 47.2474C22.5009 47.1836 22.5801 47.1434 22.6656 47.1346H30.0138C30.0622 47.1296 30.111 47.1348 30.1572 47.1499C30.2034 47.165 30.246 47.1897 30.2821 47.2222C30.3181 47.2548 30.347 47.2946 30.3667 47.339C30.3865 47.3834 30.3967 47.4315 30.3967 47.4801C30.3967 47.5287 30.3865 47.5768 30.3667 47.6212C30.347 47.6656 30.3181 47.7054 30.2821 47.7379C30.246 47.7705 30.2034 47.7951 30.1572 47.8102C30.111 47.8253 30.0622 47.8305 30.0138 47.8255H30.0211Z" fill="#D8D8D8"/>
<path d="M31.3597 44.1843C31.1001 44.1843 30.8464 44.1074 30.6305 43.9631C30.4147 43.8189 30.2465 43.614 30.1471 43.3741C30.0478 43.1343 30.0218 42.8704 30.0725 42.6158C30.1231 42.3613 30.2481 42.1274 30.4316 41.9439C30.6152 41.7603 30.849 41.6353 31.1036 41.5847C31.3582 41.534 31.6221 41.56 31.8619 41.6594C32.1017 41.7587 32.3067 41.9269 32.4509 42.1427C32.5951 42.3586 32.6721 42.6123 32.6721 42.8719C32.6721 43.22 32.5338 43.5538 32.2877 43.7999C32.0416 44.0461 31.7078 44.1843 31.3597 44.1843ZM31.3597 42.2504C31.2368 42.2504 31.1166 42.2869 31.0144 42.3551C30.9122 42.4234 30.8325 42.5205 30.7855 42.6341C30.7385 42.7476 30.7262 42.8726 30.7501 42.9931C30.7741 43.1137 30.8333 43.2244 30.9202 43.3113C31.0071 43.3983 31.1179 43.4575 31.2384 43.4814C31.359 43.5054 31.484 43.4931 31.5975 43.4461C31.7111 43.399 31.8081 43.3194 31.8764 43.2172C31.9447 43.115 31.9812 42.9948 31.9812 42.8719C31.9812 42.7071 31.9157 42.549 31.7991 42.4324C31.6826 42.3159 31.5245 42.2504 31.3597 42.2504Z" fill="white"/>
<path d="M34.6755 44.1843C34.4159 44.1843 34.1622 44.1074 33.9463 43.9631C33.7305 43.8189 33.5623 43.614 33.4629 43.3741C33.3636 43.1343 33.3376 42.8704 33.3883 42.6158C33.4389 42.3613 33.5639 42.1274 33.7474 41.9439C33.931 41.7603 34.1648 41.6353 34.4194 41.5847C34.674 41.534 34.9379 41.56 35.1777 41.6594C35.4175 41.7587 35.6225 41.9269 35.7667 42.1427C35.9109 42.3586 35.9879 42.6123 35.9879 42.8719C35.9879 43.0442 35.954 43.2149 35.888 43.3741C35.8221 43.5334 35.7254 43.6781 35.6035 43.7999C35.4816 43.9218 35.337 44.0185 35.1777 44.0844C35.0185 44.1504 34.8478 44.1843 34.6755 44.1843ZM34.6755 42.2504C34.5526 42.2504 34.4324 42.2869 34.3302 42.3551C34.228 42.4234 34.1483 42.5205 34.1013 42.6341C34.0543 42.7476 34.0419 42.8726 34.0659 42.9931C34.0899 43.1137 34.1491 43.2244 34.236 43.3113C34.3229 43.3983 34.4337 43.4575 34.5542 43.4814C34.6748 43.5054 34.7997 43.4931 34.9133 43.4461C35.0269 43.399 35.1239 43.3194 35.1922 43.2172C35.2605 43.115 35.297 42.9948 35.297 42.8719C35.297 42.7903 35.2809 42.7095 35.2497 42.6341C35.2184 42.5586 35.1726 42.4901 35.1149 42.4324C35.0572 42.3747 34.9887 42.3289 34.9133 42.2977C34.8379 42.2665 34.7571 42.2504 34.6755 42.2504Z" fill="white"/>
<path d="M18.323 44.1843C18.0634 44.1843 17.8097 44.1074 17.5939 43.9631C17.378 43.8189 17.2098 43.614 17.1105 43.3741C17.0111 43.1343 16.9852 42.8704 17.0358 42.6158C17.0864 42.3613 17.2114 42.1274 17.395 41.9439C17.5785 41.7603 17.8124 41.6353 18.067 41.5847C18.3216 41.534 18.5854 41.56 18.8253 41.6594C19.0651 41.7587 19.2701 41.9269 19.4143 42.1427C19.5585 42.3586 19.6355 42.6123 19.6355 42.8719C19.6355 43.22 19.4972 43.5538 19.251 43.7999C19.0049 44.0461 18.6711 44.1843 18.323 44.1843ZM18.323 42.2504C18.2001 42.2504 18.0799 42.2869 17.9777 42.3551C17.8755 42.4234 17.7959 42.5205 17.7488 42.6341C17.7018 42.7476 17.6895 42.8726 17.7135 42.9931C17.7374 43.1137 17.7966 43.2244 17.8836 43.3113C17.9705 43.3983 18.0812 43.4575 18.2018 43.4814C18.3223 43.5054 18.4473 43.4931 18.5608 43.4461C18.6744 43.399 18.7715 43.3194 18.8398 43.2172C18.9081 43.115 18.9445 42.9948 18.9445 42.8719C18.9445 42.7903 18.9284 42.7095 18.8972 42.6341C18.866 42.5586 18.8202 42.4901 18.7625 42.4324C18.7048 42.3747 18.6362 42.3289 18.5608 42.2977C18.4854 42.2665 18.4046 42.2504 18.323 42.2504Z" fill="white"/>
<path d="M26.3514 42.1371C26.2614 42.1318 26.1765 42.0934 26.1131 42.0293C26.0496 41.9652 26.0121 41.8799 26.0078 41.7898V40.6382C26.0166 40.5527 26.0568 40.4735 26.1206 40.416C26.1844 40.3584 26.2673 40.3265 26.3532 40.3265C26.4392 40.3265 26.5221 40.3584 26.5859 40.416C26.6497 40.4735 26.6899 40.5527 26.6987 40.6382V41.7898C26.6943 41.8805 26.6563 41.9663 26.5921 42.0305C26.5279 42.0947 26.4421 42.1327 26.3514 42.1371Z" fill="white"/>
<path d="M44.7838 117.217H16.4512V69.0257H44.7838V117.217ZM16.8131 116.851H44.4182V69.3913H16.8168L16.8131 116.851Z" fill="white" stroke="white" stroke-width="0.0498434" stroke-miterlimit="10"/>
<path d="M20.5138 87.3702H18.3239V94.0713H20.5138V87.3702Z" fill="#D8D8D8"/>
<path d="M155.756 107.071L155.39 107.119C155.365 106.929 153.113 88.0755 157.759 72.6699C162.38 57.3557 159.2 47.5983 159.167 47.5033L159.532 47.3826C159.565 47.4813 162.782 57.352 158.129 72.7759C153.489 88.1048 155.738 106.885 155.756 107.071Z" fill="#D8D8D8"/>
<path d="M159.825 49.6015C159.017 48.6385 157.92 47.9616 156.696 47.6713L156.78 47.3057C158.086 47.6114 159.259 48.3292 160.125 49.353L159.825 49.6015Z" fill="#D8D8D8"/>
<path d="M161.416 51.1811L160.346 51.7853L160.53 52.1099L161.599 51.5058L161.416 51.1811Z" fill="#D8D8D8"/>
<path d="M159.423 59.8531C158.485 57.7366 156.76 56.0687 154.612 55.2029L154.751 54.8373C156.99 55.7462 158.787 57.4916 159.76 59.7032L159.423 59.8531Z" fill="#D8D8D8"/>
<path d="M158.418 71.6322H158.052C158.037 70.874 157.855 70.1285 157.518 69.4491C157.181 68.7697 156.698 68.1731 156.104 67.7022L156.334 67.4097C156.972 67.9157 157.49 68.5568 157.85 69.287C158.211 70.0171 158.404 70.8181 158.418 71.6322Z" fill="#D8D8D8"/>
<path d="M157.585 74.6446L157.237 74.5093C157.429 74.0316 157.716 73.5984 158.082 73.2368C158.448 72.8751 158.885 72.5927 159.365 72.4072L159.497 72.7728C159.067 72.9377 158.676 73.1889 158.347 73.5108C158.018 73.8327 157.759 74.2186 157.585 74.6446Z" fill="#D8D8D8"/>
<path d="M155.161 93.7539L154.872 93.5163C155.329 92.9642 155.672 90.8768 155.855 89.7544C155.903 89.4839 155.939 89.2572 155.968 89.0891L156.334 89.1622C156.305 89.3231 156.265 89.5497 156.221 89.8129C155.95 91.491 155.639 93.1763 155.161 93.7539Z" fill="#D8D8D8"/>
<path d="M154.944 99.7525C154.686 99.0168 154.202 98.3818 153.56 97.9391C152.918 97.4963 152.152 97.2685 151.373 97.2885L151.354 96.9229C152.215 96.9012 153.06 97.1527 153.769 97.6414C154.478 98.1301 155.013 98.8308 155.299 99.6429L154.944 99.7525Z" fill="#D8D8D8"/>
<path d="M157.801 103.65L155.166 106.599L155.444 106.848L158.079 103.898L157.801 103.65Z" fill="#D8D8D8"/>
<path d="M159.668 84.428C160.264 86.3619 156.096 90.0433 156.096 90.0433C156.096 90.0433 150.58 89.3524 149.984 87.4185C149.388 85.4845 150.781 82.3222 153.457 81.496C156.133 80.6698 159.069 82.4941 159.668 84.428Z" fill="#E7E7E7"/>
<path d="M164.293 60.9575C163.763 63.0121 159.818 64.4707 159.818 64.4707C159.818 64.4707 157.066 61.2865 157.596 59.232C158.126 57.1774 160.305 54.9181 162.154 55.3933C164.004 55.8686 164.82 58.9029 164.293 60.9575Z" fill="#EFEFEF"/>
<path d="M148.455 91.6476C150.934 92.6128 152.451 96.9961 152.451 96.9961C152.451 96.9961 148.368 99.1896 145.893 98.2354C143.418 97.2812 140.775 94.5503 141.506 92.7517C142.237 90.953 145.977 90.6862 148.455 91.6476Z" fill="white"/>
<path d="M153.888 67.5378C154.389 67.9577 154.962 68.2812 155.581 68.492C155.892 68.5933 156.225 68.6073 156.543 68.5326C156.861 68.4578 157.153 68.2971 157.387 68.0679C157.917 67.4574 157.774 66.5106 157.442 65.7757C156.78 64.3134 154.338 61.8384 152.462 62.5476C149.753 63.5749 152.682 66.6385 153.888 67.5378Z" fill="white"/>
<path d="M159.431 71.2554C159.065 71.6941 158.699 72.2498 158.893 72.7799C159.004 73.0057 159.186 73.1885 159.412 73.2997C159.637 73.4108 159.893 73.444 160.14 73.3941C160.631 73.2797 161.09 73.0546 161.481 72.7361C162.436 72.0744 164.406 70.6815 163.145 69.38C161.843 68.0237 160.18 70.3269 159.431 71.2554Z" fill="#EFEFEF"/>
<path d="M151.431 52.7166C151.225 52.729 151.027 52.8064 150.867 52.9377C150.707 53.069 150.592 53.2475 150.539 53.4478C150.459 53.923 150.85 54.3361 151.234 54.6323C152.181 55.3634 155.036 57.3376 155.672 55.4329C156.272 53.6269 152.693 52.5777 151.431 52.7166Z" fill="#D8D8D8"/>
<path d="M156.692 46.4509C156.104 46.5094 155.515 46.2937 154.927 46.3303C154.338 46.3668 153.68 46.8458 153.83 47.427C153.98 48.0083 154.616 48.1399 155.161 48.1582C156.092 48.2157 157.027 48.1518 157.943 47.9681C158.16 47.949 158.362 47.8469 158.506 47.6829C158.743 47.3174 158.367 46.8604 157.961 46.7361C157.555 46.6118 157.095 46.652 156.725 46.44L156.692 46.4509Z" fill="white"/>
<path d="M162.443 50.501C163.035 50.5192 163.605 50.267 164.198 50.267C164.79 50.267 165.473 50.6947 165.382 51.2797C165.291 51.8646 164.651 52.0401 164.103 52.1095C163.178 52.2321 162.241 52.2321 161.317 52.1095C161.097 52.1045 160.888 52.0155 160.732 51.8609C160.472 51.5283 160.82 51.0311 161.218 50.8812C161.617 50.7313 162.074 50.7423 162.428 50.5156L162.443 50.501Z" fill="#E7E7E7"/>
<path d="M161.862 94.0462C161.996 93.9074 162.175 93.8206 162.367 93.8012C162.493 93.8149 162.611 93.8707 162.702 93.9595C162.793 94.0483 162.851 94.1651 162.868 94.2911C162.894 94.5389 162.861 94.7894 162.772 95.0223C162.37 96.3603 157.874 106.07 156.839 104.326C156.229 103.295 157.731 99.8809 158.173 98.9157C159.034 97.0434 160.293 95.3815 161.862 94.0462Z" fill="#E7E7E7"/>
<path d="M159.171 46.8206C159.536 46.02 159.902 45.1828 160.633 44.6673C161.364 44.1519 162.461 44.1117 162.995 44.8209C163.572 45.6142 162.995 46.817 162.11 47.241C161.225 47.6651 160.187 47.5372 159.214 47.3982L159.193 46.9668L159.171 46.8206Z" fill="white"/>
<path d="M162.271 119.911C157.497 120.865 152.582 120.865 147.808 119.911L144.039 103.317H166.051L162.271 119.911Z" fill="#E7E7E7"/>
<path d="M91.3943 135.999C130.542 135.999 162.277 134.147 162.277 131.861C162.277 129.576 130.542 127.723 91.3943 127.723C52.2469 127.723 20.5117 129.576 20.5117 131.861C20.5117 134.147 52.2469 135.999 91.3943 135.999Z" fill="white"/>
<path d="M135.225 17.4356C135.225 26.6848 126.513 34.1756 117.271 34.1756C116.957 34.1756 116.646 34.1683 116.339 34.1537C112.065 33.9171 108.044 32.0526 105.102 28.9433C102.16 25.8341 100.521 21.7161 100.521 17.4356C100.521 13.1551 102.16 9.03717 105.102 5.92789C108.044 2.81861 112.065 0.954131 116.339 0.717561C116.646 0.717561 116.957 0.691971 117.271 0.691971C126.513 0.691971 135.225 8.19005 135.225 17.4356Z" fill="#639EFF"/>
<path opacity="0.3" d="M133.36 17.436C133.36 26.3708 125.146 33.6678 116.339 34.154C112.065 33.9175 108.044 32.053 105.102 28.9437C102.16 25.8344 100.521 21.7165 100.521 17.436C100.521 13.1555 102.16 9.03752 105.102 5.92824C108.044 2.81895 112.065 0.954481 116.339 0.717911C125.146 1.20413 133.36 8.5048 133.36 17.436Z" fill="white"/>
<g opacity="0.8">
<path opacity="0.8" d="M130.841 17.4348C130.841 24.8561 123.61 30.87 116.189 30.87C112.625 30.87 109.208 29.4545 106.689 26.9349C104.169 24.4153 102.754 20.998 102.754 17.4348C102.754 13.8716 104.169 10.4543 106.689 7.93475C109.208 5.41518 112.625 3.99969 116.189 3.99969C123.61 3.99969 130.841 10.0135 130.841 17.4348Z" fill="white"/>
</g>
<path d="M129.072 14.9905L128.41 15.0088C128.37 14.932 128.44 14.8041 128.535 14.6761L128.56 14.6505C128.664 14.5291 128.776 14.4155 128.897 14.3105H128.919L121.077 14.497L121.3 14.8625C121.42 15.071 121.486 15.3058 121.494 15.5462L121.545 17.7141C121.578 19.0375 123.051 20.0831 124.835 20.0428H125.303C126.605 20.0099 127.701 19.4067 128.191 18.5805C128.339 18.5493 128.477 18.4856 128.597 18.3941L129.833 17.4253C129.917 17.3644 129.986 17.2848 130.034 17.1928C130.082 17.1009 130.108 16.999 130.11 16.8952L130.081 15.7253C130.07 15.283 129.613 14.9649 129.072 14.9905ZM129.781 16.7416C129.781 17.1072 129.781 17.0816 129.445 17.3412L128.824 17.7689C128.788 17.7904 128.747 17.8024 128.706 17.8035C128.664 17.8047 128.623 17.795 128.586 17.7755C128.549 17.756 128.518 17.7273 128.496 17.6922C128.473 17.6571 128.46 17.6168 128.458 17.5752C128.458 17.0085 128.458 16.0617 128.432 15.5645C128.449 15.4653 128.503 15.3762 128.583 15.3152C128.663 15.2542 128.764 15.2257 128.864 15.2354H129.138C129.482 15.2354 129.763 15.4292 129.77 15.6814L129.781 16.7416Z" fill="white"/>
<g opacity="0.8">
<path opacity="0.8" d="M129.072 14.9896L128.41 15.0079C128.37 14.9312 128.44 14.8032 128.535 14.6752L128.56 14.6497C128.664 14.5283 128.776 14.4146 128.897 14.3097H128.919L121.077 14.4961L121.3 14.8617C121.42 15.0702 121.486 15.305 121.494 15.5453L121.545 17.7132C121.578 19.0366 123.051 20.0822 124.835 20.042H125.303C126.605 20.0091 127.701 19.4059 128.191 18.5797C128.339 18.5485 128.477 18.4848 128.597 18.3932L129.833 17.4244C129.917 17.3635 129.986 17.2839 130.034 17.192C130.082 17.1 130.108 16.9981 130.11 16.8943L130.081 15.7245C130.07 15.2821 129.613 14.9641 129.072 14.9896ZM129.781 16.7408C129.781 17.1064 129.781 17.0808 129.445 17.3403L128.824 17.7681C128.788 17.7896 128.747 17.8015 128.706 17.8027C128.664 17.8038 128.623 17.7942 128.586 17.7747C128.549 17.7552 128.518 17.7264 128.496 17.6913C128.473 17.6562 128.46 17.6159 128.458 17.5743C128.458 17.0077 128.458 16.0608 128.432 15.5636C128.449 15.4644 128.503 15.3754 128.583 15.3143C128.663 15.2533 128.764 15.2248 128.864 15.2346H129.138C129.482 15.2346 129.763 15.4283 129.77 15.6806L129.781 16.7408Z" fill="white"/>
</g>
<path opacity="0.8" d="M126.491 11.7609C126.491 12.4409 125.669 12.9929 124.663 12.9929C123.658 12.9929 122.836 12.4409 122.836 11.7609C122.836 11.0809 123.658 10.5252 124.663 10.5252C125.669 10.5252 126.491 11.0773 126.491 11.7609Z" fill="white"/>
<path opacity="0.8" d="M122.152 9.69246C122.531 9.69246 122.839 9.38475 122.839 9.00516C122.839 8.62558 122.531 8.31787 122.152 8.31787C121.772 8.31787 121.464 8.62558 121.464 9.00516C121.464 9.38475 121.772 9.69246 122.152 9.69246Z" fill="white"/>
<path d="M117.622 19.256C117.424 19.4535 117.172 19.5879 116.897 19.6422C116.623 19.6965 116.339 19.6683 116.08 19.5611C115.822 19.4539 115.601 19.2726 115.446 19.04C115.291 18.8074 115.208 18.534 115.208 18.2543C115.208 17.9747 115.291 17.7013 115.446 17.4687C115.601 17.2361 115.822 17.0548 116.08 16.9476C116.339 16.8404 116.623 16.8121 116.897 16.8664C117.172 16.9207 117.424 17.0551 117.622 17.2526C117.754 17.3836 117.86 17.5395 117.932 17.7115C118.004 17.8834 118.041 18.068 118.041 18.2543C118.041 18.4407 118.004 18.6252 117.932 18.7972C117.86 18.9691 117.754 19.1251 117.622 19.256Z" fill="#639EFF"/>
<path d="M116.138 18.5105L115.889 10.263L116.354 9.41853L116.741 10.2374L116.968 17.7099L126.345 19.8742L126.974 20.2544L126.18 20.7187L116.138 18.5105Z" fill="#639EFF"/>
<path d="M74.6856 122.2C74.6856 122.2 35.3636 134.735 97.9768 133.072C97.9768 133.072 89.0639 120.672 74.6856 122.2Z" fill="#263238"/>
<path d="M127.026 88.9502C121.4 81.4265 108.922 82.0882 101.49 76.1292C97.0702 72.5831 94.9864 67.1432 91.7218 62.6027C85.569 54.07 73.4098 46.996 62.1096 50.3813C58.5759 51.4797 55.4201 53.5451 52.9993 56.344C49.4203 60.4312 47.4937 65.5676 46.3092 70.7113C44.0719 80.4012 44.2779 90.4953 46.9088 100.086C48.8354 107.05 52.1256 113.77 57.3644 118.932C60.0162 121.487 63.0036 123.668 66.2444 125.417L66.2992 125.45C67.8712 126.324 69.4981 127.117 71.1541 127.852C71.995 128.217 72.8395 128.583 73.7132 128.93C81.4928 132.06 90.0438 134.121 98.5289 132.988C103.665 132.271 108.588 130.46 112.965 127.679C117.341 124.897 121.071 121.208 123.9 116.862C126.338 113.129 128.084 108.988 129.055 104.637C129.187 104.034 129.307 103.427 129.421 102.809C130.188 98.0459 129.94 92.8583 127.026 88.9502Z" fill="#639EFF"/>
<path opacity="0.2" d="M129.026 104.653C128.055 109.004 126.309 113.145 123.872 116.878C122.607 116.337 120.113 105.179 107.545 103.878C107.026 103.823 100.5 103.253 100.35 102.858C101.728 101.684 111.65 99.8053 113.343 99.0084C120.132 95.8022 126.431 100.741 128.332 103.479C128.589 103.855 128.821 104.247 129.026 104.653Z" fill="black"/>
<path opacity="0.2" d="M67.9043 52.9001C60.8888 52.9879 55.2917 58.8482 55.2186 65.8637C55.087 78.2934 55.639 98.6856 66.4017 103.698C84.2019 111.985 126.836 102.4 123.155 92.9862C119.473 83.5725 96.9936 90.1346 91.2211 77.0029C86.8926 67.1542 79.135 52.7612 67.9043 52.9001Z" fill="black"/>
<path opacity="0.2" d="M58.3547 76.3196C58.7956 76.0525 59.3185 75.9546 59.8262 76.0441C60.3338 76.1335 60.7917 76.4042 61.1149 76.8058C63.3083 79.4892 63.7763 83.5472 62.0544 86.5815C66.8472 85.4445 68.8469 94.3099 66.3061 97.9145C67.9512 95.4468 68.5983 92.0396 67.2384 89.4038C64.99 85.0387 66.222 82.6917 66.222 82.6917C64.555 82.3919 63.8311 80.7907 62.9318 78.7909C62.0325 76.7912 60.2704 75.72 61.6157 73.362C60.8706 73.1359 60.187 72.7427 59.6169 72.2124C59.0467 71.6822 58.605 71.0288 58.3255 70.3021C57.375 67.8893 57.5943 66.4343 56.3404 67.0338C56.3257 67.0229 60.0364 74.3601 58.3547 76.3196Z" fill="black"/>
<path opacity="0.2" d="M64.914 71.3106C65.3508 71.036 65.8723 70.929 66.3819 71.0097C66.8915 71.0904 67.3546 71.3532 67.6851 71.7493C69.9115 74.3925 70.4635 78.4468 68.7819 81.5067C73.5564 80.2857 75.7279 89.1181 73.231 92.752C74.8359 90.2551 75.4245 86.8406 74.017 84.2266C71.6955 79.9018 73.5746 78.7429 73.5746 78.7429C71.9039 78.4724 70.4599 75.6793 69.5276 73.6942C68.5954 71.7091 66.8114 70.6745 68.1128 68.2909C67.3616 68.0796 66.6687 67.6993 66.0871 67.1791C65.5054 66.6589 65.0504 66.0125 64.7568 65.2895C63.7624 62.8949 63.9489 61.4326 62.7169 62.0541C62.7278 62.0504 66.5628 69.3219 64.914 71.3106Z" fill="black"/>
<path opacity="0.2" d="M73.7207 95.9806C71.0447 98.101 68.3686 100.784 68.1164 104.188C77.0381 95.2556 87.9841 88.6088 100.024 84.8121C98.01 84.0809 95.9481 84.8998 93.9813 85.408C91.5011 86.1043 89.0835 87.0068 86.7537 88.106C82.0997 90.1803 77.7218 92.8255 73.7207 95.9806Z" fill="black"/>
<path opacity="0.2" d="M53.0103 100.353C52.9851 101.148 53.22 101.93 53.6793 102.579C53.9791 103 54.4836 103.387 54.9771 103.234C55.4707 103.08 55.6717 102.444 55.7595 101.91C55.888 101.31 55.9177 100.692 55.8472 100.082C55.8083 99.7763 55.7023 99.4825 55.5368 99.2221C55.3712 98.9618 55.1501 98.7412 54.8894 98.5762C54.623 98.4212 54.3105 98.3652 54.0069 98.418C53.7033 98.4709 53.428 98.6291 53.2297 98.865C52.9335 99.2817 52.9774 99.8411 53.0322 100.353" fill="white"/>
<path opacity="0.2" d="M80.9266 118.588C83.2335 119.027 85.6097 119.36 87.9312 118.983C88.7172 118.855 86.3775 117.993 84.948 117.634C78.3676 115.975 69.0196 113.657 59.5511 104.166C57.2881 101.896 58.3337 106.195 59.1599 107.252C62.4136 111.416 67.2027 114.245 72.0759 116.117C74.9478 117.199 77.9095 118.026 80.9266 118.588Z" fill="white"/>
<path opacity="0.2" d="M75.5261 101.577C78.1327 103.467 81.4156 104.601 84.5267 103.771C81.9092 102.378 80.0922 99.8153 78.8895 97.1026C77.6867 94.39 77.0031 91.4836 76.0562 88.676C73.9883 82.571 70.6645 76.9669 66.2988 72.2248C65.8345 71.7239 62.2482 63.2059 61.5718 63.1145C60.7968 63.0121 59.2723 67.6185 61.506 72.0968C61.506 72.0968 63.3595 71.9799 64.7049 76.9079C65.7834 80.8489 64.7743 82.048 64.7743 82.048C65.1801 82.8486 66.0027 80.5345 68.474 86.0218C70.7077 90.9864 70.0095 96.9893 70.0095 96.9893C71.8191 100.744 73.6763 100.236 75.5261 101.577Z" fill="black"/>
<path d="M129.128 86.278C129.091 86.2856 129.053 86.2829 129.018 86.2699C128.983 86.257 128.953 86.2344 128.93 86.2048C128.24 85.2834 127.431 84.4574 126.525 83.7481C126.485 83.7166 126.46 83.6708 126.455 83.6207C126.449 83.5707 126.464 83.5206 126.495 83.4813C126.511 83.4614 126.53 83.4449 126.552 83.4326C126.574 83.4204 126.598 83.4127 126.623 83.4099C126.647 83.4072 126.673 83.4095 126.697 83.4167C126.721 83.424 126.743 83.436 126.762 83.452C127.694 84.1826 128.526 85.0318 129.237 85.9782C129.267 86.0192 129.279 86.0699 129.271 86.1198C129.264 86.1696 129.237 86.2145 129.197 86.2451C129.176 86.2597 129.152 86.2708 129.128 86.278Z" fill="#639EFF"/>
<path d="M124.474 82.3145C124.427 82.325 124.378 82.3185 124.335 82.2962C121.648 80.7644 118.417 79.7372 115.291 78.7684C111.09 77.4523 106.747 76.0923 103.431 73.4309C103.412 73.4156 103.395 73.3964 103.383 73.3745C103.371 73.3527 103.363 73.3286 103.36 73.3036C103.357 73.2787 103.36 73.2535 103.367 73.2295C103.374 73.2055 103.386 73.1833 103.402 73.164C103.434 73.1248 103.48 73.0997 103.53 73.0942C103.58 73.0887 103.63 73.1033 103.669 73.1348C106.93 75.7487 111.237 77.1013 115.404 78.4064C118.548 79.3935 121.802 80.4135 124.525 81.9636C124.565 81.9794 124.598 82.0079 124.619 82.0447C124.641 82.0814 124.649 82.1243 124.643 82.1664C124.637 82.2085 124.617 82.2474 124.587 82.2769C124.556 82.3064 124.517 82.3248 124.474 82.3291V82.3145Z" fill="#639EFF"/>
<path d="M99.6403 57.1561C101.965 55.4817 100.54 53.0872 97.7027 52.1988H97.6771C92.5334 52.356 87.5395 53.248 80.4216 52.8386C78.1477 52.7106 81.8547 55.9058 82.0192 58.1761C82.1216 59.5799 81.7487 60.991 83.2732 60.9654C88.2926 60.8704 99.6403 57.1561 99.6403 57.1561Z" fill="#639EFF"/>
<path opacity="0.7" d="M99.6403 57.1561C101.965 55.4817 100.54 53.0872 97.7027 52.1988H97.6771C92.5334 52.356 87.5395 53.248 80.4216 52.8386C78.1477 52.7106 81.8547 55.9058 82.0192 58.1761C82.1216 59.5799 81.7487 60.991 83.2732 60.9654C88.2926 60.8704 99.6403 57.1561 99.6403 57.1561Z" fill="white"/>
<mask id="mask0_4039_6163" style="mask-type:luminance" maskUnits="userSpaceOnUse" x="79" y="52" width="22" height="9">
<path d="M99.6418 57.1535C101.967 55.4791 100.541 53.0845 97.7042 52.1962H97.6786C92.5349 52.3534 87.541 53.2454 80.4231 52.8359C78.1492 52.708 81.8562 55.9032 82.0207 58.1734C82.1231 59.5773 81.7502 60.9884 83.2747 60.9628C88.2941 60.8678 99.6418 57.1535 99.6418 57.1535Z" fill="white"/>
</mask>
<g mask="url(#mask0_4039_6163)">
<path opacity="0.1" d="M83.1423 58.6053C83.6285 58.704 95.5282 58.4225 96.954 57.9875C98.3797 57.5525 88.18 61.1571 83.2739 60.9597C78.3678 60.7623 83.1423 58.6053 83.1423 58.6053Z" fill="black"/>
</g>
<path d="M92.1525 82.2246C88.7198 83.9906 85.0273 85.1976 81.2143 85.8L72.9997 87.1015C72.4403 85.4783 70.3931 82.0967 66.6129 73.0522C65.1506 68.3983 63.4836 67.2029 63.4433 59.6792V59.639C63.3286 59.3516 63.2727 59.0441 63.2789 58.7348C63.2851 58.4254 63.3532 58.1204 63.4794 57.8379C63.6055 57.5553 63.787 57.3009 64.0131 57.0897C64.2393 56.8785 64.5055 56.7148 64.796 56.6083H64.8362C65.9915 56.144 67.4501 55.5956 68.9051 55.146C71.6756 54.2901 74.4897 53.5823 77.3355 53.0256C78.2935 52.8837 79.2591 52.7982 80.2272 52.7697C80.8753 52.7228 81.5241 52.8496 82.1069 53.1368C82.6897 53.424 83.1854 53.8614 83.543 54.4038C85.6963 57.9207 89.1693 65.1483 92.1525 82.2246Z" fill="#639EFF"/>
<g opacity="0.7">
<path d="M92.1536 82.2245C88.721 83.9906 85.0285 85.1975 81.2154 85.7999L73.0008 87.1014C72.4415 85.4782 70.3942 82.0966 66.6141 73.0521C65.1518 68.3982 63.4847 67.2028 63.4445 59.6791V59.6389C63.3298 59.3515 63.2739 59.0441 63.28 58.7347C63.2862 58.4253 63.3544 58.1203 63.4805 57.8378C63.6066 57.5552 63.7881 57.3008 64.0143 57.0896C64.2404 56.8784 64.5066 56.7147 64.7972 56.6082H64.8374C65.9926 56.1439 67.4513 55.5956 68.9063 55.1459C71.6768 54.29 74.4909 53.5822 77.3366 53.0255C78.2947 52.8836 79.2603 52.7981 80.2284 52.7696C80.8764 52.7228 81.5252 52.8495 82.108 53.1367C82.6909 53.4239 83.1866 53.8613 83.5442 54.4038C85.6975 57.9207 89.1705 65.1482 92.1536 82.2245Z" fill="white"/>
</g>
<path opacity="0.1" d="M70.5318 78.9088C70.3343 78.8576 70.5647 80.6307 73.248 81.8517C75.9314 83.0728 87.6849 76.7336 88.7304 74.2952C88.7304 74.2952 76.8965 80.5685 70.5318 78.9088Z" fill="black"/>
<path opacity="0.1" d="M70.6637 75.8091C69.2672 71.4879 67.4832 67.1923 66.1196 64.0849C66.1373 64.0255 66.1606 63.968 66.189 63.913C66.6533 62.8455 68.1047 63.2769 69.9216 65.4521C70.6667 66.3615 71.3 67.3569 71.808 68.417C72.6817 70.1937 74.6486 73.7143 74.6924 74.3723C74.8789 77.1069 72.7841 78.3133 70.6637 75.8091Z" fill="black"/>
<path d="M74.8788 56.06C70.7623 57.3395 68.6127 55.2155 68.6127 55.2155C69.9836 52.9233 68.0351 48.1561 66.73 45.5934L69.4535 46.8985L73.1679 48.6752C73.1813 49.1098 73.2203 49.5431 73.2848 49.9731C73.3271 50.2809 73.3968 50.5843 73.4932 50.8797L73.5115 50.9309C73.9283 52.1665 74.8642 53.0659 76.9443 53.0366C76.9443 53.0476 78.3884 54.9559 74.8788 56.06Z" fill="#F7978D"/>
<path opacity="0.2" d="M73.1673 48.6753C73.1807 49.1098 73.2198 49.5432 73.2843 49.9731C73.3265 50.2809 73.3962 50.5843 73.4927 50.8797L73.5109 50.9309C72.3045 50.9784 70.4912 50.1522 70.0269 49.0189C69.8713 48.6488 69.7573 48.2626 69.687 47.8673L73.1673 48.6753Z" fill="black"/>
<path d="M67.681 55.1206L68.8473 54.3199C70.5984 55.3627 72.5687 55.9824 74.6015 56.1296C73.9306 56.8773 73.4967 57.8074 73.3549 58.802C68.5255 58.4108 67.681 55.1206 67.681 55.1206Z" fill="#639EFF"/>
<path d="M76.8715 52.8172L75.6102 52.8684C75.6102 52.8684 75.7528 55.486 74.6049 56.1587C76.9702 56.4548 77.5953 57.4272 77.5953 57.4272C80.4286 55.6359 76.8715 52.8172 76.8715 52.8172Z" fill="#639EFF"/>
<g opacity="0.9">
<path d="M67.68 55.12L68.8462 54.3194C70.5973 55.3622 72.5677 55.9818 74.6005 56.129C73.9295 56.8768 73.4957 57.8069 73.3538 58.8014C68.5245 58.4103 67.68 55.12 67.68 55.12Z" fill="white"/>
<path d="M76.8704 52.8176L75.6092 52.8688C75.6092 52.8688 75.7518 55.4863 74.6038 56.159C76.9692 56.4551 77.5943 57.4276 77.5943 57.4276C80.4276 55.6362 76.8704 52.8176 76.8704 52.8176Z" fill="white"/>
</g>
<path d="M72.5792 42.2842C72.5792 42.2842 74.2097 43.2859 74.7727 41.2423C73.1678 39.992 73.6759 39.5386 73.1129 38.2884C72.8392 37.5409 72.3673 36.882 71.7478 36.3823C71.1283 35.8826 70.3844 35.5608 69.596 35.4514L68.3384 36.1095C64.222 39.2425 72.5792 42.2842 72.5792 42.2842Z" fill="#263238"/>
<path d="M63.3046 42.0031C63.0121 40.7078 63.246 39.3493 63.9548 38.2264C64.6637 37.1034 65.7895 36.308 67.0847 36.0149C71.0001 35.0278 74.9009 39.1406 76.3413 42.3029C76.7319 43.1157 76.8927 44.0198 76.8063 44.9174C76.7199 45.815 76.3896 46.6719 75.8511 47.3953C75.3127 48.1186 74.5866 48.6809 73.7515 49.0211C72.9164 49.3614 72.0041 49.4668 71.1134 49.3257C68.3606 48.9236 67.0299 47.1322 64.5037 44.2917C63.911 43.6466 63.4976 42.8576 63.3046 42.0031Z" fill="#F7978D"/>
<path d="M74.945 43.3523C74.945 43.3523 73.9214 43.5497 71.3513 44.7671C72.0277 45.4983 72.8941 45.9296 74.2138 45.3045C74.5565 45.1617 74.8298 44.8906 74.9753 44.5491C75.1208 44.2075 75.127 43.8226 74.9925 43.4766C74.945 43.4364 74.945 43.3925 74.945 43.3523Z" fill="#263238"/>
<mask id="mask1_4039_6163" style="mask-type:luminance" maskUnits="userSpaceOnUse" x="71" y="43" width="5" height="3">
<path d="M74.9452 43.3521C74.9452 43.3521 73.9215 43.5496 71.3515 44.7669C72.0278 45.4981 72.8942 45.9295 74.214 45.3043C74.5567 45.1616 74.83 44.8905 74.9755 44.5489C75.121 44.2074 75.1272 43.8225 74.9927 43.4764C74.9452 43.4362 74.9452 43.3924 74.9452 43.3521Z" fill="white"/>
</mask>
<g mask="url(#mask1_4039_6163)">
<path d="M73.3295 44.9452C73.8242 44.6735 74.3983 44.5829 74.9527 44.6892C74.7877 44.9812 74.5306 45.21 74.2215 45.34C73.7277 45.6108 73.1547 45.7 72.602 45.5922C72.7634 45.2998 73.0202 45.0714 73.3295 44.9452Z" fill="#FF5652"/>
</g>
<path d="M74.7982 43.3852C74.8216 43.498 74.8139 43.6151 74.7759 43.7239C74.7379 43.8328 74.671 43.9292 74.5825 44.003C73.8183 44.3604 73.0228 44.6468 72.2062 44.8585C72.0766 44.9022 71.9377 44.9111 71.8036 44.8842C71.6694 44.8572 71.5448 44.7954 71.4421 44.7049C72.5204 44.1685 73.6433 43.7269 74.7982 43.3852Z" fill="white"/>
<path d="M67.852 48.0608C67.852 48.0608 67.6619 44.0101 67.0039 42.9975C66.6531 42.3679 66.1222 41.8574 65.4792 41.5317C64.8363 41.206 64.1107 41.0799 63.3956 41.1696L62.2988 42.047C58.0142 46.9567 67.852 48.0608 67.852 48.0608Z" fill="#263238"/>
<path d="M73.6099 42.7746C73.8477 42.6768 74.0611 42.5278 74.2348 42.3383C74.4086 42.1487 74.5385 41.9232 74.6153 41.6778C73.6258 41.4039 72.6778 40.9982 71.7966 40.4714L73.6099 42.7746Z" fill="#FF5652"/>
<path d="M64.9345 45.0779C65.7058 44.5222 67.128 45.1108 67.8847 45.6957C68.7146 46.3501 68.8425 47.2933 67.8481 47.5236C67.0376 47.6815 66.1974 47.5523 65.4719 47.158C64.5543 46.701 64.1631 45.6335 64.9345 45.0779Z" fill="#F7978D"/>
<path d="M69.8272 41.4106C69.9917 41.2936 70.2952 41.4106 70.467 41.6372C70.6388 41.8639 70.6607 42.1527 70.4999 42.2734C70.339 42.394 70.0685 42.2734 69.8601 42.0504C69.6517 41.8273 69.6664 41.5276 69.8272 41.4106Z" fill="#263238"/>
<path d="M72.521 39.2175C72.6855 39.1005 72.9706 39.1992 73.1608 39.4442C73.3509 39.6891 73.3764 39.9852 73.2119 40.1022C73.0474 40.2192 72.7586 40.1022 72.5685 39.8719C72.3784 39.6416 72.3565 39.3381 72.521 39.2175Z" fill="#263238"/>
<path d="M71.3253 38.5078C71.3545 38.5149 71.385 38.5149 71.4142 38.508C71.4435 38.501 71.4706 38.4871 71.4935 38.4676C71.6559 38.3032 71.8534 38.1777 72.0712 38.1005C72.289 38.0232 72.5214 37.9963 72.7511 38.0216C72.7737 38.027 72.7971 38.0279 72.82 38.0242C72.8429 38.0205 72.8649 38.0123 72.8846 38.0001C72.9043 37.9878 72.9214 37.9718 72.9349 37.9529C72.9484 37.934 72.958 37.9126 72.9631 37.89C72.9729 37.843 72.9639 37.794 72.9379 37.7537C72.9119 37.7133 72.871 37.6848 72.8242 37.6743C72.5368 37.6341 72.2439 37.6611 71.9687 37.7531C71.6934 37.845 71.4431 37.9995 71.2376 38.2044C71.2041 38.2386 71.1853 38.2845 71.1853 38.3324C71.1853 38.3802 71.2041 38.4261 71.2376 38.4603C71.2626 38.4829 71.2927 38.4992 71.3253 38.5078Z" fill="#263238"/>
<path d="M68.6898 41.4796C68.7168 41.4673 68.7406 41.4491 68.7596 41.4263C68.7786 41.4035 68.7922 41.3768 68.7994 41.348C68.8281 41.1172 68.9088 40.8959 69.0354 40.7009C69.1621 40.5058 69.3314 40.3421 69.5306 40.222C69.5518 40.2125 69.571 40.1989 69.5869 40.182C69.6028 40.1651 69.6152 40.1452 69.6234 40.1234C69.6316 40.1016 69.6353 40.0784 69.6345 40.0552C69.6336 40.032 69.6281 40.0091 69.6183 39.988C69.5964 39.9459 69.5592 39.9138 69.5144 39.8982C69.4695 39.8825 69.4204 39.8846 69.3771 39.904C69.1257 40.0488 68.9113 40.2499 68.7508 40.4916C68.5903 40.7333 68.4881 41.0089 68.4521 41.2968C68.4458 41.3443 68.4584 41.3923 68.4871 41.4305C68.5158 41.4688 68.5584 41.4943 68.6057 41.5016C68.6349 41.5002 68.6636 41.4928 68.6898 41.4796Z" fill="#263238"/>
<path d="M71.3224 36.7204C71.147 36.3073 71.0409 35.291 70.5437 34.7646C70.2937 34.5018 69.9907 34.2952 69.6548 34.1584C69.3188 34.0216 68.9577 33.9578 68.5952 33.9712C67.5204 34.0151 66.5991 34.7207 65.7583 35.397C65.5494 35.5454 65.3687 35.7299 65.2245 35.9417C65.153 36.0487 65.1109 36.1726 65.1026 36.3009C65.0942 36.4293 65.1199 36.5576 65.177 36.6729C65.2502 36.7794 65.3504 36.8647 65.4672 36.9199C65.5841 36.9751 65.7136 36.9984 65.8424 36.9873C66.0983 36.9873 67.97 36.5413 68.7963 36.4536C69.1436 36.4097 70.5986 36.3073 71.3224 36.7204Z" fill="#263238"/>
<path d="M60.036 40.1236C59.2793 41.6956 59.9849 44.0024 61.2681 45.0772C61.7928 45.4836 62.3396 45.8607 62.9059 46.2069L64.4084 43.5052C65.1753 42.432 65.532 41.1193 65.4137 39.8056C65.3833 39.3993 65.4368 38.9911 65.5709 38.6064C65.7372 38.1468 66.0101 37.7332 66.3672 37.3995C66.7244 37.0658 67.1556 36.8217 67.6255 36.6871C67.9911 36.5921 68.4481 36.4459 68.4298 36.0803C68.4115 35.7147 67.6657 35.3491 67.1649 35.2248C65.1981 34.6838 62.3575 35.287 60.036 40.1236Z" fill="#263238"/>
<path opacity="0.2" d="M65.407 39.6011C65.5203 37.7074 66.533 37.042 68.0684 36.5375C67.8664 36.2073 67.5417 35.9706 67.1654 35.8794C65.5386 35.4992 65.0743 38.4349 65.407 39.6011Z" fill="black"/>
<path d="M68.5476 35.9962C68.7201 36.0624 68.8743 36.169 68.9973 36.3069C69.3068 36.6657 69.5415 37.0827 69.6878 37.5335C69.8341 37.9842 69.8889 38.4596 69.8491 38.9318C70.0165 38.336 70.0341 37.7081 69.9002 37.1039C69.851 36.7219 69.7373 36.3511 69.5639 36.0071C69.3845 35.663 69.0795 35.4012 68.7121 35.276C68.5277 35.2174 68.3303 35.2138 68.1439 35.2658C67.9575 35.3177 67.7904 35.4229 67.6629 35.5684C67.5203 35.7585 67.385 36.2594 67.6958 36.2996C68.0065 36.3398 68.1162 35.8499 68.5476 35.9962Z" fill="#263238"/>
<path d="M68.112 61.9278C68.2948 62.3994 68.5361 62.9771 68.7591 63.5181L69.4537 65.1559C69.9363 66.2527 70.4188 67.3129 70.9379 68.3657C71.4571 69.4186 71.9981 70.4386 72.5867 71.3964C73.1231 72.3269 73.7344 73.2121 74.4146 74.0432C74.7108 74.4088 76.0049 73.3961 80.4869 73.462C81.5208 73.4505 82.5485 73.3017 83.5432 73.0196C84.0952 72.8734 84.64 72.7015 85.17 72.5114L85.9707 72.2117L86.7311 71.9046L88.5407 74.3722C88.2446 74.6464 87.9996 74.8512 87.7401 75.1034C87.486 75.3397 87.216 75.5583 86.9321 75.7578C86.3705 76.1682 85.7845 76.5442 85.1774 76.8838C83.8942 77.615 74.5755 81.852 72.1663 80.5177C69.7681 78.6898 66.7155 73.6959 65.4652 71.2356C64.84 70.0474 64.2697 68.8776 63.747 67.6967C63.4801 67.0789 63.2388 66.5013 62.9939 65.8871C62.95 65.7774 62.8622 65.5581 62.7416 65.2656C61.5571 62.3044 61.2244 58.8679 64.0175 56.9706L65.9185 56.2394L68.112 61.9278Z" fill="#639EFF"/>
<path opacity="0.7" d="M68.112 61.9278C68.2948 62.3994 68.5361 62.9771 68.7591 63.5181L69.4537 65.1559C69.9363 66.2527 70.4188 67.3129 70.9379 68.3657C71.4571 69.4186 71.9981 70.4386 72.5867 71.3964C73.1231 72.3269 73.7344 73.2121 74.4146 74.0432C74.7108 74.4088 76.0049 73.3961 80.4869 73.462C81.5208 73.4505 82.5485 73.3017 83.5432 73.0196C84.0952 72.8734 84.64 72.7015 85.17 72.5114L85.9707 72.2117L86.7311 71.9046L88.5407 74.3722C88.2446 74.6464 87.9996 74.8512 87.7401 75.1034C87.486 75.3397 87.216 75.5583 86.9321 75.7578C86.3705 76.1682 85.7845 76.5442 85.1774 76.8838C83.8942 77.615 74.5755 81.852 72.1663 80.5177C69.7681 78.6898 66.7155 73.6959 65.4652 71.2356C64.84 70.0474 64.2697 68.8776 63.747 67.6967C63.4801 67.0789 63.2388 66.5013 62.9939 65.8871C62.95 65.7774 62.8622 65.5581 62.7416 65.2656C61.5571 62.3044 61.2244 58.8679 64.0175 56.9706L65.9185 56.2394L68.112 61.9278Z" fill="white"/>
<path d="M89.202 70.888C89.6114 71.111 90.211 71.1768 90.518 70.8295C91.092 70.2409 91.5234 69.3891 91.2967 68.5848C90.4047 67.4881 89.7832 69.3343 89.2824 69.7803C88.9607 70.0691 88.7413 70.643 89.202 70.888Z" fill="#F7978D"/>
<path d="M90.8803 69.5241C90.9273 69.6949 90.9948 69.8594 91.0813 70.0139C91.1982 70.2426 91.3352 70.4604 91.4908 70.6647C91.7089 70.9256 91.9639 71.1534 92.2476 71.341L92.4413 71.458C92.6131 71.5705 92.7941 71.6683 92.9824 71.7505C93.3393 71.9258 93.7264 72.0313 94.123 72.0612C94.1608 72.0625 94.1978 72.0727 94.2309 72.0912C94.264 72.1096 94.2921 72.1357 94.3131 72.1672C94.3716 72.2513 94.4447 72.3281 94.5105 72.4085C94.5763 72.4889 94.6238 72.5474 94.6714 72.6205C94.7343 72.729 94.8323 72.8128 94.9492 72.8582C95.1721 72.9435 95.4088 72.9869 95.6475 72.9861C96.2702 73.0114 96.8935 72.9536 97.501 72.8143C97.817 72.7519 98.1294 72.6726 98.4369 72.5767C98.7688 72.4713 99.0926 72.3418 99.4056 72.1892C99.658 72.0737 99.893 71.9236 100.104 71.7432C100.192 71.6695 100.257 71.5717 100.29 71.4617C100.29 71.3995 100.29 71.341 100.323 71.2825C100.363 71.107 100.404 70.9352 100.44 70.7634C100.502 70.4965 100.539 70.2296 100.575 69.9591C100.612 69.6886 100.652 69.4327 100.663 69.1731C100.674 68.9136 100.685 68.6357 100.663 68.3615C100.663 67.9082 100.634 67.4512 100.605 66.9942C100.605 66.7822 100.546 66.5409 100.521 66.3252C100.5 66.1522 100.453 65.9834 100.382 65.8244C100.328 65.7138 100.249 65.6173 100.151 65.5429C99.8738 65.347 99.5591 65.2102 99.2265 65.1407C98.9133 65.072 98.5929 65.0413 98.2723 65.0493C98.1371 65.0493 98.0055 65.0493 97.8702 65.0493C96.4619 65.0862 95.078 65.4253 93.8122 66.0437C93.5584 66.1655 93.314 66.3061 93.0811 66.4642C92.8788 66.6098 92.6947 66.7792 92.5327 66.9687C92.4059 67.1064 92.3099 67.2697 92.2512 67.4476C92.2311 67.5165 92.22 67.5878 92.2183 67.6596C92.2183 67.7437 92.2183 67.7473 92.1306 67.7473C91.9105 67.7334 91.6907 67.7786 91.494 67.8782C91.2973 67.9779 91.1308 68.1283 91.0119 68.314C90.9179 68.4713 90.8593 68.6472 90.8401 68.8295C90.8045 69.0613 90.8182 69.2979 90.8803 69.5241ZM94.0901 67.9119C93.8071 67.9116 93.5251 67.8797 93.2492 67.8168C93.1793 67.81 93.1119 67.7875 93.0518 67.751C93.1026 67.5745 93.1969 67.4136 93.326 67.2831C93.4114 67.1982 93.503 67.12 93.6002 67.0491C93.7688 66.9249 93.9473 66.8149 94.134 66.7201C94.424 66.5811 94.7218 66.4591 95.026 66.3545C95.3175 66.2519 95.614 66.164 95.9143 66.0913C96.1922 66.0181 96.4225 65.9816 96.7076 65.9304C97.0707 65.8726 97.437 65.8372 97.8044 65.8244C98.1713 65.8062 98.5391 65.8283 98.9011 65.8902C99.2105 65.9374 99.5025 66.0633 99.7493 66.2558C99.7493 66.2558 99.7493 66.2558 99.731 66.2814L99.6652 66.3508C99.6025 66.4118 99.5353 66.468 99.4641 66.519C99.1995 66.7157 98.9123 66.8802 98.6087 67.0089C98.5392 67.0418 98.4698 67.0747 98.4003 67.1003L98.2833 67.1478C98.0566 67.2428 97.8227 67.3196 97.5924 67.3927C97.362 67.4658 97.139 67.528 96.9051 67.5792L96.3713 67.7071C96.3581 67.7107 96.3443 67.7107 96.3311 67.7071L96.2324 67.7327C95.9948 67.7729 95.7535 67.8095 95.5012 67.8424C95.249 67.8753 95.0772 67.9045 94.8578 67.9228C94.6385 67.9411 94.3387 67.9155 94.0901 67.9119ZM91.9441 69.1219C91.9461 69.0167 91.98 68.9145 92.0414 68.829C92.1028 68.7434 92.1887 68.6786 92.2878 68.643L92.4377 68.5991C92.5583 68.9391 92.7009 69.2535 92.8325 69.5716C93.0006 69.9957 93.1981 70.3978 93.4101 70.8C93.5061 70.9987 93.6291 71.1833 93.7757 71.3483L93.4942 71.1984C93.2262 71.0345 92.9804 70.8366 92.763 70.6098C92.5229 70.3862 92.3149 70.1303 92.1452 69.8494C92.0057 69.633 91.9355 69.3792 91.9441 69.1219Z" fill="#639EFF"/>
<path opacity="0.8" d="M90.8803 69.5241C90.9273 69.6949 90.9948 69.8594 91.0813 70.0139C91.1982 70.2426 91.3352 70.4604 91.4908 70.6647C91.7089 70.9256 91.9639 71.1534 92.2476 71.341L92.4413 71.458C92.6131 71.5705 92.7941 71.6683 92.9824 71.7505C93.3393 71.9258 93.7264 72.0313 94.123 72.0612C94.1608 72.0625 94.1978 72.0727 94.2309 72.0912C94.264 72.1096 94.2921 72.1357 94.3131 72.1672C94.3716 72.2513 94.4447 72.3281 94.5105 72.4085C94.5763 72.4889 94.6238 72.5474 94.6714 72.6205C94.7343 72.729 94.8323 72.8128 94.9492 72.8582C95.1721 72.9435 95.4088 72.9869 95.6475 72.9861C96.2702 73.0114 96.8935 72.9536 97.501 72.8143C97.817 72.7519 98.1294 72.6726 98.4369 72.5767C98.7688 72.4713 99.0926 72.3418 99.4056 72.1892C99.658 72.0737 99.893 71.9236 100.104 71.7432C100.192 71.6695 100.257 71.5717 100.29 71.4617C100.29 71.3995 100.29 71.341 100.323 71.2825C100.363 71.107 100.404 70.9352 100.44 70.7634C100.502 70.4965 100.539 70.2296 100.575 69.9591C100.612 69.6886 100.652 69.4327 100.663 69.1731C100.674 68.9136 100.685 68.6357 100.663 68.3615C100.663 67.9082 100.634 67.4512 100.605 66.9942C100.605 66.7822 100.546 66.5409 100.521 66.3252C100.5 66.1522 100.453 65.9834 100.382 65.8244C100.328 65.7138 100.249 65.6173 100.151 65.5429C99.8738 65.347 99.5591 65.2102 99.2265 65.1407C98.9133 65.072 98.5929 65.0413 98.2723 65.0493C98.1371 65.0493 98.0055 65.0493 97.8702 65.0493C96.4619 65.0862 95.078 65.4253 93.8122 66.0437C93.5584 66.1655 93.314 66.3061 93.0811 66.4642C92.8788 66.6098 92.6947 66.7792 92.5327 66.9687C92.4059 67.1064 92.3099 67.2697 92.2512 67.4476C92.2311 67.5165 92.22 67.5878 92.2183 67.6596C92.2183 67.7437 92.2183 67.7473 92.1306 67.7473C91.9105 67.7334 91.6907 67.7786 91.494 67.8782C91.2973 67.9779 91.1308 68.1283 91.0119 68.314C90.9179 68.4713 90.8593 68.6472 90.8401 68.8295C90.8045 69.0613 90.8182 69.2979 90.8803 69.5241ZM94.0901 67.9119C93.8071 67.9116 93.5251 67.8797 93.2492 67.8168C93.1793 67.81 93.1119 67.7875 93.0518 67.751C93.1026 67.5745 93.1969 67.4136 93.326 67.2831C93.4114 67.1982 93.503 67.12 93.6002 67.0491C93.7688 66.9249 93.9473 66.8149 94.134 66.7201C94.424 66.5811 94.7218 66.4591 95.026 66.3545C95.3175 66.2519 95.614 66.164 95.9143 66.0913C96.1922 66.0181 96.4225 65.9816 96.7076 65.9304C97.0707 65.8726 97.437 65.8372 97.8044 65.8244C98.1713 65.8062 98.5391 65.8283 98.9011 65.8902C99.2105 65.9374 99.5025 66.0633 99.7493 66.2558C99.7493 66.2558 99.7493 66.2558 99.731 66.2814L99.6652 66.3508C99.6025 66.4118 99.5353 66.468 99.4641 66.519C99.1995 66.7157 98.9123 66.8802 98.6087 67.0089C98.5392 67.0418 98.4698 67.0747 98.4003 67.1003L98.2833 67.1478C98.0566 67.2428 97.8227 67.3196 97.5924 67.3927C97.362 67.4658 97.139 67.528 96.9051 67.5792L96.3713 67.7071C96.3581 67.7107 96.3443 67.7107 96.3311 67.7071L96.2324 67.7327C95.9948 67.7729 95.7535 67.8095 95.5012 67.8424C95.249 67.8753 95.0772 67.9045 94.8578 67.9228C94.6385 67.9411 94.3387 67.9155 94.0901 67.9119ZM91.9441 69.1219C91.9461 69.0167 91.98 68.9145 92.0414 68.829C92.1028 68.7434 92.1887 68.6786 92.2878 68.643L92.4377 68.5991C92.5583 68.9391 92.7009 69.2535 92.8325 69.5716C93.0006 69.9957 93.1981 70.3978 93.4101 70.8C93.5061 70.9987 93.6291 71.1833 93.7757 71.3483L93.4942 71.1984C93.2262 71.0345 92.9804 70.8366 92.763 70.6098C92.5229 70.3862 92.3149 70.1303 92.1452 69.8494C92.0057 69.633 91.9355 69.3792 91.9441 69.1219Z" fill="white"/>
<path opacity="0.7" d="M92.8577 67.9995C93.4719 68.3651 94.6856 68.3833 96.6195 67.9483C98.5534 67.5132 99.6319 66.9649 100.038 66.3799C100.138 66.2026 100.165 65.9934 100.114 65.7963C100.063 65.5993 99.9372 65.4297 99.7635 65.3234C99.6009 65.2527 99.432 65.1977 99.259 65.1589C98.9458 65.0902 98.6254 65.0595 98.3048 65.0675C98.1696 65.0675 98.038 65.0675 97.9027 65.0675C96.4952 65.1044 95.1122 65.4449 93.8484 66.0655C93.5939 66.1847 93.3494 66.324 93.1172 66.4823C92.9963 66.5693 92.8814 66.6646 92.7736 66.7675C92.6861 66.8476 92.6177 66.9464 92.5736 67.0565C92.5296 67.1667 92.5109 67.2853 92.5189 67.4037C92.527 67.5221 92.5617 67.6371 92.6203 67.7403C92.679 67.8434 92.7601 67.932 92.8577 67.9995ZM93.0661 67.7692C93.1174 67.594 93.2116 67.4344 93.3402 67.3049C93.4252 67.2199 93.5156 67.1406 93.6108 67.0672C93.7801 66.9423 93.9599 66.8322 94.1482 66.7382C94.4356 66.5962 94.7324 66.4741 95.0365 66.3726C95.3363 66.2666 95.6178 66.1825 95.9249 66.1058C96.232 66.029 96.4331 65.9961 96.7219 65.9486C97.0848 65.8894 97.4511 65.8528 97.8186 65.8389C98.1856 65.8221 98.5534 65.8454 98.9154 65.9083C99.225 65.9545 99.5174 66.0805 99.7635 66.2739C99.7635 66.2739 99.7635 66.2739 99.7452 66.2959C99.724 66.322 99.7008 66.3464 99.6758 66.369C99.6156 66.4299 99.5508 66.4861 99.482 66.5371C99.2147 66.7318 98.9266 66.8961 98.6229 67.027L98.4109 67.1184L98.2939 67.1659C98.069 67.2578 97.8396 67.3383 97.6066 67.4072C97.3799 67.4803 97.1533 67.5425 96.9193 67.5937C96.7401 67.6339 96.5537 67.6851 96.3819 67.7216H96.3453H96.327L96.243 67.7399H96.2247C95.9871 67.7838 95.7494 67.8167 95.4935 67.8496C95.2376 67.8825 95.0658 67.9117 94.8501 67.93C94.6344 67.9483 94.3493 67.93 94.1189 67.93C93.8361 67.9277 93.5543 67.8958 93.2781 67.835C93.1956 67.826 93.1166 67.7972 93.0478 67.7509L93.0661 67.7692Z" fill="white"/>
<path d="M93.0514 67.751C93.1115 67.7874 93.1789 67.8099 93.2489 67.8168C93.5247 67.8796 93.8067 67.9115 94.0897 67.9118C94.3383 67.9118 94.5905 67.9118 94.8209 67.9118C95.0512 67.9118 95.2522 67.8643 95.4643 67.8314C95.6763 67.7985 95.9468 67.7619 96.1954 67.7217L96.2941 67.6961C96.3073 67.6997 96.3212 67.6997 96.3344 67.6961L96.8681 67.5682C97.1021 67.517 97.3324 67.4512 97.5554 67.3817C97.7784 67.3122 98.0197 67.2318 98.2464 67.1368L98.3633 67.0892C98.4328 67.0637 98.5023 67.0308 98.5717 66.9978C98.8753 66.8692 99.1625 66.7047 99.4272 66.508C99.4983 66.457 99.5655 66.4008 99.6283 66.3398L99.6941 66.2703C99.6941 66.2703 99.6941 66.2703 99.7123 66.2448C99.4656 66.0523 99.1735 65.9264 98.8642 65.8792C98.5021 65.8173 98.1343 65.7952 97.7674 65.8134C97.4 65.8262 97.0338 65.8616 96.6707 65.9194C96.3855 65.9706 96.1552 66.0071 95.8774 66.0802C95.577 66.153 95.2805 66.2408 94.989 66.3435C94.6849 66.4481 94.3871 66.5701 94.097 66.709C93.9103 66.8038 93.7318 66.9139 93.5632 67.0381C93.4661 67.109 93.3744 67.1872 93.2891 67.272C93.1716 67.4096 93.0899 67.5742 93.0514 67.751Z" fill="#263238"/>
<path opacity="0.3" d="M92.9268 67.1519C92.977 67.0658 93.0358 66.9849 93.1023 66.9106C93.3728 66.6072 94.0052 66.1137 95.3835 65.6603C95.8526 65.504 96.3365 65.3962 96.8275 65.3386C97.6699 65.2041 98.5316 65.2591 99.3501 65.4995C99.4424 65.5395 99.5305 65.5885 99.6133 65.6457C99.7037 65.7069 99.7681 65.7997 99.7938 65.9058C99.8195 66.012 99.8046 66.1239 99.7522 66.2197C99.7286 66.2506 99.7029 66.2799 99.6754 66.3074C98.8053 65.7042 96.8458 66.0003 96.206 66.121C95.5663 66.2416 93.6799 66.8521 93.1534 67.7807C93.1162 67.7695 93.0806 67.7535 93.0474 67.7332C92.9581 67.669 92.8962 67.5737 92.8738 67.466C92.8515 67.3584 92.8704 67.2463 92.9268 67.1519Z" fill="black"/>
<path d="M92.7891 69.4622C92.7891 69.4622 93.5202 71.1621 93.3411 71.3669L92.5295 72.2918C92.5295 72.2918 90.7016 74.1014 88.8006 74.4414C88.4753 74.4935 88.1418 74.4447 87.845 74.3016C87.5483 74.1584 87.3025 73.9278 87.1408 73.6408L86.9763 73.3483C86.903 73.2161 86.8441 73.0764 86.8008 72.9315C86.5742 72.1309 86.8301 71.663 87.4845 71.1621L89.3563 69.6559C89.5258 69.5277 89.7291 69.4514 89.9412 69.4366L92.1932 68.7822C92.4929 68.7676 92.6246 68.9833 92.7891 69.4622Z" fill="#F7978D"/>
<path d="M85.9815 72.2113C86.4173 72.4845 86.7632 72.8799 86.9759 73.3483C87.3415 74.1233 87.7509 75.0921 87.7509 75.0921L88.5515 74.3609C88.5515 74.3609 88.2993 72.9864 87.6083 72.2954L86.9174 71.6045C86.6311 71.8439 86.3168 72.0476 85.9815 72.2113Z" fill="#639EFF"/>
<path opacity="0.9" d="M85.9815 72.2113C86.4173 72.4845 86.7632 72.8799 86.9759 73.3483C87.3415 74.1233 87.7509 75.0921 87.7509 75.0921L88.5515 74.3609C88.5515 74.3609 88.2993 72.9864 87.6083 72.2954L86.9174 71.6045C86.6311 71.8439 86.3168 72.0476 85.9815 72.2113Z" fill="white"/>
<path d="M85.0134 41.9988C85.1056 41.8627 85.1521 41.7007 85.1461 41.5364C85.1402 41.3722 85.0822 41.214 84.9805 41.0848C84.7899 40.8671 84.5466 40.702 84.2739 40.6054C84.0012 40.5087 83.7083 40.4837 83.4231 40.5328C82.6627 41.1506 83.9386 41.5893 84.2457 41.9403C84.4504 42.156 84.8416 42.3095 85.0134 41.9988Z" fill="#F7978D"/>
<path d="M79.4494 40.3755C77.6215 41.0664 76.5248 42.6275 77.0037 43.8668C77.4826 45.1061 79.3288 45.5485 81.1457 44.8612C82.9627 44.1739 84.0704 42.6092 83.5951 41.3699C83.1199 40.1306 81.2737 39.6882 79.4494 40.3755ZM80.1002 42.2838C79.5445 42.4922 79.0327 42.5032 78.9559 42.3058C78.8791 42.1084 79.2703 41.7757 79.826 41.5746C80.3817 41.3735 80.8971 41.3553 80.9739 41.5527C81.0507 41.7501 80.6559 42.0718 80.1002 42.2838Z" fill="#639EFF"/>
<path d="M77.5917 44.2687C77.6904 44.1993 77.6904 44.0494 77.7635 43.9507C77.8177 43.8944 77.8884 43.8569 77.9654 43.8438C78.0423 43.8306 78.1215 43.8425 78.1913 43.8776C78.3271 43.9522 78.4589 44.034 78.5861 44.1225C78.8166 44.2391 79.0828 44.2635 79.3306 44.1908C79.5785 44.1182 79.7894 43.9539 79.9205 43.7313C79.9569 43.6493 80.0049 43.573 80.063 43.5047C80.2458 43.3182 80.5566 43.4169 80.8198 43.4389C81.0359 43.4504 81.2509 43.401 81.4402 43.2963C81.6296 43.1915 81.7858 43.0358 81.8909 42.8466C81.9401 42.7231 82.0106 42.6093 82.0993 42.5103C82.3187 42.3238 82.6587 42.4335 82.9255 42.3348C83.0579 42.2706 83.1727 42.1752 83.26 42.0567C83.3472 41.9382 83.4043 41.8003 83.4264 41.6548C83.4629 41.5049 83.4849 41.3514 83.5141 41.2015C82.9438 40.1048 81.1854 39.7392 79.4489 40.3753C77.9646 40.9383 76.9592 42.0862 76.8898 43.161C76.8742 43.4008 76.9091 43.6411 76.9922 43.8666C77.0402 43.9834 77.1002 44.0949 77.1713 44.1993C77.2135 44.2296 77.2589 44.2553 77.3066 44.276C77.3509 44.2986 77.4003 44.3098 77.45 44.3085C77.4998 44.3072 77.5485 44.2935 77.5917 44.2687ZM79.8254 41.5634C80.3847 41.3514 80.8966 41.3441 80.9733 41.5415C81.0501 41.7389 80.6553 42.0716 80.0996 42.2727C79.5439 42.4737 79.0321 42.492 78.9553 42.2946C78.8786 42.0972 79.2697 41.7755 79.8254 41.5634Z" fill="#263238"/>
<path d="M83.7921 40.9683V40.9866C83.2234 41.0704 82.6473 41.0924 82.0739 41.0524C81.9106 41.0367 81.7459 41.0551 81.5901 41.1064C81.4343 41.1577 81.2908 41.2408 81.1688 41.3504C81.0468 41.46 80.9489 41.5938 80.8813 41.7433C80.8137 41.8927 80.7779 42.0546 80.7761 42.2186V42.4635C80.7855 42.7649 80.8854 43.0565 81.0627 43.3003C81.2401 43.5441 81.4867 43.729 81.7705 43.8308L85.0973 44.4998L87.4077 44.5912L88.2632 42.745L83.7921 40.9683Z" fill="#F7978D"/>
<path opacity="0.3" d="M93.6701 51.1569L94.7266 52.8898C95.5145 54.1936 96.6924 55.2167 98.0936 55.8145C98.6791 55.8582 99.2659 55.7499 99.7972 55.5001C100.437 55.1052 93.6701 51.1569 93.6701 51.1569Z" fill="black"/>
<path d="M87.1336 44.9412C87.1336 44.9412 95.882 57.8718 98.7079 57.2028C101.417 56.5594 104.349 53.9126 87.905 42.075L87.1336 44.9412Z" fill="#639EFF"/>
<path opacity="0.7" d="M87.1336 44.9412C87.1336 44.9412 95.882 57.8718 98.7079 57.2028C101.417 56.5594 104.349 53.9126 87.905 42.075L87.1336 44.9412Z" fill="white"/>
<path d="M87.1919 45.0988C87.2653 44.483 87.5198 43.9029 87.9231 43.4318C87.99 43.3551 88.0608 43.2819 88.1351 43.2124C88.2125 43.1071 88.3021 43.0114 88.402 42.9273C88.4976 42.8488 88.6034 42.7836 88.7164 42.7335L88.7749 42.6787L87.8865 42.0828C87.2226 42.6309 86.6777 43.3089 86.2853 44.0752C86.1687 44.41 86.1118 44.7627 86.1171 45.1171C86.3036 45.1171 86.4827 45.0733 86.6692 45.0623C86.8442 45.0594 87.0191 45.0716 87.1919 45.0988Z" fill="#639EFF"/>
<path opacity="0.9" d="M87.1919 45.0988C87.2653 44.483 87.5198 43.9029 87.9231 43.4318C87.99 43.3551 88.0608 43.2819 88.1351 43.2124C88.2125 43.1071 88.3021 43.0114 88.402 42.9273C88.4976 42.8488 88.6034 42.7836 88.7164 42.7335L88.7749 42.6787L87.8865 42.0828C87.2226 42.6309 86.6777 43.3089 86.2853 44.0752C86.1687 44.41 86.1118 44.7627 86.1171 45.1171C86.3036 45.1171 86.4827 45.0733 86.6692 45.0623C86.8442 45.0594 87.0191 45.0716 87.1919 45.0988Z" fill="white"/>
<path opacity="0.2" d="M140.834 110.707L141.901 111.31L144.11 107.987L143.104 107.197L140.834 110.707Z" fill="black"/>
<path d="M143.276 106.933L140.553 111.137C140.553 111.137 128.854 108.625 115.792 96.225L115.832 96.002C108.33 97.8299 87.0168 97.6325 83.5291 93.8596C81.7195 91.8401 80.5825 89.308 80.2755 86.6138L92.1861 82.724C92.1861 82.724 108.974 84.4532 117.144 88.3905C125.721 91.6515 143.276 106.933 143.276 106.933Z" fill="#639EFF"/>
<path d="M143.276 106.933L140.553 111.137C140.553 111.137 128.854 108.625 115.792 96.225L115.832 96.002C108.33 97.8299 87.0168 97.6325 83.5291 93.8596C81.7195 91.8401 80.5825 89.308 80.2755 86.6138L92.1861 82.724C92.1861 82.724 108.974 84.4532 117.144 88.3905C125.721 91.6515 143.276 106.933 143.276 106.933Z" fill="#639EFF"/>
<path opacity="0.6" d="M143.276 106.934L140.553 111.138C140.553 111.138 128.854 108.626 115.792 96.2258L115.832 96.0028C108.33 97.8307 87.0168 97.6333 83.5291 93.8605C81.7195 91.841 80.5825 89.3089 80.2755 86.6147L92.1861 82.7249C92.1861 82.7249 108.974 84.4541 117.144 88.3914C125.721 91.6524 143.276 106.934 143.276 106.934Z" fill="black"/>
<mask id="mask2_4039_6163" style="mask-type:luminance" maskUnits="userSpaceOnUse" x="80" y="82" width="64" height="30">
<path d="M143.276 106.933L140.553 111.137C140.553 111.137 128.854 108.625 115.792 96.225L115.832 96.002C108.33 97.8299 87.0168 97.6325 83.5291 93.8596C81.7195 91.8401 80.5825 89.308 80.2755 86.6138L92.1861 82.724C92.1861 82.724 108.974 84.4532 117.144 88.3905C125.721 91.6515 143.276 106.933 143.276 106.933Z" fill="white"/>
</mask>
<g mask="url(#mask2_4039_6163)">
<path opacity="0.3" d="M117.719 97.9941C121.443 100.581 125.414 102.793 129.574 104.596C133.638 106.276 137.801 107.702 142.041 108.866L143.291 106.933C143.291 106.933 110.977 92.7005 117.719 97.9941Z" fill="black"/>
</g>
<path d="M72.934 86.9255C72.934 86.9255 73.2192 94.5662 75.9464 98.0648L94.5472 88.344L94.3717 87.7408C94.1386 86.9273 94.1457 86.0638 94.3922 85.2543C94.6387 84.4448 95.114 83.7238 95.7609 83.1783C94.4522 83.0028 93.0227 83.0394 91.9955 81.9865C91.9955 81.9865 88.4712 85.1488 72.934 86.9255Z" fill="#639EFF"/>
<g opacity="0.6">
<path d="M72.9343 86.9247C72.9343 86.9247 73.2195 94.5654 75.9467 98.064L94.5475 88.3432L94.372 87.74C94.1389 86.9265 94.146 86.063 94.3925 85.2535C94.639 84.4439 95.1143 83.723 95.7612 83.1775C94.4524 83.002 93.023 83.0386 91.9957 81.9857C91.9957 81.9857 88.4715 85.148 72.9343 86.9247Z" fill="black"/>
</g>
<path d="M144.048 102.861L144.911 103.278L145.229 103.431L148.164 104.85L148.457 104.992L148.19 108.557L148.179 108.714L147.909 108.63L146.72 108.264L144.231 107.5L143.682 107.332L142.513 106.974L142.739 106.367L144.044 102.865L144.048 102.861Z" fill="#FFC3BD"/>
<mask id="mask3_4039_6163" style="mask-type:luminance" maskUnits="userSpaceOnUse" x="142" y="102" width="7" height="7">
<path d="M144.049 102.862L144.911 103.278L145.229 103.432L148.165 104.85L148.458 104.993L148.191 108.557L148.18 108.715L147.909 108.631L146.721 108.265L144.231 107.501L143.683 107.333L142.513 106.975L142.74 106.368L144.045 102.865L144.049 102.862Z" fill="white"/>
</mask>
<g mask="url(#mask3_4039_6163)">
<path opacity="0.2" d="M144.854 103.304L143.322 107.332L143.242 107.541L141.995 107.139L142.233 106.481L143.593 102.678L144.514 103.135L144.854 103.304Z" fill="black"/>
</g>
<path d="M155.008 101.87L154.566 102.729V102.766C154.496 102.887 154.332 103.205 154.112 103.618L153.908 103.983C153.802 104.181 153.692 104.396 153.571 104.616C153.491 104.769 153.414 104.916 153.334 105.058C153.162 105.384 153.005 105.691 152.855 105.983C151.908 107.855 151.637 108.608 150.913 110.103C150.828 110.277 150.678 110.41 150.495 110.473C150.312 110.536 150.111 110.524 149.937 110.44L147.331 108.944L146.845 108.655C146.812 108.636 146.783 108.609 146.76 108.578C146.737 108.547 146.721 108.512 146.712 108.475C146.703 108.438 146.701 108.399 146.707 108.361C146.713 108.323 146.726 108.286 146.746 108.253L148.208 104.842C148.527 104.444 148.909 104.1 149.338 103.822C150.676 103.161 151.747 102.898 153.878 100.167C154.306 99.5781 155.812 100.28 155.008 101.87Z" fill="#263238"/>
<path opacity="0.2" d="M147.331 108.944C147.331 108.944 152.69 106.293 153.327 105.094C153.155 105.42 152.998 105.727 152.848 106.019C151.901 107.891 151.63 108.644 150.906 110.139C150.821 110.313 150.671 110.446 150.488 110.509C150.305 110.572 150.104 110.56 149.93 110.476L147.331 108.944Z" fill="black"/>
<path d="M144.162 102.553L144.048 102.86L142.74 106.385L142.513 106.992L142.323 107.503L141.051 107.101L133.479 104.699C127.996 103.716 117.704 98.0128 117.704 98.0128C110.426 101.57 84.4073 105.73 79.9838 102.652C77.6733 100.99 75.9371 98.6509 75.0155 95.9583L80.0642 93.2237C86.8428 89.6034 94.413 87.7193 102.098 87.74C107.819 87.74 114.268 88.0288 118.531 89.0342C128.047 90.438 144.162 102.553 144.162 102.553Z" fill="#639EFF"/>
<path d="M146.775 110.081L145.755 113.489L144.49 112.776L140.834 110.707L143.104 107.197L143.642 107.621L144.11 107.987L146.53 109.888L146.775 110.081Z" fill="#FFC3BD"/>
<mask id="mask4_4039_6163" style="mask-type:luminance" maskUnits="userSpaceOnUse" x="140" y="107" width="7" height="7">
<path d="M146.774 110.082L145.754 113.489L144.489 112.777L140.834 110.707L143.104 107.198L143.641 107.622L144.109 107.987L146.529 109.888L146.774 110.082Z" fill="white"/>
</mask>
<g mask="url(#mask4_4039_6163)">
<path opacity="0.2" d="M143.488 107.493L142.706 106.901L140.604 110.1L140.238 110.655L141.339 111.259L141.459 111.087L143.773 107.712L143.488 107.493Z" fill="black"/>
</g>
<path d="M153.513 108.52C152.442 109.836 151.407 110.991 150.632 111.942C149.367 113.492 148.958 114.135 147.982 115.375C147.866 115.518 147.699 115.611 147.516 115.633C147.332 115.655 147.148 115.604 147.002 115.492L144.505 113.166C144.454 113.115 144.425 113.045 144.425 112.973C144.425 112.9 144.454 112.83 144.505 112.779L146.541 109.898C146.922 109.594 147.349 109.354 147.806 109.185C149.188 108.838 150.237 108.82 152.778 106.721C152.915 106.627 153.082 106.588 153.246 106.611C153.411 106.634 153.56 106.718 153.666 106.845C153.981 107.164 154.112 107.785 153.513 108.52Z" fill="#263238"/>
<path d="M144.161 102.554L144.047 102.861L142.738 106.385L142.512 106.992L142.322 107.504L141.049 107.102L133.478 104.7C127.994 103.716 117.703 98.0134 117.703 98.0134C110.425 101.571 84.4062 105.731 79.9826 102.653C77.6392 100.945 75.7967 100.031 74.2759 94.7634C80.6072 90.3128 88.1291 87.8662 95.8672 87.7406C97.9473 87.7113 100.031 87.7406 102.082 87.7406C107.803 87.7406 114.252 88.0294 118.515 89.0347C128.046 90.4386 144.161 102.554 144.161 102.554Z" fill="#639EFF"/>
<g opacity="0.6">
<path d="M144.162 102.553L144.048 102.86L142.74 106.384L142.513 106.991L142.323 107.503L141.051 107.101L133.479 104.699C127.996 103.716 117.704 98.0124 117.704 98.0124C110.426 101.57 84.4073 105.73 79.9838 102.652C77.6404 100.944 75.7978 100.03 74.277 94.7624C80.6083 90.3118 88.1303 87.8652 95.8683 87.7396C97.9485 87.7103 100.032 87.7396 102.083 87.7396C107.805 87.7396 114.253 88.0284 118.516 89.0337C128.047 90.4376 144.162 102.553 144.162 102.553Z" fill="black"/>
</g>
<path opacity="0.3" d="M94.2555 85.8427C94.2555 85.8427 93.1953 87.9777 86.3735 89.0781C79.5518 90.1785 94.1897 88.2153 101.556 87.7218C101.556 87.7401 96.0103 87.1259 94.2555 85.8427Z" fill="black"/>
<g opacity="0.7">
<path d="M123.787 43.5449C121.502 40.9419 118.007 40.8359 114.859 40.9237C113.715 40.9602 112.512 41.0224 111.529 41.7206C110.545 42.4189 109.895 43.9982 110.432 45.2156C110.97 46.433 112.468 47.1934 112.143 48.4876C109.507 49.9791 106.425 49.5112 103.556 50.1254C101.194 50.6591 99.0316 51.8506 97.3187 53.5618C96.7645 54.0269 96.3791 54.6616 96.222 55.3678C96.0428 56.6291 96.9531 57.5796 97.9439 58.2267C97.9847 58.2579 98.0169 58.2989 98.0375 58.346C98.0581 58.393 98.0664 58.4446 98.0616 58.4957C98.0569 58.5468 98.0392 58.596 98.0103 58.6384C97.9814 58.6809 97.9422 58.7153 97.8963 58.7385C97.1875 58.9695 96.5331 59.3427 95.9734 59.8352C95.6261 60.1642 95.8527 60.8442 96.2914 60.815H96.4559C97.6477 60.815 98.6202 61.579 98.6275 62.5442C98.6348 63.5093 97.666 64.2953 96.4742 64.3063C96.1781 64.3063 96.3792 64.7486 96.7959 64.8729C97.6386 65.0716 98.5171 65.0615 99.355 64.8437C100.36 64.6463 101.446 64.3246 102.071 63.3558C102.696 62.387 102.437 60.6029 101.439 60.3872C103.481 60.2732 105.506 59.9485 107.482 59.4184C108.352 59.1845 109.31 58.8335 109.778 57.9159C110.246 56.9983 109.778 55.4446 108.871 55.5652C111.496 54.5891 114.234 54.1248 116.874 53.2365C119.513 52.3481 122.145 50.9516 123.988 48.5095C124.436 47.9723 124.741 47.3311 124.876 46.645C125.066 45.4898 124.496 44.3455 123.787 43.5449Z" fill="#FCFEFF"/>
</g>
</svg>
