<svg width="102" height="102" viewBox="0 0 102 102" fill="none" xmlns="http://www.w3.org/2000/svg">
<path d="M22.3125 64.9453C24.5131 64.9453 26.2969 66.7291 26.2969 68.9297C26.2969 71.1303 24.5131 72.9141 22.3125 72.9141C20.1119 72.9141 18.3281 71.1303 18.3281 68.9297C18.3281 66.7291 20.1119 64.9453 22.3125 64.9453ZM33.2695 68.9297C33.2695 71.1303 35.0533 72.9141 37.2539 72.9141C39.4545 72.9141 41.2383 71.1303 41.2383 68.9297C41.2383 66.7291 39.4545 64.9453 37.2539 64.9453C35.0533 64.9453 33.2695 66.7291 33.2695 68.9297ZM56.1797 68.9297C56.1797 66.7291 54.3959 64.9453 52.1953 64.9453C49.9947 64.9453 48.2109 66.7291 48.2109 68.9297C48.2109 71.1303 49.9947 72.9141 52.1953 72.9141C54.3959 72.9141 56.1797 71.1303 56.1797 68.9297ZM63.3516 68.9297C63.3516 71.1303 65.1354 72.9141 67.3359 72.9141C69.5365 72.9141 71.3203 71.1303 71.3203 68.9297C71.3203 66.7291 69.5365 64.9453 67.3359 64.9453C65.1354 64.9453 63.3516 66.7291 63.3516 68.9297ZM51.3984 98.0156C51.3984 100.216 49.6146 102 47.4141 102H15.9375C7.14956 102 0 94.8504 0 86.0625V53.3906C0 44.6027 7.14956 37.4531 15.9375 37.4531H20.7114V23.4014C20.7114 10.4978 31.4357 0 44.6176 0C57.7995 0 68.5239 10.4978 68.5239 23.4014V37.4531H73.3125C82.1004 37.4531 89.25 44.6027 89.25 53.3906V61.3594C89.25 63.5599 87.4662 65.3438 85.2656 65.3438C83.0651 65.3438 81.2813 63.5599 81.2813 61.3594V53.3906C81.2813 48.9967 77.7065 45.4219 73.3125 45.4219H15.9375C11.5435 45.4219 7.96875 48.9967 7.96875 53.3906V86.0625C7.96875 90.4565 11.5435 94.0313 15.9375 94.0313H47.4141C49.6146 94.0313 51.3984 95.8151 51.3984 98.0156ZM28.6801 37.4531H60.5551V23.4014C60.5551 14.8918 53.4056 7.96875 44.6176 7.96875C35.8297 7.96875 28.6801 14.8918 28.6801 23.4014V37.4531ZM100.335 64.8931C98.5458 63.6119 96.0565 64.0241 94.7761 65.8135L75.137 93.2459C74.6007 93.8679 73.9285 94.0022 73.5683 94.0261C73.199 94.0506 72.4877 94.0038 71.8616 93.4163L59.1698 81.0306C57.5947 79.4935 55.0722 79.5247 53.5355 81.0994C51.9985 82.6742 52.0292 85.1967 53.6042 86.7337L66.3183 99.1412C66.3303 99.1528 66.342 99.1643 66.3542 99.1757C68.2601 100.99 70.8043 102 73.4221 102C73.647 102 73.8725 101.992 74.098 101.977C76.9496 101.787 79.6122 100.4 81.4026 98.1728C81.4488 98.115 81.4934 98.0563 81.5367 97.9961L101.256 70.4521C102.536 68.6629 102.124 66.1739 100.335 64.8931Z" fill="black"/>
</svg>
