<svg width="40" height="45" viewBox="0 0 40 45" fill="none" xmlns="http://www.w3.org/2000/svg">
<path d="M19.7754 0C13.2329 0 7.91016 5.32274 7.91016 11.8652C7.91016 18.4077 13.2329 23.7305 19.7754 23.7305C26.3179 23.7305 31.6406 18.4077 31.6406 11.8652C31.6406 5.32274 26.3179 0 19.7754 0Z" fill="black"/>
<path d="M34.538 31.482C31.2896 28.1836 26.9832 26.3672 22.4121 26.3672H17.1387C12.5677 26.3672 8.26119 28.1836 5.01275 31.482C1.78022 34.7642 0 39.0967 0 43.6816C0 44.4097 0.590273 45 1.31836 45H38.2324C38.9605 45 39.5508 44.4097 39.5508 43.6816C39.5508 39.0967 37.7706 34.7642 34.538 31.482Z" fill="black"/>
</svg>
