<svg width="13" height="12" viewBox="0 0 13 12" fill="none" xmlns="http://www.w3.org/2000/svg">
<g clip-path="url(#clip0_5402_600)">
<path d="M10.2344 0H3.23438C2.57158 0.000793929 1.93615 0.264441 1.46748 0.73311C0.998816 1.20178 0.735169 1.8372 0.734375 2.5L0.734375 9.5C0.735169 10.1628 0.998816 10.7982 1.46748 11.2669C1.93615 11.7356 2.57158 11.9992 3.23438 12H10.2344C10.8972 11.9992 11.5326 11.7356 12.0013 11.2669C12.4699 10.7982 12.7336 10.1628 12.7344 9.5V2.5C12.7336 1.8372 12.4699 1.20178 12.0013 0.73311C11.5326 0.264441 10.8972 0.000793929 10.2344 0ZM4.23438 11V10.5C4.23438 9.83696 4.49777 9.20107 4.96661 8.73223C5.43545 8.26339 6.07133 8 6.73438 8C7.39742 8 8.0333 8.26339 8.50214 8.73223C8.97098 9.20107 9.23438 9.83696 9.23438 10.5V11H4.23438ZM11.7344 9.5C11.7344 9.89782 11.5763 10.2794 11.295 10.5607C11.0137 10.842 10.6322 11 10.2344 11V10.5C10.2344 9.57174 9.86563 8.6815 9.20925 8.02513C8.55287 7.36875 7.66263 7 6.73438 7C5.80612 7 4.91588 7.36875 4.2595 8.02513C3.60312 8.6815 3.23438 9.57174 3.23438 10.5V11C2.83655 11 2.45502 10.842 2.17371 10.5607C1.89241 10.2794 1.73438 9.89782 1.73438 9.5V2.5C1.73438 2.10218 1.89241 1.72064 2.17371 1.43934C2.45502 1.15804 2.83655 1 3.23438 1H10.2344C10.6322 1 11.0137 1.15804 11.295 1.43934C11.5763 1.72064 11.7344 2.10218 11.7344 2.5V9.5Z" fill="black"/>
<path d="M6.73438 2C6.33881 2 5.95213 2.1173 5.62324 2.33706C5.29434 2.55682 5.03799 2.86918 4.88662 3.23463C4.73524 3.60009 4.69563 4.00222 4.77281 4.39018C4.84998 4.77814 5.04046 5.13451 5.32016 5.41421C5.59987 5.69392 5.95623 5.8844 6.3442 5.96157C6.73216 6.03874 7.13429 5.99913 7.49974 5.84776C7.8652 5.69638 8.17755 5.44004 8.39732 5.11114C8.61708 4.78224 8.73438 4.39556 8.73438 4C8.73438 3.46957 8.52366 2.96086 8.14859 2.58579C7.77352 2.21071 7.26481 2 6.73438 2ZM6.73438 5C6.53659 5 6.34326 4.94135 6.17881 4.83147C6.01436 4.72159 5.88618 4.56541 5.8105 4.38268C5.73481 4.19996 5.71501 3.99889 5.75359 3.80491C5.79218 3.61093 5.88742 3.43275 6.02727 3.29289C6.16712 3.15304 6.3453 3.0578 6.53929 3.01921C6.73327 2.98063 6.93433 3.00043 7.11706 3.07612C7.29979 3.15181 7.45596 3.27998 7.56585 3.44443C7.67573 3.60888 7.73438 3.80222 7.73438 4C7.73438 4.26522 7.62902 4.51957 7.44148 4.70711C7.25395 4.89464 6.99959 5 6.73438 5Z" fill="black"/>
</g>
<defs>
<clipPath id="clip0_5402_600">
<rect width="12" height="12" fill="white" transform="translate(0.734375)"/>
</clipPath>
</defs>
</svg>
