<svg width="14" height="13" viewBox="0 0 14 13" fill="none" xmlns="http://www.w3.org/2000/svg">
<path d="M5.50219 5.95834C4.91297 5.95834 4.33698 5.78361 3.84706 5.45626C3.35713 5.1289 2.97529 4.66362 2.7498 4.11925C2.52432 3.57487 2.46532 2.97586 2.58027 2.39796C2.69522 1.82006 2.97896 1.28922 3.3956 0.872579C3.81225 0.455935 4.34308 0.172197 4.92099 0.0572452C5.49889 -0.0577066 6.0979 0.00129084 6.64227 0.226777C7.18664 0.452263 7.65192 0.83411 7.97928 1.32403C8.30663 1.81395 8.48136 2.38994 8.48136 2.97917C8.4805 3.76903 8.16635 4.52629 7.60783 5.08481C7.04932 5.64332 6.29205 5.95747 5.50219 5.95834ZM5.50219 1.08333C5.12723 1.08333 4.76069 1.19452 4.44892 1.40284C4.13716 1.61116 3.89416 1.90725 3.75067 2.25366C3.60718 2.60008 3.56964 2.98127 3.64279 3.34903C3.71594 3.71678 3.8965 4.05459 4.16164 4.31972C4.42677 4.58486 4.76458 4.76542 5.13233 4.83857C5.50009 4.91173 5.88128 4.87418 6.2277 4.73069C6.57411 4.5872 6.8702 4.3442 7.07852 4.03244C7.28684 3.72067 7.39803 3.35413 7.39803 2.97917C7.39803 2.47636 7.19829 1.99415 6.84275 1.63861C6.48721 1.28307 6.005 1.08333 5.50219 1.08333ZM10.1204 13C9.37052 13 8.63744 12.7776 8.01391 12.361C7.39037 11.9444 6.90438 11.3522 6.6174 10.6593C6.33042 9.96651 6.25533 9.20413 6.40163 8.46862C6.54793 7.73311 6.90906 7.0575 7.43933 6.52722C7.9696 5.99695 8.64521 5.63583 9.38073 5.48952C10.1162 5.34322 10.8786 5.41831 11.5715 5.70529C12.2643 5.99227 12.8565 6.47826 13.2731 7.1018C13.6897 7.72533 13.9121 8.45841 13.9121 9.20833C13.911 10.2136 13.5111 11.1774 12.8003 11.8882C12.0895 12.599 11.1257 12.9989 10.1204 13ZM10.1204 6.5C9.58479 6.5 9.06116 6.65884 8.61577 6.95644C8.17039 7.25403 7.82326 7.67702 7.61827 8.1719C7.41328 8.66678 7.35965 9.21134 7.46415 9.7367C7.56865 10.2621 7.82659 10.7446 8.20536 11.1234C8.58413 11.5022 9.06671 11.7601 9.59207 11.8646C10.1174 11.9691 10.662 11.9155 11.1569 11.7105C11.6518 11.5055 12.0747 11.1584 12.3723 10.713C12.6699 10.2676 12.8288 9.74399 12.8288 9.20833C12.8279 8.4903 12.5423 7.80193 12.0346 7.2942C11.5268 6.78648 10.8385 6.50086 10.1204 6.5ZM11.5867 9.90871L10.6621 8.98408V7.58334H9.57878V9.43258L10.8208 10.6746L11.5867 9.90871ZM5.7584 7.04167H3.62044C2.90241 7.04253 2.21404 7.32815 1.70631 7.83587C1.19859 8.3436 0.912969 9.03197 0.912109 9.75L0.912109 13H1.99544V9.75C1.99544 9.31902 2.16665 8.9057 2.47139 8.60095C2.77614 8.29621 3.18947 8.125 3.62044 8.125H5.37057C5.45589 7.74963 5.58611 7.3859 5.7584 7.04167Z" fill="black"/>
</svg>
