<svg width="12" height="19" viewBox="0 0 12 19" fill="none" xmlns="http://www.w3.org/2000/svg">
<path d="M8.09245 1.52783H6.25911C6.00581 1.52783 5.80078 1.73286 5.80078 1.98617C5.80078 2.23947 6.00581 2.4445 6.25911 2.4445H8.09245C8.34575 2.4445 8.55078 2.23947 8.55078 1.98617C8.55078 1.73286 8.34575 1.52783 8.09245 1.52783Z" fill="black"/>
<path d="M10.0788 0H2.74544C1.73467 0 0.912109 0.822565 0.912109 1.83333V16.5C0.912109 17.5108 1.73467 18.3333 2.74544 18.3333H10.0788C11.0895 18.3333 11.9121 17.5108 11.9121 16.5V1.83333C11.9121 0.822565 11.0895 0 10.0788 0ZM10.9954 16.5C10.9954 17.0063 10.5851 17.4167 10.0788 17.4167H2.74544C2.23913 17.4167 1.82878 17.0063 1.82878 16.5V1.83333C1.82878 1.32702 2.23913 0.916667 2.74544 0.916667H10.0788C10.5851 0.916667 10.9954 1.32702 10.9954 1.83333V16.5Z" fill="black"/>
<path d="M6.41276 16.8055C6.91902 16.8055 7.32943 16.3951 7.32943 15.8888C7.32943 15.3826 6.91902 14.9722 6.41276 14.9722C5.9065 14.9722 5.49609 15.3826 5.49609 15.8888C5.49609 16.3951 5.9065 16.8055 6.41276 16.8055Z" fill="black"/>
<path d="M4.73177 2.4445C4.9849 2.4445 5.1901 2.2393 5.1901 1.98617C5.1901 1.73303 4.9849 1.52783 4.73177 1.52783C4.47864 1.52783 4.27344 1.73303 4.27344 1.98617C4.27344 2.2393 4.47864 2.4445 4.73177 2.4445Z" fill="black"/>
</svg>
