<svg width="13" height="20" viewBox="0 0 13 20" fill="none" xmlns="http://www.w3.org/2000/svg">
<path d="M9.02498 6.27362C9.02498 7.71679 7.85509 8.88672 6.41188 8.88672C4.96872 8.88672 3.79883 7.71679 3.79883 6.27362C3.79883 4.83046 4.96872 3.66053 6.41188 3.66053C7.85509 3.66053 9.02498 4.83046 9.02498 6.27362Z" stroke="black" stroke-miterlimit="10" stroke-linecap="round" stroke-linejoin="round"/>
<path d="M10.803 2.88186C9.75865 1.53233 8.11874 0.726019 6.41211 0.726019C4.70548 0.726019 3.06557 1.53233 2.02119 2.88186C0.843382 4.40426 0.632611 6.23864 1.25165 8.03132C1.84681 9.75463 3.11068 11.1917 4.14406 12.6728C4.88327 13.7323 5.62248 14.7919 6.36169 15.8518C6.37837 15.8757 6.39543 15.8999 6.41211 15.9238C6.42879 15.8999 6.44585 15.8757 6.46253 15.8518C7.20174 14.7919 7.94095 13.7323 8.68016 12.6728C9.71354 11.1917 10.9774 9.75463 11.5726 8.03132C12.1916 6.23864 11.9808 4.40426 10.803 2.88186Z" stroke="black" stroke-miterlimit="10" stroke-linecap="round" stroke-linejoin="round"/>
<path d="M2.93319 14.7603L1.31641 15.7816L6.41128 19L11.5062 15.7816L9.88936 14.7603" stroke="black" stroke-miterlimit="10" stroke-linecap="round" stroke-linejoin="round"/>
</svg>
