<svg width="12" height="14" viewBox="0 0 12 14" fill="none" xmlns="http://www.w3.org/2000/svg">
<path d="M5.8789 0C4.48708 0.00184628 3.1528 0.555562 2.16863 1.53973C1.18447 2.52389 0.630753 3.85818 0.628906 5.24999C0.628906 9.01905 5.52015 13.7397 5.72796 13.9387C5.76838 13.978 5.82253 14 5.8789 14C5.93527 14 5.98942 13.978 6.02984 13.9387C6.23765 13.7397 11.1289 9.01905 11.1289 5.24999C11.127 3.85818 10.5733 2.52389 9.58917 1.53973C8.605 0.555562 7.27072 0.00184628 5.8789 0V0ZM5.8789 7.65624C5.40299 7.65624 4.93777 7.51512 4.54206 7.25072C4.14636 6.98631 3.83794 6.61051 3.65582 6.17083C3.47369 5.73114 3.42604 5.24732 3.51889 4.78056C3.61173 4.31379 3.84091 3.88504 4.17743 3.54852C4.51395 3.212 4.9427 2.98283 5.40946 2.88998C5.87623 2.79714 6.36005 2.84479 6.79973 3.02691C7.23942 3.20903 7.61522 3.51745 7.87962 3.91315C8.14402 4.30886 8.28515 4.77408 8.28515 5.24999C8.28476 5.88805 8.03113 6.49987 7.57995 6.95105C7.12878 7.40222 6.51696 7.65586 5.8789 7.65624Z" fill="black"/>
</svg>
