<svg width="20" height="21" viewBox="0 0 20 21" fill="none" xmlns="http://www.w3.org/2000/svg">
<path d="M10.2198 13.091C11.6507 13.091 12.8107 11.931 12.8107 10.5001C12.8107 9.06917 11.6507 7.90918 10.2198 7.90918C8.7889 7.90918 7.62891 9.06917 7.62891 10.5001C7.62891 11.931 8.7889 13.091 10.2198 13.091Z" stroke="black" stroke-width="1.3" stroke-miterlimit="10" stroke-linecap="round" stroke-linejoin="round"/>
<path d="M17.1286 10.5C17.1276 10.0025 17.0732 9.5065 16.9663 9.02059L19.3102 7.24582L17.5829 4.25418L14.8685 5.39936C14.1334 4.72547 13.261 4.21897 12.3113 3.91477L11.9468 1H8.49227L8.12782 3.91477C7.17811 4.21897 6.30566 4.72547 5.57059 5.39936L2.85618 4.25418L1.12891 7.24582L3.47282 9.02059C3.25638 9.99499 3.25638 11.005 3.47282 11.9794L1.12891 13.7542L2.85618 16.7458L5.57059 15.6006C6.30566 16.2745 7.17811 16.781 8.12782 17.0852L8.49227 20H11.9468L12.3113 17.0852C13.261 16.781 14.1334 16.2745 14.8685 15.6006L17.5829 16.7458L19.3102 13.7542L16.9663 11.9794C17.0732 11.4935 17.1276 10.9975 17.1286 10.5V10.5Z" stroke="black" stroke-width="1.3" stroke-miterlimit="10" stroke-linecap="round" stroke-linejoin="round"/>
</svg>
