<svg width="17" height="16" viewBox="0 0 17 16" fill="none" xmlns="http://www.w3.org/2000/svg">
<path d="M5.46224 0H2.79557C2.08833 0 1.41005 0.280952 0.909955 0.781049C0.409858 1.28115 0.128906 1.95942 0.128906 2.66667L0.128906 3.33333C0.128906 4.04058 0.409858 4.71885 0.909955 5.21895C1.41005 5.71905 2.08833 6 2.79557 6H3.46224V7.33333H2.12891C1.9521 7.33333 1.78253 7.40357 1.6575 7.5286C1.53248 7.65362 1.46224 7.82319 1.46224 8C1.46224 8.17681 1.53248 8.34638 1.6575 8.47141C1.78253 8.59643 1.9521 8.66667 2.12891 8.66667H6.12891C6.30572 8.66667 6.47529 8.59643 6.60031 8.47141C6.72534 8.34638 6.79557 8.17681 6.79557 8C6.79557 7.82319 6.72534 7.65362 6.60031 7.5286C6.47529 7.40357 6.30572 7.33333 6.12891 7.33333H4.79557V6H5.46224C6.16948 6 6.84776 5.71905 7.34786 5.21895C7.84795 4.71885 8.12891 4.04058 8.12891 3.33333V2.66667C8.12891 1.95942 7.84795 1.28115 7.34786 0.781049C6.84776 0.280952 6.16948 0 5.46224 0ZM6.79557 3.33333C6.79557 3.68696 6.6551 4.02609 6.40505 4.27614C6.155 4.52619 5.81586 4.66667 5.46224 4.66667H2.79557C2.44195 4.66667 2.10281 4.52619 1.85276 4.27614C1.60272 4.02609 1.46224 3.68696 1.46224 3.33333V2.66667C1.46224 2.31304 1.60272 1.97391 1.85276 1.72386C2.10281 1.47381 2.44195 1.33333 2.79557 1.33333H5.46224C5.81586 1.33333 6.155 1.47381 6.40505 1.72386C6.6551 1.97391 6.79557 2.31304 6.79557 2.66667V3.33333ZM13.4622 7.33333H12.1289C11.4217 7.33333 10.7434 7.61428 10.2433 8.11438C9.74319 8.61448 9.46224 9.29276 9.46224 10V13.3333C9.46224 14.0406 9.74319 14.7189 10.2433 15.219C10.7434 15.719 11.4217 16 12.1289 16H13.4622C14.1695 16 14.8478 15.719 15.3479 15.219C15.848 14.7189 16.1289 14.0406 16.1289 13.3333V10C16.1289 9.29276 15.848 8.61448 15.3479 8.11438C14.8478 7.61428 14.1695 7.33333 13.4622 7.33333ZM14.7956 13.3333C14.7956 13.687 14.6551 14.0261 14.405 14.2761C14.155 14.5262 13.8159 14.6667 13.4622 14.6667H12.1289C11.7753 14.6667 11.4361 14.5262 11.1861 14.2761C10.936 14.0261 10.7956 13.687 10.7956 13.3333V10C10.7956 9.64638 10.936 9.30724 11.1861 9.05719C11.4361 8.80714 11.7753 8.66667 12.1289 8.66667H13.4622C13.8159 8.66667 14.155 8.80714 14.405 9.05719C14.6551 9.30724 14.7956 9.64638 14.7956 10V13.3333ZM9.46224 2.66667C9.46224 2.48986 9.53248 2.32029 9.6575 2.19526C9.78253 2.07024 9.9521 2 10.1289 2H11.4622C11.9927 2 12.5014 2.21071 12.8765 2.58579C13.2515 2.96086 13.4622 3.46957 13.4622 4V5.33333C13.4622 5.51014 13.392 5.67971 13.267 5.80474C13.142 5.92976 12.9724 6 12.7956 6C12.6188 6 12.4492 5.92976 12.3242 5.80474C12.1991 5.67971 12.1289 5.51014 12.1289 5.33333V4C12.1289 3.82319 12.0587 3.65362 11.9336 3.5286C11.8086 3.40357 11.6391 3.33333 11.4622 3.33333H10.1289C9.9521 3.33333 9.78253 3.2631 9.6575 3.13807C9.53248 3.01305 9.46224 2.84348 9.46224 2.66667ZM8.12891 13.3333C8.12891 13.5101 8.05867 13.6797 7.93364 13.8047C7.80862 13.9298 7.63905 14 7.46224 14H5.46224C4.93181 14 4.4231 13.7893 4.04803 13.4142C3.67295 13.0391 3.46224 12.5304 3.46224 12V10.6667C3.46224 10.4899 3.53248 10.3203 3.6575 10.1953C3.78253 10.0702 3.9521 10 4.12891 10C4.30572 10 4.47529 10.0702 4.60031 10.1953C4.72534 10.3203 4.79557 10.4899 4.79557 10.6667V12C4.79557 12.1768 4.86581 12.3464 4.99084 12.4714C5.11586 12.5964 5.28543 12.6667 5.46224 12.6667H7.46224C7.63905 12.6667 7.80862 12.7369 7.93364 12.8619C8.05867 12.987 8.12891 13.1565 8.12891 13.3333ZM13.4622 13.3333C13.4622 13.4652 13.4231 13.5941 13.3499 13.7037C13.2766 13.8133 13.1725 13.8988 13.0507 13.9493C12.9289 13.9997 12.7948 14.0129 12.6655 13.9872C12.5362 13.9615 12.4174 13.898 12.3242 13.8047C12.2309 13.7115 12.1674 13.5927 12.1417 13.4634C12.116 13.3341 12.1292 13.2 12.1797 13.0782C12.2301 12.9564 12.3156 12.8523 12.4252 12.779C12.5348 12.7058 12.6637 12.6667 12.7956 12.6667C12.9724 12.6667 13.142 12.7369 13.267 12.8619C13.392 12.987 13.4622 13.1565 13.4622 13.3333Z" fill="black"/>
</svg>
