<svg width="75" height="75" viewBox="0 0 75 75" fill="none" xmlns="http://www.w3.org/2000/svg">
<path d="M5 60H37.5V62.5H5V60Z" fill="black"/>
<path d="M21.25 71.25C19.1791 71.25 17.5 69.5709 17.5 67.5C17.5 65.4291 19.1791 63.75 21.25 63.75C23.3209 63.75 25 65.4291 25 67.5C25 69.5709 23.3209 71.25 21.25 71.25ZM21.25 66.25C20.5597 66.25 20 66.8097 20 67.5C20 68.1903 20.5597 68.75 21.25 68.75C21.9403 68.75 22.5 68.1903 22.5 67.5C22.5 66.8097 21.9403 66.25 21.25 66.25Z" fill="black"/>
<path d="M40 68.75C40 70.8209 38.3209 72.5 36.25 72.5H6.25C4.17908 72.5 2.5 70.8209 2.5 68.75V6.25C2.5 4.17908 4.17908 2.5 6.25 2.5H8.75V3.75C8.75 5.82092 10.4291 7.5 12.5 7.5H30C32.0709 7.5 33.75 5.82092 33.75 3.75V2.5H36.25C38.3209 2.5 40 4.17908 40 6.25V15H42.5V6.25C42.4957 2.79968 39.7003 0.00427247 36.25 0H6.25C2.79968 0.00427247 0.00427247 2.79968 0 6.25V68.75C0.00427247 72.2003 2.79968 74.9957 6.25 75H36.25C39.7003 74.9957 42.4957 72.2003 42.5 68.75V40H40V68.75ZM11.25 2.5H31.25V3.75C31.25 4.44031 30.6903 5 30 5H12.5C11.8097 5 11.25 4.44031 11.25 3.75V2.5Z" fill="black"/>
<path d="M17.5 17.5V37.5H75V17.5H17.5ZM72.5 35H20V20H72.5V35Z" fill="black"/>
<path d="M23.7969 31.0828L26.2517 29.6649V32.5H28.7517V29.6649L31.2065 31.0828L32.4565 28.9172L30.0017 27.5L32.4565 26.0828L31.2065 23.9172L28.7517 25.3351V22.5H26.2517V25.3351L23.7969 23.9172L22.5469 26.0828L25.0017 27.5L22.5469 28.9172L23.7969 31.0828Z" fill="black"/>
<path d="M36.2969 31.0828L38.7517 29.6649V32.5H41.2517V29.6649L43.7065 31.0828L44.9565 28.9172L42.5017 27.5L44.9565 26.0828L43.7065 23.9172L41.2517 25.3351V22.5H38.7517V25.3351L36.2969 23.9172L35.0469 26.0828L37.5017 27.5L35.0469 28.9172L36.2969 31.0828Z" fill="black"/>
<path d="M48.7969 31.0828L51.2517 29.6649V32.5H53.7517V29.6649L56.2065 31.0828L57.4565 28.9172L55.0017 27.5L57.4565 26.0828L56.2065 23.9172L53.7517 25.3351V22.5H51.2517V25.3351L48.7969 23.9172L47.5469 26.0828L50.0017 27.5L47.5469 28.9172L48.7969 31.0828Z" fill="black"/>
<path d="M61.2969 31.0828L63.7517 29.6649V32.5H66.2517V29.6649L68.7065 31.0828L69.9565 28.9172L67.5017 27.5L69.9565 26.0828L68.7065 23.9172L66.2517 25.3351V22.5H63.7517V25.3351L61.2969 23.9172L60.0469 26.0828L62.5017 27.5L60.0469 28.9172L61.2969 31.0828Z" fill="black"/>
</svg>
