<svg width="71" height="70" viewBox="0 0 71 70" fill="none" xmlns="http://www.w3.org/2000/svg">
<path d="M26.6972 27.3437V25.1562C26.6972 23.7058 26.1211 22.3148 25.0955 21.2893C24.0699 20.2637 22.6789 19.6875 21.2285 19.6875C19.7781 19.6875 18.3871 20.2637 17.3615 21.2893C16.3359 22.3148 15.7598 23.7058 15.7598 25.1562V27.3437C15.7598 28.7941 16.3359 30.1851 17.3615 31.2107C18.3871 32.2363 19.7781 32.8125 21.2285 32.8125C22.6789 32.8125 24.0699 32.2363 25.0955 31.2107C26.1211 30.1851 26.6972 28.7941 26.6972 27.3437ZM17.9473 27.3437V25.1562C17.9473 24.286 18.293 23.4514 18.9083 22.836C19.5237 22.2207 20.3583 21.875 21.2285 21.875C22.0987 21.875 22.9333 22.2207 23.5487 22.836C24.164 23.4514 24.5097 24.286 24.5097 25.1562V27.3437C24.5097 28.214 24.164 29.0486 23.5487 29.6639C22.9333 30.2793 22.0987 30.625 21.2285 30.625C20.3583 30.625 19.5237 30.2793 18.9083 29.6639C18.293 29.0486 17.9473 28.214 17.9473 27.3437Z" fill="black"/>
<path d="M26.6972 27.3437V25.1562C26.6972 23.7058 26.1211 22.3148 25.0955 21.2893C24.0699 20.2637 22.6789 19.6875 21.2285 19.6875C19.7781 19.6875 18.3871 20.2637 17.3615 21.2893C16.3359 22.3148 15.7598 23.7058 15.7598 25.1562V27.3437C15.7598 28.7941 16.3359 30.1851 17.3615 31.2107C18.3871 32.2363 19.7781 32.8125 21.2285 32.8125C22.6789 32.8125 24.0699 32.2363 25.0955 31.2107C26.1211 30.1851 26.6972 28.7941 26.6972 27.3437ZM17.9473 27.3437V25.1562C17.9473 24.286 18.293 23.4514 18.9083 22.836C19.5237 22.2207 20.3583 21.875 21.2285 21.875C22.0987 21.875 22.9333 22.2207 23.5487 22.836C24.164 23.4514 24.5097 24.286 24.5097 25.1562V27.3437C24.5097 28.214 24.164 29.0486 23.5487 29.6639C22.9333 30.2793 22.0987 30.625 21.2285 30.625C20.3583 30.625 19.5237 30.2793 18.9083 29.6639C18.293 29.0486 17.9473 28.214 17.9473 27.3437Z" stroke="black"/>
<path d="M60.6033 69.9998C60.8934 69.9998 61.1716 69.8846 61.3767 69.6795C61.5818 69.4744 61.6971 69.1962 61.6971 68.9061V47.0312C61.6971 46.7411 61.5818 46.4629 61.3767 46.2578C61.1716 46.0527 60.8934 45.9374 60.6033 45.9374H44.1971V41.5624H51.8534C52.1121 41.5624 52.3624 41.4706 52.5599 41.3034C52.7573 41.1361 52.8891 40.9044 52.9318 40.6492L55.1193 27.5242C55.1455 27.3675 55.1373 27.207 55.0951 27.0538C55.053 26.9006 54.978 26.7584 54.8754 26.6372C54.7728 26.5159 54.6449 26.4184 54.5008 26.3516C54.3567 26.2847 54.1997 26.25 54.0409 26.25H34.3534C34.0947 26.2501 33.8444 26.3419 33.6469 26.5091C33.4495 26.6763 33.3177 26.9081 33.275 27.1633L31.0875 40.2882C31.0613 40.4449 31.0695 40.6055 31.1116 40.7586C31.1538 40.9118 31.2287 41.054 31.3314 41.1753C31.434 41.2966 31.5619 41.394 31.706 41.4609C31.8501 41.5277 32.0071 41.5624 32.1659 41.5624H42.0096V45.9374H37.0265C37.4202 45.2753 37.6301 44.5202 37.6347 43.7499C37.6347 43.4807 37.5354 43.2209 37.3558 43.0203C37.1762 42.8197 36.9289 42.6924 36.6612 42.6628L27.255 41.6182L22.0685 35.3937C21.9659 35.2705 21.8374 35.1714 21.6923 35.1034C21.5471 35.0353 21.3888 35 21.2285 35H19.041C17.5911 35.0017 16.2011 35.5784 15.1759 36.6036C14.1507 37.6289 13.574 39.0188 13.5722 40.4687V53.5936C13.5763 54.7809 13.9706 55.9338 14.6944 56.8749H11.3848V38.2812C11.3848 37.9911 11.2695 37.7129 11.0644 37.5078C10.8593 37.3027 10.5811 37.1875 10.291 37.1875C10.0009 37.1875 9.72273 37.3027 9.51762 37.5078C9.3125 37.7129 9.19727 37.9911 9.19727 38.2812V57.9686C9.19727 58.2587 9.3125 58.5369 9.51762 58.742C9.72273 58.9471 10.0009 59.0624 10.291 59.0624H15.7597V67.8123H12.4785C12.1884 67.8123 11.9102 67.9276 11.7051 68.1327C11.5 68.3378 11.3848 68.616 11.3848 68.9061C11.3848 69.1962 11.5 69.4744 11.7051 69.6795C11.9102 69.8846 12.1884 69.9998 12.4785 69.9998H21.2285C21.5186 69.9998 21.7968 69.8846 22.0019 69.6795C22.207 69.4744 22.3222 69.1962 22.3222 68.9061C22.3222 68.616 22.207 68.3378 22.0019 68.1327C21.7968 67.9276 21.5186 67.8123 21.2285 67.8123H17.9472V59.0624H26.0617L30.9978 67.703C31.0201 67.7411 31.0449 67.7776 31.0722 67.8123C31.583 68.49 32.2439 69.0401 33.0029 69.4196C33.7619 69.7991 34.5986 69.9977 35.4472 69.9998H38.7284C38.9171 69.9998 39.1026 69.951 39.2668 69.858C39.431 69.7651 39.5684 69.6313 39.6656 69.4696C39.7628 69.3078 39.8165 69.1237 39.8216 68.9351C39.8266 68.7465 39.7827 68.5598 39.6942 68.3931L31.152 52.3249C31.1091 52.2458 31.0566 52.1724 30.9956 52.1062C30.4829 51.5422 29.8582 51.0914 29.1613 50.7826C28.4645 50.4737 27.711 50.3136 26.9488 50.3124H23.416V48.1249H59.5096V68.9061C59.5096 69.1962 59.6248 69.4744 59.8299 69.6795C60.0351 69.8846 60.3133 69.9998 60.6033 69.9998ZM35.2798 28.4375H52.7491L50.927 39.375H33.4576L35.2798 28.4375ZM19.8952 40.8789C19.8054 40.7667 19.6944 40.6733 19.5686 40.604C19.4427 40.5347 19.3044 40.4909 19.1616 40.475C19.0188 40.4592 18.8743 40.4716 18.7363 40.5117C18.5983 40.5517 18.4696 40.6185 18.3574 40.7082C18.2452 40.798 18.1518 40.909 18.0825 41.0349C18.0132 41.1607 17.9694 41.299 17.9536 41.4418C17.9377 41.5846 17.9502 41.7291 17.9902 41.8671C18.0302 42.0051 18.097 42.1339 18.1868 42.246L21.2285 46.0468V51.4062C21.2285 51.6962 21.3437 51.9744 21.5488 52.1796C21.7539 52.3847 22.0321 52.4999 22.3222 52.4999H26.9488C27.3848 52.5009 27.8163 52.5884 28.2183 52.7574C28.6202 52.9264 28.9847 53.1734 29.2905 53.4843L36.9084 67.8123H35.4472C34.9487 67.811 34.457 67.6967 34.009 67.4781C33.5609 67.2595 33.1683 66.9423 32.8605 66.5502L27.6466 57.4218C27.5504 57.2552 27.412 57.1169 27.2453 57.0209C27.0786 56.9249 26.8896 56.8745 26.6972 56.8749H19.041C18.1707 56.8749 17.3361 56.5292 16.7208 55.9138C16.1054 55.2985 15.7597 54.4639 15.7597 53.5936V40.4687C15.7597 39.5985 16.1054 38.7639 16.7208 38.1485C17.3361 37.5332 18.1707 37.1875 19.041 37.1875H20.7166L25.8572 43.3562C26.0381 43.5734 26.296 43.7121 26.5769 43.7434L35.2273 44.7048C35.0481 45.0742 34.7685 45.3857 34.4205 45.6037C34.0726 45.8217 33.6703 45.9373 33.2597 45.9374H23.941L19.8952 40.8789Z" fill="black"/>
<path d="M2.21051 28.209L35.4473 2.47749L51.1841 14.6564C51.3458 14.7815 51.5393 14.8588 51.7427 14.8795C51.9461 14.9002 52.1512 14.8635 52.3348 14.7735C52.5184 14.6835 52.6731 14.5439 52.7813 14.3705C52.8896 14.197 52.947 13.9967 52.9472 13.7923V8.75012H59.5097V20.5735C59.5097 20.7406 59.5479 20.9054 59.6214 21.0553C59.695 21.2053 59.8019 21.3364 59.9341 21.4387L68.684 28.209C68.9135 28.3865 69.204 28.4656 69.4918 28.4289C69.7796 28.3922 70.041 28.2426 70.2185 28.0132C70.3961 27.7837 70.4752 27.4932 70.4385 27.2054C70.4017 26.9176 70.2522 26.6562 70.0228 26.4787L61.6972 20.0365V7.65638C61.6972 7.3663 61.5819 7.0881 61.3768 6.88298C61.1717 6.67787 60.8935 6.56263 60.6034 6.56263H51.8535C51.5634 6.56263 51.2852 6.67787 51.0801 6.88298C50.8749 7.0881 50.7597 7.3663 50.7597 7.65638V11.5621L36.1166 0.228749C35.925 0.0804594 35.6896 0 35.4473 0C35.205 0 34.9695 0.0804594 34.7779 0.228749L0.871766 26.4787C0.642313 26.6562 0.492781 26.9176 0.456065 27.2054C0.419349 27.4932 0.498457 27.7837 0.675986 28.0132C0.853514 28.2426 1.11492 28.3922 1.4027 28.4289C1.69048 28.4656 1.98106 28.3865 2.21051 28.209Z" fill="black"/>
<path d="M2.21051 28.209L35.4473 2.47749L51.1841 14.6564C51.3458 14.7815 51.5393 14.8588 51.7427 14.8795C51.9461 14.9002 52.1512 14.8635 52.3348 14.7735C52.5184 14.6835 52.6731 14.5439 52.7813 14.3705C52.8896 14.197 52.947 13.9967 52.9472 13.7923V8.75012H59.5097V20.5735C59.5097 20.7406 59.5479 20.9054 59.6214 21.0553C59.695 21.2053 59.8019 21.3364 59.9341 21.4387L68.684 28.209C68.9135 28.3865 69.204 28.4656 69.4918 28.4289C69.7796 28.3922 70.041 28.2426 70.2185 28.0132C70.3961 27.7837 70.4752 27.4932 70.4385 27.2054C70.4017 26.9176 70.2522 26.6562 70.0228 26.4787L61.6972 20.0365V7.65638C61.6972 7.3663 61.5819 7.0881 61.3768 6.88298C61.1717 6.67787 60.8935 6.56263 60.6034 6.56263H51.8535C51.5634 6.56263 51.2852 6.67787 51.0801 6.88298C50.8749 7.0881 50.7597 7.3663 50.7597 7.65638V11.5621L36.1166 0.228749C35.925 0.0804594 35.6896 0 35.4473 0C35.205 0 34.9695 0.0804594 34.7779 0.228749L0.871766 26.4787C0.642313 26.6562 0.492781 26.9176 0.456065 27.2054C0.419349 27.4932 0.498457 27.7837 0.675986 28.0132C0.853514 28.2426 1.11492 28.3922 1.4027 28.4289C1.69048 28.4656 1.98106 28.3865 2.21051 28.209Z" stroke="black"/>
<path d="M44.1969 61.2495C44.0381 61.2495 43.8811 61.2842 43.737 61.3511C43.5929 61.4179 43.465 61.5154 43.3624 61.6366C43.2598 61.7579 43.1848 61.9001 43.1426 62.0533C43.1005 62.2065 43.0923 62.367 43.1185 62.5237L44.2123 69.0862C44.2549 69.3414 44.3867 69.5732 44.5842 69.7404C44.7816 69.9076 45.0319 69.9994 45.2907 69.9995H51.8532C52.1119 69.9994 52.3622 69.9076 52.5597 69.7404C52.7571 69.5732 52.8889 69.3414 52.9316 69.0862L54.0253 62.5237C54.0516 62.367 54.0433 62.2065 54.0012 62.0533C53.9591 61.9001 53.8841 61.7579 53.7815 61.6366C53.6788 61.5154 53.551 61.4179 53.4069 61.3511C53.2627 61.2842 53.1058 61.2495 52.9469 61.2495H49.6657V59.6471L52.4602 57.7878C52.5834 57.7098 52.6898 57.6079 52.7731 57.4881C52.8564 57.3684 52.9148 57.2332 52.9451 57.0905C52.9753 56.9478 52.9767 56.8005 52.9492 56.6573C52.9217 56.5141 52.8658 56.3778 52.7848 56.2565C52.7039 56.1352 52.5994 56.0313 52.4777 55.9509C52.356 55.8705 52.2194 55.8153 52.0761 55.7885C51.9327 55.7617 51.7854 55.7639 51.6429 55.7949C51.5004 55.8258 51.3655 55.885 51.2461 55.9689L49.6657 57.0189V54.687C49.6657 54.3969 49.5504 54.1187 49.3453 53.9136C49.1402 53.7085 48.862 53.5933 48.5719 53.5933C48.2818 53.5933 48.0036 53.7085 47.7985 53.9136C47.5934 54.1187 47.4782 54.3969 47.4782 54.687V57.0189L45.8977 55.9656C45.7784 55.8817 45.6435 55.8226 45.501 55.7916C45.3584 55.7606 45.2112 55.7585 45.0678 55.7853C44.9244 55.8121 44.7878 55.8673 44.6661 55.9476C44.5444 56.028 44.44 56.1319 44.359 56.2532C44.278 56.3745 44.2221 56.5108 44.1946 56.654C44.1671 56.7972 44.1685 56.9445 44.1988 57.0872C44.229 57.2299 44.2875 57.3651 44.3708 57.4849C44.454 57.6046 44.5604 57.7065 44.6837 57.7845L47.4782 59.6471V61.2495H44.1969ZM46.2171 67.812L45.4887 63.437H51.6552L50.9268 67.812H46.2171Z" fill="black"/>
<path d="M44.1969 61.2495C44.0381 61.2495 43.8811 61.2842 43.737 61.3511C43.5929 61.4179 43.465 61.5154 43.3624 61.6366C43.2598 61.7579 43.1848 61.9001 43.1426 62.0533C43.1005 62.2065 43.0923 62.367 43.1185 62.5237L44.2123 69.0862C44.2549 69.3414 44.3867 69.5732 44.5842 69.7404C44.7816 69.9076 45.0319 69.9994 45.2907 69.9995H51.8532C52.1119 69.9994 52.3622 69.9076 52.5597 69.7404C52.7571 69.5732 52.8889 69.3414 52.9316 69.0862L54.0253 62.5237C54.0516 62.367 54.0433 62.2065 54.0012 62.0533C53.9591 61.9001 53.8841 61.7579 53.7815 61.6366C53.6788 61.5154 53.551 61.4179 53.4069 61.3511C53.2627 61.2842 53.1058 61.2495 52.9469 61.2495H49.6657V59.6471L52.4602 57.7878C52.5834 57.7098 52.6898 57.6079 52.7731 57.4881C52.8564 57.3684 52.9148 57.2332 52.9451 57.0905C52.9753 56.9478 52.9767 56.8005 52.9492 56.6573C52.9217 56.5141 52.8658 56.3778 52.7848 56.2565C52.7039 56.1352 52.5994 56.0313 52.4777 55.9509C52.356 55.8705 52.2194 55.8153 52.0761 55.7885C51.9327 55.7617 51.7854 55.7639 51.6429 55.7949C51.5004 55.8258 51.3655 55.885 51.2461 55.9689L49.6657 57.0189V54.687C49.6657 54.3969 49.5504 54.1187 49.3453 53.9136C49.1402 53.7085 48.862 53.5933 48.5719 53.5933C48.2818 53.5933 48.0036 53.7085 47.7985 53.9136C47.5934 54.1187 47.4782 54.3969 47.4782 54.687V57.0189L45.8977 55.9656C45.7784 55.8817 45.6435 55.8226 45.501 55.7916C45.3584 55.7606 45.2112 55.7585 45.0678 55.7853C44.9244 55.8121 44.7878 55.8673 44.6661 55.9476C44.5444 56.028 44.44 56.1319 44.359 56.2532C44.278 56.3745 44.2221 56.5108 44.1946 56.654C44.1671 56.7972 44.1685 56.9445 44.1988 57.0872C44.229 57.2299 44.2875 57.3651 44.3708 57.4849C44.454 57.6046 44.5604 57.7065 44.6837 57.7845L47.4782 59.6471V61.2495H44.1969ZM46.2171 67.812L45.4887 63.437H51.6552L50.9268 67.812H46.2171Z" stroke="black"/>
</svg>
